<svg width="488" height="172" viewBox="0 0 488 172" fill="none" xmlns="http://www.w3.org/2000/svg">
<rect x="0.5" y="0.5" width="487" height="171" rx="15.5" stroke="white"/>
<path d="M162.726 96V93.504H165.83L171.014 79.648H167.91V77.152H174.438L180.23 93.504H183.238V96H175.302V93.504H177.254L176.23 90.624H169.478L168.422 93.504H170.406V96H162.726ZM170.31 88.352H175.43L172.998 80.512L170.31 88.352ZM184.657 96V93.76H187.345V84.96L184.273 83.904L185.009 81.664L189.329 83.168C190.097 82.656 190.897 82.272 191.729 82.016C192.583 81.7387 193.468 81.6 194.385 81.6C195.495 81.6 196.476 81.8133 197.329 82.24C198.183 82.6667 198.855 83.296 199.345 84.128C199.836 84.96 200.081 85.9733 200.081 87.168V93.76H202.737V96H195.857V93.76H197.265V87.68C197.265 86.4 196.945 85.4613 196.305 84.864C195.687 84.2667 194.865 83.968 193.841 83.968C193.244 83.968 192.625 84.064 191.985 84.256C191.345 84.4267 190.737 84.6933 190.161 85.056V93.76H191.569V96H184.657ZM219.957 96.608L215.765 95.136C214.485 96.0533 213.088 96.512 211.573 96.512C209.312 96.512 207.552 95.8293 206.293 94.464C205.056 93.0987 204.437 91.2107 204.437 88.8C204.437 86.5387 205.056 84.7787 206.293 83.52C207.552 82.24 209.312 81.6 211.573 81.6C212.106 81.6 212.672 81.6533 213.269 81.76C213.866 81.8667 214.432 82.0267 214.965 82.24V78.368L211.893 77.312L212.661 75.04L217.781 76.768V93.248L220.693 94.272L219.957 96.608ZM211.605 94.208C212.117 94.208 212.672 94.112 213.269 93.92C213.888 93.728 214.453 93.472 214.965 93.152V84.64C214.517 84.4267 213.984 84.256 213.365 84.128C212.746 83.9787 212.16 83.904 211.605 83.904C210.325 83.904 209.29 84.352 208.501 85.248C207.712 86.1227 207.317 87.296 207.317 88.768C207.317 90.4107 207.712 91.7333 208.501 92.736C209.29 93.7173 210.325 94.208 211.605 94.208ZM230.689 96V93.76H233.377V84.928L230.305 83.904L231.041 81.664L235.361 83.136C235.979 82.6453 236.683 82.272 237.473 82.016C238.262 81.7387 239.03 81.6 239.777 81.6C240.801 81.6 241.697 81.7387 242.465 82.016C243.233 82.2933 243.851 82.72 244.321 83.296C244.875 82.8053 245.569 82.4 246.401 82.08C247.254 81.76 248.097 81.6 248.929 81.6C250.87 81.6 252.278 82.048 253.153 82.944C254.027 83.8187 254.465 85.248 254.465 87.232V93.76H257.185V96H250.273V93.76H251.649V87.648C251.649 86.304 251.425 85.3547 250.977 84.8C250.529 84.224 249.761 83.936 248.673 83.936C248.033 83.936 247.403 84.0427 246.785 84.256C246.166 84.448 245.686 84.704 245.345 85.024V93.76H246.721V96H241.121V93.76H242.529V87.648C242.529 86.304 242.294 85.3547 241.825 84.8C241.377 84.224 240.609 83.936 239.521 83.936C238.881 83.936 238.251 84.0427 237.633 84.256C237.014 84.448 236.534 84.704 236.193 85.024V93.76H237.601V96H230.689ZM265.979 81.6C267.451 81.6 268.721 81.8987 269.787 82.496C270.875 83.0933 271.718 83.9467 272.315 85.056C272.913 86.1653 273.211 87.5093 273.211 89.088C273.211 91.392 272.55 93.2053 271.227 94.528C269.926 95.8507 268.177 96.512 265.979 96.512C264.55 96.512 263.302 96.2133 262.235 95.616C261.169 95.0187 260.337 94.1653 259.739 93.056C259.163 91.9467 258.875 90.624 258.875 89.088C258.875 87.5093 259.163 86.1653 259.739 85.056C260.337 83.9467 261.169 83.0933 262.235 82.496C263.302 81.8987 264.55 81.6 265.979 81.6ZM266.011 83.904C264.582 83.904 263.505 84.352 262.779 85.248C262.075 86.144 261.723 87.424 261.723 89.088C261.723 90.7307 262.075 92 262.779 92.896C263.505 93.7707 264.582 94.208 266.011 94.208C267.462 94.208 268.55 93.7707 269.275 92.896C270.001 92 270.363 90.7307 270.363 89.088C270.363 87.424 270.001 86.144 269.275 85.248C268.55 84.352 267.462 83.904 266.011 83.904ZM280.019 83.2C280.787 82.6667 281.619 82.272 282.515 82.016C283.411 81.7387 284.307 81.6 285.203 81.6C285.971 81.6 286.472 81.664 286.707 81.792L287.251 85.312L284.915 85.792L284.595 84.032C283.912 84.0533 283.24 84.16 282.579 84.352C281.918 84.544 281.32 84.8107 280.787 85.152L280.755 93.76H283.891V96H275.283V93.76H277.971V84.992L274.899 83.936L275.635 81.696L280.019 83.2ZM301.997 94.336C301.122 95.0827 300.215 95.6373 299.277 96C298.359 96.3413 297.346 96.512 296.237 96.512C294.722 96.512 293.389 96.2133 292.237 95.616C291.106 94.9973 290.231 94.1333 289.613 93.024C288.994 91.9147 288.685 90.592 288.685 89.056C288.685 87.5627 288.973 86.2613 289.549 85.152C290.146 84.0213 290.978 83.1467 292.045 82.528C293.133 81.9093 294.381 81.6 295.789 81.6C297.133 81.6 298.285 81.888 299.245 82.464C300.205 83.0187 300.951 83.808 301.485 84.832C302.018 85.8347 302.285 87.0293 302.285 88.416C302.285 88.6293 302.274 88.8533 302.253 89.088C302.231 89.3227 302.21 89.5573 302.189 89.792L291.437 89.856C291.501 90.8587 291.757 91.6907 292.205 92.352C292.653 92.992 293.229 93.4613 293.933 93.76C294.637 94.0587 295.383 94.208 296.173 94.208C297.09 94.208 297.933 94.08 298.701 93.824C299.469 93.5467 300.173 93.152 300.813 92.64L301.997 94.336ZM299.501 87.712C299.479 86.5387 299.138 85.6 298.477 84.896C297.815 84.1707 296.93 83.808 295.821 83.808C294.733 83.808 293.773 84.1707 292.941 84.896C292.109 85.6 291.618 86.5387 291.469 87.712H299.501ZM307.118 92.224C307.694 92.224 308.195 92.4373 308.622 92.864C309.048 93.2907 309.262 93.8027 309.262 94.4C309.262 94.9547 309.048 95.4453 308.622 95.872C308.195 96.2987 307.694 96.512 307.118 96.512C306.542 96.512 306.04 96.2987 305.614 95.872C305.187 95.4453 304.974 94.9547 304.974 94.4C304.974 93.8027 305.187 93.2907 305.614 92.864C306.04 92.4373 306.542 92.224 307.118 92.224ZM314.493 92.224C315.069 92.224 315.57 92.4373 315.997 92.864C316.423 93.2907 316.637 93.8027 316.637 94.4C316.637 94.9547 316.423 95.4453 315.997 95.872C315.57 96.2987 315.069 96.512 314.493 96.512C313.917 96.512 313.415 96.2987 312.989 95.872C312.562 95.4453 312.349 94.9547 312.349 94.4C312.349 93.8027 312.562 93.2907 312.989 92.864C313.415 92.4373 313.917 92.224 314.493 92.224ZM321.868 92.224C322.444 92.224 322.945 92.4373 323.372 92.864C323.798 93.2907 324.012 93.8027 324.012 94.4C324.012 94.9547 323.798 95.4453 323.372 95.872C322.945 96.2987 322.444 96.512 321.868 96.512C321.292 96.512 320.79 96.2987 320.364 95.872C319.937 95.4453 319.724 94.9547 319.724 94.4C319.724 93.8027 319.937 93.2907 320.364 92.864C320.79 92.4373 321.292 92.224 321.868 92.224Z" fill="#8C52FF"/>
</svg>
