<svg width="46" height="17" viewBox="0 0 46 17" fill="none" xmlns="http://www.w3.org/2000/svg">
<path d="M0.817227 16L6.49323 0.599999H8.45123L14.1052 16H12.1472L10.7392 12.04H4.18323L2.75323 16H0.817227ZM4.73323 10.544H10.1892L7.46123 2.932L4.73323 10.544ZM19.6728 16C18.6754 16 17.8908 15.758 17.3188 15.274C16.7468 14.79 16.4608 13.9173 16.4608 12.656V6.65H14.5688V5.088H16.4608L16.7028 2.47H18.3088V5.088H21.5208V6.65H18.3088V12.656C18.3088 13.3453 18.4481 13.8147 18.7268 14.064C19.0054 14.2987 19.4968 14.416 20.2008 14.416H21.3448V16H19.6728ZM27.4986 16.264C26.5893 16.264 25.8339 16.11 25.2326 15.802C24.6313 15.494 24.1839 15.0833 23.8906 14.57C23.5973 14.0567 23.4506 13.4993 23.4506 12.898C23.4506 11.7833 23.8759 10.9253 24.7266 10.324C25.5773 9.72267 26.7359 9.422 28.2026 9.422H31.1506V9.29C31.1506 8.33667 30.9013 7.618 30.4026 7.134C29.9039 6.63533 29.2366 6.386 28.4006 6.386C27.6819 6.386 27.0586 6.56933 26.5306 6.936C26.0173 7.288 25.6946 7.80867 25.5626 8.498H23.6706C23.7439 7.706 24.0079 7.03867 24.4626 6.496C24.9319 5.95333 25.5113 5.54267 26.2006 5.264C26.8899 4.97067 27.6233 4.824 28.4006 4.824C29.9259 4.824 31.0699 5.23467 31.8326 6.056C32.6099 6.86267 32.9986 7.94067 32.9986 9.29V16H31.3486L31.2386 14.042C30.9306 14.658 30.4759 15.186 29.8746 15.626C29.2879 16.0513 28.4959 16.264 27.4986 16.264ZM27.7846 14.702C28.4886 14.702 29.0899 14.5187 29.5886 14.152C30.1019 13.7853 30.4906 13.3087 30.7546 12.722C31.0186 12.1353 31.1506 11.5193 31.1506 10.874V10.852H28.3566C27.2713 10.852 26.5013 11.0427 26.0466 11.424C25.6066 11.7907 25.3866 12.2527 25.3866 12.81C25.3866 13.382 25.5919 13.844 26.0026 14.196C26.4279 14.5333 27.0219 14.702 27.7846 14.702ZM39.7529 16.264C38.4623 16.264 37.4356 15.8753 36.6729 15.098C35.9103 14.306 35.5289 13.096 35.5289 11.468V5.088H37.3769V11.27C37.3769 13.5433 38.3083 14.68 40.1709 14.68C41.1243 14.68 41.9089 14.3427 42.5249 13.668C43.1556 12.9787 43.4709 12.0033 43.4709 10.742V5.088H45.3189V16H43.6469L43.5149 14.042C43.1776 14.7313 42.6716 15.274 41.9969 15.67C41.3369 16.066 40.5889 16.264 39.7529 16.264Z" fill="black"/>
</svg>
