<svg width="667" height="72" viewBox="0 0 667 72" fill="none" xmlns="http://www.w3.org/2000/svg">
<g filter="url(#filter0_d_1_2164)">
<path d="M4.73358 16.9757C4.8878 8.1405 12.1752 1.10317 21.0104 1.25739L649.915 12.235C658.75 12.3892 665.787 19.6765 665.633 28.5118L665.266 49.5086C665.112 58.3438 657.825 65.3811 648.99 65.2269L20.0854 54.2493C11.2502 54.0951 4.21286 46.8077 4.36708 37.9725L4.73358 16.9757Z" fill="#FFCC32" shape-rendering="crispEdges"/>
<path d="M649.923 11.735C659.035 11.8941 666.292 19.4092 666.133 28.5205L665.766 49.5173C665.607 58.6286 658.092 65.8858 648.981 65.7268L20.0767 54.7492C10.9654 54.5902 3.70812 47.0751 3.86715 37.9638L4.23366 16.967C4.39269 7.85568 11.9078 0.598426 21.0191 0.757464L649.923 11.735Z" stroke="#282828" shape-rendering="crispEdges"/>
<path d="M21.9416 34.2787L22.1859 20.2808L27.1051 20.3667C28.0917 20.3839 28.9021 20.5581 29.5364 20.8892C30.1843 21.2072 30.6634 21.6423 30.9738 22.1945C31.2845 22.7333 31.434 23.336 31.4223 24.0026C31.4065 24.9091 31.1474 25.618 30.6451 26.1293C30.1561 26.6409 29.5699 26.9907 28.8865 27.1788C29.4048 27.2812 29.8745 27.4961 30.2955 27.8235C30.7165 28.1509 31.0428 28.5566 31.2744 29.0407C31.5193 29.5251 31.6368 30.0539 31.6268 30.6271C31.6144 31.3337 31.4298 31.9772 31.073 32.5578C30.7164 33.125 30.1951 33.5759 29.5091 33.9107C28.8234 34.2321 27.994 34.3843 27.0208 34.3673L21.9416 34.2787ZM23.7588 26.4292L26.8783 26.4836C27.7715 26.4992 28.4617 26.3046 28.9489 25.8997C29.4362 25.4815 29.6864 24.8991 29.6995 24.1525C29.7118 23.446 29.4817 22.8752 29.0092 22.4402C28.5501 22.0055 27.8473 21.7798 26.9007 21.7633L23.8412 21.7099L23.7588 26.4292ZM23.6457 32.9082L26.8652 32.9644C27.8251 32.9811 28.5688 32.7741 29.0964 32.3432C29.6243 31.899 29.8952 31.277 29.9091 30.4771C29.9228 29.6906 29.6605 29.0592 29.1221 28.5831C28.5838 28.0936 27.8481 27.8408 26.915 27.8245L23.7354 27.769L23.6457 32.9082ZM38.3261 34.8047C37.3796 34.7882 36.5434 34.5602 35.8177 34.1208C35.0921 33.6681 34.5228 33.0514 34.1097 32.2707C33.7099 31.4903 33.5192 30.5735 33.5376 29.5203C33.5558 28.4805 33.7782 27.5776 34.205 26.8116C34.632 26.0322 35.2158 25.4357 35.9565 25.0218C36.7107 24.5949 37.5744 24.39 38.5476 24.407C39.5075 24.4237 40.3302 24.6581 41.0157 25.1102C41.7148 25.5491 42.2449 26.1251 42.6058 26.8382C42.9668 27.5512 43.1401 28.3144 43.1259 29.1276C43.1234 29.2742 43.1141 29.4208 43.0983 29.5672C43.0957 29.7138 43.0928 29.8805 43.0895 30.0671L35.1907 29.9292C35.2175 30.6898 35.3797 31.3261 35.6775 31.838C35.9888 32.3369 36.3756 32.717 36.8378 32.9784C37.3133 33.2401 37.8177 33.3756 38.3509 33.3849C39.0441 33.397 39.6268 33.2472 40.099 32.9354C40.5712 32.6235 40.9187 32.1962 41.1415 31.6533L42.8013 31.6823C42.5186 32.5975 41.992 33.3551 41.2214 33.9551C40.4644 34.542 39.4993 34.8252 38.3261 34.8047ZM38.4828 25.8261C37.683 25.8121 36.9654 26.0463 36.3303 26.5286C35.7086 26.9978 35.343 27.6982 35.2334 28.6298L41.4725 28.7387C41.4481 27.8448 41.1537 27.1395 40.5893 26.6229C40.0249 26.1063 39.3227 25.8407 38.4828 25.8261ZM50.551 35.0181C49.7378 35.0039 49.0141 34.8246 48.38 34.4801C47.7593 34.1359 47.2875 33.6609 46.9647 33.0552L46.7757 34.7121L45.256 34.6856L45.5073 20.2878L47.187 20.3171L47.0802 26.4362C47.4086 25.9619 47.8694 25.5365 48.4627 25.1601C49.0694 24.784 49.8326 24.604 50.7525 24.62C51.739 24.6372 52.5949 24.8789 53.3202 25.3449C54.0455 25.811 54.6013 26.4408 54.9875 27.2343C55.387 28.0281 55.5781 28.9249 55.5606 29.9247C55.5432 30.9246 55.321 31.8142 54.894 32.5935C54.4805 33.3597 53.8966 33.963 53.1421 34.4032C52.4012 34.8303 51.5375 35.0353 50.551 35.0181ZM50.3965 33.5552C51.0631 33.5668 51.6523 33.4237 52.1642 33.1259C52.6764 32.8148 53.084 32.3819 53.3871 31.8271C53.6902 31.2723 53.8482 30.6216 53.8612 29.8751C53.8743 29.1285 53.739 28.4727 53.4555 27.9077C53.172 27.3427 52.7796 26.9024 52.2784 26.5869C51.7774 26.2581 51.1936 26.0879 50.527 26.0763C49.8605 26.0647 49.2711 26.2144 48.7589 26.5255C48.247 26.8233 47.8395 27.2496 47.5364 27.8044C47.2334 28.3592 47.0753 29.0098 47.0623 29.7564C47.0492 30.5029 47.1845 31.1587 47.468 31.7238C47.7515 32.2888 48.1438 32.7357 48.6448 33.0645C49.146 33.38 49.7299 33.5435 50.3965 33.5552ZM61.108 35.2024C60.2814 35.1879 59.5973 35.036 59.0556 34.7465C58.5139 34.457 58.1138 34.0766 57.8553 33.6053C57.5969 33.1341 57.4724 32.6252 57.4819 32.0786C57.4996 31.0654 57.8998 30.2923 58.6826 29.7592C59.4653 29.2261 60.5233 28.9712 61.8564 28.9945L64.536 29.0412L64.5381 28.9213C64.5532 28.0547 64.338 27.3975 63.8924 26.9497C63.4471 26.4885 62.8444 26.2513 62.0846 26.238C61.4313 26.2266 60.8618 26.3834 60.3761 26.7083C59.9039 27.0201 59.6024 27.4882 59.4714 28.1127L57.7517 28.0827C57.8309 27.364 58.0815 26.7616 58.5034 26.2755C58.9386 25.7897 59.4717 25.4256 60.1027 25.1833C60.7339 24.9276 61.4028 24.8059 62.1093 24.8182C63.4958 24.8424 64.5291 25.2339 65.2093 25.9925C65.9031 26.7381 66.2393 27.7241 66.2178 28.9506L66.1114 35.0497L64.6116 35.0235L64.5427 33.242C64.253 33.797 63.8313 34.2697 63.2778 34.6601C62.7378 35.0374 62.0145 35.2182 61.108 35.2024ZM61.3927 33.7871C62.0326 33.7983 62.5821 33.6412 63.0412 33.3158C63.5136 32.9907 63.8744 32.5636 64.1237 32.0345C64.373 31.5054 64.5027 30.9476 64.513 30.361L64.5133 30.341L61.9737 30.2967C60.9872 30.2795 60.2843 30.4406 59.865 30.78C59.4592 31.1063 59.2519 31.5227 59.2431 32.0293C59.234 32.5492 59.4133 32.9724 59.781 33.2989C60.1622 33.6123 60.6995 33.775 61.3927 33.7871ZM72.4266 35.3999C71.2401 35.3792 70.2588 35.062 69.4827 34.4484C68.7066 33.8348 68.2609 33.0135 68.1455 31.9847L69.8652 32.0147C69.9628 32.5365 70.2282 32.9945 70.6614 33.3888C71.1081 33.77 71.7114 33.9672 72.4713 33.9805C73.1779 33.9928 73.7004 33.8552 74.0388 33.5678C74.3774 33.267 74.5503 32.9099 74.5575 32.4967C74.568 31.8968 74.355 31.493 73.9186 31.2853C73.4955 31.0779 72.892 30.8874 72.1083 30.7137C71.5769 30.5977 71.0463 30.4351 70.5166 30.2258C69.9868 30.0165 69.5451 29.7288 69.1914 29.3625C68.838 28.983 68.6665 28.4932 68.677 27.8933C68.6921 27.0268 69.0244 26.3258 69.6738 25.7904C70.3368 25.2419 71.2216 24.9773 72.3281 24.9966C73.3813 25.015 74.2365 25.2966 74.8937 25.8415C75.5646 26.3733 75.9448 27.1267 76.0345 28.1018L74.3747 28.0728C74.3169 27.565 74.1038 27.1679 73.7354 26.8815C73.3806 26.5819 72.8966 26.4268 72.2833 26.4161C71.6834 26.4056 71.2146 26.5241 70.8769 26.7716C70.5525 27.0193 70.3867 27.3498 70.3795 27.763C70.3725 28.163 70.5737 28.4799 70.983 28.7137C71.4057 28.9478 71.9755 29.1511 72.6926 29.3236C73.3036 29.4677 73.8806 29.6444 74.4236 29.8539C74.9803 30.0503 75.4286 30.3449 75.7684 30.7375C76.1219 31.1171 76.2923 31.6668 76.2797 32.3867C76.2775 33.2801 75.9246 34.0141 75.2211 34.5886C74.5312 35.1499 73.5997 35.4204 72.4266 35.3999ZM89.217 35.693C88.4038 35.6788 87.6801 35.4995 87.046 35.155C86.4253 34.8108 85.9535 34.3358 85.6307 33.7301L85.4417 35.3871L83.922 35.3605L84.1733 20.9627L85.853 20.992L85.7462 27.1111C86.0745 26.6368 86.5354 26.2114 87.1287 25.835C87.7353 25.4589 88.4986 25.2789 89.4185 25.2949C90.405 25.3121 91.2609 25.5538 91.9862 26.0199C92.7115 26.4859 93.2673 27.1157 93.6535 27.9092C94.053 28.703 94.2441 29.5998 94.2266 30.5997C94.2092 31.5995 93.9869 32.4891 93.5599 33.2684C93.1465 34.0347 92.5626 34.6379 91.8081 35.0781C91.0672 35.5053 90.2035 35.7102 89.217 35.693ZM89.0625 34.2301C89.729 34.2417 90.3183 34.0986 90.8302 33.8009C91.3424 33.4898 91.75 33.0568 92.0531 32.502C92.3561 31.9472 92.5142 31.2965 92.5272 30.55C92.5403 29.8034 92.405 29.1476 92.1215 28.5826C91.838 28.0176 91.4456 27.5773 90.9444 27.2619C90.4434 26.9331 89.8596 26.7629 89.193 26.7512C88.5264 26.7396 87.9371 26.8893 87.4249 27.2004C86.913 27.4982 86.5055 27.9245 86.2024 28.4793C85.8993 29.0341 85.7413 29.6848 85.7283 30.4313C85.7152 31.1779 85.8505 31.8337 86.134 32.3987C86.4175 32.9637 86.8098 33.4106 87.3108 33.7394C87.812 34.0549 88.3959 34.2184 89.0625 34.2301ZM97.71 23.4794C97.3767 23.4735 97.0986 23.362 96.8757 23.1447C96.6664 22.9144 96.5646 22.6326 96.5704 22.2993C96.576 21.9793 96.6873 21.7146 96.9043 21.505C97.1347 21.2957 97.4165 21.1939 97.7498 21.1997C98.0698 21.2053 98.3412 21.3167 98.5641 21.534C98.787 21.7512 98.8957 22.0198 98.8901 22.3398C98.8843 22.6731 98.7661 22.951 98.5355 23.1737C98.3051 23.3831 98.03 23.4849 97.71 23.4794ZM96.6586 35.5829L96.8317 25.6644L98.5115 25.6937L98.3384 35.6122L96.6586 35.5829ZM104.558 35.9608C103.732 35.9464 103.048 35.7944 102.506 35.5049C101.964 35.2154 101.564 34.835 101.306 34.3638C101.047 33.8925 100.923 33.3836 100.932 32.837C100.95 31.8238 101.35 31.0507 102.133 30.5176C102.916 29.9845 103.974 29.7296 105.307 29.7529L107.986 29.7997L107.989 29.6797C108.004 28.8132 107.788 28.156 107.343 27.7081C106.897 27.2469 106.295 27.0097 105.535 26.9965C104.882 26.9851 104.312 27.1418 103.827 27.4667C103.354 27.7785 103.053 28.2467 102.922 28.8711L101.202 28.8411C101.281 28.1224 101.532 27.52 101.954 27.034C102.389 26.5482 102.922 26.1841 103.553 25.9417C104.184 25.686 104.853 25.5643 105.56 25.5767C106.946 25.6009 107.98 25.9923 108.66 26.751C109.353 27.4965 109.69 28.4825 109.668 29.709L109.562 35.8081L108.062 35.7819L107.993 34.0004C107.703 34.5555 107.282 35.0282 106.728 35.4186C106.188 35.7959 105.465 35.9766 104.558 35.9608ZM104.843 34.5455C105.483 34.5567 106.033 34.3996 106.492 34.0742C106.964 33.7491 107.325 33.322 107.574 32.7929C107.823 32.2639 107.953 31.706 107.963 31.1195L107.964 31.0995L105.424 31.0551C104.438 31.0379 103.735 31.199 103.315 31.5384C102.91 31.8647 102.702 32.2812 102.693 32.7878C102.684 33.3077 102.864 33.7309 103.231 34.0573C103.613 34.3707 104.15 34.5334 104.843 34.5455ZM112.792 40.2651L115.345 34.9489L114.765 34.9388L110.982 25.9114L112.802 25.9431L115.947 33.7192L119.561 26.0611L121.301 26.0915L114.552 40.2958L112.792 40.2651ZM125.571 36.3276C124.744 36.3131 124.06 36.1612 123.518 35.8717C122.977 35.5822 122.577 35.2018 122.318 34.7305C122.06 34.2593 121.935 33.7504 121.945 33.2038C121.962 32.1906 122.363 31.4175 123.145 30.8844C123.928 30.3513 124.986 30.0964 126.319 30.1197L128.999 30.1664L129.001 30.0465C129.016 29.1799 128.801 28.5227 128.355 28.0749C127.91 27.6137 127.307 27.3765 126.547 27.3632C125.894 27.3518 125.325 27.5086 124.839 27.8335C124.367 28.1453 124.065 28.6134 123.934 29.2379L122.215 29.2079C122.294 28.4892 122.544 27.8868 122.966 27.4007C123.401 26.9149 123.935 26.5508 124.566 26.3085C125.197 26.0528 125.866 25.9311 126.572 25.9434C127.959 25.9677 128.992 26.3591 129.672 27.1177C130.366 27.8633 130.702 28.8493 130.681 30.0758L130.574 36.1749L129.074 36.1487L129.006 34.3672C128.716 34.9222 128.294 35.3949 127.741 35.7853C127.201 36.1626 126.477 36.3434 125.571 36.3276ZM125.856 34.9123C126.495 34.9235 127.045 34.7664 127.504 34.441C127.976 34.1159 128.337 33.6888 128.587 33.1597C128.836 32.6306 128.966 32.0728 128.976 31.4862L128.976 31.4662L126.437 31.4219C125.45 31.4047 124.747 31.5658 124.328 31.9052C123.922 32.2315 123.715 32.6479 123.706 33.1545C123.697 33.6744 123.876 34.0976 124.244 34.4241C124.625 34.7375 125.162 34.9002 125.856 34.9123ZM138.386 36.3112L138.559 26.3927L140.079 26.4193L140.186 28.3214C140.504 27.6735 140.98 27.1617 141.613 26.7861C142.246 26.4104 143.023 26.2306 143.943 26.2467L143.912 28.0064L143.452 27.9984C142.866 27.9881 142.324 28.0853 141.827 28.29C141.33 28.4814 140.931 28.8211 140.629 29.3093C140.327 29.7974 140.168 30.4748 140.153 31.3413L140.066 36.3405L138.386 36.3112ZM149.735 36.7493C148.788 36.7328 147.952 36.5049 147.226 36.0655C146.501 35.6127 145.932 34.996 145.519 34.2154C145.119 33.4349 144.928 32.5181 144.946 31.465C144.965 30.4251 145.187 29.5222 145.614 28.7562C146.041 27.9769 146.625 27.3803 147.365 26.9665C148.12 26.5396 148.983 26.3346 149.956 26.3516C150.916 26.3684 151.739 26.6028 152.425 27.0548C153.124 27.4937 153.654 28.0697 154.015 28.7828C154.376 29.4959 154.549 30.259 154.535 31.0722C154.532 31.2189 154.523 31.3654 154.507 31.5118C154.505 31.6585 154.502 31.8251 154.498 32.0118L146.6 31.8739C146.626 32.6345 146.789 33.2707 147.086 33.7827C147.398 34.2815 147.784 34.6616 148.247 34.9231C148.722 35.1848 149.226 35.3202 149.76 35.3296C150.453 35.3417 151.036 35.1918 151.508 34.88C151.98 34.5682 152.328 34.1409 152.55 33.598L154.21 33.627C153.927 34.5422 153.401 35.2998 152.63 35.8997C151.873 36.4866 150.908 36.7698 149.735 36.7493ZM149.892 27.7707C149.092 27.7567 148.374 27.9909 147.739 28.4732C147.117 28.9425 146.752 29.6429 146.642 30.5744L152.881 30.6833C152.857 29.7894 152.562 29.0842 151.998 28.5676C151.434 28.051 150.732 27.7854 149.892 27.7707ZM160.58 33.5781C160.02 33.5684 159.508 33.4861 159.044 33.3313L158.028 34.2537C158.173 34.3629 158.351 34.4594 158.563 34.5431C158.788 34.6137 159.107 34.6859 159.519 34.7598C159.932 34.8203 160.51 34.8905 161.256 34.9701C162.587 35.0867 163.535 35.41 164.099 35.9399C164.664 36.4698 164.938 37.1547 164.924 37.9946C164.914 38.5679 164.744 39.1116 164.415 39.626C164.099 40.1406 163.612 40.5588 162.953 40.8807C162.307 41.2028 161.478 41.355 160.465 41.3373C159.571 41.3217 158.78 41.1879 158.091 40.9358C157.402 40.6971 156.868 40.3344 156.49 39.8477C156.112 39.3744 155.929 38.7777 155.941 38.0579C155.948 37.6846 156.055 37.2797 156.262 36.8433C156.47 36.4202 156.85 36.0201 157.404 35.643C157.112 35.5179 156.861 35.3868 156.65 35.2498C156.453 35.0997 156.269 34.9364 156.099 34.7601L156.107 34.3002L157.836 32.6501C157.061 31.9698 156.683 31.0831 156.702 29.9899C156.713 29.3367 156.877 28.7461 157.193 28.2182C157.509 27.6903 157.963 27.2782 158.555 26.9818C159.147 26.6721 159.863 26.5245 160.703 26.5392C161.276 26.5492 161.795 26.6383 162.258 26.8064L165.918 26.8703L165.896 28.1301L164.035 28.1776C164.412 28.7443 164.594 29.3942 164.581 30.1274C164.569 30.7807 164.399 31.3711 164.07 31.8988C163.754 32.4267 163.3 32.8455 162.708 33.1552C162.129 33.4518 161.42 33.5928 160.58 33.5781ZM160.604 32.1983C161.311 32.2107 161.874 32.0405 162.293 31.6877C162.726 31.3219 162.949 30.7924 162.961 30.0992C162.973 29.4193 162.769 28.8956 162.348 28.5282C161.942 28.1477 161.385 27.9513 160.678 27.939C159.959 27.9264 159.382 28.1031 158.949 28.4689C158.529 28.8216 158.314 29.3379 158.302 30.0178C158.29 30.7111 158.487 31.2479 158.894 31.6284C159.314 31.9958 159.884 32.1858 160.604 32.1983ZM157.584 37.9265C157.572 38.5931 157.843 39.0912 158.398 39.4209C158.952 39.764 159.649 39.9428 160.489 39.9575C161.315 39.9719 161.978 39.8035 162.478 39.4521C162.991 39.101 163.252 38.6255 163.263 38.0256C163.27 37.599 163.103 37.2227 162.762 36.8967C162.421 36.5841 161.784 36.3929 160.852 36.3233C160.12 36.2572 159.488 36.1795 158.956 36.0902C158.404 36.3739 158.039 36.6809 157.86 37.0112C157.68 37.3548 157.588 37.6599 157.584 37.9265ZM168.871 24.7215C168.538 24.7157 168.26 24.6041 168.037 24.3869C167.827 24.1565 167.726 23.8747 167.731 23.5414C167.737 23.2215 167.848 22.9567 168.065 22.7471C168.296 22.5378 168.578 22.436 168.911 22.4418C169.231 22.4474 169.502 22.5588 169.725 22.7761C169.948 22.9933 170.057 23.262 170.051 23.5819C170.045 23.9152 169.927 24.1932 169.697 24.4158C169.466 24.6252 169.191 24.7271 168.871 24.7215ZM167.82 36.825L167.993 26.9065L169.673 26.9358L169.499 36.8543L167.82 36.825ZM176.219 37.2116C175.033 37.1909 174.052 36.8737 173.275 36.2601C172.499 35.6465 172.054 34.8252 171.938 33.7964L173.658 33.8264C173.756 34.3482 174.021 34.8062 174.454 35.2005C174.901 35.5817 175.504 35.7789 176.264 35.7922C176.971 35.8045 177.493 35.667 177.832 35.3795C178.17 35.0787 178.343 34.7216 178.35 34.3084C178.361 33.7085 178.148 33.3047 177.711 33.097C177.288 32.8896 176.685 32.6991 175.901 32.5254C175.37 32.4094 174.839 32.2468 174.309 32.0375C173.78 31.8282 173.338 31.5405 172.984 31.1742C172.631 30.7947 172.459 30.305 172.47 29.705C172.485 28.8385 172.817 28.1375 173.467 27.6021C174.13 27.0536 175.014 26.789 176.121 26.8083C177.174 26.8267 178.029 27.1083 178.687 27.6532C179.357 28.185 179.738 28.9384 179.827 29.9135L178.168 29.8845C178.11 29.3768 177.897 28.9796 177.528 28.6932C177.173 28.3936 176.689 28.2385 176.076 28.2278C175.476 28.2173 175.007 28.3358 174.67 28.5833C174.345 28.831 174.18 29.1615 174.172 29.5747C174.165 29.9747 174.366 30.2916 174.776 30.5254C175.198 30.7595 175.768 30.9628 176.485 31.1353C177.096 31.2794 177.673 31.4561 178.216 31.6656C178.773 31.862 179.221 32.1566 179.561 32.5492C179.915 32.9288 180.085 33.4785 180.073 34.1984C180.07 35.0918 179.717 35.8258 179.014 36.4003C178.324 36.9617 177.392 37.2321 176.219 37.2116ZM185.893 37.1404C184.986 37.1246 184.277 36.8922 183.765 36.4432C183.252 35.9942 183.006 35.1964 183.026 34.0499L183.122 28.5908L181.402 28.5608L181.427 27.141L183.146 27.171L183.408 24.7952L184.868 24.8207L184.826 27.2003L187.746 27.2513L187.721 28.6711L184.801 28.6201L184.706 34.0793C184.695 34.7058 184.814 35.1346 185.064 35.3657C185.313 35.5834 185.758 35.6979 186.398 35.709L187.438 35.7272L187.413 37.167L185.893 37.1404ZM189.707 37.207L189.88 27.2885L191.4 27.3151L191.506 29.2172C191.824 28.5693 192.3 28.0575 192.933 27.6819C193.567 27.3062 194.343 27.1264 195.263 27.1425L195.232 28.9022L194.772 28.8942C194.186 28.8839 193.644 28.9811 193.147 29.1858C192.65 29.3772 192.251 29.7169 191.949 30.2051C191.647 30.6932 191.489 31.3706 191.474 32.2371L191.386 37.2363L189.707 37.207ZM200.266 37.6314C199.44 37.6169 198.756 37.465 198.214 37.1755C197.672 36.886 197.272 36.5056 197.014 36.0344C196.755 35.5631 196.631 35.0542 196.64 34.5076C196.658 33.4944 197.058 32.7213 197.841 32.1882C198.624 31.6551 199.682 31.4002 201.015 31.4235L203.695 31.4703L203.697 31.3503C203.712 30.4837 203.496 29.8266 203.051 29.3787C202.606 28.9175 202.003 28.6803 201.243 28.6671C200.59 28.6556 200.02 28.8124 199.535 29.1373C199.062 29.4491 198.761 29.9173 198.63 30.5417L196.91 30.5117C196.989 29.793 197.24 29.1906 197.662 28.7046C198.097 28.2187 198.63 27.8547 199.261 27.6123C199.892 27.3566 200.561 27.2349 201.268 27.2473C202.654 27.2715 203.688 27.6629 204.368 28.4215C205.062 29.1671 205.398 30.1531 205.376 31.3796L205.27 37.4787L203.77 37.4525L203.701 35.671C203.411 36.226 202.99 36.6988 202.436 37.0892C201.896 37.4665 201.173 37.6472 200.266 37.6314ZM200.551 36.2161C201.191 36.2273 201.741 36.0702 202.2 35.7448C202.672 35.4197 203.033 34.9926 203.282 34.4635C203.531 33.9345 203.661 33.3766 203.671 32.7901L203.672 32.7701L201.132 32.7257C200.146 32.7085 199.443 32.8696 199.023 33.209C198.618 33.5353 198.41 33.9518 198.402 34.4583C198.392 34.9783 198.572 35.4015 198.939 35.7279C199.321 36.0413 199.858 36.204 200.551 36.2161ZM211.585 37.8289C210.399 37.8082 209.417 37.4911 208.641 36.8774C207.865 36.2638 207.419 35.4425 207.304 34.4137L209.024 34.4437C209.121 34.9655 209.387 35.4235 209.82 35.8178C210.267 36.199 210.87 36.3962 211.63 36.4095C212.336 36.4218 212.859 36.2843 213.197 35.9968C213.536 35.696 213.709 35.339 213.716 34.9257C213.727 34.3258 213.514 33.922 213.077 33.7144C212.654 33.5069 212.051 33.3164 211.267 33.1427C210.735 33.0267 210.205 32.8641 209.675 32.6548C209.145 32.4455 208.704 32.1578 208.35 31.7916C207.996 31.412 207.825 30.9223 207.835 30.3224C207.851 29.4558 208.183 28.7548 208.832 28.2194C209.495 27.6709 210.38 27.4063 211.487 27.4256C212.54 27.444 213.395 27.7257 214.052 28.2705C214.723 28.8023 215.103 29.5557 215.193 30.5308L213.533 30.5018C213.475 29.9941 213.262 29.597 212.894 29.3105C212.539 29.0109 212.055 28.8558 211.442 28.8451C210.842 28.8346 210.373 28.9531 210.035 29.2006C209.711 29.4483 209.545 29.7788 209.538 30.192C209.531 30.592 209.732 30.9089 210.142 31.1427C210.564 31.3768 211.134 31.5801 211.851 31.7527C212.462 31.8967 213.039 32.0734 213.582 32.2829C214.139 32.4794 214.587 32.7739 214.927 33.1666C215.28 33.5461 215.451 34.0958 215.438 34.8157C215.436 35.7092 215.083 36.4431 214.38 37.0176C213.69 37.579 212.758 37.8494 211.585 37.8289ZM219.02 25.5968C218.686 25.591 218.408 25.4795 218.185 25.2622C217.976 25.0319 217.874 24.75 217.88 24.4168C217.886 24.0968 217.997 23.832 218.214 23.6225C218.444 23.4131 218.726 23.3114 219.059 23.3172C219.379 23.3228 219.651 23.4342 219.874 23.6514C220.097 23.8687 220.205 24.1373 220.2 24.4572C220.194 24.7905 220.076 25.0685 219.845 25.2912C219.615 25.5005 219.34 25.6024 219.02 25.5968ZM217.968 37.7003L218.141 27.7818L219.821 27.8112L219.648 37.7296L217.968 37.7003ZM232.1 38.187C231.14 38.1703 230.297 37.9822 229.57 37.6228C228.856 37.2503 228.298 36.7471 227.896 36.1133C227.507 35.4665 227.32 34.7097 227.335 33.8432C227.352 32.8967 227.64 32.0616 228.199 31.3379C228.772 30.6011 229.589 30.0286 230.649 29.6204C230.205 29.1192 229.886 28.6469 229.694 28.2035C229.502 27.7468 229.41 27.2584 229.419 26.7385C229.435 25.8453 229.761 25.1176 230.398 24.5552C231.048 23.9798 231.926 23.7018 233.033 23.7211C233.753 23.7337 234.377 23.8846 234.905 24.1738C235.434 24.4498 235.84 24.8303 236.125 25.3153C236.41 25.8004 236.534 26.3493 236.497 26.9621L234.837 26.9331C234.861 26.3334 234.682 25.8769 234.301 25.5635C233.933 25.2504 233.502 25.0895 233.009 25.0809C232.409 25.0704 231.94 25.2223 231.601 25.5364C231.262 25.8505 231.088 26.2542 231.08 26.7475C231.072 27.1741 231.178 27.5893 231.398 27.9932C231.631 28.3973 231.976 28.8501 232.434 29.3515L236.776 33.888C237.172 33.3348 237.604 32.6689 238.071 31.8903L238.71 30.8213L240.489 30.8523L239.582 32.3967C238.977 33.4397 238.402 34.3098 237.856 35.007L240.823 38.0993L238.703 38.0623L236.876 36.1501C236.156 36.8976 235.414 37.4314 234.648 37.7514C233.883 38.0581 233.033 38.2033 232.1 38.187ZM229.016 33.8125C229.001 34.6391 229.283 35.3308 229.86 35.8876C230.437 36.4444 231.199 36.7311 232.145 36.7476C232.852 36.7599 233.494 36.6378 234.072 36.3812C234.663 36.1114 235.244 35.6682 235.815 35.0514L231.651 30.678C230.765 31.0093 230.104 31.4378 229.668 31.9636C229.246 32.4897 229.028 33.106 229.016 33.8125ZM253.098 38.5536C252.285 38.5394 251.561 38.36 250.927 38.0156C250.307 37.6714 249.835 37.1964 249.512 36.5907L249.323 38.2476L247.803 38.2211L248.055 23.8233L249.734 23.8526L249.627 29.9717C249.956 29.4973 250.417 29.072 251.01 28.6956C251.617 28.3195 252.38 28.1394 253.3 28.1555C254.286 28.1727 255.142 28.4143 255.867 28.8804C256.593 29.3465 257.149 29.9763 257.535 30.7698C257.934 31.5636 258.125 32.4604 258.108 33.4602C258.09 34.4601 257.868 35.3496 257.441 36.129C257.028 36.8952 256.444 37.4984 255.689 37.9387C254.948 38.3658 254.085 38.5708 253.098 38.5536ZM252.944 37.0906C253.61 37.1023 254.2 36.9592 254.712 36.6614C255.224 36.3503 255.631 35.9174 255.934 35.3626C256.237 34.8078 256.395 34.1571 256.409 33.4105C256.422 32.664 256.286 32.0082 256.003 31.4432C255.719 30.8781 255.327 30.4379 254.826 30.1224C254.325 29.7936 253.741 29.6234 253.074 29.6118C252.408 29.6001 251.818 29.7499 251.306 30.061C250.794 30.3588 250.387 30.785 250.084 31.3398C249.781 31.8946 249.623 32.5453 249.61 33.2919C249.597 34.0384 249.732 34.6942 250.015 35.2592C250.299 35.8243 250.691 36.2712 251.192 36.6C251.693 36.9155 252.277 37.079 252.944 37.0906ZM264.815 38.7581C263.869 38.7416 263.032 38.5136 262.307 38.0742C261.581 37.6215 261.012 37.0048 260.599 36.2241C260.199 35.4437 260.008 34.5269 260.027 33.4737C260.045 32.4339 260.267 31.5309 260.694 30.7649C261.121 29.9856 261.705 29.389 262.445 28.9752C263.2 28.5483 264.063 28.3434 265.037 28.3604C265.996 28.3771 266.819 28.6115 267.505 29.0635C268.204 29.5025 268.734 30.0785 269.095 30.7915C269.456 31.5046 269.629 32.2678 269.615 33.081C269.612 33.2276 269.603 33.3741 269.587 33.5206C269.585 33.6672 269.582 33.8338 269.578 34.0205L261.68 33.8826C261.706 34.6432 261.869 35.2795 262.166 35.7914C262.478 36.2902 262.865 36.6704 263.327 36.9318C263.802 37.1935 264.307 37.329 264.84 37.3383C265.533 37.3504 266.116 37.2005 266.588 36.8887C267.06 36.5769 267.408 36.1496 267.63 35.6067L269.29 35.6357C269.008 36.5509 268.481 37.3085 267.71 37.9085C266.953 38.4954 265.988 38.7786 264.815 38.7581ZM264.972 29.7794C264.172 29.7655 263.454 29.9997 262.819 30.482C262.198 30.9512 261.832 31.6516 261.722 32.5832L267.961 32.6921C267.937 31.7982 267.643 31.0929 267.078 30.5763C266.514 30.0597 265.812 29.7941 264.972 29.7794ZM277.04 38.9715C276.227 38.9573 275.503 38.7779 274.869 38.4335C274.248 38.0893 273.776 37.6143 273.454 37.0086L273.265 38.6655L271.745 38.639L271.996 24.2412L273.676 24.2705L273.569 30.3896C273.897 29.9152 274.358 29.4899 274.952 29.1135C275.558 28.7374 276.322 28.5573 277.241 28.5734C278.228 28.5906 279.084 28.8323 279.809 29.2983C280.534 29.7644 281.09 30.3942 281.476 31.1877C281.876 31.9815 282.067 32.8783 282.05 33.8781C282.032 34.878 281.81 35.7676 281.383 36.5469C280.969 37.3131 280.386 37.9164 279.631 38.3566C278.89 38.7837 278.026 38.9887 277.04 38.9715ZM276.885 37.5085C277.552 37.5202 278.141 37.3771 278.653 37.0793C279.165 36.7682 279.573 36.3353 279.876 35.7805C280.179 35.2257 280.337 34.575 280.35 33.8284C280.363 33.0819 280.228 32.4261 279.944 31.8611C279.661 31.296 279.269 30.8558 278.767 30.5403C278.266 30.2115 277.683 30.0413 277.016 30.0297C276.349 30.018 275.76 30.1678 275.248 30.4789C274.736 30.7767 274.328 31.203 274.025 31.7577C273.722 32.3125 273.564 32.9632 273.551 33.7098C273.538 34.4563 273.673 35.1121 273.957 35.6772C274.24 36.2422 274.633 36.6891 275.134 37.0179C275.635 37.3334 276.219 37.4969 276.885 37.5085ZM287.597 39.1557C286.77 39.1413 286.086 38.9893 285.545 38.6998C285.003 38.4103 284.603 38.03 284.344 37.5587C284.086 37.0875 283.961 36.5786 283.971 36.032C283.989 35.0188 284.389 34.2457 285.172 33.7126C285.954 33.1795 287.012 32.9246 288.345 32.9478L291.025 32.9946L291.027 32.8746C291.042 32.0081 290.827 31.3509 290.381 30.9031C289.936 30.4419 289.333 30.2047 288.574 30.1914C287.92 30.18 287.351 30.3368 286.865 30.6617C286.393 30.9735 286.091 31.4416 285.96 32.0661L284.241 32.0361C284.32 31.3173 284.57 30.715 284.992 30.2289C285.428 29.7431 285.961 29.379 286.592 29.1367C287.223 28.881 287.892 28.7593 288.598 28.7716C289.985 28.7958 291.018 29.1873 291.698 29.9459C292.392 30.6915 292.728 31.6775 292.707 32.904L292.6 39.003L291.101 38.9769L291.032 37.1954C290.742 37.7504 290.32 38.2231 289.767 38.6135C289.227 38.9908 288.503 39.1716 287.597 39.1557ZM287.882 37.7405C288.522 37.7517 289.071 37.5946 289.53 37.2692C290.003 36.944 290.363 36.5169 290.613 35.9879C290.862 35.4588 290.992 34.901 291.002 34.3144L291.002 34.2944L288.463 34.2501C287.476 34.2329 286.773 34.394 286.354 34.7334C285.948 35.0597 285.741 35.4761 285.732 35.9827C285.723 36.5026 285.902 36.9258 286.27 37.2523C286.651 37.5657 287.188 37.7284 287.882 37.7405ZM298.915 39.3533C297.729 39.3326 296.748 39.0154 295.972 38.4018C295.196 37.7881 294.75 36.9669 294.634 35.9381L296.354 35.9681C296.452 36.4899 296.717 36.9479 297.15 37.3422C297.597 37.7234 298.2 37.9206 298.96 37.9339C299.667 37.9462 300.189 37.8086 300.528 37.5212C300.866 37.2204 301.039 36.8633 301.046 36.45C301.057 35.8501 300.844 35.4464 300.408 35.2387C299.984 35.0313 299.381 34.8407 298.597 34.667C298.066 34.5511 297.535 34.3885 297.006 34.1792C296.476 33.9699 296.034 33.6821 295.68 33.3159C295.327 32.9364 295.155 32.4466 295.166 31.8467C295.181 30.9802 295.513 30.2792 296.163 29.7438C296.826 29.1953 297.711 28.9307 298.817 28.95C299.87 28.9684 300.725 29.25 301.383 29.7949C302.054 30.3267 302.434 31.0801 302.523 32.0552L300.864 32.0262C300.806 31.5184 300.593 31.1213 300.224 30.8348C299.87 30.5353 299.385 30.3801 298.772 30.3694C298.172 30.359 297.704 30.4775 297.366 30.7249C297.041 30.9726 296.876 31.3031 296.868 31.7164C296.861 32.1163 297.063 32.4332 297.472 32.6671C297.895 32.9012 298.464 33.1045 299.182 33.277C299.792 33.421 300.369 33.5978 300.913 33.8073C301.469 34.0037 301.918 34.2983 302.257 34.6909C302.611 35.0705 302.781 35.6202 302.769 36.3401C302.766 37.2335 302.414 37.9675 301.71 38.5419C301.02 39.1033 300.089 39.3738 298.915 39.3533ZM310.334 43.7132L310.584 29.3954L312.104 29.422L312.235 31.0645C312.563 30.5902 313.024 30.1648 313.618 29.7884C314.224 29.4123 314.988 29.2323 315.907 29.2483C316.894 29.2655 317.75 29.5072 318.475 29.9732C319.2 30.4393 319.756 31.0691 320.142 31.8626C320.542 32.6564 320.733 33.5532 320.716 34.553C320.698 35.5529 320.476 36.4425 320.049 37.2218C319.635 37.988 319.051 38.5913 318.297 39.0315C317.556 39.4586 316.692 39.6636 315.706 39.6464C314.893 39.6322 314.169 39.4529 313.535 39.1084C312.914 38.7642 312.442 38.2892 312.12 37.6835L312.014 43.7426L310.334 43.7132ZM315.551 38.1835C316.218 38.1951 316.807 38.052 317.319 37.7542C317.831 37.4431 318.239 37.0102 318.542 36.4554C318.845 35.9006 319.003 35.2499 319.016 34.5034C319.029 33.7568 318.894 33.101 318.61 32.536C318.327 31.9709 317.935 31.5307 317.433 31.2152C316.932 30.8864 316.349 30.7162 315.682 30.7046C315.015 30.693 314.426 30.8427 313.914 31.1538C313.402 31.4516 312.994 31.8779 312.691 32.4327C312.388 32.9875 312.23 33.6381 312.217 34.3847C312.204 35.1312 312.339 35.787 312.623 36.3521C312.906 36.9171 313.299 37.364 313.8 37.6928C314.301 38.0083 314.885 38.1718 315.551 38.1835ZM322.968 39.5331L323.219 25.1353L324.899 25.1646L324.647 39.5624L322.968 39.5331ZM330.696 39.908C329.869 39.8936 329.185 39.7416 328.643 39.4521C328.102 39.1626 327.702 38.7823 327.443 38.311C327.185 37.8398 327.06 37.3308 327.07 36.7843C327.087 35.7711 327.488 34.998 328.27 34.4649C329.053 33.9318 330.111 33.6769 331.444 33.7001L334.124 33.7469L334.126 33.6269C334.141 32.7604 333.926 32.1032 333.48 31.6554C333.035 31.1942 332.432 30.957 331.672 30.9437C331.019 30.9323 330.45 31.0891 329.964 31.414C329.492 31.7258 329.19 32.1939 329.059 32.8184L327.34 32.7884C327.419 32.0696 327.669 31.4673 328.091 30.9812C328.526 30.4954 329.06 30.1313 329.691 29.889C330.322 29.6333 330.991 29.5116 331.697 29.5239C333.084 29.5481 334.117 29.9395 334.797 30.6982C335.491 31.4438 335.827 32.4298 335.806 33.6563L335.699 39.7553L334.199 39.7291L334.131 37.9477C333.841 38.5027 333.419 38.9754 332.866 39.3658C332.326 39.7431 331.602 39.9238 330.696 39.908ZM330.981 38.4928C331.62 38.5039 332.17 38.3468 332.629 38.0215C333.101 37.6963 333.462 37.2692 333.712 36.7402C333.961 36.2111 334.091 35.6533 334.101 35.0667L334.101 35.0467L331.562 35.0024C330.575 34.9852 329.872 35.1463 329.453 35.4857C329.047 35.812 328.84 36.2284 328.831 36.735C328.822 37.2549 329.001 37.6781 329.369 38.0046C329.75 38.3179 330.287 38.4807 330.981 38.4928ZM341.865 39.863C340.959 39.8471 340.249 39.6147 339.737 39.1657C339.225 38.7167 338.979 37.9189 338.999 36.7725L339.094 31.3133L337.374 31.2833L337.399 29.8635L339.119 29.8935L339.38 27.5177L340.84 27.5432L340.798 29.9228L343.718 29.9738L343.693 31.3936L340.774 31.3426L340.678 36.8018C340.667 37.4283 340.787 37.8572 341.036 38.0882C341.286 38.3059 341.73 38.4204 342.37 38.4315L343.41 38.4497L343.385 39.8895L341.865 39.863ZM346.219 39.9389L346.367 31.4402L344.867 31.4141L344.892 29.9943L346.392 30.0205L346.422 28.3007C346.439 27.3409 346.691 26.6452 347.179 26.2136C347.666 25.782 348.37 25.5743 349.29 25.5904L350.29 25.6078L350.264 27.0476L349.525 27.0347C349.018 27.0258 348.656 27.1262 348.439 27.3358C348.222 27.532 348.11 27.8768 348.101 28.37L348.072 30.0498L350.511 30.0924L350.487 31.5121L348.047 31.4696L347.899 39.9683L346.219 39.9389ZM356.463 40.3578C355.529 40.3415 354.693 40.1135 353.954 39.6739C353.215 39.2343 352.632 38.624 352.206 37.8431C351.793 37.0491 351.596 36.1255 351.614 35.0724C351.633 34.0192 351.868 33.1098 352.322 32.3443C352.776 31.5654 353.379 30.9692 354.133 30.5556C354.901 30.1423 355.751 29.9438 356.684 29.9601C357.617 29.9764 358.454 30.2043 359.193 30.644C359.932 31.0836 360.508 31.7004 360.921 32.4944C361.347 33.2753 361.551 34.1923 361.533 35.2455C361.514 36.2987 361.278 37.2147 360.825 37.9936C360.371 38.7591 359.761 39.3485 358.993 39.7619C358.239 40.1754 357.396 40.3741 356.463 40.3578ZM356.488 38.918C357.061 38.928 357.597 38.7973 358.095 38.526C358.593 38.2546 359 37.8417 359.317 37.2871C359.633 36.7326 359.798 36.042 359.813 35.2155C359.827 34.3889 359.686 33.693 359.389 33.1278C359.106 32.5627 358.72 32.1359 358.231 31.8474C357.743 31.5588 357.219 31.4096 356.659 31.3998C356.086 31.3898 355.55 31.5205 355.052 31.7919C354.554 32.0632 354.147 32.4762 353.83 33.0307C353.514 33.5853 353.348 34.2758 353.334 35.1024C353.319 35.9289 353.461 36.6248 353.758 37.1901C354.054 37.7554 354.44 38.1822 354.915 38.4705C355.404 38.7591 355.928 38.9082 356.488 38.918ZM363.782 40.2455L363.955 30.327L365.475 30.3535L365.581 32.2557C365.899 31.6078 366.375 31.096 367.008 30.7204C367.642 30.3447 368.418 30.1649 369.338 30.1809L369.307 31.9407L368.848 31.9326C368.261 31.9224 367.719 32.0196 367.222 32.2243C366.725 32.4157 366.326 32.7554 366.024 33.2436C365.722 33.7317 365.564 34.4091 365.549 35.2756L365.461 40.2748L363.782 40.2455ZM371.046 40.3723L371.219 30.4538L372.739 30.4803L372.834 31.9222C373.163 31.3946 373.597 30.9887 374.135 30.7047C374.674 30.4208 375.276 30.2846 375.943 30.2962C376.729 30.31 377.4 30.4817 377.954 30.8114C378.522 31.1414 378.953 31.6356 379.248 32.2942C379.606 31.7004 380.087 31.2354 380.693 30.8992C381.312 30.5633 381.975 30.4015 382.682 30.4139C383.868 30.4346 384.808 30.811 385.502 31.5433C386.197 32.2622 386.531 33.3615 386.505 34.8413L386.404 40.6404L384.744 40.6114L384.842 34.9923C384.86 33.9658 384.667 33.1889 384.263 32.6618C383.859 32.1347 383.27 31.8643 382.497 31.8508C381.697 31.8369 381.025 32.1385 380.481 32.7558C379.95 33.36 379.675 34.2353 379.655 35.3818L379.565 40.521L377.885 40.4917L377.983 34.8725C378.001 33.846 377.808 33.0692 377.404 32.5421C377 32.0149 376.411 31.7446 375.638 31.7311C374.851 31.7174 374.186 32.0192 373.642 32.6364C373.111 33.2406 372.836 34.1159 372.816 35.2624L372.726 40.4016L371.046 40.3723ZM394.766 40.7863L394.915 32.2876L393.415 32.2615L393.44 30.8417L394.939 30.8679L394.969 29.1481C394.986 28.1883 395.238 27.4926 395.726 27.061C396.213 26.6294 396.917 26.4217 397.837 26.4377L398.837 26.4552L398.812 27.895L398.072 27.8821C397.565 27.8732 397.203 27.9736 396.986 28.1832C396.77 28.3794 396.657 28.7242 396.648 29.2174L396.619 30.8972L399.059 30.9398L399.034 32.3595L396.594 32.317L396.446 40.8157L394.766 40.7863ZM404.95 41.2041C404.003 41.1876 403.167 40.9597 402.442 40.5203C401.716 40.0675 401.147 39.4508 400.734 38.6702C400.334 37.8897 400.143 36.9729 400.161 35.9198C400.18 34.8799 400.402 33.977 400.829 33.211C401.256 32.4317 401.84 31.8351 402.58 31.4213C403.335 30.9944 404.198 30.7894 405.171 30.8064C406.131 30.8232 406.954 31.0576 407.64 31.5096C408.339 31.9485 408.869 32.5245 409.23 33.2376C409.591 33.9507 409.764 34.7138 409.75 35.527C409.747 35.6737 409.738 35.8202 409.722 35.9666C409.72 36.1133 409.717 36.2799 409.713 36.4665L401.815 36.3287C401.841 37.0893 402.004 37.7255 402.301 38.2375C402.613 38.7363 402.999 39.1164 403.462 39.3779C403.937 39.6396 404.441 39.775 404.975 39.7844C405.668 39.7965 406.251 39.6466 406.723 39.3348C407.195 39.023 407.543 38.5957 407.765 38.0528L409.425 38.0818C409.142 38.997 408.616 39.7546 407.845 40.3545C407.088 40.9414 406.123 41.2246 404.95 41.2041ZM405.107 32.2255C404.307 32.2115 403.589 32.4457 402.954 32.928C402.332 33.3973 401.967 34.0977 401.857 35.0292L408.096 35.1381C408.072 34.2442 407.778 33.539 407.213 33.0224C406.649 32.5058 405.947 32.2402 405.107 32.2255ZM416.335 41.4029C415.388 41.3863 414.552 41.1584 413.827 40.719C413.101 40.2662 412.532 39.6496 412.119 38.8689C411.719 38.0885 411.528 37.1717 411.546 36.1185C411.565 35.0786 411.787 34.1757 412.214 33.4097C412.641 32.6304 413.225 32.0338 413.965 31.62C414.72 31.1931 415.583 30.9882 416.556 31.0051C417.516 31.0219 418.339 31.2563 419.025 31.7083C419.724 32.1473 420.254 32.7233 420.615 33.4363C420.976 34.1494 421.149 34.9126 421.135 35.7258C421.132 35.8724 421.123 36.0189 421.107 36.1653C421.105 36.312 421.102 36.4786 421.098 36.6653L413.2 36.5274C413.226 37.288 413.389 37.9242 413.686 38.4362C413.998 38.935 414.384 39.3152 414.847 39.5766C415.322 39.8383 415.826 39.9738 416.36 39.9831C417.053 39.9952 417.636 39.8453 418.108 39.5335C418.58 39.2217 418.928 38.7944 419.15 38.2515L420.81 38.2805C420.527 39.1957 420.001 39.9533 419.23 40.5533C418.473 41.1401 417.508 41.4233 416.335 41.4029ZM416.492 32.4242C415.692 32.4103 414.974 32.6444 414.339 33.1268C413.717 33.596 413.352 34.2964 413.242 35.2279L419.481 35.3368C419.457 34.443 419.162 33.7377 418.598 33.2211C418.034 32.7045 417.332 32.4389 416.492 32.4242ZM432.352 41.6824C431.166 41.6617 430.184 41.3446 429.408 40.7309C428.632 40.1173 428.187 39.296 428.071 38.2672L429.791 38.2972C429.888 38.819 430.154 39.277 430.587 39.6713C431.034 40.0525 431.637 40.2497 432.397 40.263C433.104 40.2753 433.626 40.1378 433.964 39.8503C434.303 39.5495 434.476 39.1925 434.483 38.7792C434.494 38.1793 434.281 37.7755 433.844 37.5679C433.421 37.3604 432.818 37.1699 432.034 36.9962C431.503 36.8802 430.972 36.7176 430.442 36.5083C429.912 36.299 429.471 36.0113 429.117 35.6451C428.764 35.2655 428.592 34.7758 428.603 34.1759C428.618 33.3093 428.95 32.6084 429.599 32.0729C430.262 31.5244 431.147 31.2598 432.254 31.2791C433.307 31.2975 434.162 31.5792 434.819 32.124C435.49 32.6558 435.87 33.4093 435.96 34.3843L434.3 34.3553C434.243 33.8476 434.029 33.4505 433.661 33.164C433.306 32.8644 432.822 32.7093 432.209 32.6986C431.609 32.6881 431.14 32.8066 430.803 33.0541C430.478 33.3018 430.312 33.6323 430.305 34.0456C430.298 34.4455 430.499 34.7624 430.909 34.9962C431.331 35.2303 431.901 35.4336 432.618 35.6062C433.229 35.7502 433.806 35.9269 434.349 36.1365C434.906 36.3329 435.354 36.6274 435.694 37.0201C436.048 37.3996 436.218 37.9493 436.205 38.6692C436.203 39.5627 435.85 40.2966 435.147 40.8711C434.457 41.4325 433.525 41.7029 432.352 41.6824ZM443.011 41.8685C442.064 41.852 441.228 41.624 440.502 41.1846C439.777 40.7319 439.207 40.1152 438.794 39.3345C438.394 38.5541 438.204 37.6373 438.222 36.5841C438.24 35.5443 438.463 34.6413 438.889 33.8753C439.316 33.096 439.9 32.4994 440.641 32.0856C441.395 31.6587 442.259 31.4538 443.232 31.4708C444.192 31.4875 445.015 31.7219 445.7 32.1739C446.399 32.6129 446.929 33.1889 447.29 33.902C447.651 34.615 447.825 35.3782 447.81 36.1914C447.808 36.338 447.799 36.4846 447.783 36.631C447.78 36.7776 447.777 36.9443 447.774 37.1309L439.875 36.993C439.902 37.7536 440.064 38.3899 440.362 38.9018C440.673 39.4007 441.06 39.7808 441.522 40.0422C441.998 40.3039 442.502 40.4394 443.035 40.4487C443.729 40.4608 444.311 40.311 444.783 39.9991C445.256 39.6873 445.603 39.26 445.826 38.7171L447.486 38.7461C447.203 39.6613 446.676 40.4189 445.906 41.0189C445.149 41.6058 444.184 41.889 443.011 41.8685ZM443.167 32.8899C442.367 32.8759 441.65 33.1101 441.015 33.5924C440.393 34.0616 440.027 34.762 439.918 35.6936L446.157 35.8025C446.133 34.9086 445.838 34.2033 445.274 33.6867C444.709 33.1701 444.007 32.9045 443.167 32.8899ZM449.94 41.7494L450.192 27.3516L451.871 27.3809L451.62 41.7787L449.94 41.7494ZM457.669 42.1243C456.842 42.1099 456.158 41.958 455.616 41.6685C455.075 41.379 454.675 40.9986 454.416 40.5273C454.158 40.0561 454.033 39.5472 454.043 39.0006C454.06 37.9874 454.461 37.2143 455.243 36.6812C456.026 36.1481 457.084 35.8932 458.417 35.9165L461.097 35.9632L461.099 35.8433C461.114 34.9767 460.899 34.3195 460.453 33.8717C460.008 33.4105 459.405 33.1733 458.645 33.16C457.992 33.1486 457.423 33.3054 456.937 33.6303C456.465 33.9421 456.163 34.4102 456.032 35.0347L454.312 35.0047C454.392 34.286 454.642 33.6836 455.064 33.1975C455.499 32.7117 456.032 32.3476 456.663 32.1053C457.295 31.8496 457.963 31.7279 458.67 31.7402C460.056 31.7644 461.09 32.1559 461.77 32.9145C462.464 33.6601 462.8 34.6461 462.779 35.8726L462.672 41.9716L461.172 41.9455L461.103 40.164C460.814 40.719 460.392 41.1917 459.838 41.5821C459.298 41.9594 458.575 42.1402 457.669 42.1243ZM457.953 40.7091C458.593 40.7203 459.143 40.5632 459.602 40.2378C460.074 39.9127 460.435 39.4856 460.684 38.9565C460.934 38.4274 461.063 37.8696 461.074 37.283L461.074 37.263L458.534 37.2187C457.548 37.2015 456.845 37.3626 456.426 37.702C456.02 38.0283 455.813 38.4447 455.804 38.9513C455.795 39.4712 455.974 39.8944 456.342 40.2209C456.723 40.5343 457.26 40.697 457.953 40.7091ZM465.192 42.0156L465.365 32.0971L466.885 32.1237L466.98 33.5655C467.309 33.0379 467.743 32.6321 468.281 32.3481C468.82 32.0641 469.422 31.9279 470.089 31.9396C470.875 31.9533 471.546 32.125 472.1 32.4547C472.668 32.7847 473.099 33.279 473.394 33.9375C473.751 33.3437 474.233 32.8787 474.839 32.5425C475.458 32.2066 476.121 32.0448 476.828 32.0572C478.014 32.0779 478.954 32.4544 479.648 33.1866C480.343 33.9055 480.677 35.0048 480.651 36.4846L480.55 42.2837L478.89 42.2547L478.988 36.6356C479.006 35.6091 478.813 34.8322 478.409 34.3051C478.004 33.778 477.416 33.5077 476.642 33.4942C475.843 33.4802 475.171 33.7819 474.626 34.3991C474.096 35.0033 473.82 35.8786 473.8 37.0251L473.711 42.1643L472.031 42.135L472.129 36.5159C472.147 35.4893 471.954 34.7125 471.55 34.1854C471.145 33.6583 470.557 33.3879 469.784 33.3744C468.997 33.3607 468.332 33.6625 467.787 34.2797C467.257 34.8839 466.981 35.7592 466.961 36.9057L466.872 42.0449L465.192 42.0156ZM486.375 42.6254C485.549 42.611 484.865 42.459 484.323 42.1695C483.781 41.88 483.381 41.4997 483.123 41.0284C482.864 40.5572 482.74 40.0482 482.749 39.5017C482.767 38.4885 483.167 37.7153 483.95 37.1823C484.733 36.6492 485.791 36.3943 487.124 36.4175L489.803 36.4643L489.805 36.3443C489.82 35.4778 489.605 34.8206 489.16 34.3728C488.714 33.9116 488.112 33.6744 487.352 33.6611C486.699 33.6497 486.129 33.8064 485.643 34.1314C485.171 34.4432 484.87 34.9113 484.739 35.5358L483.019 35.5058C483.098 34.787 483.349 34.1846 483.771 33.6986C484.206 33.2128 484.739 32.8487 485.37 32.6063C486.001 32.3507 486.67 32.229 487.377 32.2413C488.763 32.2655 489.796 32.6569 490.477 33.4156C491.17 34.1611 491.507 35.1472 491.485 36.3736L491.379 42.4727L489.879 42.4465L489.81 40.6651C489.52 41.2201 489.099 41.6928 488.545 42.0832C488.005 42.4605 487.282 42.6412 486.375 42.6254ZM486.66 41.2102C487.3 41.2213 487.849 41.0642 488.308 40.7389C488.781 40.4137 489.142 39.9866 489.391 39.4576C489.64 38.9285 489.77 38.3707 489.78 37.7841L489.781 37.7641L487.241 37.7198C486.254 37.7026 485.552 37.8637 485.132 38.2031C484.726 38.5294 484.519 38.9458 484.51 39.4524C484.501 39.9723 484.681 40.3955 485.048 40.722C485.429 41.0353 485.967 41.1981 486.66 41.2102ZM503.646 42.9269C502.753 42.9113 501.949 42.7372 501.235 42.4047C500.521 42.0589 499.949 41.5555 499.521 40.8946C499.106 40.2339 498.893 39.4167 498.883 38.4431L500.583 38.4727C500.583 39.2729 500.85 39.971 501.387 40.5671C501.923 41.1499 502.685 41.4499 503.671 41.4671C504.658 41.4843 505.403 41.2239 505.905 40.686C506.421 40.1482 506.686 39.4928 506.7 38.7195C506.711 38.0663 506.56 37.5303 506.248 37.1114C505.948 36.6928 505.534 36.3788 505.004 36.1696C504.488 35.9605 503.916 35.8505 503.29 35.8396L502.25 35.8214L502.274 34.4016L503.314 34.4198C504.221 34.4356 504.931 34.2413 505.445 33.8369C505.972 33.4327 506.242 32.8573 506.255 32.1108C506.266 31.4842 506.068 30.9673 505.662 30.5602C505.269 30.1399 504.673 29.9228 503.873 29.9089C503.1 29.8954 502.476 30.1178 502.001 30.5763C501.527 31.0214 501.257 31.5901 501.191 32.2824L499.492 32.2528C499.545 31.4936 499.757 30.8238 500.127 30.2435C500.51 29.6635 501.025 29.219 501.67 28.9103C502.316 28.5882 503.059 28.4344 503.899 28.4491C504.805 28.4649 505.556 28.638 506.15 28.9685C506.758 29.2991 507.21 29.7337 507.507 30.2723C507.818 30.8112 507.968 31.4005 507.957 32.0405C507.944 32.747 507.74 33.3902 507.343 33.97C506.946 34.5365 506.359 34.913 505.583 35.0995C506.406 35.2872 507.086 35.6925 507.622 36.3153C508.158 36.938 508.417 37.7494 508.4 38.7492C508.386 39.5224 508.194 40.2325 507.822 40.8795C507.464 41.5133 506.936 42.0175 506.236 42.392C505.536 42.7665 504.672 42.9448 503.646 42.9269ZM521.534 43.2391C520.721 43.2249 519.997 43.0456 519.363 42.7011C518.742 42.3569 518.27 41.882 517.948 41.2762L517.759 42.9332L516.239 42.9067L516.49 28.5088L518.17 28.5382L518.063 34.6572C518.392 34.1829 518.852 33.7575 519.446 33.3812C520.052 33.005 520.816 32.825 521.735 32.841C522.722 32.8583 523.578 33.0999 524.303 33.566C525.028 34.032 525.584 34.6618 525.97 35.4554C526.37 36.2491 526.561 37.1459 526.544 38.1458C526.526 39.1456 526.304 40.0352 525.877 40.8145C525.463 41.5808 524.88 42.184 524.125 42.6242C523.384 43.0514 522.52 43.2563 521.534 43.2391ZM521.379 41.7762C522.046 41.7878 522.635 41.6448 523.147 41.347C523.659 41.0359 524.067 40.6029 524.37 40.0481C524.673 39.4933 524.831 38.8427 524.844 38.0961C524.857 37.3496 524.722 36.6938 524.438 36.1287C524.155 35.5637 523.763 35.1234 523.261 34.808C522.76 34.4792 522.177 34.309 521.51 34.2973C520.843 34.2857 520.254 34.4354 519.742 34.7465C519.23 35.0443 518.822 35.4706 518.519 36.0254C518.216 36.5802 518.058 37.2309 518.045 37.9774C518.032 38.724 518.167 39.3798 518.451 39.9448C518.734 40.5098 519.127 40.9568 519.628 41.2856C520.129 41.601 520.713 41.7646 521.379 41.7762ZM532.411 43.429C531.238 43.4085 530.311 43.0389 529.63 42.3203C528.949 41.5883 528.622 40.4824 528.648 39.0026L528.749 33.2035L530.429 33.2328L530.33 38.852C530.294 40.9183 531.123 41.9663 532.816 41.9958C533.682 42.011 534.401 41.7168 534.972 41.1133C535.556 40.4967 535.858 39.6152 535.878 38.4687L535.968 33.3295L537.647 33.3588L537.474 43.2773L535.955 43.2508L535.866 41.469C535.548 42.0902 535.08 42.5754 534.46 42.9247C533.854 43.2741 533.171 43.4422 532.411 43.429ZM540.239 43.3256L540.49 28.9278L542.17 28.9571L541.919 43.3549L540.239 43.3256ZM547.967 43.7005C547.141 43.6861 546.457 43.5341 545.915 43.2446C545.373 42.9551 544.973 42.5748 544.715 42.1035C544.456 41.6323 544.332 41.1233 544.341 40.5768C544.359 39.5636 544.759 38.7904 545.542 38.2574C546.325 37.7243 547.383 37.4694 548.716 37.4926L551.395 37.5394L551.398 37.4194C551.413 36.5529 551.197 35.8957 550.752 35.4479C550.307 34.9867 549.704 34.7495 548.944 34.7362C548.291 34.7248 547.721 34.8815 547.236 35.2064C546.763 35.5183 546.462 35.9864 546.331 36.6109L544.611 36.5809C544.69 35.8621 544.941 35.2597 545.363 34.7737C545.798 34.2879 546.331 33.9238 546.962 33.6814C547.593 33.4258 548.262 33.3041 548.969 33.3164C550.355 33.3406 551.389 33.732 552.069 34.4907C552.763 35.2362 553.099 36.2223 553.077 37.4487L552.971 43.5478L551.471 43.5216L551.402 41.7402C551.112 42.2952 550.691 42.7679 550.137 43.1583C549.597 43.5356 548.874 43.7163 547.967 43.7005ZM548.252 42.2853C548.892 42.2964 549.442 42.1393 549.901 41.814C550.373 41.4888 550.734 41.0617 550.983 40.5327C551.232 40.0036 551.362 39.4458 551.372 38.8592L551.373 38.8392L548.833 38.7949C547.847 38.7777 547.144 38.9387 546.724 39.2781C546.319 39.6044 546.111 40.0209 546.102 40.5275C546.093 41.0474 546.273 41.4706 546.64 41.7971C547.022 42.1104 547.559 42.2732 548.252 42.2853ZM555.491 43.5918L555.664 33.6733L557.184 33.6998L557.253 35.4813C557.583 34.8603 558.052 34.3751 558.658 34.0256C559.264 33.6761 559.947 33.508 560.707 33.5213C561.88 33.5418 562.807 33.918 563.488 34.65C564.182 35.3689 564.516 36.4682 564.491 37.948L564.389 43.7471L562.71 43.7178L562.808 38.0987C562.844 36.0323 562.009 34.9842 560.302 34.9545C559.449 34.9396 558.73 35.2404 558.146 35.857C557.576 36.4604 557.28 37.3354 557.26 38.4819L557.171 43.6211L555.491 43.5918ZM572.15 48.2833L572.4 33.9654L573.919 33.992L574.051 35.6345C574.379 35.1602 574.84 34.7348 575.433 34.3584C576.04 33.9823 576.803 33.8023 577.723 33.8183C578.71 33.8355 579.565 34.0772 580.291 34.5432C581.016 35.0093 581.572 35.6391 581.958 36.4326C582.358 37.2264 582.549 38.1232 582.531 39.123C582.514 40.1229 582.291 41.0125 581.864 41.7918C581.451 42.558 580.867 43.1613 580.113 43.6015C579.372 44.0286 578.508 44.2336 577.521 44.2164C576.708 44.2022 575.985 44.0229 575.351 43.6784C574.73 43.3342 574.258 42.8592 573.935 42.2535L573.829 48.3126L572.15 48.2833ZM577.367 42.7535C578.034 42.7651 578.623 42.622 579.135 42.3243C579.647 42.0131 580.055 41.5802 580.358 41.0254C580.661 40.4706 580.819 39.8199 580.832 39.0734C580.845 38.3268 580.71 37.671 580.426 37.106C580.143 36.541 579.75 36.1007 579.249 35.7852C578.748 35.4565 578.164 35.2862 577.498 35.2746C576.831 35.263 576.242 35.4127 575.729 35.7238C575.217 36.0216 574.81 36.4479 574.507 37.0027C574.204 37.5575 574.046 38.2081 574.033 38.9547C574.02 39.7012 574.155 40.357 574.439 40.9221C574.722 41.4871 575.114 41.934 575.615 42.2628C576.117 42.5783 576.7 42.7418 577.367 42.7535ZM589.238 44.4209C588.292 44.4044 587.456 44.1764 586.73 43.737C586.004 43.2843 585.435 42.6676 585.022 41.8869C584.622 41.1065 584.431 40.1897 584.45 39.1365C584.468 38.0967 584.69 37.1938 585.117 36.4278C585.544 35.6484 586.128 35.0519 586.869 34.6381C587.623 34.2112 588.487 34.0062 589.46 34.0232C590.42 34.0399 591.242 34.2743 591.928 34.7264C592.627 35.1653 593.157 35.7413 593.518 36.4544C593.879 37.1675 594.052 37.9306 594.038 38.7438C594.036 38.8904 594.026 39.037 594.01 39.1834C594.008 39.33 594.005 39.4967 594.002 39.6833L586.103 39.5454C586.13 40.306 586.292 40.9423 586.59 41.4542C586.901 41.9531 587.288 42.3332 587.75 42.5946C588.225 42.8563 588.73 42.9918 589.263 43.0011C589.956 43.0132 590.539 42.8634 591.011 42.5516C591.483 42.2398 591.831 41.8124 592.054 41.2696L593.713 41.2985C593.431 42.2137 592.904 42.9713 592.134 43.5713C591.377 44.1582 590.411 44.4414 589.238 44.4209ZM589.395 35.4423C588.595 35.4283 587.878 35.6625 587.242 36.1448C586.621 36.614 586.255 37.3144 586.146 38.246L592.385 38.3549C592.36 37.461 592.066 36.7557 591.501 36.2392C590.937 35.7226 590.235 35.4569 589.395 35.4423ZM596.168 44.3018L596.341 34.3833L597.861 34.4099L597.968 36.312C598.286 35.6641 598.762 35.1524 599.395 34.7767C600.028 34.401 600.805 34.2212 601.725 34.2373L601.694 35.997L601.234 35.989C600.647 35.9787 600.106 36.076 599.609 36.2806C599.112 36.472 598.713 36.8118 598.411 37.2999C598.109 37.788 597.95 38.4654 597.935 39.3319L597.848 44.3311L596.168 44.3018ZM607.352 44.497C606.446 44.4812 605.736 44.2488 605.224 43.7998C604.712 43.3508 604.466 42.553 604.486 41.4065L604.581 35.9474L602.861 35.9174L602.886 34.4976L604.606 34.5276L604.867 32.1518L606.327 32.1773L606.285 34.5569L609.205 34.6079L609.18 36.0277L606.261 35.9767L606.165 41.4359C606.154 42.0624 606.274 42.4912 606.523 42.7223C606.772 42.94 607.217 43.0545 607.857 43.0656L608.897 43.0838L608.872 44.5236L607.352 44.497ZM614.461 44.8612C613.635 44.8467 612.951 44.6948 612.409 44.4053C611.867 44.1158 611.467 43.7354 611.209 43.2642C610.95 42.7929 610.826 42.284 610.835 41.7374C610.853 40.7242 611.253 39.9511 612.036 39.418C612.819 38.8849 613.877 38.63 615.21 38.6533L617.889 38.7001L617.891 38.5801C617.906 37.7135 617.691 37.0564 617.246 36.6085C616.8 36.1473 616.198 35.9101 615.438 35.8968C614.785 35.8854 614.215 36.0422 613.729 36.3671C613.257 36.6789 612.956 37.147 612.825 37.7715L611.105 37.7415C611.184 37.0228 611.435 36.4204 611.857 35.9344C612.292 35.4485 612.825 35.0845 613.456 34.8421C614.087 34.5864 614.756 34.4647 615.463 34.4771C616.849 34.5013 617.882 34.8927 618.563 35.6513C619.256 36.3969 619.592 37.3829 619.571 38.6094L619.465 44.7085L617.965 44.6823L617.896 42.9008C617.606 43.4558 617.185 43.9286 616.631 44.319C616.091 44.6963 615.368 44.877 614.461 44.8612ZM614.746 43.4459C615.386 43.4571 615.935 43.3 616.394 42.9746C616.867 42.6495 617.228 42.2224 617.477 41.6933C617.726 41.1643 617.856 40.6064 617.866 40.0199L617.867 39.9999L615.327 39.9555C614.34 39.9383 613.637 40.0994 613.218 40.4388C612.812 40.7651 612.605 41.1815 612.596 41.6881C612.587 42.2081 612.767 42.6313 613.134 42.9577C613.515 43.2711 614.053 43.4338 614.746 43.4459ZM621.985 44.7525L622.158 34.834L623.677 34.8605L623.772 36.3024C624.102 35.7747 624.535 35.3689 625.074 35.0849C625.612 34.8009 626.215 34.6647 626.881 34.6764C627.668 34.6901 628.338 34.8618 628.892 35.1916C629.46 35.5215 629.892 36.0158 630.187 36.6744C630.544 36.0805 631.025 35.6155 631.631 35.2794C632.251 34.9435 632.914 34.7817 633.62 34.794C634.807 34.8147 635.747 35.1912 636.441 35.9234C637.135 36.6423 637.469 37.7416 637.443 39.2214L637.342 45.0205L635.682 44.9916L635.781 39.3724C635.798 38.3459 635.605 37.5691 635.201 37.0419C634.797 36.5148 634.208 36.2445 633.435 36.231C632.635 36.217 631.963 36.5187 631.419 37.1359C630.888 37.7401 630.613 38.6154 630.593 39.7619L630.503 44.9011L628.823 44.8718L628.922 39.2527C628.939 38.2262 628.746 37.4493 628.342 36.9222C627.938 36.3951 627.349 36.1248 626.576 36.1113C625.789 36.0975 625.124 36.3993 624.58 37.0166C624.049 37.6207 623.774 38.4961 623.754 39.6426L623.664 44.7818L621.985 44.7525ZM643.168 45.3622C642.341 45.3478 641.657 45.1959 641.115 44.9064C640.574 44.6169 640.174 44.2365 639.915 43.7652C639.657 43.294 639.532 42.7851 639.542 42.2385C639.559 41.2253 639.96 40.4522 640.742 39.9191C641.525 39.386 642.583 39.1311 643.916 39.1544L646.596 39.2011L646.598 39.0812C646.613 38.2146 646.398 37.5574 645.952 37.1096C645.507 36.6484 644.904 36.4112 644.144 36.3979C643.491 36.3865 642.922 36.5433 642.436 36.8682C641.964 37.18 641.662 37.6481 641.531 38.2726L639.811 38.2426C639.891 37.5239 640.141 36.9215 640.563 36.4354C640.998 35.9496 641.531 35.5855 642.162 35.3432C642.794 35.0875 643.463 34.9658 644.169 34.9781C645.556 35.0023 646.589 35.3938 647.269 36.1524C647.963 36.898 648.299 37.884 648.278 39.1105L648.171 45.2095L646.671 45.1834L646.602 43.4019C646.313 43.9569 645.891 44.4296 645.338 44.82C644.798 45.1973 644.074 45.3781 643.168 45.3622ZM643.452 43.947C644.092 43.9582 644.642 43.8011 645.101 43.4757C645.573 43.1506 645.934 42.7235 646.183 42.1944C646.433 41.6653 646.563 41.1075 646.573 40.5209L646.573 40.5009L644.033 40.4566C643.047 40.4394 642.344 40.6005 641.925 40.9399C641.519 41.2662 641.312 41.6826 641.303 42.1892C641.294 42.7091 641.473 43.1323 641.841 43.4588C642.222 43.7722 642.759 43.9349 643.452 43.947Z" fill="#282828"/>
</g>
<defs>
<filter id="filter0_d_1_2164" x="0.364594" y="0.254883" width="666.271" height="70.9745" filterUnits="userSpaceOnUse" color-interpolation-filters="sRGB">
<feFlood flood-opacity="0" result="BackgroundImageFix"/>
<feColorMatrix in="SourceAlpha" type="matrix" values="0 0 0 0 0 0 0 0 0 0 0 0 0 0 0 0 0 0 127 0" result="hardAlpha"/>
<feOffset dx="-3" dy="5"/>
<feComposite in2="hardAlpha" operator="out"/>
<feColorMatrix type="matrix" values="0 0 0 0 0.156863 0 0 0 0 0.156863 0 0 0 0 0.156863 0 0 0 1 0"/>
<feBlend mode="normal" in2="BackgroundImageFix" result="effect1_dropShadow_1_2164"/>
<feBlend mode="normal" in="SourceGraphic" in2="effect1_dropShadow_1_2164" result="shape"/>
</filter>
</defs>
</svg>
