<svg width="257" height="91" viewBox="0 0 257 91" fill="none" xmlns="http://www.w3.org/2000/svg">
<mask id="path-1-outside-1_1_2089" maskUnits="userSpaceOnUse" x="-0.744642" y="-1.18542" width="257.952" height="93.1215" fill="black">
<rect fill="white" x="-0.744642" y="-1.18542" width="257.952" height="93.1215"/>
<path d="M2.10471 60.4275C1.1861 56.1057 3.94487 51.8576 8.2666 50.939L240.088 1.66393C244.409 0.745321 248.657 3.50409 249.576 7.82582L254.358 30.3232C255.277 34.6449 252.518 38.8931 248.196 39.8117L16.3752 89.0868C12.0534 90.0054 7.80529 87.2466 6.88668 82.9249L2.10471 60.4275Z"/>
</mask>
<path d="M2.10471 60.4275C1.1861 56.1057 3.94487 51.8576 8.2666 50.939L240.088 1.66393C244.409 0.745321 248.657 3.50409 249.576 7.82582L254.358 30.3232C255.277 34.6449 252.518 38.8931 248.196 39.8117L16.3752 89.0868C12.0534 90.0054 7.80529 87.2466 6.88668 82.9249L2.10471 60.4275Z" fill="#FFFF3E"/>
<path d="M8.2666 50.939L8.47451 51.9171L240.295 2.64208L240.088 1.66393L239.88 0.685785L8.05869 49.9609L8.2666 50.939ZM249.576 7.82582L248.598 8.03373L253.38 30.5311L254.358 30.3232L255.336 30.1153L250.554 7.61791L249.576 7.82582ZM248.196 39.8117L247.988 38.8335L16.1672 88.1086L16.3752 89.0868L16.5831 90.0649L248.404 40.7898L248.196 39.8117ZM6.88668 82.9249L7.86483 82.717L3.08286 60.2196L2.10471 60.4275L1.12656 60.6354L5.90853 83.1328L6.88668 82.9249ZM16.3752 89.0868L16.1672 88.1086C12.3857 88.9124 8.66861 86.4985 7.86483 82.717L6.88668 82.9249L5.90853 83.1328C6.94197 87.9947 11.7211 91.0983 16.5831 90.0649L16.3752 89.0868ZM254.358 30.3232L253.38 30.5311C254.184 34.3126 251.77 38.0298 247.988 38.8335L248.196 39.8117L248.404 40.7898C253.266 39.7564 256.37 34.9772 255.336 30.1153L254.358 30.3232ZM240.088 1.66393L240.295 2.64208C244.077 1.83829 247.794 4.25222 248.598 8.03373L249.576 7.82582L250.554 7.61791C249.521 2.75596 244.742 -0.347654 239.88 0.685785L240.088 1.66393ZM8.2666 50.939L8.05869 49.9609C3.19674 50.9943 0.0931254 55.7734 1.12656 60.6354L2.10471 60.4275L3.08286 60.2196C2.27907 56.4381 4.693 52.7209 8.47451 51.9171L8.2666 50.939Z" fill="#D5D52C" mask="url(#path-1-outside-1_1_2089)"/>
<path d="M57.5246 67.0497L54.9049 54.7251L59.2362 53.8045C60.1048 53.6198 60.8507 53.6085 61.474 53.7704C62.1065 53.9182 62.6148 54.2027 62.9988 54.6241C63.3803 55.0337 63.6334 55.532 63.7582 56.1189C63.9278 56.917 63.8442 57.5911 63.5072 58.1412C63.1819 58.6888 62.7387 59.1143 62.1775 59.4176C62.6527 59.4024 63.1081 59.4958 63.5436 59.6977C63.979 59.8995 64.3473 60.1893 64.6484 60.567C64.9613 60.9421 65.1713 61.3821 65.2786 61.8868C65.4108 62.5089 65.3793 63.1106 65.1839 63.6919C64.986 64.2615 64.6201 64.7625 64.0864 65.195C63.5501 65.6156 62.8536 65.917 61.9967 66.0992L57.5246 67.0497ZM57.5291 59.7984L60.2757 59.2145C61.0621 59.0474 61.628 58.737 61.9732 58.2833C62.3159 57.8178 62.4174 57.2565 62.2777 56.5992C62.1454 55.9771 61.8281 55.5231 61.3257 55.2373C60.8351 54.949 60.1731 54.8935 59.3397 55.0706L56.6459 55.6432L57.5291 59.7984ZM58.7416 65.5029L61.5763 64.9004C62.4214 64.7208 63.0317 64.3886 63.4071 63.904C63.7801 63.4076 63.8917 62.8073 63.742 62.103C63.5948 61.4105 63.2369 60.9099 62.6683 60.6014C62.0973 60.2811 61.4009 60.2083 60.5793 60.383L57.7798 60.978L58.7416 65.5029ZM71.9993 64.1939C71.1659 64.371 70.3865 64.3404 69.6611 64.102C68.9332 63.8519 68.3091 63.4264 67.7887 62.8254C67.2802 62.222 66.9273 61.4566 66.7302 60.5293C66.5356 59.6138 66.5479 58.7769 66.7671 58.0188C66.9837 57.2489 67.3749 56.6076 67.9407 56.0947C68.5157 55.5677 69.2316 55.2131 70.0884 55.0309C70.9336 54.8513 71.7025 54.8903 72.3952 55.1479C73.0971 55.3913 73.6785 55.7891 74.1394 56.3413C74.6003 56.8936 74.9068 57.5277 75.059 58.2437C75.0865 58.3728 75.108 58.5032 75.1238 58.6348C75.1512 58.7639 75.1824 58.9106 75.2173 59.075L68.2627 60.5532C68.4401 61.2148 68.7112 61.7399 69.076 62.1285C69.45 62.503 69.8661 62.758 70.3244 62.8937C70.7943 63.0269 71.2641 63.0436 71.7336 62.9438C72.3439 62.8141 72.8246 62.5647 73.1755 62.1957C73.5265 61.8266 73.7447 61.3815 73.8302 60.8604L75.2916 60.5498C75.229 61.4096 74.9205 62.1805 74.3662 62.8627C73.8212 63.5306 73.0322 63.9743 71.9993 64.1939ZM70.3189 56.2885C69.6147 56.4382 69.0329 56.7888 68.5735 57.3404C68.1234 57.8777 67.9446 58.5659 68.037 59.405L73.5303 58.2374C73.3279 57.4585 72.927 56.8996 72.3275 56.5609C71.7279 56.2221 71.0584 56.1313 70.3189 56.2885ZM78.0522 62.6865L75.3576 50.0097L76.8366 49.6953L79.5311 62.3721L78.0522 62.6865ZM80.5853 50.9964C80.2918 51.0587 80.0254 51.0172 79.7859 50.8718C79.5557 50.7122 79.4094 50.4857 79.347 50.1922C79.2871 49.9105 79.3311 49.6558 79.479 49.4281C79.6386 49.1979 79.8652 49.0516 80.1586 48.9892C80.4403 48.9293 80.7009 48.9721 80.9404 49.1175C81.1798 49.2629 81.3295 49.4764 81.3894 49.7581C81.4518 50.0516 81.4044 50.3193 81.2473 50.5612C81.0876 50.7914 80.867 50.9365 80.5853 50.9964ZM82.1137 61.8232L80.2574 53.0903L81.7364 52.7759L83.5926 61.5088L82.1137 61.8232ZM94.2782 59.2375C93.4801 59.4072 92.8109 59.347 92.2708 59.0569C91.7307 58.7669 91.3534 58.1172 91.1388 57.1077L90.1171 52.3011L88.603 52.6229L88.3373 51.3729L89.8514 51.051L89.5998 48.9147L90.885 48.6415L91.3304 50.7367L93.901 50.1903L94.1667 51.4403L91.5961 51.9867L92.6178 56.7933C92.735 57.345 92.9264 57.6969 93.1918 57.8491C93.4548 57.9895 93.8679 57.9998 94.4313 57.88L95.3469 57.6854L95.6163 58.9531L94.2782 59.2375ZM96.2662 47.6633C95.9727 47.7257 95.7063 47.6841 95.4668 47.5388C95.2366 47.3791 95.0903 47.1526 95.0279 46.8592C94.9681 46.5774 95.0121 46.3227 95.16 46.095C95.3196 45.8648 95.5461 45.7185 95.8396 45.6561C96.1213 45.5962 96.3818 45.639 96.6213 45.7844C96.8608 45.9298 97.0104 46.1433 97.0703 46.425C97.1327 46.7185 97.0853 46.9862 96.9282 47.2281C96.7686 47.4584 96.5479 47.6034 96.2662 47.6633ZM97.7946 58.4901L95.9384 49.7572L97.4173 49.4428L99.2736 58.1757L97.7946 58.4901ZM101.849 57.6284L99.1541 44.9516L100.633 44.6372L102.254 52.2609L105.046 47.8214L106.859 47.4359L103.824 52.2032L109.208 56.0641L107.324 56.4645L102.366 52.7891L103.328 57.314L101.849 57.6284ZM114.056 55.2545C113.222 55.4316 112.443 55.401 111.718 55.1626C110.99 54.9125 110.366 54.487 109.845 53.886C109.337 53.2826 108.984 52.5172 108.787 51.5899C108.592 50.6744 108.604 49.8375 108.824 49.0794C109.04 48.3095 109.431 47.6682 109.997 47.1553C110.572 46.6283 111.288 46.2737 112.145 46.0916C112.99 45.9119 113.759 45.9509 114.452 46.2085C115.154 46.4519 115.735 46.8497 116.196 47.4019C116.657 47.9542 116.963 48.5883 117.116 49.3043C117.143 49.4334 117.165 49.5638 117.18 49.6954C117.208 49.8245 117.239 49.9712 117.274 50.1356L110.319 51.6138C110.497 52.2754 110.768 52.8005 111.133 53.1892C111.507 53.5636 111.923 53.8186 112.381 53.9543C112.851 54.0875 113.321 54.1042 113.79 54.0044C114.4 53.8747 114.881 53.6253 115.232 53.2563C115.583 52.8872 115.801 52.4421 115.887 51.921L117.348 51.6104C117.285 52.4702 116.977 53.2411 116.423 53.9233C115.878 54.5912 115.089 55.0349 114.056 55.2545ZM112.375 47.3491C111.671 47.4988 111.089 47.8494 110.63 48.401C110.18 48.9383 110.001 49.6265 110.094 50.4656L115.587 49.298C115.384 48.5191 114.984 47.9602 114.384 47.6215C113.784 47.2827 113.115 47.1919 112.375 47.3491ZM123.267 53.0757C122.469 53.2454 121.8 53.1852 121.26 52.8951C120.72 52.6051 120.342 51.9553 120.128 50.9459L119.106 46.1393L117.592 46.4611L117.326 45.211L118.841 44.8892L118.589 42.7528L119.874 42.4796L120.319 44.5748L122.89 44.0284L123.156 45.2785L120.585 45.8249L121.607 50.6315C121.724 51.1832 121.915 51.5351 122.181 51.6872C122.444 51.8276 122.857 51.838 123.42 51.7182L124.336 51.5236L124.605 52.7913L123.267 53.0757ZM134.675 50.8718C133.63 51.0938 132.706 51.0143 131.901 50.6333C131.096 50.2523 130.539 49.6224 130.229 48.7435L131.744 48.4217C131.935 48.8595 132.26 49.2075 132.72 49.4655C133.189 49.7093 133.758 49.7602 134.427 49.6179C135.049 49.4857 135.479 49.2593 135.718 48.9387C135.954 48.6063 136.033 48.2582 135.956 47.8944C135.844 47.3662 135.575 47.0552 135.15 46.9615C134.737 46.8652 134.17 46.8203 133.447 46.8266C132.958 46.8325 132.459 46.7974 131.953 46.7211C131.446 46.6448 131 46.4819 130.616 46.2323C130.229 45.9711 129.979 45.5763 129.867 45.0481C129.705 44.2852 129.854 43.6032 130.316 43.0022C130.786 42.3869 131.508 41.9758 132.482 41.7687C133.41 41.5716 134.217 41.6454 134.903 41.9902C135.599 42.3207 136.085 42.9044 136.361 43.7413L134.9 44.0519C134.746 43.6184 134.479 43.3133 134.098 43.1367C133.726 42.9458 133.27 42.9077 132.731 43.0225C132.202 43.1348 131.815 43.3336 131.569 43.619C131.335 43.9019 131.256 44.2253 131.334 44.5892C131.409 44.9413 131.649 45.1784 132.055 45.3006C132.473 45.4204 133.014 45.4833 133.678 45.4894C134.243 45.492 134.785 45.5302 135.303 45.604C135.831 45.6635 136.284 45.831 136.662 46.1066C137.048 46.3679 137.309 46.8154 137.444 47.4493C137.623 48.2332 137.462 48.9483 136.961 49.5945C136.47 50.2264 135.708 50.6522 134.675 50.8718ZM144.059 48.8771C143.226 49.0542 142.447 49.0236 141.721 48.7852C140.993 48.5351 140.369 48.1095 139.849 47.5086C139.34 46.9051 138.987 46.1398 138.79 45.2125C138.596 44.2969 138.608 43.4601 138.827 42.702C139.044 41.9321 139.435 41.2907 140.001 40.7779C140.576 40.2508 141.292 39.8962 142.148 39.7141C142.994 39.5345 143.763 39.5735 144.455 39.8311C145.157 40.0744 145.739 40.4723 146.199 41.0245C146.66 41.5767 146.967 42.2109 147.119 42.9269C147.147 43.056 147.168 43.1863 147.184 43.318C147.211 43.4471 147.242 43.5938 147.277 43.7581L140.323 45.2364C140.5 45.8979 140.771 46.4231 141.136 46.8117C141.51 47.1861 141.926 47.4412 142.384 47.5769C142.854 47.7101 143.324 47.7268 143.794 47.627C144.404 47.4972 144.885 47.2479 145.236 46.8788C145.587 46.5098 145.805 46.0647 145.89 45.5435L147.352 45.2329C147.289 46.0927 146.981 46.8637 146.426 47.5458C145.881 48.2138 145.092 48.6575 144.059 48.8771ZM142.379 40.9717C141.675 41.1214 141.093 41.472 140.634 42.0235C140.183 42.5609 140.005 43.2491 140.097 44.0882L145.59 42.9206C145.388 42.1416 144.987 41.5828 144.388 41.244C143.788 40.9053 143.118 40.8145 142.379 40.9717ZM150.112 47.3696L147.418 34.6928L148.897 34.3785L150.517 42.0022L153.309 37.5627L155.123 37.1772L152.087 41.9444L157.472 45.8053L155.588 46.2058L150.629 42.5304L151.591 47.0553L150.112 47.3696ZM161.866 45.0922C161.138 45.2469 160.507 45.2521 159.973 45.1079C159.44 44.9637 159.012 44.7112 158.69 44.3503C158.368 43.9893 158.156 43.5683 158.053 43.087C157.864 42.1949 158.058 41.4359 158.637 40.81C159.215 40.184 160.091 39.7463 161.265 39.4968L163.624 38.9953L163.602 38.8897C163.44 38.1267 163.118 37.594 162.637 37.2915C162.153 36.9772 161.576 36.8912 160.907 37.0334C160.332 37.1556 159.864 37.4084 159.504 37.7917C159.153 38.1607 158.983 38.6323 158.995 39.2064L157.481 39.5282C157.405 38.8819 157.503 38.303 157.774 37.7913C158.058 37.2772 158.451 36.85 158.956 36.5097C159.457 36.1577 160.019 35.9156 160.641 35.7833C161.862 35.5238 162.848 35.6579 163.598 36.1855C164.357 36.6988 164.851 37.4954 165.081 38.5753L166.222 43.9453L164.902 44.226L164.481 42.6777C164.339 43.2231 164.065 43.723 163.659 44.1774C163.261 44.6176 162.664 44.9226 161.866 45.0922ZM161.829 43.7935C162.392 43.6737 162.842 43.4247 163.179 43.0465C163.527 42.6657 163.757 42.2181 163.869 41.7037C163.98 41.1893 163.981 40.6738 163.871 40.1573L163.868 40.1397L161.632 40.615C160.763 40.7997 160.179 41.0832 159.88 41.4658C159.59 41.834 159.493 42.2412 159.588 42.6872C159.685 43.145 159.928 43.4798 160.317 43.6917C160.714 43.8893 161.218 43.9232 161.829 43.7935ZM168.441 43.4737L166.585 34.7408L167.923 34.4564L168.402 36.1028C168.549 35.4703 168.863 34.9252 169.342 34.4676C169.822 34.0099 170.466 33.695 171.276 33.5228L171.605 35.0722L171.2 35.1583C170.684 35.2681 170.229 35.463 169.834 35.7431C169.437 36.0115 169.156 36.3903 168.99 36.8795C168.824 37.3687 168.822 37.9948 168.984 38.7577L169.92 43.1594L168.441 43.4737ZM177.787 41.708C177.059 41.8627 176.429 41.8679 175.895 41.7237C175.362 41.5795 174.934 41.3269 174.612 40.966C174.289 40.6051 174.077 40.184 173.975 39.7028C173.785 38.8107 173.98 38.0517 174.558 37.4257C175.137 36.7998 176.013 36.362 177.187 36.1125L179.546 35.6111L179.524 35.5054C179.361 34.7425 179.04 34.2097 178.558 33.9072C178.074 33.593 177.498 33.5069 176.829 33.6491C176.254 33.7714 175.786 34.0242 175.426 34.4074C175.075 34.7764 174.905 35.248 174.917 35.8222L173.403 36.144C173.327 35.4977 173.424 34.9187 173.696 34.4071C173.979 33.8929 174.373 33.4657 174.877 33.1254C175.379 32.7734 175.941 32.5313 176.563 32.3991C177.784 32.1396 178.769 32.2736 179.519 32.8012C180.279 33.3146 180.773 34.1112 181.003 35.1911L182.144 40.5611L180.823 40.8418L180.402 39.2935C180.261 39.8389 179.987 40.3388 179.58 40.7932C179.183 41.2334 178.585 41.5383 177.787 41.708ZM177.75 40.4092C178.314 40.2895 178.764 40.0405 179.101 39.6622C179.449 39.2814 179.679 38.8338 179.79 38.3194C179.902 37.805 179.903 37.2896 179.793 36.7731L179.789 36.7555L177.553 37.2308C176.685 37.4154 176.101 37.699 175.802 38.0815C175.512 38.4498 175.415 38.857 175.509 39.303C175.607 39.7608 175.85 40.0956 176.238 40.3074C176.636 40.505 177.14 40.539 177.75 40.4092ZM184.363 40.0895L182.506 31.3566L183.845 31.0722L184.266 32.6204C184.43 32.0089 184.743 31.4885 185.204 31.0593C185.664 30.6301 186.229 30.3444 186.898 30.2022C187.931 29.9827 188.82 30.1249 189.565 30.629C190.32 31.1189 190.835 32.0153 191.112 33.3182L192.198 38.4241L190.719 38.7385L189.667 33.791C189.28 31.9716 188.336 31.2216 186.833 31.541C186.082 31.7007 185.513 32.11 185.125 32.769C184.747 33.4137 184.665 34.2408 184.88 35.2502L185.842 39.7751L184.363 40.0895ZM197.305 34.4677C196.812 34.5725 196.347 34.604 195.909 34.5622L195.204 35.5768C195.353 35.6433 195.529 35.6917 195.732 35.7223C195.944 35.7385 196.238 35.7373 196.614 35.7187C196.988 35.6883 197.51 35.6326 198.18 35.5516C199.371 35.3842 200.268 35.4758 200.87 35.8263C201.472 36.1768 201.851 36.7218 202.009 37.4613C202.116 37.966 202.077 38.4772 201.893 38.9948C201.72 39.51 201.378 39.9754 200.865 40.3911C200.364 40.8043 199.667 41.1057 198.775 41.2953C197.989 41.4625 197.268 41.5053 196.613 41.4237C195.96 41.3539 195.418 41.1439 194.988 40.7937C194.56 40.4553 194.279 39.9691 194.144 39.3353C194.075 39.0066 194.086 38.6299 194.18 38.2051C194.276 37.7921 194.529 37.3642 194.938 36.9215C194.657 36.8708 194.411 36.8067 194.198 36.7292C193.994 36.6375 193.8 36.5316 193.615 36.4115L193.529 36.0065L194.711 34.2094C193.894 33.7698 193.383 33.0687 193.178 32.1062C193.056 31.531 193.08 30.98 193.25 30.4531C193.42 29.9262 193.735 29.4729 194.194 29.0931C194.651 28.7017 195.249 28.4273 195.988 28.2701C196.493 28.1629 196.966 28.136 197.406 28.1895L200.628 27.5046L200.864 28.6139L199.242 29.0323C199.687 29.453 199.978 29.9861 200.115 30.6317C200.238 31.2068 200.208 31.7591 200.026 32.2885C199.856 32.8154 199.542 33.2745 199.086 33.666C198.638 34.0433 198.045 34.3105 197.305 34.4677ZM197.047 33.2528C197.669 33.1206 198.129 32.8573 198.425 32.4631C198.731 32.0546 198.819 31.5452 198.689 30.9348C198.562 30.3362 198.277 29.9183 197.834 29.6812C197.4 29.4299 196.872 29.3704 196.25 29.5026C195.616 29.6373 195.146 29.9089 194.841 30.3174C194.544 30.7117 194.46 31.2081 194.587 31.8068C194.717 32.4171 194.998 32.848 195.432 33.0993C195.875 33.3364 196.413 33.3875 197.047 33.2528ZM195.558 38.8875C195.683 39.4744 196.022 39.8563 196.575 40.0332C197.13 40.2219 197.777 40.2376 198.517 40.0805C199.245 39.9258 199.792 39.6438 200.159 39.2346C200.538 38.8229 200.671 38.3529 200.559 37.8247C200.479 37.4491 200.256 37.1529 199.891 36.936C199.529 36.7309 198.932 36.6922 198.1 36.8199C197.444 36.9102 196.874 36.97 196.39 36.9994C195.963 37.3599 195.705 37.7031 195.615 38.029C195.527 38.3666 195.508 38.6528 195.558 38.8875Z" fill="#473558"/>
</svg>
