<svg width="257" height="92" viewBox="0 0 257 92" fill="none" xmlns="http://www.w3.org/2000/svg">
<mask id="path-1-outside-1_1_2080" maskUnits="userSpaceOnUse" x="-0.207335" y="-0.769433" width="257.952" height="93.1215" fill="black">
<rect fill="white" x="-0.207335" y="-0.769433" width="257.952" height="93.1215"/>
<path d="M7.42399 8.24181C8.3426 3.92008 12.5907 1.16131 16.9125 2.07992L248.733 51.355C253.055 52.2736 255.814 56.5217 254.895 60.8435L250.113 83.3409C249.195 87.6626 244.947 90.4214 240.625 89.5027L8.80391 40.2277C4.48218 39.3091 1.72341 35.0609 2.64202 30.7392L7.42399 8.24181Z"/>
</mask>
<path d="M7.42399 8.24181C8.3426 3.92008 12.5907 1.16131 16.9125 2.07992L248.733 51.355C253.055 52.2736 255.814 56.5217 254.895 60.8435L250.113 83.3409C249.195 87.6626 244.947 90.4214 240.625 89.5027L8.80391 40.2277C4.48218 39.3091 1.72341 35.0609 2.64202 30.7392L7.42399 8.24181Z" fill="#FFFF3E"/>
<path d="M16.9125 2.07992L16.7045 3.05807L248.526 52.3331L248.733 51.355L248.941 50.3768L17.1204 1.10177L16.9125 2.07992ZM254.895 60.8435L253.917 60.6356L249.135 83.1329L250.113 83.3409L251.091 83.5488L255.873 61.0514L254.895 60.8435ZM240.625 89.5027L240.833 88.5246L9.01182 39.2495L8.80391 40.2277L8.596 41.2058L240.417 90.4809L240.625 89.5027ZM2.64202 30.7392L3.62017 30.9471L8.40213 8.44972L7.42399 8.24181L6.44584 8.03389L1.66387 30.5313L2.64202 30.7392ZM8.80391 40.2277L9.01182 39.2495C5.23031 38.4457 2.81638 34.7286 3.62017 30.9471L2.64202 30.7392L1.66387 30.5313C0.630433 35.3932 3.73405 40.1724 8.596 41.2058L8.80391 40.2277ZM250.113 83.3409L249.135 83.1329C248.331 86.9145 244.614 89.3284 240.833 88.5246L240.625 89.5027L240.417 90.4809C245.279 91.5143 250.058 88.4107 251.091 83.5488L250.113 83.3409ZM248.733 51.355L248.526 52.3331C252.307 53.1369 254.721 56.854 253.917 60.6356L254.895 60.8435L255.873 61.0514C256.907 56.1894 253.803 51.4103 248.941 50.3768L248.733 51.355ZM16.9125 2.07992L17.1204 1.10177C12.2584 0.0683339 7.47928 3.17195 6.44584 8.03389L7.42399 8.24181L8.40213 8.44972C9.20592 4.66821 12.923 2.25428 16.7045 3.05807L16.9125 2.07992Z" fill="#D5D52C" mask="url(#path-1-outside-1_1_2080)"/>
<path d="M55.3591 36.8329L57.9788 24.5082L62.31 25.4288C63.1786 25.6135 63.8647 25.9065 64.3682 26.308C64.886 26.7002 65.2345 27.1669 65.414 27.708C65.5959 28.2374 65.6244 28.7955 65.4997 29.3824C65.33 30.1806 64.9794 30.7624 64.4478 31.1279C63.928 31.4958 63.35 31.7042 62.7139 31.753C63.1543 31.9325 63.5323 32.203 63.848 32.5646C64.1637 32.9261 64.3823 33.3406 64.5038 33.8081C64.637 34.278 64.65 34.7654 64.5427 35.2701C64.4104 35.8922 64.1368 36.4291 63.7219 36.8806C63.3094 37.3205 62.7714 37.6294 62.1079 37.8073C61.4469 37.9735 60.688 37.9656 59.8312 37.7834L55.3591 36.8329ZM58.3125 30.2102L61.0592 30.794C61.8456 30.9612 62.4888 30.9077 62.9887 30.6337C63.4911 30.3479 63.8121 29.8763 63.9518 29.219C64.0841 28.5969 63.9788 28.0532 63.6361 27.5877C63.3051 27.1248 62.7229 26.8048 61.8896 26.6276L59.1957 26.055L58.3125 30.2102ZM57.1 35.9148L59.9347 36.5173C60.7798 36.6969 61.4724 36.6417 62.0125 36.3517C62.5551 36.0499 62.9013 35.5469 63.051 34.8426C63.1982 34.1501 63.0748 33.5473 62.6809 33.0342C62.2894 32.5093 61.6829 32.1595 60.8613 31.9849L58.0618 31.3899L57.1 35.9148ZM69.7439 40.1113C68.9105 39.9342 68.211 39.5892 67.6452 39.0763C67.082 38.5518 66.6849 37.9092 66.454 37.1485C66.2348 36.3904 66.2238 35.5477 66.4209 34.6204C66.6155 33.7049 66.9671 32.9454 67.4757 32.3419C67.9868 31.7267 68.605 31.3 69.3304 31.0616C70.0701 30.8139 70.8683 30.7812 71.7252 30.9633C72.5703 31.143 73.2569 31.4913 73.7849 32.0084C74.3272 32.5162 74.6965 33.1161 74.8929 33.8081C75.0894 34.5001 75.1115 35.204 74.9593 35.92C74.9318 36.0492 74.8985 36.177 74.8594 36.3036C74.8319 36.4328 74.8007 36.5795 74.7658 36.7438L67.8112 35.2656C67.7042 35.9421 67.7382 36.5321 67.9134 37.0355C68.1028 37.5297 68.3792 37.9319 68.7426 38.2423C69.1178 38.5551 69.5401 38.7614 70.0096 38.8612C70.62 38.991 71.1605 38.9586 71.6312 38.7643C72.1019 38.5699 72.4823 38.252 72.7724 37.8107L74.2338 38.1213C73.8269 38.8813 73.2315 39.4602 72.4477 39.8579C71.6781 40.2464 70.7768 40.3308 69.7439 40.1113ZM71.4243 32.2059C70.72 32.0562 70.0459 32.1399 69.4019 32.4569C68.7721 32.7647 68.3288 33.3207 68.072 34.1249L73.5653 35.2925C73.6972 34.4986 73.5583 33.825 73.1483 33.2717C72.7384 32.7183 72.1637 32.3631 71.4243 32.2059ZM75.8866 41.1961L78.5812 28.5194L80.0601 28.8337L77.3656 41.5105L75.8866 41.1961ZM82.9555 31.547C82.6621 31.4846 82.4355 31.3383 82.2759 31.1081C82.1305 30.8686 82.089 30.6022 82.1514 30.3087C82.2113 30.027 82.3551 29.8122 82.5828 29.6644C82.8223 29.519 83.0887 29.4775 83.3822 29.5398C83.6639 29.5997 83.8845 29.7448 84.0441 29.975C84.2038 30.2052 84.2536 30.4612 84.1938 30.7429C84.1314 31.0363 83.9792 31.2616 83.7373 31.4187C83.4978 31.5641 83.2372 31.6069 82.9555 31.547ZM79.9481 42.0594L81.8044 33.3265L83.2833 33.6409L81.4271 42.3738L79.9481 42.0594ZM92.1127 44.6451C91.3145 44.4754 90.7277 44.1483 90.3523 43.6636C89.9768 43.179 89.8964 42.4319 90.111 41.4225L91.1326 36.6159L89.6185 36.294L89.8842 35.044L91.3983 35.3658L92.0374 33.3118L93.3227 33.585L92.8773 35.6802L95.4479 36.2266L95.1822 37.4766L92.6116 36.9302L91.5899 41.7369C91.4727 42.2885 91.5043 42.6878 91.6849 42.9348C91.868 43.17 92.2413 43.3475 92.8047 43.4672L93.7202 43.6618L93.4508 44.9295L92.1127 44.6451ZM98.6364 34.8801C98.343 34.8177 98.1165 34.6714 97.9568 34.4412C97.8115 34.2017 97.7699 33.9353 97.8323 33.6418C97.8922 33.3601 98.036 33.1453 98.2637 32.9974C98.5032 32.852 98.7696 32.8105 99.0631 32.8729C99.3448 32.9328 99.5655 33.0778 99.7251 33.3081C99.8847 33.5383 99.9346 33.7942 99.8747 34.0759C99.8123 34.3694 99.6602 34.5947 99.4182 34.7518C99.1787 34.8972 98.9182 34.94 98.6364 34.8801ZM95.6291 45.3925L97.4853 36.6596L98.9643 36.974L97.108 45.7069L95.6291 45.3925ZM99.6831 46.2542L102.378 33.5775L103.857 33.8918L102.236 41.5155L106.592 38.5954L108.406 38.9809L103.694 42.1014L107.043 47.8186L105.159 47.4181L102.124 42.0437L101.162 46.5686L99.6831 46.2542ZM111.8 49.0507C110.967 48.8735 110.267 48.5286 109.702 48.0157C109.139 47.4912 108.741 46.8486 108.511 46.0879C108.291 45.3298 108.28 44.4871 108.477 43.5598C108.672 42.6443 109.024 41.8848 109.532 41.2813C110.043 40.6661 110.662 40.2393 111.387 40.001C112.127 39.7533 112.925 39.7206 113.782 39.9027C114.627 40.0823 115.313 40.4307 115.841 40.9478C116.384 41.4556 116.753 42.0555 116.949 42.7475C117.146 43.4394 117.168 44.1434 117.016 44.8594C116.988 44.9885 116.955 45.1164 116.916 45.243C116.888 45.3722 116.857 45.5189 116.822 45.6832L109.868 44.205C109.761 44.8815 109.795 45.4715 109.97 45.9749C110.159 46.4691 110.436 46.8713 110.799 47.1817C111.174 47.4945 111.597 47.7008 112.066 47.8006C112.677 47.9303 113.217 47.898 113.688 47.7036C114.158 47.5093 114.539 47.1914 114.829 46.7501L116.29 47.0607C115.883 47.8207 115.288 48.3996 114.504 48.7973C113.735 49.1858 112.833 49.2702 111.8 49.0507ZM113.481 41.1453C112.777 40.9956 112.102 41.0793 111.458 41.3963C110.829 41.7041 110.385 42.2601 110.129 43.0643L115.622 44.2319C115.754 43.438 115.615 42.7644 115.205 42.211C114.795 41.6577 114.22 41.3025 113.481 41.1453ZM121.102 50.8069C120.304 50.6373 119.717 50.3101 119.341 49.8255C118.966 49.3408 118.885 48.5938 119.1 47.5843L120.122 42.7777L118.608 42.4558L118.873 41.2058L120.387 41.5276L121.026 39.4736L122.312 39.7468L121.866 41.842L124.437 42.3884L124.171 43.6385L121.601 43.0921L120.579 47.8987C120.462 48.4504 120.493 48.8497 120.674 49.0966C120.857 49.3318 121.23 49.5093 121.794 49.6291L122.709 49.8237L122.44 51.0913L121.102 50.8069ZM132.42 53.4334C131.375 53.2114 130.562 52.7627 129.982 52.0873C129.402 51.4118 129.149 50.6098 129.224 49.681L130.738 50.0029C130.735 50.4806 130.891 50.9308 131.206 51.3536C131.535 51.767 132.034 52.0449 132.703 52.1871C133.325 52.3193 133.81 52.2875 134.159 52.0917C134.509 51.8841 134.724 51.5983 134.801 51.2345C134.913 50.7063 134.794 50.313 134.444 50.0546C134.106 49.7987 133.606 49.5267 132.943 49.2386C132.494 49.0449 132.053 48.8101 131.621 48.5343C131.189 48.2584 130.848 47.9283 130.598 47.5441C130.351 47.148 130.284 46.6859 130.396 46.1577C130.558 45.3948 130.972 44.8325 131.638 44.4711C132.318 44.1003 133.145 44.0185 134.119 44.2256C135.046 44.4227 135.754 44.8184 136.241 45.4126C136.742 45.9976 136.949 46.7285 136.86 47.6054L135.399 47.2947C135.435 46.8362 135.315 46.4488 135.039 46.1324C134.777 45.8068 134.376 45.5867 133.836 45.4719C133.308 45.3596 132.873 45.3838 132.532 45.5445C132.203 45.7076 132 45.9711 131.923 46.335C131.848 46.6871 131.971 47.0016 132.293 47.2785C132.626 47.5579 133.094 47.8354 133.698 48.1109C134.213 48.3431 134.693 48.5983 135.136 48.8767C135.594 49.1458 135.94 49.483 136.173 49.8883C136.42 50.2843 136.476 50.7992 136.341 51.4331C136.186 52.222 135.748 52.8098 135.028 53.1965C134.322 53.574 133.453 53.653 132.42 53.4334ZM141.804 55.4281C140.971 55.251 140.271 54.906 139.705 54.3932C139.142 53.8686 138.745 53.226 138.514 52.4654C138.295 51.7072 138.284 50.8645 138.481 49.9373C138.676 49.0217 139.027 48.2622 139.536 47.6588C140.047 47.0436 140.665 46.6168 141.39 46.3784C142.13 46.1308 142.928 46.098 143.785 46.2802C144.63 46.4598 145.317 46.8081 145.845 47.3252C146.387 47.8331 146.757 48.433 146.953 49.1249C147.149 49.8169 147.172 50.5209 147.019 51.2369C146.992 51.366 146.959 51.4939 146.919 51.6205C146.892 51.7496 146.861 51.8963 146.826 52.0607L139.871 50.5824C139.764 51.2589 139.798 51.8489 139.973 52.3523C140.163 52.8465 140.439 53.2488 140.803 53.5591C141.178 53.8719 141.6 54.0783 142.07 54.1781C142.68 54.3078 143.221 54.2755 143.691 54.0811C144.162 53.8867 144.542 53.5688 144.832 53.1275L146.294 53.4381C145.887 54.1981 145.292 54.777 144.508 55.1747C143.738 55.5632 142.837 55.6477 141.804 55.4281ZM143.484 47.5227C142.78 47.373 142.106 47.4567 141.462 47.7738C140.832 48.0815 140.389 48.6375 140.132 49.4417L145.625 50.6093C145.757 49.8154 145.618 49.1418 145.208 48.5885C144.798 48.0352 144.224 47.6799 143.484 47.5227ZM147.947 56.513L150.641 43.8362L152.12 44.1506L150.5 51.7742L154.856 48.8542L156.67 49.2396L151.958 52.3602L155.306 58.0773L153.422 57.6769L150.387 52.3024L149.426 56.8273L147.947 56.513ZM159.61 59.213C158.882 59.0583 158.304 58.8065 157.875 58.4578C157.446 58.109 157.158 57.7042 157.011 57.2435C156.863 56.7828 156.841 56.3118 156.943 55.8305C157.133 54.9385 157.619 54.3242 158.402 53.9876C159.185 53.6511 160.164 53.6076 161.338 53.8571L163.697 54.3585L163.719 54.2529C163.881 53.4899 163.804 52.8724 163.487 52.4002C163.173 51.9163 162.681 51.6032 162.012 51.461C161.437 51.3388 160.907 51.3795 160.422 51.5831C159.952 51.7775 159.605 52.1393 159.382 52.6685L157.868 52.3466C158.061 51.7253 158.386 51.2361 158.842 50.8792C159.31 50.5247 159.844 50.2946 160.443 50.1888C161.044 50.0713 161.656 50.0787 162.278 50.2109C163.499 50.4704 164.345 50.9937 164.815 51.7807C165.3 52.5585 165.428 53.4874 165.198 54.5673L164.057 59.9373L162.736 59.6566L162.981 58.0709C162.63 58.5115 162.176 58.8567 161.62 59.1066C161.078 59.3472 160.408 59.3826 159.61 59.213ZM160.105 58.0115C160.668 58.1313 161.181 58.0869 161.642 57.8783C162.115 57.6721 162.507 57.3568 162.819 56.9322C163.13 56.5076 163.34 56.037 163.45 55.5206L163.454 55.503L161.218 55.0277C160.349 54.8431 159.7 54.8647 159.272 55.0925C158.857 55.3111 158.602 55.6434 158.508 56.0894C158.41 56.5472 158.496 56.9519 158.765 57.3035C159.048 57.6458 159.494 57.8818 160.105 58.0115ZM166.275 60.4089L168.132 51.676L169.47 51.9604L169.238 53.6592C169.63 53.1415 170.138 52.771 170.762 52.5479C171.386 52.3248 172.103 52.2993 172.913 52.4714L172.584 54.0208L172.179 53.9347C171.662 53.8249 171.167 53.8178 170.693 53.9133C170.221 53.9971 169.81 54.2286 169.459 54.608C169.109 54.9875 168.852 55.5586 168.69 56.3216L167.754 60.7233L166.275 60.4089ZM175.532 62.5972C174.804 62.4425 174.226 62.1908 173.797 61.842C173.368 61.4932 173.08 61.0885 172.933 60.6277C172.785 60.167 172.763 59.696 172.865 59.2148C173.054 58.3227 173.541 57.7084 174.324 57.3719C175.107 57.0353 176.085 56.9918 177.259 57.2413L179.618 57.7428L179.641 57.6371C179.803 56.8742 179.726 56.2566 179.409 55.7845C179.095 55.3005 178.603 54.9875 177.934 54.8453C177.359 54.723 176.829 54.7637 176.344 54.9673C175.873 55.1617 175.526 55.5235 175.304 56.0527L173.789 55.7309C173.983 55.1095 174.308 54.6204 174.764 54.2634C175.232 53.9089 175.765 53.6788 176.364 53.5731C176.966 53.4556 177.578 53.463 178.2 53.5952C179.421 53.8547 180.266 54.3779 180.737 55.165C181.222 55.9428 181.349 56.8716 181.12 57.9515L179.978 63.3215L178.658 63.0409L178.903 61.4552C178.552 61.8957 178.098 62.241 177.542 62.4908C177 62.7314 176.33 62.7669 175.532 62.5972ZM176.026 61.3958C176.59 61.5156 177.102 61.4711 177.564 61.2625C178.037 61.0564 178.429 60.741 178.74 60.3164C179.051 59.8918 179.262 59.4213 179.371 58.9048L179.375 58.8872L177.139 58.4119C176.271 58.2273 175.622 58.2489 175.193 58.4768C174.779 58.6953 174.524 59.0277 174.429 59.4737C174.332 59.9315 174.418 60.3361 174.686 60.6877C174.969 61.03 175.416 61.2661 176.026 61.3958ZM182.197 63.7931L184.053 55.0602L185.391 55.3447L185.146 56.9304C185.545 56.4386 186.043 56.0903 186.638 55.8857C187.234 55.6811 187.866 55.6498 188.535 55.792C189.568 56.0116 190.322 56.5032 190.798 57.2667C191.288 58.0211 191.394 59.0497 191.117 60.3526L190.032 65.4585L188.553 65.1442L189.605 60.1967C189.991 58.3773 189.434 57.308 187.931 56.9886C187.18 56.8289 186.493 56.9713 185.871 57.4157C185.264 57.8508 184.852 58.5731 184.638 59.5826L183.676 64.1075L182.197 63.7931ZM196.308 63.9217C195.815 63.8169 195.376 63.6563 194.993 63.4398L193.937 64.0802C194.046 64.2016 194.187 64.3174 194.36 64.4278C194.547 64.5289 194.816 64.6474 195.167 64.7835C195.521 64.9078 196.021 65.0691 196.666 65.2675C197.822 65.5992 198.604 66.0475 199.011 66.6126C199.419 67.1776 199.544 67.8299 199.387 68.5694C199.279 69.0741 199.036 69.5254 198.657 69.9233C198.29 70.3237 197.787 70.6095 197.15 70.7807C196.524 70.9544 195.765 70.9464 194.873 70.7568C194.087 70.5896 193.411 70.3355 192.845 69.9945C192.277 69.6652 191.868 69.2532 191.617 68.7582C191.364 68.2751 191.305 67.7166 191.44 67.0827C191.51 66.7541 191.674 66.4148 191.932 66.0648C192.188 65.7267 192.593 65.4385 193.147 65.2004C192.911 65.0399 192.712 64.881 192.549 64.7237C192.4 64.5571 192.266 64.3814 192.145 64.1963L192.232 63.7914L194.042 62.6305C193.475 61.8964 193.293 61.0481 193.498 60.0856C193.62 59.5105 193.866 59.0169 194.236 58.6047C194.605 58.1926 195.077 57.9064 195.651 57.7462C196.227 57.5743 196.885 57.5669 197.625 57.7241C198.13 57.8314 198.572 57.9991 198.953 58.2273L202.175 58.9122L201.94 60.0214L200.287 59.7438C200.523 60.3091 200.572 60.9146 200.435 61.5601C200.312 62.1353 200.061 62.6277 199.679 63.0373C199.309 63.4495 198.836 63.7415 198.26 63.9134C197.698 64.0761 197.047 64.0788 196.308 63.9217ZM196.566 62.7068C197.188 62.839 197.715 62.7854 198.146 62.5458C198.591 62.297 198.879 61.8674 199.009 61.257C199.136 60.6584 199.045 60.1607 198.737 59.7639C198.443 59.3579 197.985 59.0888 197.363 58.9566C196.729 58.8219 196.189 58.8789 195.744 59.1277C195.313 59.3673 195.033 59.7864 194.906 60.385C194.776 60.9954 194.859 61.5036 195.153 61.9096C195.461 62.3063 195.932 62.5721 196.566 62.7068ZM192.914 67.2487C192.789 67.8356 192.943 68.3223 193.376 68.7088C193.807 69.107 194.392 69.3848 195.131 69.5419C195.859 69.6966 196.474 69.6617 196.975 69.4371C197.489 69.2149 197.802 68.8398 197.914 68.3116C197.994 67.936 197.911 67.5749 197.666 67.2283C197.418 66.8935 196.888 66.6153 196.077 66.3937C195.441 66.2095 194.896 66.0323 194.441 65.8621C193.905 66.018 193.53 66.2265 193.315 66.4875C193.097 66.7602 192.964 67.014 192.914 67.2487Z" fill="#473558"/>
</svg>
