<svg width="619" height="88" viewBox="0 0 619 88" fill="none" xmlns="http://www.w3.org/2000/svg">
<g filter="url(#filter0_d_1_2122)">
<path d="M0 38C0 29.1634 7.16344 22 16 22H244C252.837 22 260 29.1634 260 38V67C260 75.8366 252.837 83 244 83H16C7.16344 83 0 75.8366 0 67V38Z" fill="#8C52FF"/>
<path d="M16 22.5H244C252.56 22.5 259.5 29.4396 259.5 38V67C259.5 75.5604 252.56 82.5 244 82.5H16C7.43959 82.5 0.5 75.5604 0.5 67V38C0.5 29.4396 7.43959 22.5 16 22.5Z" stroke="#441F8D"/>
<path d="M21.7999 60V44.6H26.5299C29.2432 44.6 31.2379 45.2893 32.5139 46.668C33.8045 48.0467 34.4499 49.9387 34.4499 52.344C34.4499 54.7053 33.8045 56.5753 32.5139 57.954C31.2379 59.318 29.2432 60 26.5299 60H21.7999ZM23.6479 58.46H26.4859C27.9819 58.46 29.1699 58.218 30.0499 57.734C30.9445 57.2353 31.5825 56.5313 31.9639 55.622C32.3452 54.698 32.5359 53.6053 32.5359 52.344C32.5359 51.0533 32.3452 49.946 31.9639 49.022C31.5825 48.098 30.9445 47.3867 30.0499 46.888C29.1699 46.3893 27.9819 46.14 26.4859 46.14H23.6479V58.46ZM40.6382 60.264C39.7289 60.264 38.9736 60.11 38.3722 59.802C37.7709 59.494 37.3236 59.0833 37.0302 58.57C36.7369 58.0567 36.5902 57.4993 36.5902 56.898C36.5902 55.7833 37.0156 54.9253 37.8662 54.324C38.7169 53.7227 39.8756 53.422 41.3422 53.422H44.2902V53.29C44.2902 52.3367 44.0409 51.618 43.5422 51.134C43.0436 50.6353 42.3762 50.386 41.5402 50.386C40.8216 50.386 40.1982 50.5693 39.6702 50.936C39.1569 51.288 38.8342 51.8087 38.7022 52.498H36.8102C36.8836 51.706 37.1476 51.0387 37.6022 50.496C38.0716 49.9533 38.6509 49.5427 39.3402 49.264C40.0296 48.9707 40.7629 48.824 41.5402 48.824C43.0656 48.824 44.2096 49.2347 44.9722 50.056C45.7496 50.8627 46.1382 51.9407 46.1382 53.29V60H44.4882L44.3782 58.042C44.0702 58.658 43.6156 59.186 43.0142 59.626C42.4276 60.0513 41.6356 60.264 40.6382 60.264ZM40.9242 58.702C41.6282 58.702 42.2296 58.5187 42.7282 58.152C43.2416 57.7853 43.6302 57.3087 43.8942 56.722C44.1582 56.1353 44.2902 55.5193 44.2902 54.874V54.852H41.4962C40.4109 54.852 39.6409 55.0427 39.1862 55.424C38.7462 55.7907 38.5262 56.2527 38.5262 56.81C38.5262 57.382 38.7316 57.844 39.1422 58.196C39.5676 58.5333 40.1616 58.702 40.9242 58.702ZM49.5046 60V50.65H47.8546V49.088H49.5046V47.196C49.5046 46.14 49.7686 45.37 50.2966 44.886C50.8246 44.402 51.5946 44.16 52.6066 44.16H53.7066V45.744H52.8926C52.3352 45.744 51.9392 45.8613 51.7046 46.096C51.4699 46.316 51.3526 46.6973 51.3526 47.24V49.088H54.0366V50.65H51.3526V60H49.5046ZM60.5488 60C59.5514 60 58.7668 59.758 58.1948 59.274C57.6228 58.79 57.3368 57.9173 57.3368 56.656V50.65H55.4447V49.088H57.3368L57.5788 46.47H59.1848V49.088H62.3968V50.65H59.1848V56.656C59.1848 57.3453 59.3241 57.8147 59.6028 58.064C59.8814 58.2987 60.3728 58.416 61.0768 58.416H62.2208V60H60.5488ZM68.3746 60.264C67.4652 60.264 66.7099 60.11 66.1086 59.802C65.5072 59.494 65.0599 59.0833 64.7666 58.57C64.4732 58.0567 64.3266 57.4993 64.3266 56.898C64.3266 55.7833 64.7519 54.9253 65.6026 54.324C66.4532 53.7227 67.6119 53.422 69.0786 53.422H72.0266V53.29C72.0266 52.3367 71.7772 51.618 71.2786 51.134C70.7799 50.6353 70.1126 50.386 69.2766 50.386C68.5579 50.386 67.9346 50.5693 67.4066 50.936C66.8932 51.288 66.5706 51.8087 66.4386 52.498H64.5466C64.6199 51.706 64.8839 51.0387 65.3386 50.496C65.8079 49.9533 66.3872 49.5427 67.0766 49.264C67.7659 48.9707 68.4992 48.824 69.2766 48.824C70.8019 48.824 71.9459 49.2347 72.7086 50.056C73.4859 50.8627 73.8746 51.9407 73.8746 53.29V60H72.2246L72.1146 58.042C71.8066 58.658 71.3519 59.186 70.7506 59.626C70.1639 60.0513 69.3719 60.264 68.3746 60.264ZM68.6606 58.702C69.3646 58.702 69.9659 58.5187 70.4646 58.152C70.9779 57.7853 71.3666 57.3087 71.6306 56.722C71.8946 56.1353 72.0266 55.5193 72.0266 54.874V54.852H69.2326C68.1472 54.852 67.3772 55.0427 66.9226 55.424C66.4826 55.7907 66.2626 56.2527 66.2626 56.81C66.2626 57.382 66.4679 57.844 66.8786 58.196C67.3039 58.5333 67.8979 58.702 68.6606 58.702ZM76.6469 60V49.088H78.3189L78.4729 51.178C78.8102 50.4593 79.3236 49.8873 80.0129 49.462C80.7022 49.0367 81.5529 48.824 82.5649 48.824V50.76H82.0589C81.4136 50.76 80.8196 50.8773 80.2769 51.112C79.7342 51.332 79.3016 51.7133 78.9789 52.256C78.6562 52.7987 78.4949 53.5467 78.4949 54.5V60H76.6469ZM90.5714 60V44.6H92.7274L98.2714 55.336L103.771 44.6H105.949V60H104.101V47.9L98.9534 57.8H97.5674L92.4194 47.922V60H90.5714ZM110.21 46.668C109.844 46.668 109.536 46.5507 109.286 46.316C109.052 46.0667 108.934 45.7587 108.934 45.392C108.934 45.04 109.052 44.7467 109.286 44.512C109.536 44.2773 109.844 44.16 110.21 44.16C110.562 44.16 110.863 44.2773 111.112 44.512C111.362 44.7467 111.486 45.04 111.486 45.392C111.486 45.7587 111.362 46.0667 111.112 46.316C110.863 46.5507 110.562 46.668 110.21 46.668ZM109.286 60V49.088H111.134V60H109.286ZM118.664 60C117.667 60 116.882 59.758 116.31 59.274C115.738 58.79 115.452 57.9173 115.452 56.656V50.65H113.56V49.088H115.452L115.694 46.47H117.3V49.088H120.512V50.65H117.3V56.656C117.3 57.3453 117.439 57.8147 117.718 58.064C117.997 58.2987 118.488 58.416 119.192 58.416H120.336V60H118.664ZM122.86 60V49.088H124.532L124.686 51.178C125.023 50.4593 125.536 49.8873 126.226 49.462C126.915 49.0367 127.766 48.824 128.778 48.824V50.76H128.272C127.626 50.76 127.032 50.8773 126.49 51.112C125.947 51.332 125.514 51.7133 125.192 52.256C124.869 52.7987 124.708 53.5467 124.708 54.5V60H122.86ZM134.482 60.264C133.573 60.264 132.817 60.11 132.216 59.802C131.615 59.494 131.167 59.0833 130.874 58.57C130.581 58.0567 130.434 57.4993 130.434 56.898C130.434 55.7833 130.859 54.9253 131.71 54.324C132.561 53.7227 133.719 53.422 135.186 53.422H138.134V53.29C138.134 52.3367 137.885 51.618 137.386 51.134C136.887 50.6353 136.22 50.386 135.384 50.386C134.665 50.386 134.042 50.5693 133.514 50.936C133.001 51.288 132.678 51.8087 132.546 52.498H130.654C130.727 51.706 130.991 51.0387 131.446 50.496C131.915 49.9533 132.495 49.5427 133.184 49.264C133.873 48.9707 134.607 48.824 135.384 48.824C136.909 48.824 138.053 49.2347 138.816 50.056C139.593 50.8627 139.982 51.9407 139.982 53.29V60H138.332L138.222 58.042C137.914 58.658 137.459 59.186 136.858 59.626C136.271 60.0513 135.479 60.264 134.482 60.264ZM134.768 58.702C135.472 58.702 136.073 58.5187 136.572 58.152C137.085 57.7853 137.474 57.3087 137.738 56.722C138.002 56.1353 138.134 55.5193 138.134 54.874V54.852H135.34C134.255 54.852 133.485 55.0427 133.03 55.424C132.59 55.7907 132.37 56.2527 132.37 56.81C132.37 57.382 132.575 57.844 132.986 58.196C133.411 58.5333 134.005 58.702 134.768 58.702ZM153.593 60.264C152.463 60.264 151.481 60.0587 150.645 59.648C149.809 59.2373 149.163 58.6653 148.709 57.932C148.254 57.1987 148.027 56.348 148.027 55.38H149.963C149.963 55.9813 150.102 56.5387 150.381 57.052C150.659 57.5507 151.063 57.954 151.591 58.262C152.133 58.5553 152.801 58.702 153.593 58.702C154.634 58.702 155.441 58.4527 156.013 57.954C156.585 57.4553 156.871 56.832 156.871 56.084C156.871 55.468 156.739 54.9767 156.475 54.61C156.211 54.2287 155.851 53.9207 155.397 53.686C154.957 53.4513 154.443 53.246 153.857 53.07C153.285 52.894 152.683 52.696 152.053 52.476C150.865 52.0653 149.985 51.5593 149.413 50.958C148.841 50.342 148.555 49.5427 148.555 48.56C148.54 47.7387 148.731 47.0127 149.127 46.382C149.523 45.7367 150.08 45.238 150.799 44.886C151.532 44.5193 152.397 44.336 153.395 44.336C154.377 44.336 155.228 44.5193 155.947 44.886C156.68 45.2527 157.245 45.7587 157.641 46.404C158.051 47.0493 158.264 47.7827 158.279 48.604H156.343C156.343 48.1787 156.233 47.7607 156.013 47.35C155.793 46.9247 155.455 46.58 155.001 46.316C154.561 46.052 154.003 45.92 153.329 45.92C152.493 45.9053 151.803 46.118 151.261 46.558C150.733 46.998 150.469 47.6067 150.469 48.384C150.469 49.044 150.652 49.55 151.019 49.902C151.4 50.254 151.928 50.5473 152.603 50.782C153.277 51.002 154.055 51.2587 154.935 51.552C155.668 51.816 156.328 52.124 156.915 52.476C157.501 52.828 157.956 53.2827 158.279 53.84C158.616 54.3973 158.785 55.1087 158.785 55.974C158.785 56.7073 158.594 57.404 158.213 58.064C157.831 58.7093 157.252 59.2373 156.475 59.648C155.712 60.0587 154.751 60.264 153.593 60.264ZM166.201 60.264C165.16 60.264 164.236 60.0293 163.429 59.56C162.623 59.076 161.985 58.4087 161.515 57.558C161.061 56.7073 160.833 55.7027 160.833 54.544C160.833 53.4 161.061 52.4027 161.515 51.552C161.97 50.6867 162.601 50.0193 163.407 49.55C164.229 49.066 165.175 48.824 166.245 48.824C167.301 48.824 168.211 49.066 168.973 49.55C169.751 50.0193 170.345 50.6427 170.755 51.42C171.166 52.1973 171.371 53.0333 171.371 53.928C171.371 54.0893 171.364 54.2507 171.349 54.412C171.349 54.5733 171.349 54.7567 171.349 54.962H162.659C162.703 55.798 162.894 56.4947 163.231 57.052C163.583 57.5947 164.016 58.0053 164.529 58.284C165.057 58.5627 165.615 58.702 166.201 58.702C166.964 58.702 167.602 58.526 168.115 58.174C168.629 57.822 169.003 57.3453 169.237 56.744H171.063C170.77 57.756 170.205 58.5993 169.369 59.274C168.548 59.934 167.492 60.264 166.201 60.264ZM166.201 50.386C165.321 50.386 164.537 50.6573 163.847 51.2C163.173 51.728 162.784 52.5053 162.681 53.532H169.545C169.501 52.5493 169.164 51.7793 168.533 51.222C167.903 50.6647 167.125 50.386 166.201 50.386ZM173.821 60V44.16H175.669V53.686L180.135 49.088H182.401L177.561 54.016L183.017 60H180.663L175.669 54.346V60H173.821ZM188.451 60.264C187.541 60.264 186.786 60.11 186.185 59.802C185.583 59.494 185.136 59.0833 184.843 58.57C184.549 58.0567 184.403 57.4993 184.403 56.898C184.403 55.7833 184.828 54.9253 185.679 54.324C186.529 53.7227 187.688 53.422 189.155 53.422H192.103V53.29C192.103 52.3367 191.853 51.618 191.355 51.134C190.856 50.6353 190.189 50.386 189.353 50.386C188.634 50.386 188.011 50.5693 187.483 50.936C186.969 51.288 186.647 51.8087 186.515 52.498H184.623C184.696 51.706 184.96 51.0387 185.415 50.496C185.884 49.9533 186.463 49.5427 187.153 49.264C187.842 48.9707 188.575 48.824 189.353 48.824C190.878 48.824 192.022 49.2347 192.785 50.056C193.562 50.8627 193.951 51.9407 193.951 53.29V60H192.301L192.191 58.042C191.883 58.658 191.428 59.186 190.827 59.626C190.24 60.0513 189.448 60.264 188.451 60.264ZM188.737 58.702C189.441 58.702 190.042 58.5187 190.541 58.152C191.054 57.7853 191.443 57.3087 191.707 56.722C191.971 56.1353 192.103 55.5193 192.103 54.874V54.852H189.309C188.223 54.852 187.453 55.0427 186.999 55.424C186.559 55.7907 186.339 56.2527 186.339 56.81C186.339 57.382 186.544 57.844 186.955 58.196C187.38 58.5333 187.974 58.702 188.737 58.702ZM196.723 60V49.088H198.395L198.549 51.178C198.886 50.4593 199.4 49.8873 200.089 49.462C200.778 49.0367 201.629 48.824 202.641 48.824V50.76H202.135C201.49 50.76 200.896 50.8773 200.353 51.112C199.81 51.332 199.378 51.7133 199.055 52.256C198.732 52.7987 198.571 53.5467 198.571 54.5V60H196.723ZM208.345 60.264C207.436 60.264 206.681 60.11 206.079 59.802C205.478 59.494 205.031 59.0833 204.737 58.57C204.444 58.0567 204.297 57.4993 204.297 56.898C204.297 55.7833 204.723 54.9253 205.573 54.324C206.424 53.7227 207.583 53.422 209.049 53.422H211.997V53.29C211.997 52.3367 211.748 51.618 211.249 51.134C210.751 50.6353 210.083 50.386 209.247 50.386C208.529 50.386 207.905 50.5693 207.377 50.936C206.864 51.288 206.541 51.8087 206.409 52.498H204.517C204.591 51.706 204.855 51.0387 205.309 50.496C205.779 49.9533 206.358 49.5427 207.047 49.264C207.737 48.9707 208.47 48.824 209.247 48.824C210.773 48.824 211.917 49.2347 212.679 50.056C213.457 50.8627 213.845 51.9407 213.845 53.29V60H212.195L212.085 58.042C211.777 58.658 211.323 59.186 210.721 59.626C210.135 60.0513 209.343 60.264 208.345 60.264ZM208.631 58.702C209.335 58.702 209.937 58.5187 210.435 58.152C210.949 57.7853 211.337 57.3087 211.601 56.722C211.865 56.1353 211.997 55.5193 211.997 54.874V54.852H209.203C208.118 54.852 207.348 55.0427 206.893 55.424C206.453 55.7907 206.233 56.2527 206.233 56.81C206.233 57.382 206.439 57.844 206.849 58.196C207.275 58.5333 207.869 58.702 208.631 58.702ZM216.618 60V49.088H218.29L218.4 51.046C218.752 50.3567 219.258 49.814 219.918 49.418C220.578 49.022 221.326 48.824 222.162 48.824C223.452 48.824 224.479 49.22 225.242 50.012C226.019 50.7893 226.408 51.992 226.408 53.62V60H224.56V53.818C224.56 51.5447 223.621 50.408 221.744 50.408C220.805 50.408 220.02 50.7527 219.39 51.442C218.774 52.1167 218.466 53.0847 218.466 54.346V60H216.618ZM233.519 56.568C232.903 56.568 232.339 56.4873 231.825 56.326L230.725 57.36C230.887 57.4773 231.085 57.58 231.319 57.668C231.569 57.7413 231.921 57.8147 232.375 57.888C232.83 57.9467 233.468 58.0127 234.289 58.086C235.756 58.1887 236.805 58.526 237.435 59.098C238.066 59.67 238.381 60.418 238.381 61.342C238.381 61.9727 238.205 62.574 237.853 63.146C237.516 63.718 236.988 64.1873 236.269 64.554C235.565 64.9207 234.656 65.104 233.541 65.104C232.559 65.104 231.686 64.972 230.923 64.708C230.161 64.4587 229.567 64.07 229.141 63.542C228.716 63.0287 228.503 62.376 228.503 61.584C228.503 61.1733 228.613 60.726 228.833 60.242C229.053 59.7727 229.464 59.3253 230.065 58.9C229.743 58.768 229.464 58.6287 229.229 58.482C229.009 58.3207 228.804 58.1447 228.613 57.954V57.448L230.483 55.6C229.618 54.8667 229.185 53.8987 229.185 52.696C229.185 51.9773 229.354 51.3247 229.691 50.738C230.029 50.1513 230.52 49.6893 231.165 49.352C231.811 49 232.595 48.824 233.519 48.824C234.15 48.824 234.722 48.912 235.235 49.088H239.261V50.474L237.215 50.562C237.641 51.178 237.853 51.8893 237.853 52.696C237.853 53.4147 237.677 54.0673 237.325 54.654C236.988 55.2407 236.497 55.71 235.851 56.062C235.221 56.3993 234.443 56.568 233.519 56.568ZM233.519 55.05C234.297 55.05 234.913 54.852 235.367 54.456C235.837 54.0453 236.071 53.4587 236.071 52.696C236.071 51.948 235.837 51.376 235.367 50.98C234.913 50.5693 234.297 50.364 233.519 50.364C232.727 50.364 232.097 50.5693 231.627 50.98C231.173 51.376 230.945 51.948 230.945 52.696C230.945 53.4587 231.173 54.0453 231.627 54.456C232.097 54.852 232.727 55.05 233.519 55.05ZM230.307 61.408C230.307 62.1413 230.615 62.684 231.231 63.036C231.847 63.4027 232.617 63.586 233.541 63.586C234.451 63.586 235.177 63.388 235.719 62.992C236.277 62.596 236.555 62.068 236.555 61.408C236.555 60.9387 236.365 60.528 235.983 60.176C235.602 59.8387 234.898 59.6407 233.871 59.582C233.065 59.5233 232.368 59.45 231.781 59.362C231.18 59.6847 230.784 60.0293 230.593 60.396C230.403 60.7773 230.307 61.1147 230.307 61.408Z" fill="white"/>
</g>
<path d="M287.817 60L293.493 44.6H295.451L301.105 60H299.147L297.739 56.04H291.183L289.753 60H287.817ZM291.733 54.544H297.189L294.461 46.932L291.733 54.544ZM306.673 60C305.675 60 304.891 59.758 304.319 59.274C303.747 58.79 303.461 57.9173 303.461 56.656V50.65H301.569V49.088H303.461L303.703 46.47H305.309V49.088H308.521V50.65H305.309V56.656C305.309 57.3453 305.448 57.8147 305.727 58.064C306.005 58.2987 306.497 58.416 307.201 58.416H308.345V60H306.673ZM314.499 60.264C313.589 60.264 312.834 60.11 312.233 59.802C311.631 59.494 311.184 59.0833 310.891 58.57C310.597 58.0567 310.451 57.4993 310.451 56.898C310.451 55.7833 310.876 54.9253 311.727 54.324C312.577 53.7227 313.736 53.422 315.203 53.422H318.151V53.29C318.151 52.3367 317.901 51.618 317.403 51.134C316.904 50.6353 316.237 50.386 315.401 50.386C314.682 50.386 314.059 50.5693 313.531 50.936C313.017 51.288 312.695 51.8087 312.563 52.498H310.671C310.744 51.706 311.008 51.0387 311.463 50.496C311.932 49.9533 312.511 49.5427 313.201 49.264C313.89 48.9707 314.623 48.824 315.401 48.824C316.926 48.824 318.07 49.2347 318.833 50.056C319.61 50.8627 319.999 51.9407 319.999 53.29V60H318.349L318.239 58.042C317.931 58.658 317.476 59.186 316.875 59.626C316.288 60.0513 315.496 60.264 314.499 60.264ZM314.785 58.702C315.489 58.702 316.09 58.5187 316.589 58.152C317.102 57.7853 317.491 57.3087 317.755 56.722C318.019 56.1353 318.151 55.5193 318.151 54.874V54.852H315.357C314.271 54.852 313.501 55.0427 313.047 55.424C312.607 55.7907 312.387 56.2527 312.387 56.81C312.387 57.382 312.592 57.844 313.003 58.196C313.428 58.5333 314.022 58.702 314.785 58.702ZM326.753 60.264C325.462 60.264 324.436 59.8753 323.673 59.098C322.91 58.306 322.529 57.096 322.529 55.468V49.088H324.377V55.27C324.377 57.5433 325.308 58.68 327.171 58.68C328.124 58.68 328.909 58.3427 329.525 57.668C330.156 56.9787 330.471 56.0033 330.471 54.742V49.088H332.319V60H330.647L330.515 58.042C330.178 58.7313 329.672 59.274 328.997 59.67C328.337 60.066 327.589 60.264 326.753 60.264Z" fill="black"/>
<rect x="361.5" y="22.5" width="257" height="60" rx="15.5" stroke="#362063"/>
<path d="M382.874 60V44.6H387.934C389.137 44.6 390.127 44.798 390.904 45.194C391.681 45.59 392.253 46.1253 392.62 46.8C393.001 47.4747 393.192 48.2373 393.192 49.088C393.192 49.924 393.009 50.6793 392.642 51.354C392.275 52.0287 391.703 52.5713 390.926 52.982C390.149 53.378 389.151 53.576 387.934 53.576H384.722V60H382.874ZM384.722 52.014H387.89C389.122 52.014 389.995 51.7573 390.508 51.244C391.036 50.716 391.3 49.9973 391.3 49.088C391.3 48.164 391.036 47.4453 390.508 46.932C389.995 46.404 389.122 46.14 387.89 46.14H384.722V52.014ZM399.766 60.264C398.724 60.264 397.8 60.0293 396.994 59.56C396.187 59.076 395.549 58.4087 395.08 57.558C394.625 56.7073 394.398 55.7027 394.398 54.544C394.398 53.4 394.625 52.4027 395.08 51.552C395.534 50.6867 396.165 50.0193 396.972 49.55C397.793 49.066 398.739 48.824 399.81 48.824C400.866 48.824 401.775 49.066 402.538 49.55C403.315 50.0193 403.909 50.6427 404.32 51.42C404.73 52.1973 404.936 53.0333 404.936 53.928C404.936 54.0893 404.928 54.2507 404.914 54.412C404.914 54.5733 404.914 54.7567 404.914 54.962H396.224C396.268 55.798 396.458 56.4947 396.796 57.052C397.148 57.5947 397.58 58.0053 398.094 58.284C398.622 58.5627 399.179 58.702 399.766 58.702C400.528 58.702 401.166 58.526 401.68 58.174C402.193 57.822 402.567 57.3453 402.802 56.744H404.628C404.334 57.756 403.77 58.5993 402.934 59.274C402.112 59.934 401.056 60.264 399.766 60.264ZM399.766 50.386C398.886 50.386 398.101 50.6573 397.412 51.2C396.737 51.728 396.348 52.5053 396.246 53.532H403.11C403.066 52.5493 402.728 51.7793 402.098 51.222C401.467 50.6647 400.69 50.386 399.766 50.386ZM407.385 60V44.16H409.233V60H407.385ZM415.892 60.264C414.983 60.264 414.227 60.11 413.626 59.802C413.025 59.494 412.577 59.0833 412.284 58.57C411.991 58.0567 411.844 57.4993 411.844 56.898C411.844 55.7833 412.269 54.9253 413.12 54.324C413.971 53.7227 415.129 53.422 416.596 53.422H419.544V53.29C419.544 52.3367 419.295 51.618 418.796 51.134C418.297 50.6353 417.63 50.386 416.794 50.386C416.075 50.386 415.452 50.5693 414.924 50.936C414.411 51.288 414.088 51.8087 413.956 52.498H412.064C412.137 51.706 412.401 51.0387 412.856 50.496C413.325 49.9533 413.905 49.5427 414.594 49.264C415.283 48.9707 416.017 48.824 416.794 48.824C418.319 48.824 419.463 49.2347 420.226 50.056C421.003 50.8627 421.392 51.9407 421.392 53.29V60H419.742L419.632 58.042C419.324 58.658 418.869 59.186 418.268 59.626C417.681 60.0513 416.889 60.264 415.892 60.264ZM416.178 58.702C416.882 58.702 417.483 58.5187 417.982 58.152C418.495 57.7853 418.884 57.3087 419.148 56.722C419.412 56.1353 419.544 55.5193 419.544 54.874V54.852H416.75C415.665 54.852 414.895 55.0427 414.44 55.424C414 55.7907 413.78 56.2527 413.78 56.81C413.78 57.382 413.985 57.844 414.396 58.196C414.821 58.5333 415.415 58.702 416.178 58.702ZM425.374 46.668C425.022 46.668 424.722 46.5507 424.472 46.316C424.223 46.0667 424.098 45.7587 424.098 45.392C424.098 45.04 424.223 44.7467 424.472 44.512C424.722 44.2773 425.022 44.16 425.374 44.16C425.726 44.16 426.02 44.2773 426.254 44.512C426.504 44.7467 426.628 45.04 426.628 45.392C426.628 45.7587 426.504 46.0667 426.254 46.316C426.02 46.5507 425.726 46.668 425.374 46.668ZM422.03 64.84V63.256H422.888C423.431 63.256 423.82 63.1387 424.054 62.904C424.304 62.684 424.428 62.3027 424.428 61.76V49.088H426.276V61.804C426.276 62.86 426.012 63.63 425.484 64.114C424.956 64.598 424.186 64.84 423.174 64.84H422.03ZM433.123 60.264C432.213 60.264 431.458 60.11 430.857 59.802C430.255 59.494 429.808 59.0833 429.515 58.57C429.221 58.0567 429.075 57.4993 429.075 56.898C429.075 55.7833 429.5 54.9253 430.351 54.324C431.201 53.7227 432.36 53.422 433.827 53.422H436.775V53.29C436.775 52.3367 436.525 51.618 436.027 51.134C435.528 50.6353 434.861 50.386 434.025 50.386C433.306 50.386 432.683 50.5693 432.155 50.936C431.641 51.288 431.319 51.8087 431.187 52.498H429.295C429.368 51.706 429.632 51.0387 430.087 50.496C430.556 49.9533 431.135 49.5427 431.825 49.264C432.514 48.9707 433.247 48.824 434.025 48.824C435.55 48.824 436.694 49.2347 437.457 50.056C438.234 50.8627 438.623 51.9407 438.623 53.29V60H436.973L436.863 58.042C436.555 58.658 436.1 59.186 435.499 59.626C434.912 60.0513 434.12 60.264 433.123 60.264ZM433.409 58.702C434.113 58.702 434.714 58.5187 435.213 58.152C435.726 57.7853 436.115 57.3087 436.379 56.722C436.643 56.1353 436.775 55.5193 436.775 54.874V54.852H433.981C432.895 54.852 432.125 55.0427 431.671 55.424C431.231 55.7907 431.011 56.2527 431.011 56.81C431.011 57.382 431.216 57.844 431.627 58.196C432.052 58.5333 432.646 58.702 433.409 58.702ZM441.395 60V49.088H443.067L443.221 51.178C443.558 50.4593 444.072 49.8873 444.761 49.462C445.45 49.0367 446.301 48.824 447.313 48.824V50.76H446.807C446.162 50.76 445.568 50.8773 445.025 51.112C444.482 51.332 444.05 51.7133 443.727 52.256C443.404 52.7987 443.243 53.5467 443.243 54.5V60H441.395ZM450.509 46.668C450.142 46.668 449.834 46.5507 449.585 46.316C449.35 46.0667 449.233 45.7587 449.233 45.392C449.233 45.04 449.35 44.7467 449.585 44.512C449.834 44.2773 450.142 44.16 450.509 44.16C450.861 44.16 451.162 44.2773 451.411 44.512C451.66 44.7467 451.785 45.04 451.785 45.392C451.785 45.7587 451.66 46.0667 451.411 46.316C451.162 46.5507 450.861 46.668 450.509 46.668ZM449.585 60V49.088H451.433V60H449.585ZM465.489 60.264C464.36 60.264 463.377 60.0587 462.541 59.648C461.705 59.2373 461.06 58.6653 460.605 57.932C460.15 57.1987 459.923 56.348 459.923 55.38H461.859C461.859 55.9813 461.998 56.5387 462.277 57.052C462.556 57.5507 462.959 57.954 463.487 58.262C464.03 58.5553 464.697 58.702 465.489 58.702C466.53 58.702 467.337 58.4527 467.909 57.954C468.481 57.4553 468.767 56.832 468.767 56.084C468.767 55.468 468.635 54.9767 468.371 54.61C468.107 54.2287 467.748 53.9207 467.293 53.686C466.853 53.4513 466.34 53.246 465.753 53.07C465.181 52.894 464.58 52.696 463.949 52.476C462.761 52.0653 461.881 51.5593 461.309 50.958C460.737 50.342 460.451 49.5427 460.451 48.56C460.436 47.7387 460.627 47.0127 461.023 46.382C461.419 45.7367 461.976 45.238 462.695 44.886C463.428 44.5193 464.294 44.336 465.291 44.336C466.274 44.336 467.124 44.5193 467.843 44.886C468.576 45.2527 469.141 45.7587 469.537 46.404C469.948 47.0493 470.16 47.7827 470.175 48.604H468.239C468.239 48.1787 468.129 47.7607 467.909 47.35C467.689 46.9247 467.352 46.58 466.897 46.316C466.457 46.052 465.9 45.92 465.225 45.92C464.389 45.9053 463.7 46.118 463.157 46.558C462.629 46.998 462.365 47.6067 462.365 48.384C462.365 49.044 462.548 49.55 462.915 49.902C463.296 50.254 463.824 50.5473 464.499 50.782C465.174 51.002 465.951 51.2587 466.831 51.552C467.564 51.816 468.224 52.124 468.811 52.476C469.398 52.828 469.852 53.2827 470.175 53.84C470.512 54.3973 470.681 55.1087 470.681 55.974C470.681 56.7073 470.49 57.404 470.109 58.064C469.728 58.7093 469.148 59.2373 468.371 59.648C467.608 60.0587 466.648 60.264 465.489 60.264ZM478.098 60.264C477.056 60.264 476.132 60.0293 475.326 59.56C474.519 59.076 473.881 58.4087 473.412 57.558C472.957 56.7073 472.73 55.7027 472.73 54.544C472.73 53.4 472.957 52.4027 473.412 51.552C473.866 50.6867 474.497 50.0193 475.304 49.55C476.125 49.066 477.071 48.824 478.142 48.824C479.198 48.824 480.107 49.066 480.87 49.55C481.647 50.0193 482.241 50.6427 482.652 51.42C483.062 52.1973 483.268 53.0333 483.268 53.928C483.268 54.0893 483.26 54.2507 483.246 54.412C483.246 54.5733 483.246 54.7567 483.246 54.962H474.556C474.6 55.798 474.79 56.4947 475.128 57.052C475.48 57.5947 475.912 58.0053 476.426 58.284C476.954 58.5627 477.511 58.702 478.098 58.702C478.86 58.702 479.498 58.526 480.012 58.174C480.525 57.822 480.899 57.3453 481.134 56.744H482.96C482.666 57.756 482.102 58.5993 481.266 59.274C480.444 59.934 479.388 60.264 478.098 60.264ZM478.098 50.386C477.218 50.386 476.433 50.6573 475.744 51.2C475.069 51.728 474.68 52.5053 474.578 53.532H481.442C481.398 52.5493 481.06 51.7793 480.43 51.222C479.799 50.6647 479.022 50.386 478.098 50.386ZM485.717 60V44.16H487.565V60H485.717ZM495.5 60.264C494.459 60.264 493.535 60.0293 492.728 59.56C491.922 59.076 491.284 58.4087 490.814 57.558C490.36 56.7073 490.132 55.7027 490.132 54.544C490.132 53.4 490.36 52.4027 490.814 51.552C491.269 50.6867 491.9 50.0193 492.706 49.55C493.528 49.066 494.474 48.824 495.544 48.824C496.6 48.824 497.51 49.066 498.272 49.55C499.05 50.0193 499.644 50.6427 500.054 51.42C500.465 52.1973 500.67 53.0333 500.67 53.928C500.67 54.0893 500.663 54.2507 500.648 54.412C500.648 54.5733 500.648 54.7567 500.648 54.962H491.958C492.002 55.798 492.193 56.4947 492.53 57.052C492.882 57.5947 493.315 58.0053 493.828 58.284C494.356 58.5627 494.914 58.702 495.5 58.702C496.263 58.702 496.901 58.526 497.414 58.174C497.928 57.822 498.302 57.3453 498.536 56.744H500.362C500.069 57.756 499.504 58.5993 498.668 59.274C497.847 59.934 496.791 60.264 495.5 60.264ZM495.5 50.386C494.62 50.386 493.836 50.6573 493.146 51.2C492.472 51.728 492.083 52.5053 491.98 53.532H498.844C498.8 52.5493 498.463 51.7793 497.832 51.222C497.202 50.6647 496.424 50.386 495.5 50.386ZM503.12 60V49.088H504.792L504.902 51.046C505.254 50.3567 505.76 49.814 506.42 49.418C507.08 49.022 507.828 48.824 508.664 48.824C509.954 48.824 510.981 49.22 511.744 50.012C512.521 50.7893 512.91 51.992 512.91 53.62V60H511.062V53.818C511.062 51.5447 510.123 50.408 508.246 50.408C507.307 50.408 506.522 50.7527 505.892 51.442C505.276 52.1167 504.968 53.0847 504.968 54.346V60H503.12ZM520.021 56.568C519.405 56.568 518.841 56.4873 518.327 56.326L517.227 57.36C517.389 57.4773 517.587 57.58 517.821 57.668C518.071 57.7413 518.423 57.8147 518.877 57.888C519.332 57.9467 519.97 58.0127 520.791 58.086C522.258 58.1887 523.307 58.526 523.937 59.098C524.568 59.67 524.883 60.418 524.883 61.342C524.883 61.9727 524.707 62.574 524.355 63.146C524.018 63.718 523.49 64.1873 522.771 64.554C522.067 64.9207 521.158 65.104 520.043 65.104C519.061 65.104 518.188 64.972 517.425 64.708C516.663 64.4587 516.069 64.07 515.643 63.542C515.218 63.0287 515.005 62.376 515.005 61.584C515.005 61.1733 515.115 60.726 515.335 60.242C515.555 59.7727 515.966 59.3253 516.567 58.9C516.245 58.768 515.966 58.6287 515.731 58.482C515.511 58.3207 515.306 58.1447 515.115 57.954V57.448L516.985 55.6C516.12 54.8667 515.687 53.8987 515.687 52.696C515.687 51.9773 515.856 51.3247 516.193 50.738C516.531 50.1513 517.022 49.6893 517.667 49.352C518.313 49 519.097 48.824 520.021 48.824C520.652 48.824 521.224 48.912 521.737 49.088H525.763V50.474L523.717 50.562C524.143 51.178 524.355 51.8893 524.355 52.696C524.355 53.4147 524.179 54.0673 523.827 54.654C523.49 55.2407 522.999 55.71 522.353 56.062C521.723 56.3993 520.945 56.568 520.021 56.568ZM520.021 55.05C520.799 55.05 521.415 54.852 521.869 54.456C522.339 54.0453 522.573 53.4587 522.573 52.696C522.573 51.948 522.339 51.376 521.869 50.98C521.415 50.5693 520.799 50.364 520.021 50.364C519.229 50.364 518.599 50.5693 518.129 50.98C517.675 51.376 517.447 51.948 517.447 52.696C517.447 53.4587 517.675 54.0453 518.129 54.456C518.599 54.852 519.229 55.05 520.021 55.05ZM516.809 61.408C516.809 62.1413 517.117 62.684 517.733 63.036C518.349 63.4027 519.119 63.586 520.043 63.586C520.953 63.586 521.679 63.388 522.221 62.992C522.779 62.596 523.057 62.068 523.057 61.408C523.057 60.9387 522.867 60.528 522.485 60.176C522.104 59.8387 521.4 59.6407 520.373 59.582C519.567 59.5233 518.87 59.45 518.283 59.362C517.682 59.6847 517.286 60.0293 517.095 60.396C516.905 60.7773 516.809 61.1147 516.809 61.408ZM527.848 60V44.16H529.696V53.686L534.162 49.088H536.428L531.588 54.016L537.044 60H534.69L529.696 54.346V60H527.848ZM542.478 60.264C541.569 60.264 540.813 60.11 540.212 59.802C539.611 59.494 539.163 59.0833 538.87 58.57C538.577 58.0567 538.43 57.4993 538.43 56.898C538.43 55.7833 538.855 54.9253 539.706 54.324C540.557 53.7227 541.715 53.422 543.182 53.422H546.13V53.29C546.13 52.3367 545.881 51.618 545.382 51.134C544.883 50.6353 544.216 50.386 543.38 50.386C542.661 50.386 542.038 50.5693 541.51 50.936C540.997 51.288 540.674 51.8087 540.542 52.498H538.65C538.723 51.706 538.987 51.0387 539.442 50.496C539.911 49.9533 540.491 49.5427 541.18 49.264C541.869 48.9707 542.603 48.824 543.38 48.824C544.905 48.824 546.049 49.2347 546.812 50.056C547.589 50.8627 547.978 51.9407 547.978 53.29V60H546.328L546.218 58.042C545.91 58.658 545.455 59.186 544.854 59.626C544.267 60.0513 543.475 60.264 542.478 60.264ZM542.764 58.702C543.468 58.702 544.069 58.5187 544.568 58.152C545.081 57.7853 545.47 57.3087 545.734 56.722C545.998 56.1353 546.13 55.5193 546.13 54.874V54.852H543.336C542.251 54.852 541.481 55.0427 541.026 55.424C540.586 55.7907 540.366 56.2527 540.366 56.81C540.366 57.382 540.571 57.844 540.982 58.196C541.407 58.5333 542.001 58.702 542.764 58.702ZM550.75 64.84V49.088H552.422L552.598 50.892C552.95 50.364 553.449 49.8873 554.094 49.462C554.754 49.0367 555.59 48.824 556.602 48.824C557.688 48.824 558.634 49.0733 559.44 49.572C560.247 50.0707 560.87 50.7527 561.31 51.618C561.765 52.4833 561.992 53.466 561.992 54.566C561.992 55.666 561.765 56.6487 561.31 57.514C560.87 58.3647 560.24 59.0393 559.418 59.538C558.612 60.022 557.666 60.264 556.58 60.264C555.686 60.264 554.886 60.0807 554.182 59.714C553.493 59.3473 552.965 58.834 552.598 58.174V64.84H550.75ZM556.382 58.658C557.116 58.658 557.761 58.4893 558.318 58.152C558.876 57.8 559.316 57.316 559.638 56.7C559.961 56.084 560.122 55.3653 560.122 54.544C560.122 53.7227 559.961 53.004 559.638 52.388C559.316 51.772 558.876 51.2953 558.318 50.958C557.761 50.606 557.116 50.43 556.382 50.43C555.649 50.43 555.004 50.606 554.446 50.958C553.889 51.2953 553.449 51.772 553.126 52.388C552.804 53.004 552.642 53.7227 552.642 54.544C552.642 55.3653 552.804 56.084 553.126 56.7C553.449 57.316 553.889 57.8 554.446 58.152C555.004 58.4893 555.649 58.658 556.382 58.658ZM564.565 60V49.088H566.237L566.347 51.046C566.699 50.3567 567.205 49.814 567.865 49.418C568.525 49.022 569.273 48.824 570.109 48.824C571.4 48.824 572.426 49.22 573.189 50.012C573.966 50.7893 574.355 51.992 574.355 53.62V60H572.507V53.818C572.507 51.5447 571.568 50.408 569.691 50.408C568.752 50.408 567.968 50.7527 567.337 51.442C566.721 52.1167 566.413 53.0847 566.413 54.346V60H564.565ZM578.02 64.84L580.726 58.944H580.088L575.754 49.088H577.756L581.364 57.58L585.192 49.088H587.106L579.956 64.84H578.02ZM592 60.264C591.09 60.264 590.335 60.11 589.734 59.802C589.132 59.494 588.685 59.0833 588.392 58.57C588.098 58.0567 587.952 57.4993 587.952 56.898C587.952 55.7833 588.377 54.9253 589.228 54.324C590.078 53.7227 591.237 53.422 592.704 53.422H595.652V53.29C595.652 52.3367 595.402 51.618 594.904 51.134C594.405 50.6353 593.738 50.386 592.902 50.386C592.183 50.386 591.56 50.5693 591.032 50.936C590.518 51.288 590.196 51.8087 590.064 52.498H588.172C588.245 51.706 588.509 51.0387 588.964 50.496C589.433 49.9533 590.012 49.5427 590.702 49.264C591.391 48.9707 592.124 48.824 592.902 48.824C594.427 48.824 595.571 49.2347 596.334 50.056C597.111 50.8627 597.5 51.9407 597.5 53.29V60H595.85L595.74 58.042C595.432 58.658 594.977 59.186 594.376 59.626C593.789 60.0513 592.997 60.264 592 60.264ZM592.286 58.702C592.99 58.702 593.591 58.5187 594.09 58.152C594.603 57.7853 594.992 57.3087 595.256 56.722C595.52 56.1353 595.652 55.5193 595.652 54.874V54.852H592.858C591.772 54.852 591.002 55.0427 590.548 55.424C590.108 55.7907 589.888 56.2527 589.888 56.81C589.888 57.382 590.093 57.844 590.504 58.196C590.929 58.5333 591.523 58.702 592.286 58.702Z" fill="#362063"/>
<mask id="path-7-inside-1_1_2122" fill="white">
<path d="M20 4C20 1.79086 21.7909 0 24 0H157C159.209 0 161 1.79086 161 4V22H20V4Z"/>
</mask>
<path d="M20 4C20 1.79086 21.7909 0 24 0H157C159.209 0 161 1.79086 161 4V22H20V4Z" fill="#FFCC32"/>
<path d="M19 4C19 1.23858 21.2386 -1 24 -1H157C159.761 -1 162 1.23858 162 4H160C160 2.34315 158.657 1 157 1H24C22.3431 1 21 2.34315 21 4H19ZM161 22H20H161ZM19 22V4C19 1.23858 21.2386 -1 24 -1V1C22.3431 1 21 2.34315 21 4V22H19ZM157 -1C159.761 -1 162 1.23858 162 4V22H160V4C160 2.34315 158.657 1 157 1V-1Z" fill="#D5A820" mask="url(#path-7-inside-1_1_2122)"/>
<path d="M25.036 16V6.2H31V7.166H26.212V10.61H30.286V11.562H26.212V16H25.036ZM32.4445 16V9.056H33.5085L33.6065 10.386C33.8212 9.92867 34.1478 9.56467 34.5865 9.294C35.0252 9.02333 35.5665 8.888 36.2105 8.888V10.12H35.8885C35.4778 10.12 35.0998 10.1947 34.7545 10.344C34.4092 10.484 34.1338 10.7267 33.9285 11.072C33.7232 11.4173 33.6205 11.8933 33.6205 12.5V16H32.4445ZM40.3927 16.168C39.73 16.168 39.142 16.0187 38.6287 15.72C38.1154 15.412 37.7094 14.9873 37.4107 14.446C37.1214 13.9047 36.9767 13.2653 36.9767 12.528C36.9767 11.8 37.1214 11.1653 37.4107 10.624C37.7 10.0733 38.1014 9.64867 38.6147 9.35C39.1374 9.042 39.7394 8.888 40.4207 8.888C41.0927 8.888 41.6714 9.042 42.1567 9.35C42.6514 9.64867 43.0294 10.0453 43.2907 10.54C43.552 11.0347 43.6827 11.5667 43.6827 12.136C43.6827 12.2387 43.678 12.3413 43.6687 12.444C43.6687 12.5467 43.6687 12.6633 43.6687 12.794H38.1387C38.1667 13.326 38.288 13.7693 38.5027 14.124C38.7267 14.4693 39.002 14.7307 39.3287 14.908C39.6647 15.0853 40.0194 15.174 40.3927 15.174C40.878 15.174 41.284 15.062 41.6107 14.838C41.9374 14.614 42.1754 14.3107 42.3247 13.928H43.4867C43.3 14.572 42.9407 15.1087 42.4087 15.538C41.886 15.958 41.214 16.168 40.3927 16.168ZM40.3927 9.882C39.8327 9.882 39.3334 10.0547 38.8947 10.4C38.4654 10.736 38.218 11.2307 38.1527 11.884H42.5207C42.4927 11.2587 42.278 10.7687 41.8767 10.414C41.4754 10.0593 40.9807 9.882 40.3927 9.882ZM48.3634 16.168C47.7007 16.168 47.1127 16.0187 46.5994 15.72C46.0861 15.412 45.6801 14.9873 45.3814 14.446C45.0921 13.9047 44.9474 13.2653 44.9474 12.528C44.9474 11.8 45.0921 11.1653 45.3814 10.624C45.6707 10.0733 46.0721 9.64867 46.5854 9.35C47.1081 9.042 47.7101 8.888 48.3914 8.888C49.0634 8.888 49.6421 9.042 50.1274 9.35C50.6221 9.64867 51.0001 10.0453 51.2614 10.54C51.5227 11.0347 51.6534 11.5667 51.6534 12.136C51.6534 12.2387 51.6487 12.3413 51.6394 12.444C51.6394 12.5467 51.6394 12.6633 51.6394 12.794H46.1094C46.1374 13.326 46.2587 13.7693 46.4734 14.124C46.6974 14.4693 46.9727 14.7307 47.2994 14.908C47.6354 15.0853 47.9901 15.174 48.3634 15.174C48.8487 15.174 49.2547 15.062 49.5814 14.838C49.9081 14.614 50.1461 14.3107 50.2954 13.928H51.4574C51.2707 14.572 50.9114 15.1087 50.3794 15.538C49.8567 15.958 49.1847 16.168 48.3634 16.168ZM48.3634 9.882C47.8034 9.882 47.3041 10.0547 46.8654 10.4C46.4361 10.736 46.1887 11.2307 46.1234 11.884H50.4914C50.4634 11.2587 50.2487 10.7687 49.8474 10.414C49.4461 10.0593 48.9514 9.882 48.3634 9.882ZM56.9172 16V9.056H57.9812L58.0792 10.386C58.2938 9.92867 58.6205 9.56467 59.0592 9.294C59.4978 9.02333 60.0392 8.888 60.6832 8.888V10.12H60.3612C59.9505 10.12 59.5725 10.1947 59.2272 10.344C58.8818 10.484 58.6065 10.7267 58.4012 11.072C58.1958 11.4173 58.0932 11.8933 58.0932 12.5V16H56.9172ZM64.8653 16.168C64.2027 16.168 63.6147 16.0187 63.1013 15.72C62.588 15.412 62.182 14.9873 61.8833 14.446C61.594 13.9047 61.4493 13.2653 61.4493 12.528C61.4493 11.8 61.594 11.1653 61.8833 10.624C62.1727 10.0733 62.574 9.64867 63.0873 9.35C63.61 9.042 64.212 8.888 64.8933 8.888C65.5653 8.888 66.144 9.042 66.6293 9.35C67.124 9.64867 67.502 10.0453 67.7633 10.54C68.0247 11.0347 68.1553 11.5667 68.1553 12.136C68.1553 12.2387 68.1507 12.3413 68.1413 12.444C68.1413 12.5467 68.1413 12.6633 68.1413 12.794H62.6113C62.6393 13.326 62.7607 13.7693 62.9753 14.124C63.1993 14.4693 63.4747 14.7307 63.8013 14.908C64.1373 15.0853 64.492 15.174 64.8653 15.174C65.3507 15.174 65.7567 15.062 66.0833 14.838C66.41 14.614 66.648 14.3107 66.7973 13.928H67.9593C67.7727 14.572 67.4133 15.1087 66.8813 15.538C66.3587 15.958 65.6867 16.168 64.8653 16.168ZM64.8653 9.882C64.3053 9.882 63.806 10.0547 63.3673 10.4C62.938 10.736 62.6907 11.2307 62.6253 11.884H66.9933C66.9653 11.2587 66.7507 10.7687 66.3493 10.414C65.948 10.0593 65.4533 9.882 64.8653 9.882ZM72.417 13.816C72.025 13.816 71.6657 13.7647 71.339 13.662L70.639 14.32C70.7417 14.3947 70.8677 14.46 71.017 14.516C71.1757 14.5627 71.3997 14.6093 71.689 14.656C71.9784 14.6933 72.3844 14.7353 72.907 14.782C73.8404 14.8473 74.5077 15.062 74.909 15.426C75.3104 15.79 75.511 16.266 75.511 16.854C75.511 17.2553 75.399 17.638 75.175 18.002C74.9604 18.366 74.6244 18.6647 74.167 18.898C73.719 19.1313 73.1404 19.248 72.431 19.248C71.8057 19.248 71.2504 19.164 70.765 18.996C70.2797 18.8373 69.9017 18.59 69.631 18.254C69.3604 17.9273 69.225 17.512 69.225 17.008C69.225 16.7467 69.295 16.462 69.435 16.154C69.575 15.8553 69.8364 15.5707 70.219 15.3C70.0137 15.216 69.8364 15.1273 69.687 15.034C69.547 14.9313 69.4164 14.8193 69.295 14.698V14.376L70.485 13.2C69.9344 12.7333 69.659 12.1173 69.659 11.352C69.659 10.8947 69.7664 10.4793 69.981 10.106C70.1957 9.73267 70.5084 9.43867 70.919 9.224C71.3297 9 71.829 8.888 72.417 8.888C72.8184 8.888 73.1824 8.944 73.509 9.056H76.071V9.938L74.769 9.994C75.0397 10.386 75.175 10.8387 75.175 11.352C75.175 11.8093 75.063 12.2247 74.839 12.598C74.6244 12.9713 74.3117 13.27 73.901 13.494C73.4997 13.7087 73.005 13.816 72.417 13.816ZM72.417 12.85C72.9117 12.85 73.3037 12.724 73.593 12.472C73.8917 12.2107 74.041 11.8373 74.041 11.352C74.041 10.876 73.8917 10.512 73.593 10.26C73.3037 9.99867 72.9117 9.868 72.417 9.868C71.913 9.868 71.5117 9.99867 71.213 10.26C70.9237 10.512 70.779 10.876 70.779 11.352C70.779 11.8373 70.9237 12.2107 71.213 12.472C71.5117 12.724 71.913 12.85 72.417 12.85ZM70.373 16.896C70.373 17.3627 70.569 17.708 70.961 17.932C71.353 18.1653 71.843 18.282 72.431 18.282C73.0097 18.282 73.4717 18.156 73.817 17.904C74.1717 17.652 74.349 17.316 74.349 16.896C74.349 16.5973 74.2277 16.336 73.985 16.112C73.7424 15.8973 73.2944 15.7713 72.641 15.734C72.1277 15.6967 71.6844 15.65 71.311 15.594C70.9284 15.7993 70.6764 16.0187 70.555 16.252C70.4337 16.4947 70.373 16.7093 70.373 16.896ZM78.1116 7.516C77.8783 7.516 77.6823 7.44133 77.5236 7.292C77.3743 7.13333 77.2996 6.93733 77.2996 6.704C77.2996 6.48 77.3743 6.29333 77.5236 6.144C77.6823 5.99467 77.8783 5.92 78.1116 5.92C78.3356 5.92 78.527 5.99467 78.6856 6.144C78.8443 6.29333 78.9236 6.48 78.9236 6.704C78.9236 6.93733 78.8443 7.13333 78.6856 7.292C78.527 7.44133 78.3356 7.516 78.1116 7.516ZM77.5236 16V9.056H78.6996V16H77.5236ZM83.4073 16.168C82.5766 16.168 81.8859 15.958 81.3353 15.538C80.7846 15.118 80.4626 14.5487 80.3693 13.83H81.5733C81.6479 14.194 81.8393 14.5113 82.1473 14.782C82.4646 15.0433 82.8893 15.174 83.4213 15.174C83.9159 15.174 84.2799 15.0713 84.5133 14.866C84.7466 14.6513 84.8633 14.3993 84.8633 14.11C84.8633 13.69 84.7093 13.41 84.4013 13.27C84.1026 13.13 83.6779 13.004 83.1273 12.892C82.7539 12.8173 82.3806 12.71 82.0073 12.57C81.6339 12.43 81.3213 12.234 81.0693 11.982C80.8173 11.7207 80.6913 11.38 80.6913 10.96C80.6913 10.3533 80.9153 9.85867 81.3633 9.476C81.8206 9.084 82.4366 8.888 83.2113 8.888C83.9486 8.888 84.5506 9.07467 85.0173 9.448C85.4933 9.812 85.7686 10.3347 85.8433 11.016H84.6813C84.6346 10.6613 84.4806 10.386 84.2193 10.19C83.9673 9.98467 83.6266 9.882 83.1973 9.882C82.7773 9.882 82.4506 9.97067 82.2173 10.148C81.9933 10.3253 81.8813 10.5587 81.8813 10.848C81.8813 11.128 82.0259 11.3473 82.3153 11.506C82.6139 11.6647 83.0153 11.8 83.5193 11.912C83.9486 12.0053 84.3546 12.122 84.7373 12.262C85.1293 12.3927 85.4466 12.5933 85.6893 12.864C85.9413 13.1253 86.0673 13.508 86.0673 14.012C86.0766 14.6373 85.8386 15.1553 85.3533 15.566C84.8773 15.9673 84.2286 16.168 83.4073 16.168ZM90.1768 16C89.5421 16 89.0428 15.846 88.6788 15.538C88.3148 15.23 88.1328 14.6747 88.1328 13.872V10.05H86.9288V9.056H88.1328L88.2868 7.39H89.3088V9.056H91.3528V10.05H89.3088V13.872C89.3088 14.3107 89.3975 14.6093 89.5748 14.768C89.7521 14.9173 90.0648 14.992 90.5128 14.992H91.2408V16H90.1768ZM92.8469 16V9.056H93.9109L94.0089 10.386C94.2235 9.92867 94.5502 9.56467 94.9889 9.294C95.4275 9.02333 95.9689 8.888 96.6129 8.888V10.12H96.2909C95.8802 10.12 95.5022 10.1947 95.1569 10.344C94.8115 10.484 94.5362 10.7267 94.3309 11.072C94.1255 11.4173 94.0229 11.8933 94.0229 12.5V16H92.8469ZM100.243 16.168C99.6641 16.168 99.1835 16.07 98.8008 15.874C98.4181 15.678 98.1335 15.4167 97.9468 15.09C97.7601 14.7633 97.6668 14.4087 97.6668 14.026C97.6668 13.3167 97.9375 12.7707 98.4788 12.388C99.0201 12.0053 99.7575 11.814 100.691 11.814H102.567V11.73C102.567 11.1233 102.408 10.666 102.091 10.358C101.773 10.0407 101.349 9.882 100.817 9.882C100.359 9.882 99.9628 9.99867 99.6268 10.232C99.3001 10.456 99.0948 10.7873 99.0108 11.226H97.8068C97.8535 10.722 98.0215 10.2973 98.3108 9.952C98.6095 9.60667 98.9781 9.34533 99.4168 9.168C99.8555 8.98133 100.322 8.888 100.817 8.888C101.787 8.888 102.515 9.14933 103.001 9.672C103.495 10.1853 103.743 10.8713 103.743 11.73V16H102.693L102.623 14.754C102.427 15.146 102.137 15.482 101.755 15.762C101.381 16.0327 100.877 16.168 100.243 16.168ZM100.425 15.174C100.873 15.174 101.255 15.0573 101.573 14.824C101.899 14.5907 102.147 14.2873 102.315 13.914C102.483 13.5407 102.567 13.1487 102.567 12.738V12.724H100.789C100.098 12.724 99.6081 12.8453 99.3188 13.088C99.0388 13.3213 98.8988 13.6153 98.8988 13.97C98.8988 14.334 99.0295 14.628 99.2908 14.852C99.5615 15.0667 99.9395 15.174 100.425 15.174ZM108.06 16C107.425 16 106.926 15.846 106.562 15.538C106.198 15.23 106.016 14.6747 106.016 13.872V10.05H104.812V9.056H106.016L106.17 7.39H107.192V9.056H109.236V10.05H107.192V13.872C107.192 14.3107 107.28 14.6093 107.458 14.768C107.635 14.9173 107.948 14.992 108.396 14.992H109.124V16H108.06ZM111.444 7.516C111.21 7.516 111.014 7.44133 110.856 7.292C110.706 7.13333 110.632 6.93733 110.632 6.704C110.632 6.48 110.706 6.29333 110.856 6.144C111.014 5.99467 111.21 5.92 111.444 5.92C111.668 5.92 111.859 5.99467 112.018 6.144C112.176 6.29333 112.256 6.48 112.256 6.704C112.256 6.93733 112.176 7.13333 112.018 7.292C111.859 7.44133 111.668 7.516 111.444 7.516ZM110.856 16V9.056H112.032V16H110.856ZM117.243 16.168C116.59 16.168 116.002 16.0187 115.479 15.72C114.957 15.4213 114.541 15.0013 114.233 14.46C113.935 13.9093 113.785 13.2653 113.785 12.528C113.785 11.7907 113.939 11.1513 114.247 10.61C114.555 10.0593 114.971 9.63467 115.493 9.336C116.025 9.03733 116.618 8.888 117.271 8.888C117.925 8.888 118.513 9.03733 119.035 9.336C119.558 9.63467 119.969 10.0593 120.267 10.61C120.575 11.1513 120.729 11.7907 120.729 12.528C120.729 13.2653 120.575 13.9093 120.267 14.46C119.959 15.0013 119.539 15.4213 119.007 15.72C118.485 16.0187 117.897 16.168 117.243 16.168ZM117.243 15.16C117.645 15.16 118.018 15.062 118.363 14.866C118.709 14.67 118.989 14.376 119.203 13.984C119.418 13.592 119.525 13.1067 119.525 12.528C119.525 11.9493 119.418 11.464 119.203 11.072C118.998 10.68 118.723 10.386 118.377 10.19C118.032 9.994 117.663 9.896 117.271 9.896C116.87 9.896 116.497 9.994 116.151 10.19C115.806 10.386 115.526 10.68 115.311 11.072C115.097 11.464 114.989 11.9493 114.989 12.528C114.989 13.1067 115.097 13.592 115.311 13.984C115.526 14.376 115.801 14.67 116.137 14.866C116.483 15.062 116.851 15.16 117.243 15.16ZM122.364 16V9.056H123.428L123.498 10.302C123.722 9.86333 124.044 9.518 124.464 9.266C124.884 9.014 125.36 8.888 125.892 8.888C126.714 8.888 127.367 9.14 127.852 9.644C128.347 10.1387 128.594 10.904 128.594 11.94V16H127.418V12.066C127.418 10.6193 126.821 9.896 125.626 9.896C125.029 9.896 124.53 10.1153 124.128 10.554C123.736 10.9833 123.54 11.5993 123.54 12.402V16H122.364ZM134.459 16V10.05H133.409V9.056H134.459V7.852C134.459 7.18 134.627 6.69 134.963 6.382C135.299 6.074 135.789 5.92 136.433 5.92H137.133V6.928H136.615C136.261 6.928 136.009 7.00267 135.859 7.152C135.71 7.292 135.635 7.53467 135.635 7.88V9.056H137.343V10.05H135.635V16H134.459ZM141.592 16.168C140.929 16.168 140.341 16.0187 139.828 15.72C139.315 15.412 138.909 14.9873 138.61 14.446C138.321 13.9047 138.176 13.2653 138.176 12.528C138.176 11.8 138.321 11.1653 138.61 10.624C138.899 10.0733 139.301 9.64867 139.814 9.35C140.337 9.042 140.939 8.888 141.62 8.888C142.292 8.888 142.871 9.042 143.356 9.35C143.851 9.64867 144.229 10.0453 144.49 10.54C144.751 11.0347 144.882 11.5667 144.882 12.136C144.882 12.2387 144.877 12.3413 144.868 12.444C144.868 12.5467 144.868 12.6633 144.868 12.794H139.338C139.366 13.326 139.487 13.7693 139.702 14.124C139.926 14.4693 140.201 14.7307 140.528 14.908C140.864 15.0853 141.219 15.174 141.592 15.174C142.077 15.174 142.483 15.062 142.81 14.838C143.137 14.614 143.375 14.3107 143.524 13.928H144.686C144.499 14.572 144.14 15.1087 143.608 15.538C143.085 15.958 142.413 16.168 141.592 16.168ZM141.592 9.882C141.032 9.882 140.533 10.0547 140.094 10.4C139.665 10.736 139.417 11.2307 139.352 11.884H143.72C143.692 11.2587 143.477 10.7687 143.076 10.414C142.675 10.0593 142.18 9.882 141.592 9.882ZM149.563 16.168C148.9 16.168 148.312 16.0187 147.799 15.72C147.285 15.412 146.879 14.9873 146.581 14.446C146.291 13.9047 146.147 13.2653 146.147 12.528C146.147 11.8 146.291 11.1653 146.581 10.624C146.87 10.0733 147.271 9.64867 147.785 9.35C148.307 9.042 148.909 8.888 149.591 8.888C150.263 8.888 150.841 9.042 151.327 9.35C151.821 9.64867 152.199 10.0453 152.461 10.54C152.722 11.0347 152.853 11.5667 152.853 12.136C152.853 12.2387 152.848 12.3413 152.839 12.444C152.839 12.5467 152.839 12.6633 152.839 12.794H147.309C147.337 13.326 147.458 13.7693 147.673 14.124C147.897 14.4693 148.172 14.7307 148.499 14.908C148.835 15.0853 149.189 15.174 149.563 15.174C150.048 15.174 150.454 15.062 150.781 14.838C151.107 14.614 151.345 14.3107 151.495 13.928H152.657C152.47 14.572 152.111 15.1087 151.579 15.538C151.056 15.958 150.384 16.168 149.563 16.168ZM149.563 9.882C149.003 9.882 148.503 10.0547 148.065 10.4C147.635 10.736 147.388 11.2307 147.323 11.884H151.691C151.663 11.2587 151.448 10.7687 151.047 10.414C150.645 10.0593 150.151 9.882 149.563 9.882ZM154.663 13.284L154.523 6.2H155.797L155.657 13.284H154.663ZM155.195 16.07C154.962 16.07 154.766 15.9953 154.607 15.846C154.458 15.6873 154.383 15.496 154.383 15.272C154.383 15.048 154.458 14.8613 154.607 14.712C154.766 14.5533 154.962 14.474 155.195 14.474C155.419 14.474 155.606 14.5533 155.755 14.712C155.914 14.8613 155.993 15.048 155.993 15.272C155.993 15.496 155.914 15.6873 155.755 15.846C155.606 15.9953 155.419 16.07 155.195 16.07Z" fill="black"/>
<defs>
<filter id="filter0_d_1_2122" x="0" y="22" width="264" height="66" filterUnits="userSpaceOnUse" color-interpolation-filters="sRGB">
<feFlood flood-opacity="0" result="BackgroundImageFix"/>
<feColorMatrix in="SourceAlpha" type="matrix" values="0 0 0 0 0 0 0 0 0 0 0 0 0 0 0 0 0 0 127 0" result="hardAlpha"/>
<feOffset dx="4" dy="5"/>
<feComposite in2="hardAlpha" operator="out"/>
<feColorMatrix type="matrix" values="0 0 0 0 0.266667 0 0 0 0 0.121569 0 0 0 0 0.552941 0 0 0 1 0"/>
<feBlend mode="normal" in2="BackgroundImageFix" result="effect1_dropShadow_1_2122"/>
<feBlend mode="normal" in="SourceGraphic" in2="effect1_dropShadow_1_2122" result="shape"/>
</filter>
</defs>
</svg>
