<svg width="264" height="66" viewBox="0 0 264 66" fill="none" xmlns="http://www.w3.org/2000/svg">
<g filter="url(#filter0_d_1_2124)">
<path d="M0 16C0 7.16344 7.16344 0 16 0H244C252.837 0 260 7.16344 260 16V45C260 53.8366 252.837 61 244 61H16C7.16344 61 0 53.8366 0 45V16Z" fill="#8C52FF"/>
<path d="M16 0.5H244C252.56 0.5 259.5 7.43959 259.5 16V45C259.5 53.5604 252.56 60.5 244 60.5H16C7.43959 60.5 0.5 53.5604 0.5 45V16C0.5 7.43959 7.43959 0.5 16 0.5Z" stroke="#441F8D"/>
<path d="M21.7999 38V22.6H26.5299C29.2432 22.6 31.2379 23.2893 32.5139 24.668C33.8045 26.0467 34.4499 27.9387 34.4499 30.344C34.4499 32.7053 33.8045 34.5753 32.5139 35.954C31.2379 37.318 29.2432 38 26.5299 38H21.7999ZM23.6479 36.46H26.4859C27.9819 36.46 29.1699 36.218 30.0499 35.734C30.9445 35.2353 31.5825 34.5313 31.9639 33.622C32.3452 32.698 32.5359 31.6053 32.5359 30.344C32.5359 29.0533 32.3452 27.946 31.9639 27.022C31.5825 26.098 30.9445 25.3867 30.0499 24.888C29.1699 24.3893 27.9819 24.14 26.4859 24.14H23.6479V36.46ZM40.6382 38.264C39.7289 38.264 38.9736 38.11 38.3722 37.802C37.7709 37.494 37.3236 37.0833 37.0302 36.57C36.7369 36.0567 36.5902 35.4993 36.5902 34.898C36.5902 33.7833 37.0156 32.9253 37.8662 32.324C38.7169 31.7227 39.8756 31.422 41.3422 31.422H44.2902V31.29C44.2902 30.3367 44.0409 29.618 43.5422 29.134C43.0436 28.6353 42.3762 28.386 41.5402 28.386C40.8216 28.386 40.1982 28.5693 39.6702 28.936C39.1569 29.288 38.8342 29.8087 38.7022 30.498H36.8102C36.8836 29.706 37.1476 29.0387 37.6022 28.496C38.0716 27.9533 38.6509 27.5427 39.3402 27.264C40.0296 26.9707 40.7629 26.824 41.5402 26.824C43.0656 26.824 44.2096 27.2347 44.9722 28.056C45.7496 28.8627 46.1382 29.9407 46.1382 31.29V38H44.4882L44.3782 36.042C44.0702 36.658 43.6156 37.186 43.0142 37.626C42.4276 38.0513 41.6356 38.264 40.6382 38.264ZM40.9242 36.702C41.6282 36.702 42.2296 36.5187 42.7282 36.152C43.2416 35.7853 43.6302 35.3087 43.8942 34.722C44.1582 34.1353 44.2902 33.5193 44.2902 32.874V32.852H41.4962C40.4109 32.852 39.6409 33.0427 39.1862 33.424C38.7462 33.7907 38.5262 34.2527 38.5262 34.81C38.5262 35.382 38.7316 35.844 39.1422 36.196C39.5676 36.5333 40.1616 36.702 40.9242 36.702ZM49.5046 38V28.65H47.8546V27.088H49.5046V25.196C49.5046 24.14 49.7686 23.37 50.2966 22.886C50.8246 22.402 51.5946 22.16 52.6066 22.16H53.7066V23.744H52.8926C52.3352 23.744 51.9392 23.8613 51.7046 24.096C51.4699 24.316 51.3526 24.6973 51.3526 25.24V27.088H54.0366V28.65H51.3526V38H49.5046ZM60.5488 38C59.5514 38 58.7668 37.758 58.1948 37.274C57.6228 36.79 57.3368 35.9173 57.3368 34.656V28.65H55.4447V27.088H57.3368L57.5788 24.47H59.1848V27.088H62.3968V28.65H59.1848V34.656C59.1848 35.3453 59.3241 35.8147 59.6028 36.064C59.8814 36.2987 60.3728 36.416 61.0768 36.416H62.2208V38H60.5488ZM68.3746 38.264C67.4652 38.264 66.7099 38.11 66.1086 37.802C65.5072 37.494 65.0599 37.0833 64.7666 36.57C64.4732 36.0567 64.3266 35.4993 64.3266 34.898C64.3266 33.7833 64.7519 32.9253 65.6026 32.324C66.4532 31.7227 67.6119 31.422 69.0786 31.422H72.0266V31.29C72.0266 30.3367 71.7772 29.618 71.2786 29.134C70.7799 28.6353 70.1126 28.386 69.2766 28.386C68.5579 28.386 67.9346 28.5693 67.4066 28.936C66.8932 29.288 66.5706 29.8087 66.4386 30.498H64.5466C64.6199 29.706 64.8839 29.0387 65.3386 28.496C65.8079 27.9533 66.3872 27.5427 67.0766 27.264C67.7659 26.9707 68.4992 26.824 69.2766 26.824C70.8019 26.824 71.9459 27.2347 72.7086 28.056C73.4859 28.8627 73.8746 29.9407 73.8746 31.29V38H72.2246L72.1146 36.042C71.8066 36.658 71.3519 37.186 70.7506 37.626C70.1639 38.0513 69.3719 38.264 68.3746 38.264ZM68.6606 36.702C69.3646 36.702 69.9659 36.5187 70.4646 36.152C70.9779 35.7853 71.3666 35.3087 71.6306 34.722C71.8946 34.1353 72.0266 33.5193 72.0266 32.874V32.852H69.2326C68.1472 32.852 67.3772 33.0427 66.9226 33.424C66.4826 33.7907 66.2626 34.2527 66.2626 34.81C66.2626 35.382 66.4679 35.844 66.8786 36.196C67.3039 36.5333 67.8979 36.702 68.6606 36.702ZM76.6469 38V27.088H78.3189L78.4729 29.178C78.8102 28.4593 79.3236 27.8873 80.0129 27.462C80.7022 27.0367 81.5529 26.824 82.5649 26.824V28.76H82.0589C81.4136 28.76 80.8196 28.8773 80.2769 29.112C79.7342 29.332 79.3016 29.7133 78.9789 30.256C78.6562 30.7987 78.4949 31.5467 78.4949 32.5V38H76.6469ZM90.5714 38V22.6H92.7274L98.2714 33.336L103.771 22.6H105.949V38H104.101V25.9L98.9534 35.8H97.5674L92.4194 25.922V38H90.5714ZM110.21 24.668C109.844 24.668 109.536 24.5507 109.286 24.316C109.052 24.0667 108.934 23.7587 108.934 23.392C108.934 23.04 109.052 22.7467 109.286 22.512C109.536 22.2773 109.844 22.16 110.21 22.16C110.562 22.16 110.863 22.2773 111.112 22.512C111.362 22.7467 111.486 23.04 111.486 23.392C111.486 23.7587 111.362 24.0667 111.112 24.316C110.863 24.5507 110.562 24.668 110.21 24.668ZM109.286 38V27.088H111.134V38H109.286ZM118.664 38C117.667 38 116.882 37.758 116.31 37.274C115.738 36.79 115.452 35.9173 115.452 34.656V28.65H113.56V27.088H115.452L115.694 24.47H117.3V27.088H120.512V28.65H117.3V34.656C117.3 35.3453 117.439 35.8147 117.718 36.064C117.997 36.2987 118.488 36.416 119.192 36.416H120.336V38H118.664ZM122.86 38V27.088H124.532L124.686 29.178C125.023 28.4593 125.536 27.8873 126.226 27.462C126.915 27.0367 127.766 26.824 128.778 26.824V28.76H128.272C127.626 28.76 127.032 28.8773 126.49 29.112C125.947 29.332 125.514 29.7133 125.192 30.256C124.869 30.7987 124.708 31.5467 124.708 32.5V38H122.86ZM134.482 38.264C133.573 38.264 132.817 38.11 132.216 37.802C131.615 37.494 131.167 37.0833 130.874 36.57C130.581 36.0567 130.434 35.4993 130.434 34.898C130.434 33.7833 130.859 32.9253 131.71 32.324C132.561 31.7227 133.719 31.422 135.186 31.422H138.134V31.29C138.134 30.3367 137.885 29.618 137.386 29.134C136.887 28.6353 136.22 28.386 135.384 28.386C134.665 28.386 134.042 28.5693 133.514 28.936C133.001 29.288 132.678 29.8087 132.546 30.498H130.654C130.727 29.706 130.991 29.0387 131.446 28.496C131.915 27.9533 132.495 27.5427 133.184 27.264C133.873 26.9707 134.607 26.824 135.384 26.824C136.909 26.824 138.053 27.2347 138.816 28.056C139.593 28.8627 139.982 29.9407 139.982 31.29V38H138.332L138.222 36.042C137.914 36.658 137.459 37.186 136.858 37.626C136.271 38.0513 135.479 38.264 134.482 38.264ZM134.768 36.702C135.472 36.702 136.073 36.5187 136.572 36.152C137.085 35.7853 137.474 35.3087 137.738 34.722C138.002 34.1353 138.134 33.5193 138.134 32.874V32.852H135.34C134.255 32.852 133.485 33.0427 133.03 33.424C132.59 33.7907 132.37 34.2527 132.37 34.81C132.37 35.382 132.575 35.844 132.986 36.196C133.411 36.5333 134.005 36.702 134.768 36.702ZM153.593 38.264C152.463 38.264 151.481 38.0587 150.645 37.648C149.809 37.2373 149.163 36.6653 148.709 35.932C148.254 35.1987 148.027 34.348 148.027 33.38H149.963C149.963 33.9813 150.102 34.5387 150.381 35.052C150.659 35.5507 151.063 35.954 151.591 36.262C152.133 36.5553 152.801 36.702 153.593 36.702C154.634 36.702 155.441 36.4527 156.013 35.954C156.585 35.4553 156.871 34.832 156.871 34.084C156.871 33.468 156.739 32.9767 156.475 32.61C156.211 32.2287 155.851 31.9207 155.397 31.686C154.957 31.4513 154.443 31.246 153.857 31.07C153.285 30.894 152.683 30.696 152.053 30.476C150.865 30.0653 149.985 29.5593 149.413 28.958C148.841 28.342 148.555 27.5427 148.555 26.56C148.54 25.7387 148.731 25.0127 149.127 24.382C149.523 23.7367 150.08 23.238 150.799 22.886C151.532 22.5193 152.397 22.336 153.395 22.336C154.377 22.336 155.228 22.5193 155.947 22.886C156.68 23.2527 157.245 23.7587 157.641 24.404C158.051 25.0493 158.264 25.7827 158.279 26.604H156.343C156.343 26.1787 156.233 25.7607 156.013 25.35C155.793 24.9247 155.455 24.58 155.001 24.316C154.561 24.052 154.003 23.92 153.329 23.92C152.493 23.9053 151.803 24.118 151.261 24.558C150.733 24.998 150.469 25.6067 150.469 26.384C150.469 27.044 150.652 27.55 151.019 27.902C151.4 28.254 151.928 28.5473 152.603 28.782C153.277 29.002 154.055 29.2587 154.935 29.552C155.668 29.816 156.328 30.124 156.915 30.476C157.501 30.828 157.956 31.2827 158.279 31.84C158.616 32.3973 158.785 33.1087 158.785 33.974C158.785 34.7073 158.594 35.404 158.213 36.064C157.831 36.7093 157.252 37.2373 156.475 37.648C155.712 38.0587 154.751 38.264 153.593 38.264ZM166.201 38.264C165.16 38.264 164.236 38.0293 163.429 37.56C162.623 37.076 161.985 36.4087 161.515 35.558C161.061 34.7073 160.833 33.7027 160.833 32.544C160.833 31.4 161.061 30.4027 161.515 29.552C161.97 28.6867 162.601 28.0193 163.407 27.55C164.229 27.066 165.175 26.824 166.245 26.824C167.301 26.824 168.211 27.066 168.973 27.55C169.751 28.0193 170.345 28.6427 170.755 29.42C171.166 30.1973 171.371 31.0333 171.371 31.928C171.371 32.0893 171.364 32.2507 171.349 32.412C171.349 32.5733 171.349 32.7567 171.349 32.962H162.659C162.703 33.798 162.894 34.4947 163.231 35.052C163.583 35.5947 164.016 36.0053 164.529 36.284C165.057 36.5627 165.615 36.702 166.201 36.702C166.964 36.702 167.602 36.526 168.115 36.174C168.629 35.822 169.003 35.3453 169.237 34.744H171.063C170.77 35.756 170.205 36.5993 169.369 37.274C168.548 37.934 167.492 38.264 166.201 38.264ZM166.201 28.386C165.321 28.386 164.537 28.6573 163.847 29.2C163.173 29.728 162.784 30.5053 162.681 31.532H169.545C169.501 30.5493 169.164 29.7793 168.533 29.222C167.903 28.6647 167.125 28.386 166.201 28.386ZM173.821 38V22.16H175.669V31.686L180.135 27.088H182.401L177.561 32.016L183.017 38H180.663L175.669 32.346V38H173.821ZM188.451 38.264C187.541 38.264 186.786 38.11 186.185 37.802C185.583 37.494 185.136 37.0833 184.843 36.57C184.549 36.0567 184.403 35.4993 184.403 34.898C184.403 33.7833 184.828 32.9253 185.679 32.324C186.529 31.7227 187.688 31.422 189.155 31.422H192.103V31.29C192.103 30.3367 191.853 29.618 191.355 29.134C190.856 28.6353 190.189 28.386 189.353 28.386C188.634 28.386 188.011 28.5693 187.483 28.936C186.969 29.288 186.647 29.8087 186.515 30.498H184.623C184.696 29.706 184.96 29.0387 185.415 28.496C185.884 27.9533 186.463 27.5427 187.153 27.264C187.842 26.9707 188.575 26.824 189.353 26.824C190.878 26.824 192.022 27.2347 192.785 28.056C193.562 28.8627 193.951 29.9407 193.951 31.29V38H192.301L192.191 36.042C191.883 36.658 191.428 37.186 190.827 37.626C190.24 38.0513 189.448 38.264 188.451 38.264ZM188.737 36.702C189.441 36.702 190.042 36.5187 190.541 36.152C191.054 35.7853 191.443 35.3087 191.707 34.722C191.971 34.1353 192.103 33.5193 192.103 32.874V32.852H189.309C188.223 32.852 187.453 33.0427 186.999 33.424C186.559 33.7907 186.339 34.2527 186.339 34.81C186.339 35.382 186.544 35.844 186.955 36.196C187.38 36.5333 187.974 36.702 188.737 36.702ZM196.723 38V27.088H198.395L198.549 29.178C198.886 28.4593 199.4 27.8873 200.089 27.462C200.778 27.0367 201.629 26.824 202.641 26.824V28.76H202.135C201.49 28.76 200.896 28.8773 200.353 29.112C199.81 29.332 199.378 29.7133 199.055 30.256C198.732 30.7987 198.571 31.5467 198.571 32.5V38H196.723ZM208.345 38.264C207.436 38.264 206.681 38.11 206.079 37.802C205.478 37.494 205.031 37.0833 204.737 36.57C204.444 36.0567 204.297 35.4993 204.297 34.898C204.297 33.7833 204.723 32.9253 205.573 32.324C206.424 31.7227 207.583 31.422 209.049 31.422H211.997V31.29C211.997 30.3367 211.748 29.618 211.249 29.134C210.751 28.6353 210.083 28.386 209.247 28.386C208.529 28.386 207.905 28.5693 207.377 28.936C206.864 29.288 206.541 29.8087 206.409 30.498H204.517C204.591 29.706 204.855 29.0387 205.309 28.496C205.779 27.9533 206.358 27.5427 207.047 27.264C207.737 26.9707 208.47 26.824 209.247 26.824C210.773 26.824 211.917 27.2347 212.679 28.056C213.457 28.8627 213.845 29.9407 213.845 31.29V38H212.195L212.085 36.042C211.777 36.658 211.323 37.186 210.721 37.626C210.135 38.0513 209.343 38.264 208.345 38.264ZM208.631 36.702C209.335 36.702 209.937 36.5187 210.435 36.152C210.949 35.7853 211.337 35.3087 211.601 34.722C211.865 34.1353 211.997 33.5193 211.997 32.874V32.852H209.203C208.118 32.852 207.348 33.0427 206.893 33.424C206.453 33.7907 206.233 34.2527 206.233 34.81C206.233 35.382 206.439 35.844 206.849 36.196C207.275 36.5333 207.869 36.702 208.631 36.702ZM216.618 38V27.088H218.29L218.4 29.046C218.752 28.3567 219.258 27.814 219.918 27.418C220.578 27.022 221.326 26.824 222.162 26.824C223.452 26.824 224.479 27.22 225.242 28.012C226.019 28.7893 226.408 29.992 226.408 31.62V38H224.56V31.818C224.56 29.5447 223.621 28.408 221.744 28.408C220.805 28.408 220.02 28.7527 219.39 29.442C218.774 30.1167 218.466 31.0847 218.466 32.346V38H216.618ZM233.519 34.568C232.903 34.568 232.339 34.4873 231.825 34.326L230.725 35.36C230.887 35.4773 231.085 35.58 231.319 35.668C231.569 35.7413 231.921 35.8147 232.375 35.888C232.83 35.9467 233.468 36.0127 234.289 36.086C235.756 36.1887 236.805 36.526 237.435 37.098C238.066 37.67 238.381 38.418 238.381 39.342C238.381 39.9727 238.205 40.574 237.853 41.146C237.516 41.718 236.988 42.1873 236.269 42.554C235.565 42.9207 234.656 43.104 233.541 43.104C232.559 43.104 231.686 42.972 230.923 42.708C230.161 42.4587 229.567 42.07 229.141 41.542C228.716 41.0287 228.503 40.376 228.503 39.584C228.503 39.1733 228.613 38.726 228.833 38.242C229.053 37.7727 229.464 37.3253 230.065 36.9C229.743 36.768 229.464 36.6287 229.229 36.482C229.009 36.3207 228.804 36.1447 228.613 35.954V35.448L230.483 33.6C229.618 32.8667 229.185 31.8987 229.185 30.696C229.185 29.9773 229.354 29.3247 229.691 28.738C230.029 28.1513 230.52 27.6893 231.165 27.352C231.811 27 232.595 26.824 233.519 26.824C234.15 26.824 234.722 26.912 235.235 27.088H239.261V28.474L237.215 28.562C237.641 29.178 237.853 29.8893 237.853 30.696C237.853 31.4147 237.677 32.0673 237.325 32.654C236.988 33.2407 236.497 33.71 235.851 34.062C235.221 34.3993 234.443 34.568 233.519 34.568ZM233.519 33.05C234.297 33.05 234.913 32.852 235.367 32.456C235.837 32.0453 236.071 31.4587 236.071 30.696C236.071 29.948 235.837 29.376 235.367 28.98C234.913 28.5693 234.297 28.364 233.519 28.364C232.727 28.364 232.097 28.5693 231.627 28.98C231.173 29.376 230.945 29.948 230.945 30.696C230.945 31.4587 231.173 32.0453 231.627 32.456C232.097 32.852 232.727 33.05 233.519 33.05ZM230.307 39.408C230.307 40.1413 230.615 40.684 231.231 41.036C231.847 41.4027 232.617 41.586 233.541 41.586C234.451 41.586 235.177 41.388 235.719 40.992C236.277 40.596 236.555 40.068 236.555 39.408C236.555 38.9387 236.365 38.528 235.983 38.176C235.602 37.8387 234.898 37.6407 233.871 37.582C233.065 37.5233 232.368 37.45 231.781 37.362C231.18 37.6847 230.784 38.0293 230.593 38.396C230.403 38.7773 230.307 39.1147 230.307 39.408Z" fill="white"/>
</g>
<defs>
<filter id="filter0_d_1_2124" x="0" y="0" width="264" height="66" filterUnits="userSpaceOnUse" color-interpolation-filters="sRGB">
<feFlood flood-opacity="0" result="BackgroundImageFix"/>
<feColorMatrix in="SourceAlpha" type="matrix" values="0 0 0 0 0 0 0 0 0 0 0 0 0 0 0 0 0 0 127 0" result="hardAlpha"/>
<feOffset dx="4" dy="5"/>
<feComposite in2="hardAlpha" operator="out"/>
<feColorMatrix type="matrix" values="0 0 0 0 0.266667 0 0 0 0 0.121569 0 0 0 0 0.552941 0 0 0 1 0"/>
<feBlend mode="normal" in2="BackgroundImageFix" result="effect1_dropShadow_1_2124"/>
<feBlend mode="normal" in="SourceGraphic" in2="effect1_dropShadow_1_2124" result="shape"/>
</filter>
</defs>
</svg>
