<svg width="471" height="69" viewBox="0 0 471 69" fill="none" xmlns="http://www.w3.org/2000/svg">
<g filter="url(#filter0_d_1_2170)">
<path d="M1.71866 17.2708C1.87287 8.43555 9.16025 1.39821 17.9955 1.55243L450.93 9.10932C459.765 9.26354 466.802 16.5509 466.648 25.3861L466.281 46.3829C466.127 55.2181 458.84 62.2555 450.005 62.1013L17.0705 54.5444C8.23528 54.3901 1.19794 47.1028 1.35216 38.2676L1.71866 17.2708Z" fill="#D84695" shape-rendering="crispEdges"/>
<path d="M450.938 8.6094C460.05 8.76844 467.307 16.2835 467.148 25.3949L466.781 46.3917C466.622 55.503 459.107 62.7602 449.996 62.6012L17.0618 55.0443C7.95045 54.8852 0.693193 47.3701 0.852231 38.2588L1.21873 17.262C1.37777 8.15072 8.89287 0.893469 18.0042 1.05251L450.938 8.6094Z" stroke="#821D54" shape-rendering="crispEdges"/>
<path d="M19.159 34.5779L19.4034 20.58L23.7027 20.6551C26.169 20.6981 27.9711 21.3563 29.1091 22.6297C30.2603 23.9033 30.8169 25.6333 30.7787 27.8196C30.7413 29.966 30.125 31.6555 28.93 32.8882C27.7485 34.1077 25.9247 34.696 23.4584 34.6529L19.159 34.5779ZM20.8632 33.2074L23.4428 33.2524C24.8026 33.2762 25.8863 33.0751 26.6938 32.6491C27.515 32.21 28.106 31.5802 28.4671 30.7598C28.8283 29.9259 29.019 28.9358 29.039 27.7893C29.0595 26.6161 28.9037 25.6066 28.5718 24.7607C28.2398 23.9147 27.6712 23.2581 26.8659 22.7906C26.0739 22.3234 24.9981 22.0779 23.6383 22.0542L21.0587 22.0091L20.8632 33.2074ZM36.278 35.1167C35.4515 35.1023 34.7673 34.9503 34.2256 34.6608C33.6839 34.3713 33.2839 33.991 33.0254 33.5197C32.7669 33.0485 32.6424 32.5396 32.652 31.993C32.6697 30.9798 33.0699 30.2067 33.8526 29.6736C34.6354 29.1405 35.6933 28.8856 37.0265 28.9089L39.7061 28.9556L39.7081 28.8356C39.7233 27.9691 39.508 27.3119 39.0625 26.8641C38.6171 26.4029 38.0145 26.1657 37.2546 26.1524C36.6014 26.141 36.0319 26.2978 35.5461 26.6227C35.074 26.9345 34.7724 27.4026 34.6415 28.0271L32.9217 27.9971C33.001 27.2783 33.2515 26.676 33.6734 26.1899C34.1086 25.7041 34.6417 25.34 35.2727 25.0977C35.9039 24.842 36.5728 24.7203 37.2794 24.7326C38.6658 24.7568 39.6992 25.1483 40.3794 25.9069C41.0731 26.6525 41.4093 27.6385 41.3879 28.865L41.2814 34.964L39.7817 34.9379L39.7127 33.1564C39.423 33.7114 39.0014 34.1841 38.4478 34.5745C37.9078 34.9518 37.1845 35.1326 36.278 35.1167ZM36.5627 33.7015C37.2026 33.7127 37.7521 33.5556 38.2112 33.2302C38.6836 32.905 39.0445 32.4779 39.2937 31.9489C39.543 31.4198 39.6728 30.862 39.683 30.2754L39.6834 30.2554L37.1437 30.2111C36.1572 30.1939 35.4543 30.355 35.035 30.6944C34.6292 31.0207 34.4219 31.4371 34.4131 31.9437C34.404 32.4636 34.5833 32.8868 34.951 33.2133C35.3323 33.5267 35.8695 33.6894 36.5627 33.7015ZM43.8014 35.008L43.9745 25.0895L45.4943 25.1161L45.5632 26.8975C45.8941 26.2765 46.3626 25.7913 46.9688 25.4418C47.575 25.0924 48.258 24.9243 49.0179 24.9375C50.1911 24.958 51.118 25.3342 51.7986 26.0662C52.4929 26.7851 52.8271 27.8845 52.8012 29.3642L52.7 35.1633L51.0203 35.134L51.1183 29.5149C51.1544 27.4485 50.3192 26.4005 48.6128 26.3707C47.7596 26.3558 47.0409 26.6566 46.4568 27.2732C45.8861 27.8767 45.5908 28.7516 45.5708 29.8981L45.4811 35.0373L43.8014 35.008ZM58.5402 35.5053C57.7137 35.4909 57.0296 35.3389 56.4879 35.0494C55.9462 34.7599 55.5461 34.3796 55.2876 33.9083C55.0291 33.4371 54.9047 32.9281 54.9142 32.3816C54.9319 31.3684 55.3321 30.5953 56.1149 30.0622C56.8976 29.5291 57.9556 29.2742 59.2887 29.2974L61.9683 29.3442L61.9704 29.2242C61.9855 28.3577 61.7703 27.7005 61.3247 27.2527C60.8793 26.7915 60.2767 26.5543 59.5168 26.541C58.8636 26.5296 58.2941 26.6864 57.8084 27.0113C57.3362 27.3231 57.0346 27.7912 56.9037 28.4157L55.184 28.3857C55.2632 27.6669 55.5138 27.0646 55.9356 26.5785C56.3708 26.0927 56.9039 25.7286 57.5349 25.4863C58.1662 25.2306 58.8351 25.1089 59.5416 25.1212C60.9281 25.1454 61.9614 25.5368 62.6416 26.2955C63.3354 27.0411 63.6715 28.0271 63.6501 29.2536L63.5437 35.3526L62.0439 35.3264L61.975 33.545C61.6852 34.1 61.2636 34.5727 60.71 34.9631C60.17 35.3404 59.4468 35.5211 58.5402 35.5053ZM58.825 34.0901C59.4649 34.1012 60.0144 33.9441 60.4735 33.6188C60.9459 33.2936 61.3067 32.8665 61.556 32.3375C61.8053 31.8084 61.935 31.2506 61.9452 30.664L61.9456 30.644L59.406 30.5997C58.4195 30.5825 57.7165 30.7436 57.2972 31.083C56.8915 31.4093 56.6842 31.8257 56.6753 32.3323C56.6663 32.8522 56.8456 33.2754 57.2133 33.6019C57.5945 33.9152 58.1318 34.078 58.825 34.0901ZM75.9109 35.8085C74.9644 35.792 74.1149 35.5638 73.3624 35.1239C72.6236 34.671 72.0409 34.0541 71.6145 33.2732C71.2016 32.4792 71.0042 31.5623 71.0224 30.5224C71.0405 29.4826 71.2697 28.5798 71.7098 27.814C72.1634 27.0351 72.7672 26.4389 73.5212 26.0253C74.2888 25.5987 75.1459 25.3936 76.0924 25.4101C77.2655 25.4306 78.2467 25.7544 79.0359 26.3816C79.8384 27.0091 80.3373 27.8379 80.5327 28.8681L78.813 28.8381C78.6904 28.2225 78.372 27.7436 77.8579 27.4012C77.344 27.0455 76.7405 26.8616 76.0472 26.8495C75.4873 26.8398 74.9583 26.9706 74.4602 27.2419C73.962 27.5133 73.5547 27.9262 73.2384 28.4808C72.922 29.0353 72.7565 29.7259 72.7421 30.5524C72.7277 31.379 72.8689 32.0749 73.1658 32.6401C73.4626 33.2054 73.8551 33.639 74.3432 33.9409C74.8316 34.2295 75.3557 34.3786 75.9157 34.3884C76.6089 34.4005 77.2184 34.2444 77.7441 33.9202C78.2701 33.5827 78.6052 33.1018 78.7494 32.4776L80.4692 32.5076C80.2518 33.5039 79.731 34.3083 78.9068 34.9207C78.0827 35.5331 77.084 35.829 75.9109 35.8085ZM87.2154 36.0059C86.2689 35.9893 85.4327 35.7614 84.707 35.322C83.9814 34.8692 83.4121 34.2525 82.999 33.4719C82.5992 32.6914 82.4085 31.7746 82.4269 30.7215C82.445 29.6816 82.6675 28.7787 83.0943 28.0127C83.5213 27.2334 84.1051 26.6368 84.8458 26.223C85.6 25.7961 86.4637 25.5911 87.4369 25.6081C88.3968 25.6249 89.2195 25.8593 89.905 26.3113C90.6041 26.7502 91.1341 27.3263 91.4951 28.0393C91.856 28.7524 92.0294 29.5155 92.0152 30.3288C92.0127 30.4754 92.0034 30.6219 91.9875 30.7683C91.985 30.915 91.9821 31.0816 91.9788 31.2683L84.08 31.1304C84.1067 31.891 84.269 32.5272 84.5668 33.0392C84.8781 33.538 85.2649 33.9182 85.727 34.1796C86.2026 34.4413 86.7069 34.5768 87.2402 34.5861C87.9334 34.5982 88.5161 34.4483 88.9883 34.1365C89.4605 33.8247 89.808 33.3974 90.0308 32.8545L91.6906 32.8835C91.4079 33.7987 90.8813 34.5563 90.1107 35.1563C89.3536 35.7431 88.3886 36.0263 87.2154 36.0059ZM87.3721 27.0272C86.5722 27.0133 85.8547 27.2474 85.2195 27.7298C84.5979 28.199 84.2323 28.8994 84.1227 29.8309L90.3617 29.9398C90.3373 29.0459 90.0429 28.3407 89.4785 27.8241C88.9141 27.3075 88.212 27.0419 87.3721 27.0272ZM94.0685 40.2861L94.3184 25.9683L95.8381 25.9948L95.9695 27.6374C96.2978 27.163 96.7587 26.7377 97.352 26.3613C97.9586 25.9852 98.7219 25.8051 99.6418 25.8212C100.628 25.8384 101.484 26.08 102.209 26.5461C102.935 27.0122 103.491 27.642 103.877 28.4355C104.276 29.2292 104.467 30.126 104.45 31.1259C104.432 32.1257 104.21 33.0153 103.783 33.7947C103.37 34.5609 102.786 35.1641 102.031 35.6044C101.29 36.0315 100.427 36.2365 99.4403 36.2192C98.627 36.205 97.9034 36.0257 97.2693 35.6813C96.6486 35.337 96.1768 34.8621 95.854 34.2563L95.7482 40.3154L94.0685 40.2861ZM99.2858 34.7563C99.9523 34.768 100.542 34.6249 101.054 34.3271C101.566 34.016 101.973 33.583 102.276 33.0282C102.579 32.4735 102.737 31.8228 102.751 31.0762C102.764 30.3297 102.628 29.6739 102.345 29.1088C102.061 28.5438 101.669 28.1036 101.168 27.7881C100.667 27.4593 100.083 27.2891 99.4163 27.2775C98.7497 27.2658 98.1604 27.4156 97.6482 27.7267C97.1363 28.0244 96.7288 28.4507 96.4257 29.0055C96.1226 29.5603 95.9646 30.211 95.9516 30.9575C95.9385 31.7041 96.0738 32.3599 96.3573 32.9249C96.6408 33.49 97.0331 33.9369 97.5341 34.2657C98.0353 34.5811 98.6192 34.7447 99.2858 34.7563ZM109.997 36.4035C109.171 36.3891 108.487 36.2371 107.945 35.9476C107.403 35.6581 107.003 35.2777 106.745 34.8065C106.486 34.3353 106.362 33.8263 106.371 33.2798C106.389 32.2666 106.789 31.4934 107.572 30.9604C108.355 30.4273 109.413 30.1724 110.746 30.1956L113.425 30.2424L113.427 30.1224C113.443 29.2559 113.227 28.5987 112.782 28.1508C112.336 27.6897 111.734 27.4525 110.974 27.4392C110.321 27.4278 109.751 27.5845 109.265 27.9094C108.793 28.2212 108.492 28.6894 108.361 29.3139L106.641 29.2838C106.72 28.5651 106.971 27.9627 107.393 27.4767C107.828 26.9909 108.361 26.6268 108.992 26.3844C109.623 26.1287 110.292 26.0071 110.999 26.0194C112.385 26.0436 113.418 26.435 114.099 27.1937C114.792 27.9392 115.129 28.9253 115.107 30.1517L115.001 36.2508L113.501 36.2246L113.432 34.4432C113.142 34.9982 112.721 35.4709 112.167 35.8613C111.627 36.2386 110.904 36.4193 109.997 36.4035ZM110.282 34.9883C110.922 34.9994 111.471 34.8423 111.93 34.517C112.403 34.1918 112.764 33.7647 113.013 33.2357C113.262 32.7066 113.392 32.1488 113.402 31.5622L113.403 31.5422L110.863 31.4979C109.876 31.4807 109.174 31.6417 108.754 31.9811C108.348 32.3074 108.141 32.7239 108.132 33.2305C108.123 33.7504 108.303 34.1736 108.67 34.5001C109.052 34.8134 109.589 34.9762 110.282 34.9883ZM121.167 36.3584C120.26 36.3426 119.551 36.1102 119.038 35.6612C118.526 35.2122 118.28 34.4144 118.3 33.2679L118.395 27.8088L116.676 27.7787L116.7 26.359L118.42 26.389L118.682 24.0132L120.141 24.0387L120.1 26.4183L123.019 26.4693L122.995 27.889L120.075 27.8381L119.98 33.2973C119.969 33.9238 120.088 34.3526 120.337 34.5837C120.587 34.8014 121.032 34.9159 121.672 34.927L122.712 34.9452L122.686 36.385L121.167 36.3584ZM134.828 36.8369C133.881 36.8204 133.032 36.5922 132.279 36.1523C131.54 35.6994 130.958 35.0825 130.531 34.3016C130.118 33.5076 129.921 32.5906 129.939 31.5508C129.957 30.511 130.186 29.6082 130.627 28.8424C131.08 28.0635 131.684 27.4673 132.438 27.0537C133.206 26.6271 134.063 26.422 135.009 26.4385C136.182 26.459 137.164 26.7828 137.953 27.41C138.755 28.0375 139.254 28.8663 139.45 29.8965L137.73 29.8665C137.607 29.2509 137.289 28.772 136.775 28.4296C136.261 28.0739 135.657 27.89 134.964 27.8779C134.404 27.8682 133.875 27.999 133.377 28.2703C132.879 28.5417 132.472 28.9546 132.155 29.5092C131.839 30.0637 131.673 30.7543 131.659 31.5808C131.645 32.4074 131.786 33.1033 132.083 33.6685C132.379 34.2338 132.772 34.6674 133.26 34.9693C133.748 35.2578 134.273 35.407 134.832 35.4168C135.526 35.4289 136.135 35.2728 136.661 34.9486C137.187 34.6111 137.522 34.1302 137.666 33.506L139.386 33.536C139.169 34.5323 138.648 35.3367 137.824 35.9491C136.999 36.5615 136.001 36.8574 134.828 36.8369ZM144.972 37.014C144.146 36.9996 143.462 36.8476 142.92 36.5581C142.378 36.2686 141.978 35.8882 141.72 35.417C141.461 34.9457 141.337 34.4368 141.346 33.8902C141.364 32.8771 141.764 32.1039 142.547 31.5708C143.33 31.0378 144.388 30.7828 145.721 30.8061L148.4 30.8529L148.403 30.7329C148.418 29.8664 148.202 29.2092 147.757 28.7613C147.311 28.3002 146.709 28.0629 145.949 28.0497C145.296 28.0383 144.726 28.195 144.241 28.5199C143.768 28.8317 143.467 29.2999 143.336 29.9244L141.616 29.8943C141.695 29.1756 141.946 28.5732 142.368 28.0872C142.803 27.6014 143.336 27.2373 143.967 26.9949C144.598 26.7392 145.267 26.6176 145.974 26.6299C147.36 26.6541 148.394 27.0455 149.074 27.8042C149.768 28.5497 150.104 29.5358 150.082 30.7622L149.976 36.8613L148.476 36.8351L148.407 35.0536C148.117 35.6087 147.696 36.0814 147.142 36.4718C146.602 36.8491 145.879 37.0298 144.972 37.014ZM145.257 35.5988C145.897 35.6099 146.447 35.4528 146.906 35.1275C147.378 34.8023 147.739 34.3752 147.988 33.8462C148.237 33.3171 148.367 32.7593 148.377 32.1727L148.378 32.1527L145.838 32.1084C144.852 32.0911 144.149 32.2522 143.729 32.5916C143.324 32.9179 143.116 33.3344 143.107 33.841C143.098 34.3609 143.278 34.7841 143.645 35.1106C144.027 35.4239 144.564 35.5867 145.257 35.5988ZM153.727 24.8049C153.394 24.7991 153.116 24.6876 152.893 24.4703C152.683 24.24 152.582 23.9581 152.588 23.6249C152.593 23.3049 152.704 23.0401 152.921 22.8306C153.152 22.6212 153.434 22.5195 153.767 22.5253C154.087 22.5309 154.358 22.6423 154.581 22.8595C154.804 23.0768 154.913 23.3454 154.907 23.6654C154.901 23.9986 154.783 24.2766 154.553 24.4993C154.322 24.7086 154.047 24.8105 153.727 24.8049ZM152.676 36.9084L152.849 26.9899L154.529 27.0193L154.355 36.9377L152.676 36.9084ZM157.28 36.9888L157.453 27.0703L158.973 27.0968L159.08 28.999C159.398 28.3511 159.874 27.8393 160.507 27.4637C161.14 27.088 161.917 26.9082 162.837 26.9242L162.806 28.684L162.346 28.6759C161.759 28.6657 161.218 28.7629 160.721 28.9676C160.224 29.159 159.825 29.4987 159.523 29.9869C159.221 30.475 159.062 31.1523 159.047 32.0189L158.96 37.0181L157.28 36.9888ZM169.837 37.208L170.088 22.8102L171.768 22.8395L171.617 31.4982L175.749 27.3897L177.809 27.4256L173.331 31.8281L178.196 37.3539L176.056 37.3165L171.606 32.0981L171.517 37.2373L169.837 37.208ZM183.646 37.6891C182.7 37.6725 181.863 37.4446 181.138 37.0052C180.412 36.5524 179.843 35.9357 179.43 35.1551C179.03 34.3747 178.839 33.4579 178.858 32.4047C178.876 31.3648 179.098 30.4619 179.525 29.6959C179.952 28.9166 180.536 28.32 181.276 27.9062C182.031 27.4793 182.894 27.2743 183.868 27.2913C184.827 27.3081 185.65 27.5425 186.336 27.9945C187.035 28.4335 187.565 29.0095 187.926 29.7225C188.287 30.4356 188.46 31.1987 188.446 32.012C188.443 32.1586 188.434 32.3051 188.418 32.4515C188.416 32.5982 188.413 32.7648 188.409 32.9515L180.511 32.8136C180.537 33.5742 180.7 34.2104 180.997 34.7224C181.309 35.2212 181.695 35.6014 182.158 35.8628C182.633 36.1245 183.138 36.26 183.671 36.2693C184.364 36.2814 184.947 36.1315 185.419 35.8197C185.891 35.5079 186.239 35.0806 186.461 34.5377L188.121 34.5667C187.839 35.4819 187.312 36.2395 186.541 36.8395C185.784 37.4263 184.819 37.7095 183.646 37.6891ZM183.803 28.7104C183.003 28.6965 182.285 28.9306 181.65 29.413C181.029 29.8822 180.663 30.5826 180.553 31.5141L186.792 31.623C186.768 30.7291 186.474 30.0239 185.909 29.5073C185.345 28.9907 184.643 28.7251 183.803 28.7104ZM195.868 37.6624L196.041 27.7439L197.561 27.7704L197.668 29.6725C197.986 29.0247 198.461 28.5129 199.095 28.1372C199.728 27.7615 200.505 27.5817 201.425 27.5978L201.394 29.3575L200.934 29.3495C200.347 29.3393 199.806 29.4365 199.309 29.6412C198.812 29.8325 198.412 30.1723 198.111 30.6604C197.809 31.1486 197.65 31.8259 197.635 32.6924L197.548 37.6917L195.868 37.6624ZM207.217 38.1005C206.27 38.084 205.434 37.856 204.708 37.4166C203.983 36.9639 203.413 36.3472 203 35.5665C202.6 34.7861 202.41 33.8693 202.428 32.8161C202.446 31.7763 202.669 30.8733 203.096 30.1073C203.523 29.328 204.106 28.7314 204.847 28.3176C205.601 27.8907 206.465 27.6858 207.438 27.7028C208.398 27.7195 209.221 27.9539 209.906 28.4059C210.605 28.8449 211.135 29.4209 211.496 30.134C211.857 30.847 212.031 31.6102 212.016 32.4234C212.014 32.57 212.005 32.7166 211.989 32.863C211.986 33.0096 211.983 33.1763 211.98 33.3629L204.081 33.225C204.108 33.9856 204.27 34.6219 204.568 35.1338C204.879 35.6326 205.266 36.0128 205.728 36.2742C206.204 36.5359 206.708 36.6714 207.241 36.6807C207.935 36.6928 208.517 36.5429 208.99 36.2311C209.462 35.9193 209.809 35.492 210.032 34.9491L211.692 34.9781C211.409 35.8933 210.883 36.6509 210.112 37.2509C209.355 37.8378 208.39 38.121 207.217 38.1005ZM207.373 29.1218C206.573 29.1079 205.856 29.3421 205.221 29.8244C204.599 30.2936 204.234 30.994 204.124 31.9256L210.363 32.0345C210.339 31.1406 210.044 30.4353 209.48 29.9187C208.915 29.4021 208.213 29.1365 207.373 29.1218ZM214.147 37.9814L214.398 23.5836L216.078 23.6129L215.926 32.2716L220.059 28.1631L222.118 28.199L217.641 32.6016L222.505 38.1273L220.366 38.09L215.916 32.8715L215.826 38.0107L214.147 37.9814ZM227.956 38.4625C227.009 38.446 226.173 38.218 225.447 37.7786C224.722 37.3259 224.152 36.7092 223.739 35.9285C223.339 35.1481 223.149 34.2313 223.167 33.1781C223.185 32.1383 223.408 31.2353 223.835 30.4693C224.262 29.69 224.845 29.0934 225.586 28.6796C226.34 28.2527 227.204 28.0478 228.177 28.0648C229.137 28.0815 229.96 28.3159 230.645 28.7679C231.344 29.2069 231.874 29.7829 232.235 30.496C232.596 31.209 232.77 31.9722 232.755 32.7854C232.753 32.932 232.744 33.0786 232.728 33.225C232.725 33.3716 232.722 33.5383 232.719 33.7249L224.82 33.587C224.847 34.3476 225.009 34.9839 225.307 35.4958C225.618 35.9946 226.005 36.3748 226.467 36.6362C226.943 36.8979 227.447 37.0334 227.98 37.0427C228.674 37.0548 229.256 36.9049 229.729 36.5931C230.201 36.2813 230.548 35.854 230.771 35.3111L232.431 35.3401C232.148 36.2553 231.622 37.0129 230.851 37.6129C230.094 38.1998 229.129 38.483 227.956 38.4625ZM228.112 29.4838C227.313 29.4699 226.595 29.7041 225.96 30.1864C225.338 30.6556 224.973 31.356 224.863 32.2876L231.102 32.3965C231.078 31.5026 230.783 30.7973 230.219 30.2807C229.654 29.7641 228.952 29.4985 228.112 29.4838ZM234.886 38.3434L235.059 28.4249L236.578 28.4514L236.647 30.2329C236.978 29.6119 237.447 29.1267 238.053 28.7772C238.659 28.4278 239.342 28.2596 240.102 28.2729C241.275 28.2934 242.202 28.6696 242.883 29.4016C243.577 30.1205 243.911 31.2198 243.885 32.6996L243.784 38.4987L242.104 38.4694L242.203 32.8503C242.239 30.7839 241.403 29.7358 239.697 29.7061C238.844 29.6912 238.125 29.992 237.541 30.6086C236.97 31.212 236.675 32.087 236.655 33.2335L236.565 38.3727L234.886 38.3434ZM247.56 26.4428C247.227 26.437 246.949 26.3254 246.726 26.1082C246.517 25.8778 246.415 25.596 246.421 25.2627C246.426 24.9428 246.538 24.678 246.755 24.4684C246.985 24.2591 247.267 24.1573 247.6 24.1631C247.92 24.1687 248.192 24.2802 248.415 24.4974C248.637 24.7147 248.746 24.9833 248.741 25.3032C248.735 25.6365 248.617 25.9145 248.386 26.1372C248.156 26.3465 247.88 26.4484 247.56 26.4428ZM246.509 38.5463L246.682 28.6278L248.362 28.6571L248.189 38.5756L246.509 38.5463ZM251.114 38.6267L251.287 28.7082L252.806 28.7347L252.875 30.5162C253.206 29.8952 253.675 29.41 254.281 29.0605C254.887 28.711 255.57 28.5429 256.33 28.5562C257.503 28.5767 258.43 28.9529 259.111 29.6849C259.805 30.4038 260.139 31.5031 260.113 32.9829L260.012 38.782L258.332 38.7527L258.431 33.1335C258.467 31.0672 257.631 30.0191 255.925 29.9893C255.072 29.9744 254.353 30.2753 253.769 30.8918C253.198 31.4953 252.903 32.3703 252.883 33.5168L252.793 38.656L251.114 38.6267ZM266.531 35.7753C265.971 35.7655 265.459 35.6832 264.995 35.5285L263.979 36.4509C264.124 36.5601 264.302 36.6565 264.514 36.7402C264.739 36.8109 265.058 36.8831 265.47 36.957C265.883 37.0175 266.461 37.0876 267.207 37.1673C268.538 37.2839 269.486 37.6072 270.05 38.1371C270.614 38.667 270.889 39.3519 270.875 40.1918C270.865 40.765 270.695 41.3088 270.366 41.8232C270.05 42.3377 269.563 42.7559 268.904 43.0778C268.258 43.3999 267.429 43.5522 266.416 43.5345C265.522 43.5189 264.731 43.3851 264.042 43.133C263.353 42.8943 262.819 42.5316 262.441 42.0449C262.062 41.5715 261.88 40.9749 261.892 40.255C261.899 39.8817 262.006 39.4769 262.213 39.0404C262.421 38.6173 262.801 38.2172 263.354 37.8402C263.063 37.7151 262.812 37.584 262.601 37.447C262.404 37.2968 262.22 37.1336 262.05 36.9573L262.058 36.4973L263.787 34.8473C263.012 34.167 262.634 33.2802 262.653 32.1871C262.664 31.5338 262.828 30.9433 263.144 30.4154C263.46 29.8875 263.914 29.4753 264.506 29.179C265.098 28.8692 265.814 28.7217 266.654 28.7364C267.227 28.7464 267.746 28.8354 268.209 29.0036L271.869 29.0674L271.847 30.3272L269.986 30.3748C270.363 30.9414 270.545 31.5914 270.532 32.3246C270.52 32.9778 270.35 33.5683 270.021 34.096C269.705 34.6239 269.251 35.0427 268.659 35.3524C268.08 35.649 267.371 35.79 266.531 35.7753ZM266.555 34.3955C267.262 34.4078 267.825 34.2376 268.244 33.8849C268.677 33.5191 268.9 32.9896 268.912 32.2963C268.924 31.6164 268.72 31.0928 268.299 30.7254C267.893 30.3449 267.336 30.1485 266.629 30.1362C265.909 30.1236 265.333 30.3002 264.9 30.6661C264.48 31.0188 264.265 31.5351 264.253 32.215C264.241 32.9082 264.438 33.4451 264.845 33.8256C265.265 34.193 265.835 34.3829 266.555 34.3955ZM263.535 40.1237C263.523 40.7902 263.794 41.2884 264.349 41.6181C264.903 41.9612 265.6 42.14 266.44 42.1547C267.266 42.1691 267.929 42.0007 268.429 41.6493C268.942 41.2982 269.203 40.8227 269.214 40.2228C269.221 39.7962 269.054 39.4199 268.713 39.0939C268.372 38.7812 267.735 38.5901 266.803 38.5205C266.071 38.4543 265.439 38.3766 264.907 38.2873C264.355 38.5711 263.99 38.8781 263.811 39.2084C263.631 39.5519 263.539 39.857 263.535 40.1237ZM282.412 42.0734C281.704 41.3676 281.052 40.5294 280.455 39.5589C279.858 38.6017 279.384 37.5266 279.031 36.3335C278.692 35.1274 278.535 33.8312 278.559 32.4447C278.583 31.0583 278.786 29.7749 279.166 28.5947C279.561 27.4014 280.073 26.3369 280.702 25.401C281.332 24.4519 282.013 23.637 282.745 22.9563L284.465 22.9863L284.462 23.1463C283.215 24.3247 282.204 25.714 281.429 27.314C280.668 28.901 280.271 30.621 280.239 32.474C280.206 34.3271 280.549 36.0667 281.268 37.6928C281.986 39.3056 282.942 40.7225 284.134 41.9435L284.131 42.1034L282.412 42.0734ZM286.323 39.2413L286.496 29.3228L288.016 29.3493L288.111 30.7912C288.44 30.2635 288.874 29.8577 289.412 29.5737C289.951 29.2897 290.553 29.1535 291.22 29.1652C292.006 29.1789 292.677 29.3506 293.231 29.6804C293.799 30.0103 294.23 30.5046 294.525 31.1632C294.882 30.5693 295.364 30.1043 295.97 29.7682C296.589 29.4323 297.252 29.2705 297.959 29.2828C299.145 29.3035 300.085 29.68 300.779 30.4122C301.474 31.1311 301.808 32.2304 301.782 33.7102L301.681 39.5093L300.021 39.4803L300.119 33.8612C300.137 32.8347 299.944 32.0579 299.54 31.5307C299.135 31.0036 298.547 30.7333 297.773 30.7198C296.974 30.7058 296.302 31.0075 295.757 31.6247C295.227 32.2289 294.951 33.1042 294.931 34.2507L294.842 39.3899L293.162 39.3606L293.26 33.7415C293.278 32.715 293.085 31.9381 292.681 31.411C292.276 30.8839 291.688 30.6136 290.915 30.6001C290.128 30.5863 289.463 30.8881 288.918 31.5054C288.388 32.1095 288.112 32.9849 288.092 34.1314L288.003 39.2706L286.323 39.2413ZM307.506 39.851C306.68 39.8366 305.996 39.6847 305.454 39.3952C304.912 39.1057 304.512 38.7253 304.254 38.254C303.995 37.7828 303.871 37.2739 303.88 36.7273C303.898 35.7141 304.298 34.941 305.081 34.4079C305.864 33.8748 306.922 33.6199 308.255 33.6432L310.934 33.6899L310.936 33.5699C310.951 32.7034 310.736 32.0462 310.291 31.5984C309.845 31.1372 309.243 30.9 308.483 30.8867C307.83 30.8753 307.26 31.0321 306.774 31.357C306.302 31.6688 306.001 32.1369 305.87 32.7614L304.15 32.7314C304.229 32.0127 304.48 31.4103 304.902 30.9242C305.337 30.4384 305.87 30.0743 306.501 29.832C307.132 29.5763 307.801 29.4546 308.508 29.4669C309.894 29.4911 310.927 29.8826 311.608 30.6412C312.301 31.3868 312.638 32.3728 312.616 33.5993L312.51 39.6983L311.01 39.6722L310.941 37.8907C310.651 38.4457 310.23 38.9184 309.676 39.3088C309.136 39.6861 308.413 39.8669 307.506 39.851ZM307.791 38.4358C308.431 38.447 308.98 38.2899 309.439 37.9645C309.912 37.6394 310.273 37.2123 310.522 36.6832C310.771 36.1541 310.901 35.5963 310.911 35.0097L310.912 34.9897L308.372 34.9454C307.385 34.9282 306.683 35.0893 306.263 35.4287C305.857 35.755 305.65 36.1714 305.641 36.678C305.632 37.1979 305.812 37.6211 306.179 37.9476C306.56 38.261 307.098 38.4237 307.791 38.4358ZM315.03 39.7423L315.281 25.3445L316.961 25.3738L316.809 34.0325L320.942 29.924L323.002 29.96L318.524 34.3625L323.388 39.8882L321.249 39.8509L316.799 34.6324L316.709 39.7716L315.03 39.7423ZM328.316 40.2143C327.129 40.1936 326.148 39.8764 325.372 39.2627C324.596 38.6491 324.15 37.8279 324.035 36.799L325.754 36.8291C325.852 37.3508 326.117 37.8089 326.55 38.2032C326.997 38.5843 327.6 38.7816 328.36 38.7948C329.067 38.8072 329.589 38.6696 329.928 38.3821C330.266 38.0813 330.439 37.7243 330.447 37.311C330.457 36.7111 330.244 36.3073 329.808 36.0997C329.384 35.8923 328.781 35.7017 327.997 35.528C327.466 35.412 326.935 35.2494 326.406 35.0401C325.876 34.8309 325.434 34.5431 325.08 34.1769C324.727 33.7973 324.556 33.3076 324.566 32.7077C324.581 31.8412 324.913 31.1402 325.563 30.6048C326.226 30.0563 327.111 29.7917 328.217 29.811C329.27 29.8293 330.125 30.111 330.783 30.6559C331.454 31.1877 331.834 31.9411 331.923 32.9161L330.264 32.8872C330.206 32.3794 329.993 31.9823 329.624 31.6958C329.27 31.3962 328.786 31.2411 328.172 31.2304C327.572 31.2199 327.104 31.3384 326.766 31.5859C326.442 31.8336 326.276 32.1641 326.269 32.5774C326.262 32.9773 326.463 33.2942 326.872 33.5281C327.295 33.7621 327.865 33.9654 328.582 34.138C329.193 34.282 329.77 34.4588 330.313 34.6683C330.869 34.8647 331.318 35.1592 331.657 35.5519C332.011 35.9314 332.181 36.4812 332.169 37.2011C332.166 38.0945 331.814 38.8284 331.11 39.4029C330.42 39.9643 329.489 40.2347 328.316 40.2143ZM335.097 40.1926C334.764 40.1868 334.486 40.0753 334.263 39.858C334.053 39.6277 333.951 39.3525 333.957 39.0325C333.963 38.7126 334.074 38.4478 334.291 38.2383C334.522 38.0156 334.803 37.9071 335.137 37.913C335.457 37.9186 335.721 38.0365 335.931 38.2669C336.154 38.4841 336.262 38.7527 336.257 39.0727C336.251 39.3926 336.133 39.664 335.902 39.8866C335.685 40.0962 335.417 40.1982 335.097 40.1926ZM348.172 40.5609C347.279 40.5453 346.475 40.3712 345.76 40.0387C345.046 39.6929 344.475 39.1895 344.047 38.5286C343.631 37.8679 343.419 37.0507 343.409 36.0771L345.109 36.1067C345.108 36.9068 345.376 37.605 345.913 38.2011C346.449 38.7839 347.211 39.0839 348.197 39.1011C349.184 39.1183 349.928 38.8579 350.431 38.32C350.947 37.7822 351.212 37.1267 351.226 36.3535C351.237 35.7003 351.086 35.1642 350.774 34.7454C350.474 34.3268 350.06 34.0128 349.53 33.8035C349.013 33.5945 348.442 33.4845 347.815 33.4736L346.776 33.4554L346.8 32.0356L347.84 32.0538C348.747 32.0696 349.457 31.8753 349.971 31.4709C350.498 31.0667 350.768 30.4913 350.781 29.7447C350.792 29.1182 350.594 28.6013 350.188 28.1942C349.795 27.7739 349.199 27.5568 348.399 27.5428C347.626 27.5293 347.002 27.7518 346.527 28.2103C346.053 28.6554 345.783 29.2241 345.717 29.9164L344.017 29.8867C344.071 29.1275 344.282 28.4578 344.653 27.8775C345.036 27.2974 345.551 26.853 346.196 26.5442C346.842 26.2221 347.585 26.0684 348.424 26.0831C349.331 26.0989 350.081 26.272 350.676 26.6024C351.283 26.9331 351.736 27.3677 352.033 27.9063C352.344 28.4452 352.494 29.0345 352.482 29.6744C352.47 30.381 352.265 31.0242 351.869 31.604C351.472 32.1705 350.885 32.547 350.109 32.7335C350.932 32.9212 351.612 33.3265 352.148 33.9492C352.684 34.572 352.943 35.3833 352.925 36.3832C352.912 37.1564 352.719 37.8665 352.348 38.5134C351.99 39.1473 351.461 39.6515 350.761 40.026C350.062 40.4005 349.198 40.5788 348.172 40.5609ZM360.765 40.5406L361.016 26.1428L362.696 26.1721L362.588 32.3512C362.932 31.7438 363.414 31.2788 364.033 30.9562C364.652 30.6203 365.321 30.4586 366.041 30.4712C367.188 30.4912 368.101 30.8672 368.782 31.5992C369.463 32.3179 369.79 33.4171 369.765 34.8968L369.663 40.696L368.004 40.667L368.102 35.0478C368.138 32.9815 367.323 31.9338 365.656 31.9047C364.79 31.8896 364.058 32.1902 363.46 32.8065C362.863 33.4095 362.554 34.2842 362.534 35.4307L362.445 40.57L360.765 40.5406ZM375.504 41.0379C374.677 41.0235 373.993 40.8716 373.451 40.5821C372.91 40.2926 372.51 39.9122 372.251 39.4409C371.993 38.9697 371.868 38.4608 371.878 37.9142C371.895 36.901 372.296 36.1279 373.078 35.5948C373.861 35.0617 374.919 34.8068 376.252 34.8301L378.932 34.8768L378.934 34.7568C378.949 33.8903 378.734 33.2331 378.288 32.7853C377.843 32.3241 377.24 32.0869 376.48 32.0736C375.827 32.0622 375.258 32.219 374.772 32.5439C374.3 32.8557 373.998 33.3238 373.867 33.9483L372.147 33.9183C372.227 33.1996 372.477 32.5972 372.899 32.1111C373.334 31.6253 373.867 31.2612 374.498 31.0189C375.13 30.7632 375.798 30.6415 376.505 30.6538C377.892 30.678 378.925 31.0695 379.605 31.8281C380.299 32.5737 380.635 33.5597 380.614 34.7862L380.507 40.8852L379.007 40.8591L378.938 39.0776C378.649 39.6326 378.227 40.1053 377.673 40.4957C377.133 40.873 376.41 41.0538 375.504 41.0379ZM375.788 39.6227C376.428 39.6339 376.978 39.4768 377.437 39.1514C377.909 38.8263 378.27 38.3992 378.519 37.8701C378.769 37.341 378.898 36.7832 378.909 36.1966L378.909 36.1766L376.369 36.1323C375.383 36.1151 374.68 36.2762 374.261 36.6156C373.855 36.9419 373.648 37.3583 373.639 37.8649C373.63 38.3848 373.809 38.808 374.177 39.1345C374.558 39.4479 375.095 39.6106 375.788 39.6227ZM383.027 40.9292L383.2 31.0107L384.72 31.0373L384.827 32.9394C385.145 32.2915 385.62 31.7798 386.254 31.4041C386.887 31.0284 387.664 30.8486 388.584 30.8647L388.553 32.6244L388.093 32.6164C387.506 32.6061 386.965 32.7034 386.468 32.908C385.971 33.0994 385.571 33.4392 385.27 33.9273C384.968 34.4154 384.809 35.0928 384.794 35.9593L384.707 40.9585L383.027 40.9292ZM391.523 28.9557C391.19 28.9499 390.912 28.8383 390.689 28.6211C390.479 28.3907 390.378 28.1089 390.383 27.7756C390.389 27.4557 390.5 27.1909 390.717 26.9813C390.948 26.772 391.229 26.6702 391.563 26.676C391.883 26.6816 392.154 26.793 392.377 27.0103C392.6 27.2275 392.709 27.4961 392.703 27.8161C392.697 28.1494 392.579 28.4274 392.348 28.65C392.118 28.8594 391.843 28.9613 391.523 28.9557ZM390.472 41.0592L390.645 31.1407L392.324 31.17L392.151 41.0885L390.472 41.0592ZM400.368 41.2319L400.619 26.8341L402.299 26.8634L402.148 35.5221L406.28 31.4136L408.34 31.4496L403.863 35.8521L408.727 41.3778L406.587 41.3405L402.138 36.122L402.048 41.2612L400.368 41.2319ZM414.177 41.713C413.231 41.6965 412.395 41.4685 411.669 41.0291C410.943 40.5764 410.374 39.9597 409.961 39.179C409.561 38.3986 409.37 37.4818 409.389 36.4286C409.407 35.3888 409.629 34.4859 410.056 33.7199C410.483 32.9405 411.067 32.3439 411.808 31.9301C412.562 31.5032 413.426 31.2983 414.399 31.3153C415.359 31.332 416.181 31.5664 416.867 32.0185C417.566 32.4574 418.096 33.0334 418.457 33.7465C418.818 34.4595 418.991 35.2227 418.977 36.0359C418.975 36.1825 418.965 36.3291 418.949 36.4755C418.947 36.6221 418.944 36.7888 418.941 36.9754L411.042 36.8375C411.069 37.5981 411.231 38.2344 411.529 38.7463C411.84 39.2452 412.227 39.6253 412.689 39.8867C413.164 40.1484 413.669 40.2839 414.202 40.2932C414.895 40.3053 415.478 40.1555 415.95 39.8436C416.422 39.5318 416.77 39.1045 416.993 38.5616L418.652 38.5906C418.37 39.5058 417.843 40.2634 417.073 40.8634C416.316 41.4503 415.35 41.7335 414.177 41.713ZM414.334 32.7344C413.534 32.7204 412.817 32.9546 412.181 33.4369C411.56 33.9061 411.194 34.6065 411.085 35.5381L417.324 35.647C417.299 34.7531 417.005 34.0478 416.44 33.5312C415.876 33.0146 415.174 32.749 414.334 32.7344ZM421.107 41.5939L421.28 31.6754L422.8 31.702L422.907 33.6041C423.225 32.9562 423.701 32.4445 424.334 32.0688C424.967 31.6931 425.744 31.5133 426.664 31.5294L426.633 33.2891L426.173 33.2811C425.586 33.2708 425.045 33.368 424.548 33.5727C424.051 33.7641 423.652 34.1038 423.35 34.592C423.048 35.0801 422.889 35.7575 422.874 36.624L422.787 41.6232L421.107 41.5939ZM429.683 29.6218C429.363 29.6162 429.092 29.5048 428.869 29.2875C428.646 29.0569 428.538 28.775 428.543 28.4417C428.549 28.1217 428.667 27.8571 428.897 27.6477C429.128 27.4384 429.403 27.3365 429.723 27.3421C430.043 27.3477 430.308 27.459 430.517 27.676C430.74 27.8933 430.849 28.1619 430.843 28.4818C430.837 28.8151 430.719 29.0931 430.489 29.3158C430.271 29.5254 430.003 29.6273 429.683 29.6218ZM426.355 46.0862L426.38 44.6464L427.16 44.66C427.653 44.6686 428.009 44.5681 428.226 44.3586C428.456 44.1626 428.575 43.8179 428.584 43.3247L428.785 31.8064L430.465 31.8357L430.263 43.394C430.246 44.3538 429.994 45.0495 429.506 45.4811C429.019 45.9126 428.315 46.1204 427.395 46.1043L426.355 46.0862ZM436.51 42.1028C435.683 42.0884 434.999 41.9364 434.458 41.6469C433.916 41.3574 433.516 40.9771 433.257 40.5058C432.999 40.0346 432.874 39.5256 432.884 38.9791C432.902 37.9659 433.302 37.1927 434.085 36.6597C434.867 36.1266 435.925 35.8717 437.258 35.8949L439.938 35.9417L439.94 35.8217C439.955 34.9552 439.74 34.298 439.294 33.8501C438.849 33.389 438.246 33.1518 437.487 33.1385C436.833 33.1271 436.264 33.2838 435.778 33.6087C435.306 33.9206 435.004 34.3887 434.873 35.0132L433.154 34.9832C433.233 34.2644 433.484 33.662 433.905 33.176C434.341 32.6902 434.874 32.3261 435.505 32.0837C436.136 31.8281 436.805 31.7064 437.511 31.7187C438.898 31.7429 439.931 32.1343 440.611 32.893C441.305 33.6385 441.641 34.6246 441.62 35.851L441.513 41.9501L440.014 41.9239L439.945 40.1425C439.655 40.6975 439.233 41.1702 438.68 41.5606C438.14 41.9379 437.417 42.1186 436.51 42.1028ZM436.795 40.6876C437.435 40.6987 437.984 40.5416 438.443 40.2163C438.916 39.8911 439.276 39.464 439.526 38.935C439.775 38.4059 439.905 37.8481 439.915 37.2615L439.915 37.2415L437.376 37.1972C436.389 37.18 435.686 37.341 435.267 37.6804C434.861 38.0067 434.654 38.4232 434.645 38.9298C434.636 39.4497 434.815 39.8729 435.183 40.1994C435.564 40.5127 436.102 40.6755 436.795 40.6876ZM443.363 44.8828L443.366 44.7229C444.6 43.5442 445.604 42.1615 446.378 40.5748C447.167 38.975 447.577 37.2485 447.609 35.3955C447.641 33.5424 447.298 31.8095 446.58 30.1967C445.861 28.5706 444.906 27.1471 443.714 25.9261L443.717 25.7661L445.416 25.7958C446.137 26.5018 446.79 27.34 447.373 28.3103C447.969 29.2675 448.437 30.3492 448.776 31.5553C449.129 32.7483 449.293 34.038 449.269 35.4245C449.245 36.8109 449.035 38.1008 448.641 39.2941C448.261 40.4743 447.755 41.5323 447.126 42.4681C446.509 43.4175 445.828 44.2324 445.083 44.9129L443.363 44.8828Z" fill="white"/>
</g>
<defs>
<filter id="filter0_d_1_2170" x="0.34967" y="0.550049" width="470.301" height="67.5537" filterUnits="userSpaceOnUse" color-interpolation-filters="sRGB">
<feFlood flood-opacity="0" result="BackgroundImageFix"/>
<feColorMatrix in="SourceAlpha" type="matrix" values="0 0 0 0 0 0 0 0 0 0 0 0 0 0 0 0 0 0 127 0" result="hardAlpha"/>
<feOffset dx="3" dy="5"/>
<feComposite in2="hardAlpha" operator="out"/>
<feColorMatrix type="matrix" values="0 0 0 0 0.509615 0 0 0 0 0.112703 0 0 0 0 0.328879 0 0 0 1 0"/>
<feBlend mode="normal" in2="BackgroundImageFix" result="effect1_dropShadow_1_2170"/>
<feBlend mode="normal" in="SourceGraphic" in2="effect1_dropShadow_1_2170" result="shape"/>
</filter>
</defs>
</svg>
