<svg width="141" height="22" viewBox="0 0 141 22" fill="none" xmlns="http://www.w3.org/2000/svg">
<mask id="path-1-inside-1_1_2129" fill="white">
<path d="M0 4C0 1.79086 1.79086 0 4 0H137C139.209 0 141 1.79086 141 4V22H0V4Z"/>
</mask>
<path d="M0 4C0 1.79086 1.79086 0 4 0H137C139.209 0 141 1.79086 141 4V22H0V4Z" fill="#FFCC32"/>
<path d="M-1 4C-1 1.23858 1.23858 -1 4 -1H137C139.761 -1 142 1.23858 142 4H140C140 2.34315 138.657 1 137 1H4C2.34315 1 1 2.34315 1 4H-1ZM141 22H0H141ZM-1 22V4C-1 1.23858 1.23858 -1 4 -1V1C2.34315 1 1 2.34315 1 4V22H-1ZM137 -1C139.761 -1 142 1.23858 142 4V22H140V4C140 2.34315 138.657 1 137 1V-1Z" fill="#D5A820" mask="url(#path-1-inside-1_1_2129)"/>
<path d="M5.036 16V6.2H11V7.166H6.212V10.61H10.286V11.562H6.212V16H5.036ZM12.4445 16V9.056H13.5085L13.6065 10.386C13.8212 9.92867 14.1478 9.56467 14.5865 9.294C15.0252 9.02333 15.5665 8.888 16.2105 8.888V10.12H15.8885C15.4778 10.12 15.0998 10.1947 14.7545 10.344C14.4092 10.484 14.1338 10.7267 13.9285 11.072C13.7232 11.4173 13.6205 11.8933 13.6205 12.5V16H12.4445ZM20.3927 16.168C19.73 16.168 19.142 16.0187 18.6287 15.72C18.1154 15.412 17.7094 14.9873 17.4107 14.446C17.1214 13.9047 16.9767 13.2653 16.9767 12.528C16.9767 11.8 17.1214 11.1653 17.4107 10.624C17.7 10.0733 18.1014 9.64867 18.6147 9.35C19.1374 9.042 19.7394 8.888 20.4207 8.888C21.0927 8.888 21.6714 9.042 22.1567 9.35C22.6514 9.64867 23.0294 10.0453 23.2907 10.54C23.552 11.0347 23.6827 11.5667 23.6827 12.136C23.6827 12.2387 23.678 12.3413 23.6687 12.444C23.6687 12.5467 23.6687 12.6633 23.6687 12.794H18.1387C18.1667 13.326 18.288 13.7693 18.5027 14.124C18.7267 14.4693 19.002 14.7307 19.3287 14.908C19.6647 15.0853 20.0194 15.174 20.3927 15.174C20.878 15.174 21.284 15.062 21.6107 14.838C21.9374 14.614 22.1754 14.3107 22.3247 13.928H23.4867C23.3 14.572 22.9407 15.1087 22.4087 15.538C21.886 15.958 21.214 16.168 20.3927 16.168ZM20.3927 9.882C19.8327 9.882 19.3334 10.0547 18.8947 10.4C18.4654 10.736 18.218 11.2307 18.1527 11.884H22.5207C22.4927 11.2587 22.278 10.7687 21.8767 10.414C21.4754 10.0593 20.9807 9.882 20.3927 9.882ZM28.3634 16.168C27.7007 16.168 27.1127 16.0187 26.5994 15.72C26.0861 15.412 25.6801 14.9873 25.3814 14.446C25.0921 13.9047 24.9474 13.2653 24.9474 12.528C24.9474 11.8 25.0921 11.1653 25.3814 10.624C25.6707 10.0733 26.0721 9.64867 26.5854 9.35C27.1081 9.042 27.7101 8.888 28.3914 8.888C29.0634 8.888 29.6421 9.042 30.1274 9.35C30.6221 9.64867 31.0001 10.0453 31.2614 10.54C31.5227 11.0347 31.6534 11.5667 31.6534 12.136C31.6534 12.2387 31.6487 12.3413 31.6394 12.444C31.6394 12.5467 31.6394 12.6633 31.6394 12.794H26.1094C26.1374 13.326 26.2587 13.7693 26.4734 14.124C26.6974 14.4693 26.9727 14.7307 27.2994 14.908C27.6354 15.0853 27.9901 15.174 28.3634 15.174C28.8487 15.174 29.2547 15.062 29.5814 14.838C29.9081 14.614 30.1461 14.3107 30.2954 13.928H31.4574C31.2707 14.572 30.9114 15.1087 30.3794 15.538C29.8567 15.958 29.1847 16.168 28.3634 16.168ZM28.3634 9.882C27.8034 9.882 27.3041 10.0547 26.8654 10.4C26.4361 10.736 26.1887 11.2307 26.1234 11.884H30.4914C30.4634 11.2587 30.2487 10.7687 29.8474 10.414C29.4461 10.0593 28.9514 9.882 28.3634 9.882ZM36.9172 16V9.056H37.9812L38.0792 10.386C38.2938 9.92867 38.6205 9.56467 39.0592 9.294C39.4978 9.02333 40.0392 8.888 40.6832 8.888V10.12H40.3612C39.9505 10.12 39.5725 10.1947 39.2272 10.344C38.8818 10.484 38.6065 10.7267 38.4012 11.072C38.1958 11.4173 38.0932 11.8933 38.0932 12.5V16H36.9172ZM44.8653 16.168C44.2027 16.168 43.6147 16.0187 43.1013 15.72C42.588 15.412 42.182 14.9873 41.8833 14.446C41.594 13.9047 41.4493 13.2653 41.4493 12.528C41.4493 11.8 41.594 11.1653 41.8833 10.624C42.1727 10.0733 42.574 9.64867 43.0873 9.35C43.61 9.042 44.212 8.888 44.8933 8.888C45.5653 8.888 46.144 9.042 46.6293 9.35C47.124 9.64867 47.502 10.0453 47.7633 10.54C48.0247 11.0347 48.1553 11.5667 48.1553 12.136C48.1553 12.2387 48.1507 12.3413 48.1413 12.444C48.1413 12.5467 48.1413 12.6633 48.1413 12.794H42.6113C42.6393 13.326 42.7607 13.7693 42.9753 14.124C43.1993 14.4693 43.4747 14.7307 43.8013 14.908C44.1373 15.0853 44.492 15.174 44.8653 15.174C45.3507 15.174 45.7567 15.062 46.0833 14.838C46.41 14.614 46.648 14.3107 46.7973 13.928H47.9593C47.7727 14.572 47.4133 15.1087 46.8813 15.538C46.3587 15.958 45.6867 16.168 44.8653 16.168ZM44.8653 9.882C44.3053 9.882 43.806 10.0547 43.3673 10.4C42.938 10.736 42.6907 11.2307 42.6253 11.884H46.9933C46.9653 11.2587 46.7507 10.7687 46.3493 10.414C45.948 10.0593 45.4533 9.882 44.8653 9.882ZM52.417 13.816C52.025 13.816 51.6657 13.7647 51.339 13.662L50.639 14.32C50.7417 14.3947 50.8677 14.46 51.017 14.516C51.1757 14.5627 51.3997 14.6093 51.689 14.656C51.9784 14.6933 52.3844 14.7353 52.907 14.782C53.8404 14.8473 54.5077 15.062 54.909 15.426C55.3104 15.79 55.511 16.266 55.511 16.854C55.511 17.2553 55.399 17.638 55.175 18.002C54.9604 18.366 54.6244 18.6647 54.167 18.898C53.719 19.1313 53.1404 19.248 52.431 19.248C51.8057 19.248 51.2504 19.164 50.765 18.996C50.2797 18.8373 49.9017 18.59 49.631 18.254C49.3604 17.9273 49.225 17.512 49.225 17.008C49.225 16.7467 49.295 16.462 49.435 16.154C49.575 15.8553 49.8364 15.5707 50.219 15.3C50.0137 15.216 49.8364 15.1273 49.687 15.034C49.547 14.9313 49.4164 14.8193 49.295 14.698V14.376L50.485 13.2C49.9344 12.7333 49.659 12.1173 49.659 11.352C49.659 10.8947 49.7664 10.4793 49.981 10.106C50.1957 9.73267 50.5084 9.43867 50.919 9.224C51.3297 9 51.829 8.888 52.417 8.888C52.8184 8.888 53.1824 8.944 53.509 9.056H56.071V9.938L54.769 9.994C55.0397 10.386 55.175 10.8387 55.175 11.352C55.175 11.8093 55.063 12.2247 54.839 12.598C54.6244 12.9713 54.3117 13.27 53.901 13.494C53.4997 13.7087 53.005 13.816 52.417 13.816ZM52.417 12.85C52.9117 12.85 53.3037 12.724 53.593 12.472C53.8917 12.2107 54.041 11.8373 54.041 11.352C54.041 10.876 53.8917 10.512 53.593 10.26C53.3037 9.99867 52.9117 9.868 52.417 9.868C51.913 9.868 51.5117 9.99867 51.213 10.26C50.9237 10.512 50.779 10.876 50.779 11.352C50.779 11.8373 50.9237 12.2107 51.213 12.472C51.5117 12.724 51.913 12.85 52.417 12.85ZM50.373 16.896C50.373 17.3627 50.569 17.708 50.961 17.932C51.353 18.1653 51.843 18.282 52.431 18.282C53.0097 18.282 53.4717 18.156 53.817 17.904C54.1717 17.652 54.349 17.316 54.349 16.896C54.349 16.5973 54.2277 16.336 53.985 16.112C53.7424 15.8973 53.2944 15.7713 52.641 15.734C52.1277 15.6967 51.6844 15.65 51.311 15.594C50.9284 15.7993 50.6764 16.0187 50.555 16.252C50.4337 16.4947 50.373 16.7093 50.373 16.896ZM58.1116 7.516C57.8783 7.516 57.6823 7.44133 57.5236 7.292C57.3743 7.13333 57.2996 6.93733 57.2996 6.704C57.2996 6.48 57.3743 6.29333 57.5236 6.144C57.6823 5.99467 57.8783 5.92 58.1116 5.92C58.3356 5.92 58.527 5.99467 58.6856 6.144C58.8443 6.29333 58.9236 6.48 58.9236 6.704C58.9236 6.93733 58.8443 7.13333 58.6856 7.292C58.527 7.44133 58.3356 7.516 58.1116 7.516ZM57.5236 16V9.056H58.6996V16H57.5236ZM63.4073 16.168C62.5766 16.168 61.8859 15.958 61.3353 15.538C60.7846 15.118 60.4626 14.5487 60.3693 13.83H61.5733C61.6479 14.194 61.8393 14.5113 62.1473 14.782C62.4646 15.0433 62.8893 15.174 63.4213 15.174C63.9159 15.174 64.2799 15.0713 64.5133 14.866C64.7466 14.6513 64.8633 14.3993 64.8633 14.11C64.8633 13.69 64.7093 13.41 64.4013 13.27C64.1026 13.13 63.6779 13.004 63.1273 12.892C62.7539 12.8173 62.3806 12.71 62.0073 12.57C61.6339 12.43 61.3213 12.234 61.0693 11.982C60.8173 11.7207 60.6913 11.38 60.6913 10.96C60.6913 10.3533 60.9153 9.85867 61.3633 9.476C61.8206 9.084 62.4366 8.888 63.2113 8.888C63.9486 8.888 64.5506 9.07467 65.0173 9.448C65.4933 9.812 65.7686 10.3347 65.8433 11.016H64.6813C64.6346 10.6613 64.4806 10.386 64.2193 10.19C63.9673 9.98467 63.6266 9.882 63.1973 9.882C62.7773 9.882 62.4506 9.97067 62.2173 10.148C61.9933 10.3253 61.8813 10.5587 61.8813 10.848C61.8813 11.128 62.0259 11.3473 62.3153 11.506C62.6139 11.6647 63.0153 11.8 63.5193 11.912C63.9486 12.0053 64.3546 12.122 64.7373 12.262C65.1293 12.3927 65.4466 12.5933 65.6893 12.864C65.9413 13.1253 66.0673 13.508 66.0673 14.012C66.0766 14.6373 65.8386 15.1553 65.3533 15.566C64.8773 15.9673 64.2286 16.168 63.4073 16.168ZM70.1768 16C69.5421 16 69.0428 15.846 68.6788 15.538C68.3148 15.23 68.1328 14.6747 68.1328 13.872V10.05H66.9288V9.056H68.1328L68.2868 7.39H69.3088V9.056H71.3528V10.05H69.3088V13.872C69.3088 14.3107 69.3975 14.6093 69.5748 14.768C69.7521 14.9173 70.0648 14.992 70.5128 14.992H71.2408V16H70.1768ZM72.8469 16V9.056H73.9109L74.0089 10.386C74.2235 9.92867 74.5502 9.56467 74.9889 9.294C75.4275 9.02333 75.9689 8.888 76.6129 8.888V10.12H76.2909C75.8802 10.12 75.5022 10.1947 75.1569 10.344C74.8115 10.484 74.5362 10.7267 74.3309 11.072C74.1255 11.4173 74.0229 11.8933 74.0229 12.5V16H72.8469ZM80.2428 16.168C79.6641 16.168 79.1835 16.07 78.8008 15.874C78.4181 15.678 78.1335 15.4167 77.9468 15.09C77.7601 14.7633 77.6668 14.4087 77.6668 14.026C77.6668 13.3167 77.9375 12.7707 78.4788 12.388C79.0201 12.0053 79.7575 11.814 80.6908 11.814H82.5668V11.73C82.5668 11.1233 82.4081 10.666 82.0908 10.358C81.7735 10.0407 81.3488 9.882 80.8168 9.882C80.3595 9.882 79.9628 9.99867 79.6268 10.232C79.3001 10.456 79.0948 10.7873 79.0108 11.226H77.8068C77.8535 10.722 78.0215 10.2973 78.3108 9.952C78.6095 9.60667 78.9781 9.34533 79.4168 9.168C79.8555 8.98133 80.3221 8.888 80.8168 8.888C81.7875 8.888 82.5155 9.14933 83.0008 9.672C83.4955 10.1853 83.7428 10.8713 83.7428 11.73V16H82.6928L82.6228 14.754C82.4268 15.146 82.1375 15.482 81.7548 15.762C81.3815 16.0327 80.8775 16.168 80.2428 16.168ZM80.4248 15.174C80.8728 15.174 81.2555 15.0573 81.5728 14.824C81.8995 14.5907 82.1468 14.2873 82.3148 13.914C82.4828 13.5407 82.5668 13.1487 82.5668 12.738V12.724H80.7888C80.0981 12.724 79.6081 12.8453 79.3188 13.088C79.0388 13.3213 78.8988 13.6153 78.8988 13.97C78.8988 14.334 79.0295 14.628 79.2908 14.852C79.5615 15.0667 79.9395 15.174 80.4248 15.174ZM88.0596 16C87.4249 16 86.9256 15.846 86.5616 15.538C86.1976 15.23 86.0156 14.6747 86.0156 13.872V10.05H84.8116V9.056H86.0156L86.1696 7.39H87.1916V9.056H89.2356V10.05H87.1916V13.872C87.1916 14.3107 87.2803 14.6093 87.4576 14.768C87.6349 14.9173 87.9476 14.992 88.3956 14.992H89.1236V16H88.0596ZM91.4437 7.516C91.2103 7.516 91.0143 7.44133 90.8557 7.292C90.7063 7.13333 90.6317 6.93733 90.6317 6.704C90.6317 6.48 90.7063 6.29333 90.8557 6.144C91.0143 5.99467 91.2103 5.92 91.4437 5.92C91.6677 5.92 91.859 5.99467 92.0177 6.144C92.1763 6.29333 92.2557 6.48 92.2557 6.704C92.2557 6.93733 92.1763 7.13333 92.0177 7.292C91.859 7.44133 91.6677 7.516 91.4437 7.516ZM90.8557 16V9.056H92.0317V16H90.8557ZM97.2433 16.168C96.5899 16.168 96.0019 16.0187 95.4793 15.72C94.9566 15.4213 94.5413 15.0013 94.2333 14.46C93.9346 13.9093 93.7853 13.2653 93.7853 12.528C93.7853 11.7907 93.9393 11.1513 94.2473 10.61C94.5553 10.0593 94.9706 9.63467 95.4933 9.336C96.0253 9.03733 96.6179 8.888 97.2713 8.888C97.9246 8.888 98.5126 9.03733 99.0353 9.336C99.5579 9.63467 99.9686 10.0593 100.267 10.61C100.575 11.1513 100.729 11.7907 100.729 12.528C100.729 13.2653 100.575 13.9093 100.267 14.46C99.9593 15.0013 99.5393 15.4213 99.0073 15.72C98.4846 16.0187 97.8966 16.168 97.2433 16.168ZM97.2433 15.16C97.6446 15.16 98.0179 15.062 98.3633 14.866C98.7086 14.67 98.9886 14.376 99.2033 13.984C99.4179 13.592 99.5253 13.1067 99.5253 12.528C99.5253 11.9493 99.4179 11.464 99.2033 11.072C98.9979 10.68 98.7226 10.386 98.3773 10.19C98.0319 9.994 97.6633 9.896 97.2713 9.896C96.8699 9.896 96.4966 9.994 96.1513 10.19C95.8059 10.386 95.5259 10.68 95.3113 11.072C95.0966 11.464 94.9893 11.9493 94.9893 12.528C94.9893 13.1067 95.0966 13.592 95.3113 13.984C95.5259 14.376 95.8013 14.67 96.1373 14.866C96.4826 15.062 96.8513 15.16 97.2433 15.16ZM102.364 16V9.056H103.428L103.498 10.302C103.722 9.86333 104.044 9.518 104.464 9.266C104.884 9.014 105.36 8.888 105.892 8.888C106.714 8.888 107.367 9.14 107.852 9.644C108.347 10.1387 108.594 10.904 108.594 11.94V16H107.418V12.066C107.418 10.6193 106.821 9.896 105.626 9.896C105.029 9.896 104.53 10.1153 104.128 10.554C103.736 10.9833 103.54 11.5993 103.54 12.402V16H102.364ZM114.459 16V10.05H113.409V9.056H114.459V7.852C114.459 7.18 114.627 6.69 114.963 6.382C115.299 6.074 115.789 5.92 116.433 5.92H117.133V6.928H116.615C116.261 6.928 116.009 7.00267 115.859 7.152C115.71 7.292 115.635 7.53467 115.635 7.88V9.056H117.343V10.05H115.635V16H114.459ZM121.592 16.168C120.929 16.168 120.341 16.0187 119.828 15.72C119.315 15.412 118.909 14.9873 118.61 14.446C118.321 13.9047 118.176 13.2653 118.176 12.528C118.176 11.8 118.321 11.1653 118.61 10.624C118.899 10.0733 119.301 9.64867 119.814 9.35C120.337 9.042 120.939 8.888 121.62 8.888C122.292 8.888 122.871 9.042 123.356 9.35C123.851 9.64867 124.229 10.0453 124.49 10.54C124.751 11.0347 124.882 11.5667 124.882 12.136C124.882 12.2387 124.877 12.3413 124.868 12.444C124.868 12.5467 124.868 12.6633 124.868 12.794H119.338C119.366 13.326 119.487 13.7693 119.702 14.124C119.926 14.4693 120.201 14.7307 120.528 14.908C120.864 15.0853 121.219 15.174 121.592 15.174C122.077 15.174 122.483 15.062 122.81 14.838C123.137 14.614 123.375 14.3107 123.524 13.928H124.686C124.499 14.572 124.14 15.1087 123.608 15.538C123.085 15.958 122.413 16.168 121.592 16.168ZM121.592 9.882C121.032 9.882 120.533 10.0547 120.094 10.4C119.665 10.736 119.417 11.2307 119.352 11.884H123.72C123.692 11.2587 123.477 10.7687 123.076 10.414C122.675 10.0593 122.18 9.882 121.592 9.882ZM129.563 16.168C128.9 16.168 128.312 16.0187 127.799 15.72C127.285 15.412 126.879 14.9873 126.581 14.446C126.291 13.9047 126.147 13.2653 126.147 12.528C126.147 11.8 126.291 11.1653 126.581 10.624C126.87 10.0733 127.271 9.64867 127.785 9.35C128.307 9.042 128.909 8.888 129.591 8.888C130.263 8.888 130.841 9.042 131.327 9.35C131.821 9.64867 132.199 10.0453 132.461 10.54C132.722 11.0347 132.853 11.5667 132.853 12.136C132.853 12.2387 132.848 12.3413 132.839 12.444C132.839 12.5467 132.839 12.6633 132.839 12.794H127.309C127.337 13.326 127.458 13.7693 127.673 14.124C127.897 14.4693 128.172 14.7307 128.499 14.908C128.835 15.0853 129.189 15.174 129.563 15.174C130.048 15.174 130.454 15.062 130.781 14.838C131.107 14.614 131.345 14.3107 131.495 13.928H132.657C132.47 14.572 132.111 15.1087 131.579 15.538C131.056 15.958 130.384 16.168 129.563 16.168ZM129.563 9.882C129.003 9.882 128.503 10.0547 128.065 10.4C127.635 10.736 127.388 11.2307 127.323 11.884H131.691C131.663 11.2587 131.448 10.7687 131.047 10.414C130.645 10.0593 130.151 9.882 129.563 9.882ZM134.663 13.284L134.523 6.2H135.797L135.657 13.284H134.663ZM135.195 16.07C134.962 16.07 134.766 15.9953 134.607 15.846C134.458 15.6873 134.383 15.496 134.383 15.272C134.383 15.048 134.458 14.8613 134.607 14.712C134.766 14.5533 134.962 14.474 135.195 14.474C135.419 14.474 135.606 14.5533 135.755 14.712C135.914 14.8613 135.993 15.048 135.993 15.272C135.993 15.496 135.914 15.6873 135.755 15.846C135.606 15.9953 135.419 16.07 135.195 16.07Z" fill="black"/>
</svg>
