<svg width="699" height="72" viewBox="0 0 699 72" fill="none" xmlns="http://www.w3.org/2000/svg">
<g filter="url(#filter0_d_1_2168)">
<path d="M4.86945 29.2787C4.71523 20.4435 11.7526 13.1561 20.5878 13.0019L680.487 1.4833C689.322 1.32908 696.61 8.36642 696.764 17.2016L697.131 38.1984C697.285 47.0336 690.247 54.321 681.412 54.4752L21.5128 65.9938C12.6776 66.148 5.39017 59.1107 5.23595 50.2755L4.86945 29.2787Z" fill="#8C52FF" shape-rendering="crispEdges"/>
<path d="M680.479 0.983378C689.59 0.824339 697.105 8.08159 697.264 17.1929L697.63 38.1897C697.79 47.301 690.532 54.8161 681.421 54.9752L21.5215 66.4937C12.4102 66.6528 4.89506 59.3955 4.73603 50.2842L4.36952 29.2874C4.21049 20.1761 11.4677 12.661 20.579 12.502L680.479 0.983378Z" stroke="#441F8D" shape-rendering="crispEdges"/>
<path d="M22.8485 45.9675L22.6042 31.9696L31.1229 31.8209L31.147 33.2007L24.308 33.3201L24.3939 38.2393L30.213 38.1377L30.2367 39.4975L24.4176 39.5991L24.5283 45.9381L22.8485 45.9675ZM33.4305 45.7827L33.2574 35.8643L34.7771 35.8377L34.9503 37.735C35.2455 37.0764 35.703 36.5483 36.3228 36.1508C36.9427 35.7533 37.7125 35.5465 38.6324 35.5304L38.6631 37.2901L38.2032 37.2982C37.6166 37.3084 37.0785 37.4245 36.589 37.6464C36.0992 37.855 35.712 38.2084 35.4273 38.7068C35.1426 39.2052 35.0079 39.8877 35.023 40.7542L35.1103 45.7534L33.4305 45.7827ZM44.7875 45.8245C43.841 45.8411 42.9974 45.6424 42.2567 45.2286C41.5158 44.8015 40.9253 44.205 40.4852 43.4393C40.0584 42.6733 39.8359 41.7637 39.8175 40.7105C39.7993 39.6707 39.9901 38.7605 40.3899 37.9801C40.7895 37.1863 41.3521 36.5698 42.0779 36.1304C42.8168 35.6774 43.6728 35.4424 44.646 35.4254C45.6058 35.4087 46.4362 35.6142 47.1371 36.042C47.8511 36.4563 48.4009 37.0135 48.7866 37.7135C49.1722 38.4136 49.3721 39.1702 49.3863 39.9834C49.3888 40.13 49.3847 40.2768 49.3739 40.4237C49.3765 40.5703 49.3794 40.737 49.3827 40.9236L41.4839 41.0615C41.5371 41.8207 41.7215 42.4509 42.0369 42.9521C42.3655 43.4398 42.7653 43.8062 43.2363 44.0513C43.7207 44.2963 44.2295 44.4141 44.7627 44.4048C45.4559 44.3927 46.0331 44.2226 46.4941 43.8945C46.9551 43.5664 47.2875 43.1272 47.4912 42.5769L49.151 42.5479C48.9004 43.4724 48.4005 44.2479 47.6514 44.8744C46.9153 45.4874 45.9607 45.8041 44.7875 45.8245ZM44.6308 36.8459C43.8309 36.8599 43.122 37.119 42.504 37.6231C41.8992 38.1138 41.5582 38.8265 41.4812 39.7613L47.7202 39.6524C47.6646 38.7599 47.3458 38.0654 46.7637 37.5688C46.1816 37.0722 45.4706 36.8313 44.6308 36.8459ZM56.1725 45.6258C55.226 45.6423 54.3824 45.4437 53.6417 45.0299C52.9008 44.6028 52.3103 44.0063 51.8702 43.2405C51.4434 42.4745 51.2209 41.565 51.2025 40.5118C51.1843 39.4719 51.3751 38.5618 51.7749 37.7814C52.1744 36.9876 52.7371 36.371 53.4629 35.9316C54.2018 35.4787 55.0578 35.2437 56.031 35.2267C56.9908 35.21 57.8212 35.4155 58.5221 35.8433C59.2361 36.2576 59.7859 36.8147 60.1715 37.5148C60.5571 38.2148 60.757 38.9715 60.7712 39.7847C60.7738 39.9313 60.7697 40.0781 60.7589 40.225C60.7615 40.3716 60.7644 40.5382 60.7676 40.7249L52.8689 40.8628C52.9221 41.6219 53.1065 42.2521 53.4219 42.7534C53.7505 43.2411 54.1503 43.6075 54.6213 43.8526C55.1056 44.0975 55.6144 44.2153 56.1477 44.206C56.8409 44.1939 57.418 44.0238 57.8791 43.6957C58.3401 43.3676 58.6725 42.9284 58.8762 42.3781L60.536 42.3492C60.2854 43.2737 59.7855 44.0492 59.0363 44.6757C58.3003 45.2886 57.3456 45.6053 56.1725 45.6258ZM56.0158 36.6472C55.2159 36.6611 54.507 36.9202 53.889 37.4244C53.2841 37.9151 52.9432 38.6278 52.8662 39.5626L59.1052 39.4537C59.0496 38.5612 58.7308 37.8667 58.1487 37.3701C57.5666 36.8735 56.8556 36.6325 56.0158 36.6472ZM72.3055 45.1042C71.399 45.12 70.6819 44.9125 70.1543 44.4816C69.6267 44.0508 69.3529 43.2621 69.3329 42.1156L69.2376 36.6564L67.5179 36.6865L67.4931 35.2667L69.2128 35.2367L69.3913 32.8532L70.851 32.8277L70.8926 35.2073L73.8121 35.1564L73.8369 36.5762L70.9174 36.6271L71.0127 42.0863C71.0236 42.7129 71.1577 43.1372 71.4149 43.3595C71.672 43.5683 72.1204 43.6672 72.7603 43.656L73.8002 43.6379L73.8253 45.0777L72.3055 45.1042ZM76.1193 45.0376L75.9462 35.1191L77.466 35.0926L77.6391 36.9899C77.9343 36.3313 78.3918 35.8032 79.0117 35.4057C79.6315 35.0081 80.4013 34.8013 81.3212 34.7853L81.3519 36.545L80.892 36.553C80.3054 36.5633 79.7673 36.6793 79.2778 36.9012C78.788 37.1098 78.4008 37.4633 78.1161 37.9617C77.8315 38.4601 77.6967 39.1425 77.7118 40.0091L77.7991 45.0083L76.1193 45.0376ZM86.6875 45.0932C85.861 45.1076 85.172 44.9796 84.6205 44.7092C84.069 44.4388 83.6559 44.0726 83.3811 43.6107C83.1064 43.1487 82.9642 42.6445 82.9547 42.0979C82.937 41.0847 83.31 40.2981 84.0737 39.738C84.8373 39.1779 85.8857 38.8862 87.2189 38.863L89.8985 38.8162L89.8964 38.6962C89.8812 37.8297 89.6432 37.1804 89.1823 36.7484C88.7211 36.303 88.1106 36.087 87.3507 36.1002C86.6974 36.1116 86.1338 36.2882 85.6597 36.6298C85.1986 36.9579 84.9136 37.4363 84.8046 38.065L83.0848 38.095C83.1389 37.3739 83.3683 36.7632 83.773 36.2627C84.191 35.762 84.711 35.3795 85.3332 35.1153C85.9551 34.8377 86.6193 34.6928 87.3259 34.6805C88.7123 34.6562 89.7587 35.0114 90.465 35.7458C91.1843 36.4667 91.5547 37.4404 91.5761 38.6669L91.6826 44.766L90.1828 44.7921L90.0518 43.0141C89.7816 43.5789 89.3767 44.0661 88.8371 44.4756C88.3106 44.8715 87.5941 45.0774 86.6875 45.0932ZM86.9227 43.6689C87.5626 43.6577 88.1063 43.4815 88.5537 43.1403C89.0145 42.7989 89.3602 42.3594 89.5909 41.822C89.8215 41.2846 89.9317 40.7226 89.9215 40.136L89.9212 40.116L87.3815 40.1603C86.395 40.1775 85.6982 40.3631 85.2909 40.7169C84.8968 41.0571 84.7042 41.4806 84.713 41.9872C84.7221 42.5071 84.9161 42.9238 85.2949 43.2372C85.6869 43.5371 86.2295 43.681 86.9227 43.6689ZM95.0108 32.586C94.6775 32.5918 94.3957 32.4901 94.1654 32.2807C93.9481 32.0578 93.8366 31.7797 93.8308 31.4464C93.8252 31.1265 93.9272 30.858 94.1367 30.641C94.3597 30.4237 94.6377 30.3122 94.971 30.3064C95.291 30.3008 95.5661 30.4027 95.7965 30.612C96.0268 30.8213 96.1448 31.086 96.1504 31.4059C96.1562 31.7392 96.0478 32.0212 95.8251 32.2517C95.6022 32.469 95.3308 32.5804 95.0108 32.586ZM94.3825 44.7188L94.2093 34.8003L95.8891 34.771L96.0622 44.6895L94.3825 44.7188ZM98.9869 44.6385L98.8138 34.72L100.334 34.6934L100.465 36.4714C100.774 35.8393 101.225 35.338 101.819 34.9676C102.412 34.5971 103.089 34.4053 103.849 34.392C105.022 34.3716 105.961 34.7152 106.667 35.423C107.386 36.1172 107.759 37.2042 107.784 38.684L107.886 44.4831L106.206 44.5124L106.108 38.8933C106.072 36.827 105.2 35.8087 103.494 35.8385C102.641 35.8533 101.933 36.1791 101.371 36.8157C100.822 37.4387 100.557 38.3234 100.577 39.4699L100.667 44.6091L98.9869 44.6385ZM111.239 32.3028C110.906 32.3086 110.624 32.2068 110.393 31.9975C110.176 31.7745 110.065 31.4965 110.059 31.1632C110.053 30.8432 110.155 30.5747 110.365 30.3577C110.588 30.1405 110.866 30.0289 111.199 30.0231C111.519 30.0175 111.794 30.1194 112.024 30.3287C112.255 30.5381 112.373 30.8027 112.378 31.1227C112.384 31.456 112.276 31.7379 112.053 31.9685C111.83 32.1857 111.559 32.2972 111.239 32.3028ZM110.61 44.4356L110.437 34.5171L112.117 34.4878L112.29 44.4062L110.61 44.4356ZM115.215 44.3552L115.042 34.4367L116.562 34.4102L116.693 36.1882C117.002 35.556 117.453 35.0547 118.047 34.6843C118.64 34.3139 119.317 34.122 120.077 34.1088C121.25 34.0883 122.189 34.432 122.895 35.1397C123.614 35.834 123.987 36.921 124.012 38.4007L124.114 44.1999L122.434 44.2292L122.336 38.61C122.3 36.5437 121.428 35.5254 119.722 35.5552C118.869 35.5701 118.161 35.8958 117.599 36.5324C117.05 37.1554 116.785 38.0402 116.805 39.1867L116.895 44.3259L115.215 44.3552ZM130.523 40.9675C129.964 40.9773 129.449 40.9129 128.98 40.7744L127.996 41.7317C128.145 41.8358 128.327 41.926 128.541 42.0023C128.769 42.065 129.09 42.126 129.505 42.1855C129.919 42.2316 130.5 42.2815 131.247 42.3351C132.582 42.4051 133.541 42.6951 134.123 43.205C134.705 43.7149 135.004 44.3898 135.019 45.2297C135.029 45.803 134.878 46.3523 134.567 46.8778C134.27 47.4031 133.797 47.8381 133.15 48.1828C132.516 48.5272 131.692 48.7083 130.679 48.726C129.786 48.7416 128.99 48.6354 128.293 48.4076C127.596 48.193 127.05 47.8492 126.655 47.376C126.26 46.9162 126.056 46.3263 126.044 45.6064C126.037 45.2331 126.13 44.8248 126.322 44.3813C126.515 43.9513 126.881 43.5381 127.421 43.142C127.126 43.0271 126.87 42.9049 126.654 42.7753C126.452 42.6322 126.262 42.4754 126.086 42.3052L126.078 41.8452L127.749 40.1358C126.95 39.483 126.542 38.61 126.523 37.5168C126.511 36.8636 126.654 36.2677 126.951 35.729C127.249 35.1904 127.688 34.7627 128.269 34.4459C128.85 34.1157 129.561 33.9432 130.401 33.9286C130.974 33.9186 131.495 33.9895 131.965 34.1413L135.624 34.0774L135.646 35.3372L133.788 35.4497C134.184 36.0029 134.389 36.6461 134.401 37.3793C134.413 38.0325 134.263 38.6285 133.953 39.1674C133.655 39.706 133.216 40.1404 132.635 40.4706C132.067 40.7872 131.363 40.9528 130.523 40.9675ZM130.499 39.5877C131.206 39.5754 131.763 39.3856 132.17 39.0185C132.59 38.6378 132.794 38.1008 132.782 37.4076C132.77 36.7277 132.547 36.2115 132.115 35.859C131.695 35.4929 131.132 35.316 130.425 35.3284C129.705 35.3409 129.135 35.5376 128.715 35.9183C128.308 36.2855 128.111 36.809 128.122 37.4889C128.134 38.1821 128.35 38.7118 128.77 39.0778C129.203 39.4303 129.779 39.6003 130.499 39.5877ZM127.681 45.4178C127.692 46.0844 127.981 46.5727 128.546 46.8829C129.112 47.2064 129.815 47.3608 130.655 47.3462C131.481 47.3318 132.138 47.1403 132.625 46.7717C133.125 46.4029 133.37 45.9186 133.36 45.3187C133.352 44.8921 133.173 44.5218 132.82 44.2079C132.468 43.9073 131.825 43.7385 130.891 43.7015C130.157 43.661 129.523 43.6054 128.988 43.5347C128.447 43.8375 128.092 44.1571 127.925 44.4934C127.757 44.843 127.676 45.1512 127.681 45.4178ZM147.228 44.0364C146.268 44.0532 145.418 43.8947 144.679 43.5609C143.953 43.2135 143.378 42.7301 142.953 42.1107C142.542 41.4778 142.329 40.7281 142.314 39.8616C142.298 38.915 142.556 38.0704 143.09 37.3276C143.637 36.5713 144.433 35.9707 145.479 35.5257C145.017 35.0403 144.682 34.5794 144.475 34.143C144.267 33.6932 144.158 33.2084 144.149 32.6884C144.134 31.7952 144.434 31.0566 145.051 30.4724C145.68 29.8746 146.548 29.5661 147.655 29.5468C148.375 29.5342 149.004 29.6633 149.542 29.9339C150.08 30.1912 150.5 30.5573 150.801 31.0321C151.103 31.5069 151.246 32.0512 151.23 32.6649L149.57 32.6938C149.573 32.0937 149.378 31.6437 148.986 31.3438C148.608 31.0437 148.172 30.898 147.679 30.9066C147.079 30.917 146.615 31.0852 146.287 31.4109C145.959 31.7367 145.8 32.1462 145.809 32.6395C145.816 33.0661 145.937 33.4774 146.17 33.8734C146.417 34.2691 146.778 34.7095 147.253 35.1947L151.751 39.5768C152.127 39.0102 152.536 38.3296 152.975 37.5351L153.576 36.4445L155.356 36.4134L154.503 37.9885C153.935 39.052 153.39 39.9416 152.87 40.6575L155.942 43.6443L153.822 43.6813L151.93 41.834C151.237 42.6063 150.513 43.1656 149.759 43.5122C149.005 43.8454 148.161 44.0202 147.228 44.0364ZM143.993 39.7723C144.007 40.5988 144.312 41.2802 144.909 41.8166C145.505 42.3529 146.276 42.6128 147.223 42.5963C147.929 42.584 148.567 42.4395 149.135 42.1629C149.717 41.8727 150.282 41.4094 150.831 40.7731L146.517 36.5477C145.643 36.9097 144.998 37.361 144.58 37.9017C144.176 38.4422 143.98 39.0657 143.993 39.7723ZM166.226 43.7048C165.4 43.7193 164.711 43.5913 164.159 43.3208C163.608 43.0504 163.195 42.6842 162.92 42.2223C162.645 41.7604 162.503 41.2561 162.493 40.7095C162.476 39.6963 162.849 38.9097 163.612 38.3496C164.376 37.7895 165.424 37.4979 166.758 37.4746L169.437 37.4278L169.435 37.3078C169.42 36.4413 169.182 35.792 168.721 35.36C168.26 34.9147 167.649 34.6986 166.889 34.7119C166.236 34.7233 165.672 34.8998 165.198 35.2415C164.737 35.5696 164.452 36.048 164.343 36.6766L162.624 36.7066C162.678 35.9856 162.907 35.3748 163.312 34.8743C163.73 34.3736 164.25 33.9912 164.872 33.7269C165.494 33.4494 166.158 33.3044 166.865 33.2921C168.251 33.2679 169.297 33.623 170.004 34.3575C170.723 35.0784 171.093 36.052 171.115 37.2785L171.221 43.3776L169.721 43.4038L169.59 41.6258C169.32 42.1906 168.915 42.6777 168.376 43.0872C167.849 43.4831 167.133 43.689 166.226 43.7048ZM166.461 42.2805C167.101 42.2693 167.645 42.0932 168.092 41.752C168.553 41.4105 168.899 40.9711 169.13 40.4337C169.36 39.8962 169.47 39.3342 169.46 38.7476L169.46 38.7276L166.92 38.772C165.934 38.7892 165.237 38.9747 164.83 39.3285C164.435 39.6688 164.243 40.0922 164.252 40.5988C164.261 41.1187 164.455 41.5354 164.834 41.8488C165.226 42.1487 165.768 42.2926 166.461 42.2805ZM173.741 43.3336L173.49 28.9358L175.17 28.9065L175.321 37.5652L179.307 33.3149L181.367 33.279L177.046 37.8351L182.1 43.1877L179.96 43.2251L175.331 38.1651L175.421 43.3043L173.741 43.3336ZM187.036 43.3416C185.849 43.3623 184.857 43.0796 184.06 42.4934C183.263 41.9072 182.789 41.102 182.638 40.0778L184.358 40.0478C184.473 40.5659 184.755 41.0144 185.201 41.3933C185.661 41.7587 186.271 41.9347 187.031 41.9215C187.737 41.9091 188.255 41.7534 188.583 41.4543C188.911 41.1419 189.071 40.779 189.064 40.3657C189.053 39.7658 188.826 39.3697 188.383 39.1774C187.953 38.9849 187.343 38.8155 186.554 38.6693C186.019 38.5719 185.483 38.4279 184.946 38.2373C184.409 38.0466 183.958 37.7745 183.592 37.4208C183.225 37.0538 183.037 36.5704 183.026 35.9704C183.011 35.1039 183.319 34.3918 183.949 33.834C184.593 33.2627 185.468 32.9674 186.574 32.9481C187.627 32.9297 188.492 33.1813 189.168 33.7029C189.857 34.211 190.263 34.9507 190.387 35.922L188.727 35.951C188.651 35.4455 188.424 35.0561 188.046 34.7827C187.681 34.4956 187.192 34.3575 186.579 34.3682C185.979 34.3787 185.515 34.5135 185.186 34.7726C184.87 35.0315 184.716 35.3675 184.723 35.7808C184.73 36.1807 184.942 36.4904 185.36 36.7098C185.79 36.929 186.367 37.1123 187.089 37.2597C187.705 37.3823 188.288 37.5389 188.838 37.7293C189.401 37.9062 189.859 38.1849 190.213 38.5654C190.579 38.9324 190.769 39.4759 190.781 40.1957C190.81 41.0887 190.483 41.8345 189.8 42.4332C189.13 43.0183 188.209 43.3211 187.036 43.3416ZM197.694 43.1556C196.747 43.1721 195.904 42.9734 195.163 42.5596C194.422 42.1325 193.832 41.536 193.392 40.7703C192.965 40.0043 192.742 39.0947 192.724 38.0415C192.706 37.0017 192.897 36.0915 193.296 35.3111C193.696 34.5173 194.259 33.9008 194.984 33.4614C195.723 33.0084 196.579 32.7734 197.552 32.7564C198.512 32.7397 199.343 32.9452 200.044 33.3731C200.758 33.7873 201.307 34.3445 201.693 35.0445C202.079 35.7446 202.278 36.5012 202.293 37.3144C202.295 37.461 202.291 37.6078 202.28 37.7547C202.283 37.9013 202.286 38.068 202.289 38.2546L194.39 38.3925C194.444 39.1517 194.628 39.7819 194.943 40.2831C195.272 40.7708 195.672 41.1372 196.143 41.3824C196.627 41.6273 197.136 41.7451 197.669 41.7358C198.362 41.7237 198.939 41.5536 199.4 41.2255C199.861 40.8974 200.194 40.4582 200.398 39.9079L202.057 39.8789C201.807 40.8034 201.307 41.5789 200.558 42.2054C199.822 42.8184 198.867 43.1351 197.694 43.1556ZM197.537 34.1769C196.737 34.1909 196.028 34.45 195.41 34.9542C194.806 35.4448 194.465 36.1575 194.388 37.0923L200.627 36.9834C200.571 36.0909 200.252 35.3964 199.67 34.8998C199.088 34.4032 198.377 34.1623 197.537 34.1769ZM208.419 42.9683C207.232 42.9891 206.241 42.7063 205.444 42.1201C204.647 41.534 204.173 40.7288 204.021 39.7046L205.741 39.6746C205.857 40.1926 206.138 40.6411 206.585 41.0201C207.044 41.3854 207.654 41.5615 208.414 41.5482C209.121 41.5359 209.638 41.3802 209.966 41.0811C210.294 40.7686 210.455 40.4058 210.447 39.9925C210.437 39.3926 210.21 38.9965 209.767 38.8042C209.336 38.6117 208.727 38.4423 207.937 38.296C207.402 38.1987 206.866 38.0547 206.33 37.864C205.793 37.6734 205.341 37.4012 204.975 37.0475C204.609 36.6806 204.42 36.1971 204.41 35.5972C204.395 34.7307 204.702 34.0185 205.333 33.4608C205.976 32.8894 206.851 32.5941 207.958 32.5748C209.011 32.5564 209.875 32.8081 210.551 33.3297C211.24 33.8377 211.646 34.5774 211.77 35.5487L210.11 35.5777C210.035 35.0723 209.808 34.6828 209.43 34.4094C209.065 34.1224 208.576 33.9842 207.962 33.995C207.362 34.0054 206.898 34.1402 206.569 34.3993C206.254 34.6582 206.099 34.9943 206.107 35.4076C206.114 35.8075 206.326 36.1172 206.743 36.3366C207.174 36.5558 207.75 36.7391 208.473 36.8865C209.088 37.0091 209.671 37.1656 210.221 37.356C210.784 37.5329 211.243 37.8116 211.596 38.1922C211.963 38.5592 212.152 39.1026 212.165 39.8225C212.194 40.7155 211.867 41.4613 211.184 42.06C210.514 42.6451 209.592 42.9479 208.419 42.9683ZM224.41 42.6892C223.423 42.7065 222.553 42.4949 221.798 42.0547C221.057 41.6142 220.473 41.0043 220.046 40.225C219.632 39.4454 219.417 38.5557 219.399 37.5559C219.382 36.556 219.573 35.6659 219.973 34.8855C220.372 34.0917 220.935 33.4685 221.66 33.0157C222.386 32.5497 223.248 32.3079 224.248 32.2905C225.061 32.2763 225.784 32.4303 226.416 32.7527C227.049 33.075 227.544 33.5331 227.901 34.127L227.793 27.9879L229.473 27.9586L229.725 42.3564L228.205 42.3829L228.016 40.746C227.705 41.2315 227.252 41.6728 226.659 42.0699C226.066 42.467 225.316 42.6734 224.41 42.6892ZM224.564 41.2263C225.231 41.2147 225.814 41.0511 226.316 40.7357C226.83 40.4066 227.222 39.9597 227.492 39.3949C227.776 38.8299 227.911 38.1741 227.898 37.4275C227.885 36.681 227.727 36.0303 227.424 35.4755C227.134 34.9205 226.727 34.4942 226.202 34.1967C225.689 33.8856 225.1 33.7358 224.433 33.7475C223.78 33.7589 223.196 33.9291 222.682 34.2581C222.181 34.5736 221.788 35.0138 221.505 35.5788C221.235 36.1436 221.106 36.7993 221.119 37.5459C221.132 38.2924 221.284 38.9432 221.573 39.4982C221.876 40.053 222.284 40.486 222.796 40.7971C223.322 41.0946 223.911 41.2377 224.564 41.2263ZM235.766 42.491C234.94 42.5054 234.251 42.3774 233.699 42.107C233.148 41.8366 232.735 41.4704 232.46 41.0085C232.185 40.5465 232.043 40.0423 232.034 39.4957C232.016 38.4825 232.389 37.6959 233.153 37.1358C233.916 36.5757 234.965 36.284 236.298 36.2608L238.977 36.214L238.975 36.094C238.96 35.2275 238.722 34.5782 238.261 34.1462C237.8 33.7008 237.189 33.4848 236.43 33.4981C235.776 33.5095 235.213 33.686 234.739 34.0276C234.278 34.3557 233.992 34.8341 233.883 35.4628L232.164 35.4928C232.218 34.7718 232.447 34.161 232.852 33.6605C233.27 33.1598 233.79 32.7773 234.412 32.5131C235.034 32.2356 235.698 32.0906 236.405 32.0783C237.791 32.0541 238.838 32.4092 239.544 33.1436C240.263 33.8645 240.634 34.8382 240.655 36.0647L240.761 42.1638L239.262 42.1899L239.131 40.412C238.86 40.9768 238.456 41.4639 237.916 41.8734C237.389 42.2693 236.673 42.4752 235.766 42.491ZM236.002 41.0667C236.641 41.0555 237.185 40.8793 237.633 40.5381C238.093 40.1967 238.439 39.7573 238.67 39.2198C238.9 38.6824 239.011 38.1204 239 37.5338L239 37.5138L236.46 37.5581C235.474 37.5754 234.777 37.7609 234.37 38.1147C233.976 38.455 233.783 38.8784 233.792 39.385C233.801 39.9049 233.995 40.3216 234.374 40.635C234.766 40.9349 235.308 41.0788 236.002 41.0667ZM247.085 42.2934C245.898 42.3141 244.907 42.0314 244.11 41.4452C243.313 40.859 242.839 40.0539 242.687 39.0297L244.407 38.9997C244.523 39.5177 244.804 39.9662 245.251 40.3451C245.71 40.7105 246.32 40.8866 247.08 40.8733C247.787 40.861 248.304 40.7052 248.632 40.4061C248.96 40.0937 249.121 39.7308 249.113 39.3176C249.103 38.7177 248.876 38.3216 248.432 38.1293C248.002 37.9368 247.393 37.7674 246.603 37.6211C246.068 37.5238 245.532 37.3798 244.996 37.1891C244.459 36.9985 244.007 36.7263 243.641 36.3726C243.275 36.0056 243.086 35.5222 243.076 34.9223C243.061 34.0557 243.368 33.3436 243.999 32.7858C244.642 32.2145 245.517 31.9192 246.624 31.8999C247.677 31.8815 248.541 32.1331 249.217 32.6548C249.906 33.1628 250.312 33.9025 250.436 34.8738L248.776 34.9028C248.701 34.3974 248.474 34.0079 248.096 33.7345C247.731 33.4475 247.242 33.3093 246.628 33.32C246.028 33.3305 245.564 33.4653 245.235 33.7244C244.92 33.9833 244.765 34.3194 244.773 34.7326C244.78 35.1326 244.992 35.4423 245.409 35.6617C245.84 35.8809 246.416 36.0642 247.139 36.2116C247.754 36.3342 248.337 36.4907 248.887 36.6811C249.45 36.858 249.909 37.1367 250.262 37.5173C250.629 37.8842 250.818 38.4277 250.831 39.1476C250.86 40.0405 250.533 40.7864 249.85 41.385C249.18 41.9702 248.258 42.273 247.085 42.2934ZM253.28 41.9453L253.029 27.5475L254.708 27.5181L254.816 33.6972C255.139 33.0781 255.604 32.5966 256.211 32.2526C256.818 31.8953 257.482 31.7104 258.202 31.6978C259.348 31.6778 260.274 32.0217 260.98 32.7295C261.686 33.4239 262.051 34.511 262.077 35.9908L262.178 41.7899L260.519 41.8189L260.421 36.1998C260.385 34.1334 259.533 33.1148 257.867 33.1439C257 33.159 256.279 33.485 255.704 34.1218C255.128 34.7452 254.85 35.6302 254.87 36.7767L254.96 41.9159L253.28 41.9453ZM270.027 41.893C269.214 41.9072 268.484 41.7532 267.838 41.4311C267.206 41.1088 266.718 40.6505 266.374 40.0564L266.243 41.719L264.723 41.7455L264.472 27.3477L266.152 27.3184L266.259 33.4375C266.57 32.9519 267.016 32.5108 267.596 32.1139C268.189 31.7168 268.945 31.5103 269.865 31.4942C270.852 31.477 271.716 31.6886 272.457 32.1291C273.198 32.5695 273.775 33.1796 274.189 33.9591C274.616 34.7385 274.838 35.6281 274.856 36.6279C274.873 37.6277 274.682 38.5246 274.282 39.3183C273.896 40.0985 273.334 40.7218 272.595 41.1881C271.869 41.6408 271.013 41.8758 270.027 41.893ZM269.821 40.4363C270.488 40.4247 271.072 40.2612 271.573 39.9457C272.074 39.6169 272.466 39.17 272.75 38.605C273.033 38.0399 273.169 37.3841 273.156 36.6376C273.143 35.891 272.984 35.2403 272.681 34.6856C272.378 34.1308 271.971 33.7045 271.459 33.4067C270.947 33.0956 270.357 32.9458 269.691 32.9575C269.024 32.9691 268.44 33.1393 267.939 33.4681C267.438 33.7836 267.046 34.2238 266.762 34.7889C266.479 35.3539 266.344 36.0097 266.357 36.7563C266.37 37.5028 266.528 38.1535 266.831 38.7083C267.134 39.2631 267.541 39.696 268.054 40.0071C268.566 40.3049 269.155 40.448 269.821 40.4363ZM281.804 41.6874C280.87 41.7037 280.027 41.5051 279.273 41.0915C278.519 40.6779 277.915 40.0884 277.462 39.3228C277.021 38.5437 276.792 37.6276 276.774 36.5744C276.755 35.5212 276.959 34.6042 277.386 33.8233C277.812 33.0291 278.395 32.4122 279.134 31.9725C279.886 31.5327 280.729 31.3046 281.662 31.2883C282.595 31.272 283.439 31.4707 284.193 31.8842C284.947 32.2978 285.544 32.8941 285.984 33.6732C286.438 34.4388 286.674 35.3481 286.692 36.4013C286.71 37.4545 286.507 38.3782 286.08 39.1724C285.654 39.9533 285.064 40.5637 284.312 41.0035C283.573 41.4432 282.737 41.6711 281.804 41.6874ZM281.778 40.2476C282.352 40.2376 282.883 40.0883 283.371 39.7998C283.859 39.5112 284.252 39.0843 284.549 38.519C284.846 37.9538 284.987 37.2579 284.972 36.4313C284.958 35.6048 284.792 34.9142 284.476 34.3597C284.173 33.8049 283.772 33.3918 283.274 33.1204C282.776 32.8491 282.247 32.7183 281.687 32.7281C281.114 32.7381 280.583 32.8874 280.095 33.1759C279.606 33.4645 279.214 33.8914 278.917 34.4567C278.62 35.022 278.479 35.7179 278.493 36.5444C278.508 37.3709 278.673 38.0615 278.99 38.6161C279.306 39.1706 279.707 39.5837 280.191 39.8553C280.69 40.1266 281.219 40.2574 281.778 40.2476ZM292.418 41.5021C291.591 41.5166 290.902 41.3886 290.351 41.1182C289.799 40.8477 289.386 40.4816 289.112 40.0196C288.837 39.5577 288.695 39.0534 288.685 38.5068C288.667 37.4937 289.04 36.707 289.804 36.1469C290.568 35.5869 291.616 35.2952 292.949 35.2719L295.629 35.2251L295.627 35.1052C295.612 34.2386 295.374 33.5894 294.913 33.1573C294.451 32.712 293.841 32.4959 293.081 32.5092C292.428 32.5206 291.864 32.6971 291.39 33.0388C290.929 33.3669 290.644 33.8453 290.535 34.4739L288.815 34.5039C288.869 33.7829 289.099 33.1721 289.503 32.6717C289.921 32.171 290.441 31.7885 291.064 31.5243C291.685 31.2467 292.35 31.1017 293.056 31.0894C294.443 31.0652 295.489 31.4203 296.195 32.1548C296.915 32.8757 297.285 33.8494 297.306 35.0758L297.413 41.1749L295.913 41.2011L295.782 39.4231C295.512 39.9879 295.107 40.4751 294.567 40.8845C294.041 41.2804 293.324 41.4863 292.418 41.5021ZM292.653 40.0778C293.293 40.0666 293.837 39.8905 294.284 39.5493C294.745 39.2078 295.091 38.7684 295.321 38.231C295.552 37.6935 295.662 37.1315 295.652 36.5449L295.652 36.5249L293.112 36.5693C292.125 36.5865 291.429 36.772 291.021 37.1258C290.627 37.4661 290.435 37.8895 290.443 38.3961C290.452 38.916 290.646 39.3327 291.025 39.6462C291.417 39.946 291.96 40.0899 292.653 40.0778ZM299.933 41.1309L299.76 31.2124L301.28 31.1859L301.453 33.0832C301.748 32.4246 302.205 31.8965 302.825 31.499C303.445 31.1014 304.215 30.8946 305.135 30.8786L305.165 32.6383L304.706 32.6463C304.119 32.6566 303.581 32.7727 303.091 32.9946C302.602 33.2031 302.214 33.5566 301.93 34.055C301.645 34.5534 301.51 35.2358 301.525 36.1024L301.613 41.1016L299.933 41.1309ZM311.33 41.172C310.343 41.1893 309.473 40.9777 308.718 40.5375C307.977 40.097 307.393 39.4871 306.966 38.7078C306.553 37.9282 306.337 37.0385 306.32 36.0387C306.302 35.0388 306.493 34.1487 306.893 33.3683C307.293 32.5745 307.855 31.9513 308.581 31.4985C309.306 31.0325 310.169 30.7907 311.168 30.7733C311.982 30.7591 312.704 30.9131 313.337 31.2355C313.969 31.5578 314.464 32.0159 314.821 32.6098L314.714 26.4707L316.394 26.4414L316.645 40.8392L315.125 40.8657L314.937 39.2288C314.625 39.7143 314.173 40.1556 313.579 40.5527C312.986 40.9498 312.236 41.1562 311.33 41.172ZM311.484 39.7091C312.151 39.6975 312.735 39.5339 313.236 39.2185C313.75 38.8894 314.143 38.4425 314.413 37.8777C314.696 37.3127 314.832 36.6569 314.819 35.9103C314.806 35.1638 314.647 34.5131 314.344 33.9583C314.055 33.4033 313.647 32.977 313.122 32.6795C312.61 32.3684 312.02 32.2186 311.354 32.2303C310.701 32.2417 310.117 32.4119 309.602 32.7409C309.101 33.0564 308.709 33.4966 308.425 34.0616C308.155 34.6264 308.027 35.2821 308.04 36.0287C308.053 36.7752 308.204 37.426 308.494 37.981C308.797 38.5358 309.204 38.9688 309.717 39.2799C310.242 39.5774 310.831 39.7205 311.484 39.7091ZM324.752 45.0984L324.502 30.7806L326.022 30.754L326.21 32.391C326.522 31.9055 326.968 31.4643 327.548 31.0675C328.141 30.6704 328.897 30.4638 329.817 30.4478C330.804 30.4305 331.667 30.6422 332.409 31.0826C333.15 31.5231 333.727 32.1331 334.141 32.9127C334.568 33.692 334.79 34.5816 334.807 35.5814C334.825 36.5813 334.634 37.4781 334.234 38.2719C333.848 39.052 333.285 39.6753 332.547 40.1416C331.821 40.5943 330.965 40.8293 329.979 40.8465C329.165 40.8607 328.436 40.7068 327.79 40.3846C327.158 40.0623 326.67 39.6041 326.326 39.01L326.432 45.0691L324.752 45.0984ZM329.773 39.3899C330.44 39.3782 331.024 39.2147 331.525 38.8992C332.026 38.5704 332.418 38.1235 332.702 37.5585C332.985 36.9935 333.12 36.3377 333.107 35.5911C333.094 34.8446 332.936 34.1939 332.633 33.6391C332.33 33.0843 331.923 32.658 331.411 32.3602C330.899 32.0491 330.309 31.8994 329.643 31.911C328.976 31.9227 328.392 32.0929 327.891 32.4217C327.39 32.7371 326.998 33.1774 326.714 33.7424C326.431 34.3074 326.295 34.9632 326.308 35.7098C326.321 36.4563 326.479 37.107 326.783 37.6618C327.086 38.2166 327.493 38.6496 328.005 38.9607C328.517 39.2584 329.107 39.4015 329.773 39.3899ZM341.695 40.642C340.749 40.6585 339.905 40.4599 339.165 40.0461C338.424 39.6189 337.833 39.0225 337.393 38.2567C336.966 37.4907 336.744 36.5811 336.725 35.528C336.707 34.4881 336.898 33.578 337.298 32.7976C337.697 32.0038 338.26 31.3872 338.986 30.9478C339.725 30.4948 340.581 30.2599 341.554 30.2429C342.514 30.2261 343.344 30.4317 344.045 30.8595C344.759 31.2738 345.309 31.8309 345.694 32.531C346.08 33.231 346.28 33.9876 346.294 34.8008C346.297 34.9475 346.293 35.0943 346.282 35.2411C346.284 35.3878 346.287 35.5544 346.291 35.7411L338.392 35.8789C338.445 36.6381 338.629 37.2683 338.945 37.7696C339.273 38.2572 339.673 38.6237 340.144 38.8688C340.629 39.1137 341.137 39.2315 341.671 39.2222C342.364 39.2101 342.941 39.04 343.402 38.7119C343.863 38.3838 344.195 37.9446 344.399 37.3943L346.059 37.3653C345.808 38.2899 345.308 39.0654 344.559 39.6919C343.823 40.3048 342.869 40.6215 341.695 40.642ZM341.539 31.6634C340.739 31.6773 340.03 31.9364 339.412 32.4406C338.807 32.9312 338.466 33.644 338.389 34.5788L344.628 34.4699C344.573 33.5774 344.254 32.8828 343.672 32.3863C343.09 31.8897 342.379 31.6487 341.539 31.6634ZM348.617 40.2811L348.444 30.3627L349.964 30.3361L350.095 32.1141C350.404 31.482 350.855 30.9807 351.449 30.6103C352.042 30.2398 352.719 30.048 353.479 30.0347C354.652 30.0143 355.591 30.3579 356.297 31.0657C357.016 31.7599 357.388 32.8469 357.414 34.3267L357.516 40.1258L355.836 40.1551L355.738 34.536C355.702 32.4696 354.83 31.4514 353.124 31.4811C352.271 31.496 351.563 31.8218 351.001 32.4584C350.452 33.0814 350.187 33.9661 350.207 35.1126L350.297 40.2518L348.617 40.2811ZM363.925 36.8935C363.365 36.9032 362.851 36.8389 362.382 36.7004L361.398 37.6577C361.547 37.7618 361.728 37.8519 361.943 37.9282C362.171 37.9909 362.492 38.052 362.906 38.1114C363.321 38.1575 363.902 38.2074 364.649 38.261C365.984 38.3311 366.943 38.6211 367.525 39.131C368.107 39.6409 368.406 40.3158 368.42 41.1557C368.43 41.7289 368.28 42.2783 367.969 42.8038C367.672 43.3291 367.199 43.764 366.552 44.1087C365.918 44.4532 365.094 44.6342 364.081 44.6519C363.188 44.6675 362.392 44.5614 361.695 44.3335C360.998 44.119 360.452 43.7751 360.057 43.302C359.662 42.8421 359.458 42.2522 359.446 41.5323C359.439 41.1591 359.532 40.7507 359.724 40.3073C359.917 39.8772 360.283 39.4641 360.823 39.0679C360.527 38.9531 360.272 38.8309 360.056 38.7013C359.854 38.5581 359.664 38.4014 359.488 38.2311L359.48 37.7712L361.15 36.0618C360.352 35.4089 359.944 34.5359 359.925 33.4428C359.913 32.7895 360.056 32.1936 360.353 31.655C360.651 31.1164 361.09 30.6887 361.671 30.3718C362.252 30.0416 362.963 29.8692 363.803 29.8545C364.376 29.8445 364.897 29.9154 365.366 30.0673L369.026 30.0034L369.048 31.2632L367.19 31.3757C367.586 31.9288 367.791 32.572 367.803 33.3052C367.815 33.9585 367.665 34.5545 367.355 35.0933C367.057 35.6319 366.618 36.0663 366.037 36.3965C365.469 36.7132 364.765 36.8788 363.925 36.8935ZM363.901 35.5137C364.608 35.5013 365.165 35.3116 365.572 34.9444C365.992 34.5637 366.196 34.0267 366.184 33.3335C366.172 32.6536 365.949 32.1374 365.516 31.7849C365.097 31.4189 364.534 31.242 363.827 31.2543C363.107 31.2669 362.537 31.4635 362.117 31.8443C361.71 32.2114 361.512 32.7349 361.524 33.4148C361.536 34.1081 361.752 34.6377 362.172 35.0038C362.605 35.3563 363.181 35.5262 363.901 35.5137ZM361.083 41.3438C361.094 42.0103 361.383 42.4987 361.948 42.8089C362.514 43.1324 363.217 43.2868 364.057 43.2721C364.883 43.2577 365.54 43.0662 366.027 42.6977C366.527 42.3289 366.772 41.8445 366.762 41.2446C366.754 40.818 366.574 40.4478 366.222 40.1339C365.87 39.8333 365.227 39.6645 364.293 39.6275C363.559 39.5869 362.925 39.5313 362.39 39.4606C361.849 39.7635 361.494 40.083 361.327 40.4194C361.159 40.769 361.078 41.0771 361.083 41.3438ZM375.167 40.0578C374.22 40.0743 373.377 39.8756 372.636 39.4618C371.895 39.0347 371.305 38.4382 370.865 37.6725C370.438 36.9065 370.215 35.9969 370.197 34.9437C370.179 33.9039 370.37 32.9937 370.769 32.2133C371.169 31.4195 371.731 30.803 372.457 30.3636C373.196 29.9106 374.052 29.6756 375.025 29.6586C375.985 29.6419 376.816 29.8474 377.516 30.2753C378.23 30.6895 378.78 31.2467 379.166 31.9467C379.552 32.6468 379.751 33.4034 379.766 34.2166C379.768 34.3632 379.764 34.51 379.753 34.6569C379.756 34.8035 379.759 34.9702 379.762 35.1568L371.863 35.2947C371.916 36.0539 372.101 36.6841 372.416 37.1853C372.745 37.673 373.145 38.0394 373.616 38.2846C374.1 38.5295 374.609 38.6473 375.142 38.638C375.835 38.6259 376.412 38.4558 376.873 38.1277C377.334 37.7996 377.667 37.3604 377.871 36.8101L379.53 36.7811C379.28 37.7056 378.78 38.4811 378.031 39.1076C377.295 39.7206 376.34 40.0373 375.167 40.0578ZM375.01 31.0791C374.21 31.0931 373.501 31.3522 372.883 31.8564C372.279 32.347 371.938 33.0597 371.861 33.9945L378.1 33.8856C378.044 32.9931 377.725 32.2986 377.143 31.802C376.561 31.3054 375.85 31.0645 375.01 31.0791ZM382.088 39.6969L381.837 25.2991L383.517 25.2698L383.768 39.6676L382.088 39.6969ZM391.045 39.7806C390.112 39.7969 389.268 39.5983 388.514 39.1847C387.76 38.7711 387.156 38.1816 386.703 37.416C386.262 36.6369 386.033 35.7208 386.015 34.6676C385.996 33.6144 386.2 32.6974 386.627 31.9165C387.053 31.1223 387.636 30.5054 388.375 30.0657C389.127 29.6259 389.97 29.3978 390.903 29.3815C391.836 29.3652 392.68 29.5638 393.434 29.9774C394.188 30.391 394.785 30.9873 395.226 31.7664C395.679 32.532 395.915 33.4413 395.933 34.4945C395.952 35.5477 395.748 36.4714 395.322 37.2656C394.895 38.0465 394.306 38.6569 393.553 39.0967C392.814 39.5364 391.978 39.7643 391.045 39.7806ZM391.02 38.3408C391.593 38.3308 392.124 38.1815 392.612 37.893C393.1 37.6044 393.493 37.1775 393.79 36.6122C394.087 36.0469 394.228 35.351 394.214 34.5245C394.199 33.698 394.034 33.0074 393.717 32.4528C393.414 31.898 393.014 31.485 392.515 31.2136C392.017 30.9423 391.488 30.8115 390.928 30.8213C390.355 30.8313 389.824 30.9806 389.336 31.2691C388.848 31.5577 388.455 31.9846 388.158 32.5499C387.861 33.1151 387.72 33.8111 387.734 34.6376C387.749 35.4641 387.914 36.1547 388.231 36.7092C388.547 37.2638 388.948 37.6769 389.433 37.9485C389.931 38.2198 390.46 38.3506 391.02 38.3408ZM398.355 39.413L398.104 25.0152L399.784 24.9858L400.035 39.3836L398.355 39.413ZM406.092 39.518C405.265 39.5324 404.576 39.4044 404.025 39.134C403.474 38.8636 403.06 38.4974 402.786 38.0354C402.511 37.5735 402.369 37.0692 402.359 36.5226C402.341 35.5095 402.714 34.7228 403.478 34.1628C404.242 33.6027 405.29 33.311 406.623 33.2877L409.303 33.241L409.301 33.121C409.286 32.2544 409.048 31.6052 408.587 31.1731C408.126 30.7278 407.515 30.5117 406.755 30.525C406.102 30.5364 405.538 30.7129 405.064 31.0546C404.603 31.3827 404.318 31.8611 404.209 32.4897L402.489 32.5198C402.543 31.7987 402.773 31.1879 403.177 30.6875C403.595 30.1868 404.116 29.8043 404.738 29.5401C405.36 29.2625 406.024 29.1176 406.73 29.1052C408.117 29.081 409.163 29.4361 409.869 30.1706C410.589 30.8915 410.959 31.8652 410.981 33.0917L411.087 39.1907L409.587 39.2169L409.456 37.4389C409.186 38.0037 408.781 38.4909 408.242 38.9003C407.715 39.2963 406.999 39.5021 406.092 39.518ZM406.327 38.0936C406.967 38.0825 407.511 37.9063 407.958 37.5651C408.419 37.2237 408.765 36.7842 408.995 36.2468C409.226 35.7093 409.336 35.1473 409.326 34.5608L409.326 34.5408L406.786 34.5851C405.799 34.6023 405.103 34.7878 404.695 35.1417C404.301 35.4819 404.109 35.9053 404.117 36.4119C404.127 36.9319 404.321 37.3485 404.699 37.662C405.091 37.9618 405.634 38.1057 406.327 38.0936ZM416.911 39.3291C416.084 39.3435 415.395 39.2155 414.844 38.9451C414.292 38.6747 413.879 38.3085 413.604 37.8466C413.33 37.3846 413.187 36.8804 413.178 36.3338C413.16 35.3206 413.533 34.534 414.297 33.9739C415.06 33.4138 416.109 33.1222 417.442 33.0989L420.122 33.0521L420.12 32.9321C420.104 32.0656 419.866 31.4163 419.405 30.9843C418.944 30.5389 418.334 30.3229 417.574 30.3362C416.921 30.3476 416.357 30.5241 415.883 30.8658C415.422 31.1939 415.137 31.6722 415.028 32.3009L413.308 32.3309C413.362 31.6099 413.591 30.9991 413.996 30.4986C414.414 29.9979 414.934 29.6155 415.556 29.3512C416.178 29.0737 416.842 28.9287 417.549 28.9164C418.935 28.8922 419.982 29.2473 420.688 29.9818C421.407 30.7027 421.778 31.6763 421.799 32.9028L421.906 39.0019L420.406 39.0281L420.275 37.2501C420.005 37.8149 419.6 38.302 419.06 38.7115C418.534 39.1074 417.817 39.3133 416.911 39.3291ZM417.146 37.9048C417.786 37.8936 418.329 37.7174 418.777 37.3762C419.238 37.0348 419.583 36.5954 419.814 36.0579C420.045 35.5205 420.155 34.9585 420.145 34.3719L420.144 34.3519L417.605 34.3962C416.618 34.4135 415.921 34.599 415.514 34.9528C415.12 35.2931 414.927 35.7165 414.936 36.2231C414.945 36.743 415.139 37.1597 415.518 37.4731C415.91 37.773 416.453 37.9169 417.146 37.9048ZM424.426 38.9579L424.253 29.0394L425.772 29.0129L425.903 30.7909C426.212 30.1587 426.664 29.6574 427.257 29.287C427.851 28.9166 428.528 28.7248 429.288 28.7115C430.461 28.691 431.4 29.0347 432.106 29.7425C432.825 30.4367 433.197 31.5237 433.223 33.0035L433.324 38.8026L431.645 38.8319L431.546 33.2127C431.51 31.1464 430.639 30.1281 428.933 30.1579C428.08 30.1728 427.372 30.4985 426.809 31.1351C426.26 31.7581 425.996 32.6429 426.016 33.7894L426.105 38.9286L424.426 38.9579ZM445.081 38.5974C444.174 38.6132 443.457 38.4057 442.93 37.9748C442.402 37.544 442.128 36.7553 442.108 35.6088L442.013 30.1496L440.293 30.1796L440.268 28.7599L441.988 28.7298L442.167 26.3464L443.626 26.3209L443.668 28.7005L446.587 28.6496L446.612 30.0693L443.693 30.1203L443.788 35.5795C443.799 36.206 443.933 36.6304 444.19 36.8526C444.447 37.0615 444.896 37.1604 445.536 37.1492L446.575 37.1311L446.601 38.5708L445.081 38.5974ZM449.703 26.3948C449.37 26.4007 449.088 26.2989 448.857 26.0895C448.64 25.8666 448.529 25.5885 448.523 25.2553C448.517 24.9353 448.619 24.6668 448.829 24.4498C449.052 24.2325 449.33 24.121 449.663 24.1152C449.983 24.1096 450.258 24.2115 450.489 24.4208C450.719 24.6302 450.837 24.8948 450.842 25.2148C450.848 25.5481 450.74 25.83 450.517 26.0606C450.294 26.2778 450.023 26.3893 449.703 26.3948ZM449.075 38.5277L448.901 28.6092L450.581 28.5798L450.754 38.4983L449.075 38.5277ZM453.679 38.4473L453.428 24.0495L455.107 24.0202L455.259 32.6788L459.245 28.4286L461.305 28.3927L456.984 32.9488L462.038 38.3014L459.898 38.3387L455.269 33.2787L455.359 38.418L453.679 38.4473ZM467.497 38.4461C466.55 38.4627 465.706 38.264 464.966 37.8502C464.225 37.4231 463.634 36.8266 463.194 36.0609C462.768 35.2949 462.545 34.3853 462.527 33.3321C462.508 32.2922 462.699 31.3821 463.099 30.6017C463.499 29.8079 464.061 29.1913 464.787 28.7519C465.526 28.299 466.382 28.064 467.355 28.047C468.315 28.0303 469.145 28.2358 469.846 28.6636C470.56 29.0779 471.11 29.6351 471.496 30.3351C471.881 31.0351 472.081 31.7918 472.095 32.605C472.098 32.7516 472.094 32.8984 472.083 33.0453C472.086 33.1919 472.088 33.3585 472.092 33.5452L464.193 33.6831C464.246 34.4422 464.431 35.0725 464.746 35.5737C465.075 36.0614 465.474 36.4278 465.945 36.6729C466.43 36.9179 466.939 37.0357 467.472 37.0263C468.165 37.0142 468.742 36.8441 469.203 36.5161C469.664 36.188 469.997 35.7488 470.2 35.1985L471.86 35.1695C471.609 36.094 471.11 36.8695 470.36 37.496C469.624 38.1089 468.67 38.4257 467.497 38.4461ZM467.34 29.4675C466.54 29.4815 465.831 29.7405 465.213 30.2447C464.608 30.7354 464.267 31.4481 464.19 32.3829L470.429 32.274C470.374 31.3815 470.055 30.687 469.473 30.1904C468.891 29.6938 468.18 29.4528 467.34 29.4675ZM478.005 38.0227C477.099 38.0385 476.382 37.831 475.854 37.4001C475.327 36.9693 475.053 36.1806 475.033 35.0341L474.938 29.5749L473.218 29.6049L473.193 28.1852L474.913 28.1551L475.091 25.7717L476.551 25.7462L476.593 28.1258L479.512 28.0749L479.537 29.4946L476.617 29.5456L476.713 35.0048C476.724 35.6313 476.858 36.0557 477.115 36.2779C477.372 36.4868 477.82 36.5857 478.46 36.5745L479.5 36.5564L479.525 37.9961L478.005 38.0227ZM491.615 38.0251C490.628 38.0424 489.758 37.8309 489.003 37.3906C488.262 36.9502 487.678 36.3403 487.251 35.5609C486.838 34.7814 486.622 33.8917 486.605 32.8918C486.587 31.892 486.778 31.0018 487.178 30.2214C487.578 29.4276 488.14 28.8044 488.866 28.3517C489.591 27.8856 490.454 27.6438 491.453 27.6264C492.267 27.6122 492.989 27.7663 493.622 28.0886C494.254 28.411 494.749 28.8691 495.106 29.4629L494.999 23.3238L496.679 23.2945L496.93 37.6923L495.41 37.7189L495.222 36.0819C494.91 36.5674 494.458 37.0087 493.864 37.4058C493.271 37.8029 492.521 38.0093 491.615 38.0251ZM491.769 36.5622C492.436 36.5506 493.02 36.387 493.521 36.0716C494.035 35.7426 494.428 35.2956 494.698 34.7308C494.981 34.1658 495.117 33.51 495.104 32.7635C495.091 32.0169 494.933 31.3662 494.629 30.8114C494.34 30.2564 493.932 29.8301 493.407 29.5326C492.895 29.2215 492.305 29.0717 491.639 29.0834C490.986 29.0948 490.402 29.265 489.888 29.594C489.386 29.9095 488.994 30.3497 488.71 30.9148C488.44 31.4796 488.312 32.1352 488.325 32.8818C488.338 33.6283 488.489 34.2791 488.779 34.8342C489.082 35.389 489.489 35.8219 490.002 36.133C490.527 36.4306 491.116 36.5736 491.769 36.5622ZM502.972 37.8269C502.145 37.8413 501.456 37.7133 500.905 37.4429C500.353 37.1725 499.94 36.8063 499.665 36.3444C499.391 35.8824 499.248 35.3782 499.239 34.8316C499.221 33.8184 499.594 33.0318 500.358 32.4717C501.122 31.9116 502.17 31.62 503.503 31.5967L506.183 31.5499L506.181 31.4299C506.165 30.5634 505.927 29.9141 505.467 29.4821C505.005 29.0367 504.395 28.8207 503.635 28.834C502.982 28.8454 502.418 29.0219 501.944 29.3636C501.483 29.6917 501.198 30.17 501.089 30.7987L499.369 30.8287C499.423 30.1077 499.653 29.4969 500.057 28.9964C500.475 28.4957 500.995 28.1133 501.617 27.849C502.239 27.5715 502.904 27.4265 503.61 27.4142C504.997 27.39 506.043 27.7451 506.749 28.4796C507.469 29.2004 507.839 30.1741 507.86 31.4006L507.967 37.4997L506.467 37.5259L506.336 35.7479C506.066 36.3127 505.661 36.7998 505.121 37.2093C504.595 37.6052 503.878 37.8111 502.972 37.8269ZM503.207 36.4026C503.847 36.3914 504.391 36.2152 504.838 35.874C505.299 35.5326 505.644 35.0932 505.875 34.5557C506.106 34.0183 506.216 33.4563 506.206 32.8697L506.205 32.8497L503.666 32.894C502.679 32.9113 501.982 33.0968 501.575 33.4506C501.181 33.7909 500.988 34.2143 500.997 34.7209C501.006 35.2408 501.2 35.6575 501.579 35.9709C501.971 36.2708 502.514 36.4147 503.207 36.4026ZM510.487 37.4557L510.314 27.5372L511.833 27.5107L511.964 29.2887C512.273 28.6565 512.725 28.1552 513.318 27.7848C513.912 27.4144 514.589 27.2225 515.349 27.2093C516.522 27.1888 517.461 27.5325 518.167 28.2403C518.886 28.9345 519.258 30.0215 519.284 31.5013L519.385 37.3004L517.706 37.3297L517.608 31.7105C517.572 29.6442 516.7 28.6259 514.994 28.6557C514.141 28.6706 513.433 28.9963 512.871 29.6329C512.321 30.2559 512.057 31.1407 512.077 32.2872L512.166 37.4264L510.487 37.4557ZM531.726 37.325C530.739 37.3422 529.869 37.1307 529.115 36.6905C528.373 36.25 527.789 35.6401 527.362 34.8608C526.949 34.0812 526.733 33.1915 526.716 32.1917C526.698 31.1918 526.889 30.3017 527.289 29.5212C527.689 28.7275 528.251 28.1042 528.977 27.6515C529.702 27.1854 530.565 26.9437 531.564 26.9262C532.378 26.912 533.1 27.0661 533.733 27.3885C534.365 27.7108 534.86 28.1689 535.217 28.7628L535.11 22.6237L536.79 22.5944L537.041 36.9922L535.521 37.0187L535.333 35.3818C535.021 35.8673 534.569 36.3086 533.976 36.7056C533.382 37.1027 532.633 37.3092 531.726 37.325ZM531.88 35.8621C532.547 35.8504 533.131 35.6869 533.632 35.3714C534.147 35.0424 534.539 34.5955 534.809 34.0307C535.092 33.4657 535.228 32.8099 535.215 32.0633C535.202 31.3168 535.044 30.6661 534.741 30.1113C534.451 29.5563 534.043 29.13 533.518 28.8324C533.006 28.5213 532.417 28.3716 531.75 28.3832C531.097 28.3946 530.513 28.5648 529.999 28.8939C529.497 29.2093 529.105 29.6496 528.821 30.2146C528.551 30.7794 528.423 31.4351 528.436 32.1816C528.449 32.9282 528.6 33.579 528.89 34.134C529.193 34.6888 529.601 35.1218 530.113 35.4329C530.638 35.7304 531.227 35.8735 531.88 35.8621ZM543.083 37.1268C542.256 37.1412 541.567 37.0132 541.016 36.7428C540.464 36.4724 540.051 36.1062 539.776 35.6442C539.502 35.1823 539.36 34.678 539.35 34.1315C539.332 33.1183 539.705 32.3317 540.469 31.7716C541.233 31.2115 542.281 30.9198 543.614 30.8965L546.294 30.8498L546.292 30.7298C546.277 29.8633 546.039 29.214 545.578 28.782C545.116 28.3366 544.506 28.1206 543.746 28.1338C543.093 28.1452 542.529 28.3218 542.055 28.6634C541.594 28.9915 541.309 29.4699 541.2 30.0986L539.48 30.1286C539.534 29.4075 539.764 28.7968 540.168 28.2963C540.586 27.7956 541.106 27.4131 541.729 27.1489C542.35 26.8713 543.015 26.7264 543.721 26.714C545.108 26.6898 546.154 27.045 546.86 27.7794C547.58 28.5003 547.95 29.474 547.971 30.7005L548.078 36.7995L546.578 36.8257L546.447 35.0477C546.177 35.6125 545.772 36.0997 545.232 36.5092C544.706 36.9051 543.989 37.1109 543.083 37.1268ZM543.318 35.7024C543.958 35.6913 544.502 35.5151 544.949 35.1739C545.41 34.8325 545.756 34.393 545.986 33.8556C546.217 33.3182 546.327 32.7561 546.317 32.1696L546.316 32.1496L543.777 32.1939C542.79 32.2111 542.093 32.3966 541.686 32.7505C541.292 33.0907 541.1 33.5142 541.108 34.0208C541.117 34.5407 541.311 34.9574 541.69 35.2708C542.082 35.5707 542.625 35.7145 543.318 35.7024ZM554.244 36.6919C553.337 36.7077 552.62 36.5002 552.093 36.0694C551.565 35.6385 551.291 34.8498 551.271 33.7033L551.176 28.2442L549.456 28.2742L549.431 26.8544L551.151 26.8244L551.33 24.4409L552.789 24.4154L552.831 26.7951L555.75 26.7441L555.775 28.1639L552.856 28.2149L552.951 33.674C552.962 34.3006 553.096 34.725 553.353 34.9472C553.61 35.1561 554.059 35.2549 554.699 35.2438L555.738 35.2256L555.764 36.6654L554.244 36.6919ZM561.361 36.8077C560.535 36.8221 559.846 36.6941 559.294 36.4237C558.743 36.1533 558.33 35.7871 558.055 35.3252C557.78 34.8633 557.638 34.359 557.628 33.8124C557.611 32.7992 557.984 32.0126 558.747 31.4525C559.511 30.8924 560.56 30.6008 561.893 30.5775L564.572 30.5307L564.57 30.4107C564.555 29.5442 564.317 28.8949 563.856 28.4629C563.395 28.0176 562.784 27.8015 562.024 27.8148C561.371 27.8262 560.808 28.0027 560.333 28.3444C559.872 28.6725 559.587 29.1508 559.478 29.7795L557.759 29.8095C557.813 29.0885 558.042 28.4777 558.447 27.9772C558.865 27.4765 559.385 27.0941 560.007 26.8298C560.629 26.5523 561.293 26.4073 562 26.395C563.386 26.3708 564.433 26.7259 565.139 27.4604C565.858 28.1813 566.228 29.1549 566.25 30.3814L566.356 36.4805L564.857 36.5067L564.726 34.7287C564.455 35.2935 564.05 35.7806 563.511 36.1901C562.984 36.586 562.268 36.7919 561.361 36.8077ZM561.596 35.3834C562.236 35.3722 562.78 35.196 563.228 34.8548C563.688 34.5134 564.034 34.074 564.265 33.5365C564.495 32.9991 564.606 32.4371 564.595 31.8505L564.595 31.8305L562.055 31.8749C561.069 31.8921 560.372 32.0776 559.965 32.4314C559.571 32.7717 559.378 33.1951 559.387 33.7017C559.396 34.2216 559.59 34.6383 559.969 34.9517C560.361 35.2516 560.903 35.3955 561.596 35.3834ZM574.245 40.7435L573.995 26.4256L575.515 26.3991L575.704 28.0361C576.015 27.5506 576.461 27.1094 577.041 26.7125C577.634 26.3155 578.39 26.1089 579.31 26.0928C580.297 26.0756 581.161 26.2872 581.902 26.7277C582.643 27.1682 583.22 27.7782 583.634 28.5577C584.061 29.3371 584.283 30.2267 584.301 31.2265C584.318 32.2264 584.127 33.1232 583.728 33.9169C583.341 34.6971 582.779 35.3204 582.04 35.7867C581.314 36.2394 580.458 36.4744 579.472 36.4916C578.659 36.5058 577.929 36.3518 577.283 36.0297C576.651 35.7074 576.163 35.2492 575.819 34.6551L575.925 40.7141L574.245 40.7435ZM579.266 35.035C579.933 35.0233 580.517 34.8598 581.018 34.5443C581.519 34.2155 581.911 33.7686 582.195 33.2036C582.478 32.6385 582.614 31.9827 582.601 31.2362C582.588 30.4896 582.43 29.839 582.126 29.2842C581.823 28.7294 581.416 28.3031 580.904 28.0053C580.392 27.6942 579.802 27.5445 579.136 27.5561C578.469 27.5677 577.885 27.7379 577.384 28.0667C576.883 28.3822 576.491 28.8225 576.207 29.3875C575.924 29.9525 575.789 30.6083 575.802 31.3549C575.815 32.1014 575.973 32.7521 576.276 33.3069C576.579 33.8617 576.986 34.2946 577.499 34.6057C578.011 34.9035 578.6 35.0466 579.266 35.035ZM591.189 36.2871C590.242 36.3036 589.399 36.105 588.658 35.6912C587.917 35.264 587.326 34.6676 586.886 33.9018C586.46 33.1358 586.237 32.2262 586.219 31.173C586.2 30.1332 586.391 29.2231 586.791 28.4426C587.191 27.6489 587.753 27.0323 588.479 26.5929C589.218 26.1399 590.074 25.905 591.047 25.888C592.007 25.8712 592.837 26.0767 593.538 26.5046C594.252 26.9188 594.802 27.476 595.188 28.176C595.573 28.8761 595.773 29.6327 595.787 30.4459C595.79 30.5926 595.786 30.7393 595.775 30.8862C595.778 31.0329 595.781 31.1995 595.784 31.3861L587.885 31.524C587.938 32.2832 588.123 32.9134 588.438 33.4146C588.767 33.9023 589.166 34.2687 589.637 34.5139C590.122 34.7588 590.631 34.8766 591.164 34.8673C591.857 34.8552 592.434 34.6851 592.895 34.357C593.356 34.0289 593.689 33.5897 593.892 33.0394L595.552 33.0104C595.302 33.9349 594.802 34.7104 594.053 35.337C593.316 35.9499 592.362 36.2666 591.189 36.2871ZM591.032 27.3084C590.232 27.3224 589.523 27.5815 588.905 28.0857C588.3 28.5763 587.959 29.289 587.882 30.2239L594.121 30.115C594.066 29.2225 593.747 28.5279 593.165 28.0313C592.583 27.5347 591.872 27.2938 591.032 27.3084ZM598.11 35.9262L597.937 26.0077L599.457 25.9812L599.588 27.7592C599.897 27.127 600.348 26.6258 600.942 26.2553C601.535 25.8849 602.212 25.6931 602.972 25.6798C604.145 25.6593 605.085 26.003 605.79 26.7108C606.509 27.405 606.882 28.492 606.908 29.9718L607.009 35.7709L605.329 35.8002L605.231 30.1811C605.195 28.1147 604.324 27.0964 602.617 27.1262C601.764 27.1411 601.056 27.4669 600.494 28.1034C599.945 28.7264 599.68 29.6112 599.7 30.7577L599.79 35.8969L598.11 35.9262ZM613.419 32.5385C612.859 32.5483 612.344 32.484 611.875 32.3455L610.892 33.3028C611.04 33.4069 611.222 33.497 611.436 33.5733C611.664 33.636 611.985 33.6971 612.4 33.7565C612.814 33.8026 613.395 33.8525 614.143 33.9061C615.477 33.9762 616.436 34.2661 617.018 34.7761C617.601 35.286 617.899 35.9609 617.914 36.8007C617.924 37.374 617.773 37.9234 617.462 38.4489C617.165 38.9741 616.692 39.4091 616.045 39.7538C615.411 40.0983 614.587 40.2793 613.574 40.297C612.681 40.3126 611.886 40.2065 611.188 39.9786C610.491 39.7641 609.945 39.4202 609.55 38.947C609.155 38.4872 608.951 37.8973 608.939 37.1774C608.932 36.8042 609.025 36.3958 609.218 35.9524C609.41 35.5223 609.776 35.1092 610.316 34.713C610.021 34.5982 609.765 34.4759 609.55 34.3463C609.347 34.2032 609.158 34.0465 608.981 33.8762L608.973 33.4163L610.644 31.7068C609.846 31.054 609.437 30.181 609.418 29.0878C609.406 28.4346 609.549 27.8387 609.847 27.3001C610.144 26.7615 610.583 26.3337 611.164 26.0169C611.745 25.6867 612.456 25.5143 613.296 25.4996C613.869 25.4896 614.39 25.5605 614.86 25.7123L618.519 25.6485L618.541 26.9083L616.683 27.0207C617.079 27.5739 617.284 28.2171 617.297 28.9503C617.308 29.6035 617.158 30.1996 616.848 30.7384C616.55 31.277 616.111 31.7114 615.53 32.0416C614.962 32.3582 614.259 32.5239 613.419 32.5385ZM613.395 31.1588C614.101 31.1464 614.658 30.9567 615.065 30.5895C615.485 30.2088 615.689 29.6718 615.677 28.9786C615.665 28.2987 615.443 27.7825 615.01 27.43C614.59 27.0639 614.027 26.8871 613.32 26.8994C612.6 26.912 612.03 27.1086 611.61 27.4893C611.203 27.8565 611.006 28.38 611.018 29.0599C611.03 29.7531 611.246 30.2828 611.665 30.6489C612.098 31.0013 612.675 31.1713 613.395 31.1588ZM610.576 36.9888C610.588 37.6554 610.876 38.1438 611.442 38.4539C612.007 38.7775 612.71 38.9319 613.55 38.9172C614.377 38.9028 615.033 38.7113 615.52 38.3427C616.021 37.974 616.265 37.4896 616.255 36.8897C616.248 36.4631 616.068 36.0928 615.716 35.7789C615.364 35.4784 614.721 35.3096 613.786 35.2725C613.052 35.232 612.418 35.1764 611.883 35.1057C611.342 35.4086 610.987 35.7281 610.82 36.0644C610.653 36.4141 610.571 36.7222 610.576 36.9888ZM624.211 35.7107C623.038 35.7312 622.098 35.3942 621.393 34.6997C620.687 33.9919 620.321 32.8981 620.295 31.4184L620.194 25.6192L621.874 25.5899L621.972 31.2091C622.008 33.2754 622.873 34.2938 624.566 34.2643C625.432 34.2491 626.14 33.9301 626.689 33.3071C627.252 32.6705 627.523 31.7789 627.503 30.6324L627.413 25.4932L629.093 25.4639L629.266 35.3824L627.746 35.4089L627.595 33.6313C627.299 34.2632 626.848 34.7645 626.241 35.1352C625.647 35.5056 624.971 35.6974 624.211 35.7107ZM632.031 35.3341L631.858 25.4157L633.377 25.3891L633.508 27.1671C633.817 26.535 634.269 26.0337 634.862 25.6632C635.456 25.2928 636.133 25.101 636.893 25.0877C638.066 25.0672 639.005 25.4109 639.711 26.1187C640.43 26.8129 640.802 27.8999 640.828 29.3797L640.929 35.1788L639.25 35.2081L639.152 29.589C639.115 27.5226 638.244 26.5044 636.538 26.5341C635.685 26.549 634.977 26.8748 634.415 27.5113C633.865 28.1344 633.601 29.0191 633.621 30.1656L633.71 35.3048L632.031 35.3341ZM644.363 22.997C644.043 23.0026 643.768 22.9007 643.537 22.6914C643.307 22.4687 643.188 22.1907 643.183 21.8575C643.177 21.5375 643.286 21.2689 643.509 21.0516C643.731 20.8344 644.003 20.723 644.323 20.7174C644.643 20.7118 644.911 20.8138 645.128 21.0234C645.359 21.2327 645.477 21.4974 645.482 21.8173C645.488 22.1506 645.38 22.4325 645.157 22.6631C644.947 22.8802 644.683 22.9915 644.363 22.997ZM641.611 39.5676L641.586 38.1278L642.366 38.1142C642.859 38.1056 643.211 37.9928 643.42 37.7757C643.644 37.5718 643.751 37.2232 643.742 36.73L643.541 25.2117L645.221 25.1824L645.423 36.7406C645.439 37.7005 645.212 38.4046 644.739 38.8529C644.267 39.3012 643.571 39.5334 642.651 39.5494L641.611 39.5676ZM651.941 35.2266C650.768 35.2471 649.828 34.9101 649.123 34.2157C648.417 33.5079 648.051 32.4141 648.025 30.9343L647.924 25.1352L649.604 25.1059L649.702 30.725C649.738 32.7914 650.603 33.8098 652.296 33.7802C653.162 33.7651 653.87 33.446 654.419 32.823C654.982 32.1864 655.253 31.2949 655.233 30.1484L655.143 25.0092L656.823 24.9799L656.996 34.8984L655.476 34.9249L655.325 33.1473C655.03 33.7792 654.578 34.2805 653.971 34.6511C653.378 35.0215 652.701 35.2134 651.941 35.2266ZM659.761 34.8501L659.588 24.9316L661.108 24.9051L661.239 26.6831C661.548 26.0509 661.999 25.5496 662.593 25.1792C663.186 24.8088 663.863 24.617 664.623 24.6037C665.796 24.5832 666.735 24.9269 667.441 25.6347C668.16 26.3289 668.532 27.4159 668.558 28.8957L668.66 34.6948L666.98 34.7241L666.882 29.105C666.846 27.0386 665.974 26.0203 664.268 26.0501C663.415 26.065 662.707 26.3907 662.145 27.0273C661.596 27.6503 661.331 28.5351 661.351 29.6816L661.441 34.8208L659.761 34.8501ZM675.069 31.4624C674.509 31.4722 673.995 31.4078 673.526 31.2693L672.542 32.2266C672.691 32.3307 672.872 32.4209 673.087 32.4972C673.315 32.5599 673.636 32.6209 674.051 32.6804C674.465 32.7265 675.046 32.7764 675.793 32.83C677.128 32.9 678.087 33.19 678.669 33.6999C679.251 34.2099 679.55 34.8847 679.564 35.7246C679.574 36.2979 679.424 36.8472 679.113 37.3727C678.816 37.898 678.343 38.333 677.696 38.6777C677.062 39.0221 676.238 39.2032 675.225 39.2209C674.332 39.2365 673.536 39.1303 672.839 38.9025C672.142 38.688 671.596 38.3441 671.201 37.8709C670.806 37.4111 670.602 36.8212 670.59 36.1013C670.583 35.728 670.676 35.3197 670.868 34.8763C671.061 34.4462 671.427 34.033 671.967 33.6369C671.672 33.522 671.416 33.3998 671.2 33.2702C670.998 33.1271 670.808 32.9703 670.632 32.8001L670.624 32.3401L672.294 30.6307C671.496 29.9779 671.088 29.1049 671.069 28.0117C671.057 27.3585 671.2 26.7626 671.497 26.224C671.795 25.6854 672.234 25.2576 672.815 24.9408C673.396 24.6106 674.107 24.4382 674.947 24.4235C675.52 24.4135 676.041 24.4844 676.51 24.6362L680.17 24.5724L680.192 25.8322L678.334 25.9446C678.73 26.4978 678.935 27.141 678.947 27.8742C678.959 28.5274 678.809 29.1235 678.499 29.6623C678.201 30.2009 677.762 30.6353 677.181 30.9655C676.613 31.2821 675.909 31.4478 675.069 31.4624ZM675.045 30.0826C675.752 30.0703 676.309 29.8806 676.716 29.5134C677.136 29.1327 677.34 28.5957 677.328 27.9025C677.316 27.2226 677.093 26.7064 676.66 26.3539C676.241 25.9878 675.678 25.8109 674.971 25.8233C674.251 25.8358 673.681 26.0325 673.261 26.4132C672.854 26.7804 672.656 27.3039 672.668 27.9838C672.68 28.677 672.896 29.2067 673.316 29.5727C673.749 29.9252 674.325 30.0952 675.045 30.0826ZM672.227 35.9127C672.238 36.5793 672.527 37.0677 673.092 37.3778C673.658 37.7013 674.361 37.8558 675.201 37.8411C676.027 37.8267 676.684 37.6352 677.171 37.2666C677.671 36.8978 677.916 36.4135 677.906 35.8136C677.898 35.387 677.719 35.0167 677.366 34.7028C677.014 34.4023 676.371 34.2335 675.437 34.1964C674.703 34.1559 674.069 34.1003 673.534 34.0296C672.993 34.3324 672.638 34.652 672.471 34.9883C672.303 35.338 672.222 35.6461 672.227 35.9127Z" fill="white"/>
</g>
<defs>
<filter id="filter0_d_1_2168" x="0.866943" y="0.480835" width="697.266" height="71.5155" filterUnits="userSpaceOnUse" color-interpolation-filters="sRGB">
<feFlood flood-opacity="0" result="BackgroundImageFix"/>
<feColorMatrix in="SourceAlpha" type="matrix" values="0 0 0 0 0 0 0 0 0 0 0 0 0 0 0 0 0 0 127 0" result="hardAlpha"/>
<feOffset dx="-3" dy="5"/>
<feComposite in2="hardAlpha" operator="out"/>
<feColorMatrix type="matrix" values="0 0 0 0 0.266667 0 0 0 0 0.121569 0 0 0 0 0.552941 0 0 0 1 0"/>
<feBlend mode="normal" in2="BackgroundImageFix" result="effect1_dropShadow_1_2168"/>
<feBlend mode="normal" in="SourceGraphic" in2="effect1_dropShadow_1_2168" result="shape"/>
</filter>
</defs>
</svg>
