<svg width="349" height="66" viewBox="0 0 349 66" fill="none" xmlns="http://www.w3.org/2000/svg">
<g filter="url(#filter0_d_1_2162)">
<rect x="1.0636" y="6.98621" width="343" height="53" rx="16" transform="rotate(-1 1.0636 6.98621)" fill="#8C52FF" shape-rendering="crispEdges"/>
<rect x="0.554949" y="6.49501" width="344" height="54" rx="16.5" transform="rotate(-1 0.554949 6.49501)" stroke="#441F8D" shape-rendering="crispEdges"/>
<path d="M25.4057 39.8064C24.0859 39.8294 22.9275 39.5496 21.9305 38.9669C20.9335 38.3842 20.1523 37.5577 19.5869 36.4874C19.0215 35.4171 18.7262 34.1621 18.701 32.7223C18.6761 31.2959 18.9341 30.0312 19.4749 28.9282C20.0158 27.8253 20.7941 26.9582 21.8099 26.3271C22.8388 25.6824 24.0598 25.3477 25.4729 25.323C27.0727 25.2951 28.4126 25.6584 29.4926 26.413C30.5726 27.1676 31.2844 28.222 31.6281 29.5762L29.2285 29.6181C29.0021 28.8753 28.572 28.296 27.9379 27.8804C27.3039 27.4647 26.4937 27.2655 25.5071 27.2827C24.0407 27.3083 22.8958 27.8017 22.0724 28.7629C21.2491 29.724 20.852 31.0378 20.8811 32.7043C20.9101 34.3707 21.3461 35.6633 22.1889 36.582C23.0318 37.5008 24.1397 37.9482 25.5129 37.9242C26.8993 37.9 27.9323 37.4886 28.6118 36.6899C29.3046 35.8911 29.6996 34.8373 29.7968 33.5288L25.9974 33.5951L25.9688 31.9554L31.9079 31.8517L32.0405 39.4505L30.1008 39.4844L29.8849 37.4278C29.4311 38.1692 28.8544 38.746 28.1548 39.1583C27.4552 39.5706 26.5389 39.7866 25.4057 39.8064ZM37.8968 39.5883C37.0569 39.603 36.3612 39.4751 35.8097 39.2047C35.2583 38.9343 34.8453 38.5748 34.5707 38.1262C34.296 37.6642 34.1538 37.16 34.1443 36.6134C34.1275 35.6535 34.4875 34.8871 35.2243 34.3142C35.9611 33.7412 37.0227 33.4427 38.4092 33.4185L41.0088 33.3731L41.0056 33.1931C40.9921 32.4199 40.7687 31.8437 40.3354 31.4645C39.9153 31.0852 39.372 30.9013 38.7055 30.9129C38.1189 30.9231 37.6082 31.0787 37.1734 31.3797C36.7517 31.6671 36.499 32.0916 36.4155 32.6531L34.2958 32.6901C34.3499 31.9691 34.5792 31.3517 34.9836 30.8379C35.4011 30.3105 35.9275 29.9079 36.5628 29.6301C37.2111 29.3387 37.9219 29.1863 38.6951 29.1728C40.0816 29.1486 41.1611 29.4965 41.9338 30.2165C42.7063 30.9231 43.1034 31.903 43.1253 33.1561L43.2318 39.2552L41.392 39.2873L41.1824 37.5907C40.912 38.1422 40.5134 38.6092 39.9867 38.9918C39.4599 39.3744 38.7633 39.5732 37.8968 39.5883ZM38.2867 37.8613C38.8599 37.8513 39.3375 37.7096 39.7195 37.4362C40.1145 37.1493 40.4148 36.7773 40.6201 36.3203C40.8389 35.8631 40.9701 35.3607 41.0139 34.8132L38.6543 34.8544C37.8144 34.8691 37.217 35.0262 36.8622 35.3257C36.5207 35.6251 36.3538 35.9947 36.3615 36.4347C36.3694 36.8879 36.5423 37.245 36.8803 37.5058C37.2313 37.753 37.7001 37.8715 38.2867 37.8613ZM45.7033 39.212L45.5301 29.2936L47.4298 29.2604L47.6426 31.137C47.9778 30.4777 48.4488 29.9561 49.0555 29.5721C49.6753 29.1745 50.4252 28.9681 51.3051 28.9527L51.3438 31.1724L50.7639 31.1825C50.1773 31.1927 49.6525 31.3019 49.1894 31.51C48.7394 31.7046 48.3785 32.0376 48.1066 32.5091C47.8479 32.967 47.7257 33.6026 47.7399 34.4158L47.8229 39.175L45.7033 39.212ZM56.6634 39.2608C55.8236 39.2754 55.1279 39.1476 54.5764 38.8771C54.0249 38.6067 53.6119 38.2472 53.3374 37.7986C53.0626 37.3367 52.9205 36.8324 52.9109 36.2858C52.8942 35.326 53.2542 34.5596 53.991 33.9866C54.7278 33.4137 55.7894 33.1151 57.1758 33.0909L59.7754 33.0455L59.7723 32.8655C59.7588 32.0923 59.5354 31.5161 59.102 31.137C58.682 30.7576 58.1387 30.5737 57.4721 30.5853C56.8856 30.5956 56.3749 30.7512 55.9401 31.0521C55.5183 31.3395 55.2657 31.764 55.1822 32.3256L53.0625 32.3626C53.1166 31.6415 53.3458 31.0241 53.7503 30.5103C54.1678 29.9829 54.6942 29.5803 55.3294 29.3025C55.9778 29.0112 56.6886 28.8587 57.4618 28.8453C58.8482 28.821 59.9278 29.1689 60.7005 29.8889C61.4729 30.5955 61.8701 31.5754 61.892 32.8285L61.9984 38.9276L60.1587 38.9597L59.9491 37.2631C59.6787 37.8146 59.2801 38.2816 58.7533 38.6642C58.2266 39.0468 57.53 39.2456 56.6634 39.2608ZM57.0534 37.5337C57.6266 37.5237 58.1042 37.382 58.4861 37.1086C58.8812 36.8217 59.1814 36.4497 59.3868 35.9927C59.6055 35.5355 59.7368 35.0332 59.7806 34.4856L57.4209 34.5268C56.5811 34.5415 55.9837 34.6986 55.6289 34.9982C55.2874 35.2975 55.1205 35.6672 55.1282 36.1071C55.1361 36.5603 55.309 36.9174 55.6469 37.1782C55.998 37.4254 56.4668 37.5439 57.0534 37.5337ZM64.4699 38.8845L64.2968 28.966L66.1765 28.9332L66.3669 30.6701C66.6628 30.0515 67.101 29.5638 67.6815 29.2069C68.2751 28.8365 68.9586 28.6446 69.7318 28.6311C70.9316 28.6101 71.878 28.967 72.5709 29.7017C73.2772 30.4361 73.6432 31.5433 73.669 33.023L73.7685 38.7222L71.6688 38.7588L71.5732 33.2796C71.5397 31.3599 70.7364 30.4138 69.1633 30.4413C68.3767 30.455 67.7284 30.7464 67.2182 31.3154C66.7214 31.8841 66.4821 32.6884 66.5002 33.7283L66.5896 38.8475L64.4699 38.8845ZM80.2286 38.8494C78.9755 38.8713 77.9369 38.5827 77.113 37.9837C76.2891 37.3846 75.8083 36.5796 75.6706 35.5685L77.8103 35.5311C77.9249 35.9825 78.185 36.3714 78.5908 36.6977C78.9963 37.0107 79.5257 37.1614 80.1789 37.15C80.8188 37.1389 81.2831 36.9974 81.5717 36.7257C81.8604 36.4539 82.0017 36.1447 81.9956 35.7981C81.9868 35.2915 81.7742 34.9552 81.3579 34.7891C80.9547 34.6095 80.3919 34.4526 79.6694 34.3185C79.1074 34.2083 78.5447 34.0581 77.9813 33.8679C77.4312 33.6775 76.9664 33.4055 76.5869 33.0521C76.2204 32.6851 76.0317 32.1883 76.0208 31.5618C76.0056 30.6952 76.3264 29.9695 76.9829 29.3846C77.6392 28.7864 78.5673 28.4769 79.7671 28.4559C80.8736 28.4366 81.7715 28.6876 82.4607 29.209C83.1632 29.7302 83.583 30.4763 83.7199 31.4474L81.6803 31.483C81.6061 31.0575 81.4004 30.7278 81.0629 30.4936C80.7388 30.2592 80.3034 30.1468 79.7568 30.1563C79.2236 30.1657 78.8123 30.2862 78.5229 30.5179C78.2334 30.7364 78.0916 31.0189 78.0977 31.3655C78.1037 31.7121 78.3084 31.9819 78.7119 32.1749C79.1286 32.3676 79.6717 32.5382 80.3411 32.6865C81.0102 32.8215 81.6264 32.9841 82.1898 33.1743C82.7664 33.351 83.2312 33.6229 83.5843 33.9901C83.9374 34.3574 84.1203 34.9009 84.1328 35.6208C84.162 36.5271 83.8219 37.2865 83.1124 37.899C82.4164 38.5112 81.4551 38.828 80.2286 38.8494ZM87.4917 26.6808C87.0918 26.6878 86.7564 26.5736 86.4856 26.3383C86.2279 26.0895 86.0957 25.7784 86.0892 25.4051C86.0827 25.0318 86.204 24.723 86.4531 24.4786C86.7153 24.2207 87.0464 24.0882 87.4463 24.0812C87.8463 24.0742 88.1751 24.1952 88.4328 24.4441C88.7036 24.6794 88.8423 24.9837 88.8488 25.3569C88.8553 25.7302 88.7275 26.0458 88.4653 26.3038C88.2162 26.5482 87.8916 26.6738 87.4917 26.6808ZM86.6378 38.4975L86.4647 28.579L88.5844 28.542L88.7575 38.4605L86.6378 38.4975ZM98.1137 38.2972L97.9113 26.699L95.6607 27.2583L95.6335 25.6986L98.7092 24.2847L100.069 24.261L100.313 38.2588L98.1137 38.2972ZM108.761 38.3514C107.494 38.3735 106.396 38.0926 105.465 37.5088C104.548 36.9114 103.834 36.0771 103.321 35.0058C102.822 33.921 102.56 32.6588 102.535 31.219C102.51 29.7792 102.728 28.5152 103.189 27.427C103.663 26.3252 104.348 25.4665 105.244 24.8507C106.154 24.2214 107.241 23.8957 108.508 23.8736C109.774 23.8515 110.866 24.1392 111.784 24.7366C112.701 25.3207 113.409 26.1551 113.908 27.2399C114.42 28.3111 114.688 29.5666 114.713 31.0064C114.739 32.4462 114.514 33.717 114.04 34.8187C113.579 35.907 112.9 36.7656 112.004 37.3947C111.108 38.0104 110.027 38.3293 108.761 38.3514ZM108.727 36.4517C109.487 36.4384 110.157 36.2134 110.736 35.7765C111.328 35.3395 111.784 34.7181 112.104 33.9124C112.423 33.1067 112.573 32.1506 112.554 31.0441C112.534 29.9376 112.351 28.9873 112.004 28.1933C111.657 27.3992 111.179 26.7941 110.572 26.378C109.978 25.9616 109.301 25.7601 108.541 25.7733C107.768 25.7868 107.092 26.012 106.513 26.4488C105.933 26.8857 105.484 27.5069 105.165 28.3126C104.846 29.1183 104.696 30.0744 104.715 31.1809C104.734 32.2874 104.917 33.2377 105.265 34.0318C105.612 34.8258 106.083 35.431 106.677 35.8474C107.271 36.2638 107.954 36.4652 108.727 36.4517ZM122.801 38.1063C121.535 38.1284 120.437 37.8476 119.506 37.2637C118.589 36.6663 117.874 35.832 117.362 34.7607C116.863 33.676 116.601 32.4137 116.576 30.9739C116.551 29.5341 116.769 28.2701 117.23 27.1819C117.704 26.0801 118.389 25.2214 119.285 24.6056C120.194 23.9763 121.282 23.6506 122.549 23.6285C123.815 23.6064 124.907 23.8941 125.824 24.4915C126.741 25.0756 127.449 25.91 127.948 26.9948C128.46 28.066 128.729 29.3215 128.754 30.7613C128.779 32.2011 128.555 33.4719 128.081 34.5737C127.62 35.6619 126.941 36.5205 126.045 37.1496C125.149 37.7653 124.068 38.0842 122.801 38.1063ZM122.768 36.2066C123.528 36.1934 124.198 35.9683 124.777 35.5315C125.369 35.0944 125.825 34.473 126.145 33.6673C126.464 32.8616 126.614 31.9055 126.595 30.799C126.575 29.6925 126.392 28.7422 126.045 27.9482C125.697 27.1541 125.22 26.549 124.613 26.1329C124.019 25.7165 123.342 25.515 122.582 25.5282C121.809 25.5417 121.133 25.7669 120.553 26.2037C119.974 26.6406 119.525 27.2619 119.206 28.0676C118.886 28.8732 118.736 29.8293 118.756 30.9358C118.775 32.0423 118.958 32.9926 119.306 33.7867C119.653 34.5807 120.123 35.186 120.717 35.6023C121.311 36.0187 121.995 36.2201 122.768 36.2066ZM140.357 37.5599C139.383 37.5769 138.606 37.357 138.025 36.9005C137.443 36.4305 137.142 35.589 137.121 34.3759L137.035 29.4766L135.335 29.5063L135.304 27.7265L137.004 27.6969L137.22 25.1727L139.08 25.1403L139.124 27.6599L141.923 27.611L141.954 29.3907L139.155 29.4396L139.24 34.3389C139.25 34.8854 139.37 35.2634 139.6 35.4727C139.844 35.6685 140.252 35.7614 140.825 35.7514L141.965 35.7315L141.996 37.5312L140.357 37.5599ZM145.276 25.6722C144.876 25.6792 144.541 25.565 144.27 25.3297C144.012 25.0808 143.88 24.7698 143.873 24.3965C143.867 24.0232 143.988 23.7144 144.237 23.47C144.499 23.212 144.831 23.0796 145.23 23.0726C145.63 23.0656 145.959 23.1866 146.217 23.4354C146.488 23.6707 146.626 23.975 146.633 24.3483C146.639 24.7216 146.512 25.0372 146.249 25.2952C146 25.5395 145.676 25.6652 145.276 25.6722ZM144.422 37.4889L144.249 27.5704L146.369 27.5334L146.542 37.4519L144.422 37.4889ZM149.34 37.4031L149.088 23.0053L151.208 22.9683L151.358 31.5469L155.086 27.3813L157.625 27.3369L153.485 31.9099L158.418 37.2446L155.739 37.2914L151.371 32.2868L151.459 37.3661L149.34 37.4031ZM163.943 37.3882C162.97 37.4052 162.099 37.207 161.332 36.7937C160.578 36.3668 159.981 35.7704 159.54 35.0047C159.1 34.2389 158.871 33.3428 158.853 32.3163C158.835 31.2764 159.026 30.3596 159.426 29.5658C159.838 28.7719 160.414 28.1484 161.153 27.6954C161.905 27.2422 162.781 27.0069 163.781 26.9894C164.754 26.9725 165.605 27.1776 166.332 27.605C167.06 28.019 167.63 28.5825 168.042 29.2954C168.455 30.0083 168.668 30.7981 168.684 31.6646C168.686 31.7979 168.682 31.9447 168.671 32.1049C168.674 32.2515 168.67 32.4183 168.66 32.6051L160.941 32.7399C161.025 33.6986 161.351 34.4263 161.919 34.9231C162.501 35.4064 163.165 35.6415 163.912 35.6285C164.512 35.618 165.01 35.476 165.405 35.2024C165.813 34.9152 166.113 34.5366 166.305 34.0665L168.425 34.0295C168.174 34.9673 167.655 35.7565 166.866 36.397C166.09 37.0373 165.116 37.3677 163.943 37.3882ZM163.792 28.7295C163.085 28.7419 162.462 28.9661 161.923 29.4022C161.384 29.825 161.061 30.4574 160.956 31.2994L166.555 31.2017C166.502 30.4292 166.218 29.8207 165.703 29.3763C165.189 28.9318 164.551 28.7163 163.792 28.7295ZM174.883 36.9572C173.909 36.9742 173.132 36.7544 172.551 36.2978C171.969 35.8279 171.668 34.9864 171.647 33.7732L171.561 28.8739L169.861 28.9036L169.83 27.1239L171.53 27.0942L171.746 24.5701L173.606 24.5376L173.65 27.0572L176.449 27.0084L176.48 28.7881L173.681 28.8369L173.766 33.7362C173.776 34.2828 173.896 34.6608 174.126 34.8701C174.37 35.0659 174.778 35.1588 175.351 35.1488L176.491 35.1289L176.522 36.9286L174.883 36.9572ZM183.923 41.2001L183.673 26.8823L185.573 26.8491L185.82 28.385C186.132 27.9128 186.564 27.4919 187.118 27.1222C187.671 26.7525 188.388 26.5599 189.268 26.5446C190.228 26.5278 191.078 26.7397 191.82 27.1801C192.561 27.6206 193.145 28.2305 193.572 29.0098C194.012 29.7889 194.241 30.6784 194.258 31.6783C194.276 32.6781 194.078 33.575 193.665 34.369C193.266 35.1494 192.703 35.7727 191.978 36.2388C191.252 36.6915 190.403 36.9263 189.43 36.9433C188.656 36.9568 187.967 36.8155 187.362 36.5194C186.77 36.223 186.296 35.7978 185.939 35.244L186.043 41.1631L183.923 41.2001ZM189.038 35.1099C189.944 35.0941 190.685 34.7744 191.261 34.1509C191.837 33.5141 192.116 32.6958 192.098 31.696C192.087 31.0427 191.944 30.4651 191.668 29.9632C191.393 29.4613 191.019 29.0744 190.548 28.8026C190.076 28.5174 189.534 28.3802 188.92 28.3909C188.014 28.4067 187.273 28.7331 186.697 29.3699C186.135 30.0064 185.862 30.818 185.879 31.8045C185.897 32.8044 186.198 33.6126 186.782 34.2291C187.379 34.8321 188.131 35.1257 189.038 35.1099ZM201.281 36.7365C200.308 36.7535 199.437 36.5553 198.67 36.1419C197.916 35.715 197.319 35.1187 196.879 34.3529C196.438 33.5872 196.209 32.691 196.191 31.6645C196.173 30.6247 196.364 29.7079 196.764 28.9141C197.176 28.1201 197.752 27.4966 198.491 27.0437C199.243 26.5905 200.119 26.3552 201.119 26.3377C202.092 26.3207 202.943 26.5259 203.67 26.9533C204.398 27.3673 204.968 27.9308 205.38 28.6437C205.793 29.3566 206.006 30.1463 206.022 31.0129C206.024 31.1462 206.02 31.2929 206.009 31.4531C206.012 31.5998 206.008 31.7665 205.998 31.9534L198.279 32.0881C198.363 33.0468 198.689 33.7746 199.257 34.2714C199.839 34.7547 200.504 34.9898 201.25 34.9767C201.85 34.9663 202.348 34.8242 202.743 34.5506C203.151 34.2634 203.451 33.8848 203.643 33.4147L205.763 33.3777C205.513 34.3156 204.993 35.1048 204.204 35.7453C203.428 36.3856 202.454 36.716 201.281 36.7365ZM201.13 28.0778C200.423 28.0901 199.8 28.3144 199.261 28.7505C198.722 29.1733 198.399 29.8057 198.294 30.6477L203.893 30.5499C203.84 29.7774 203.556 29.1689 203.041 28.7245C202.527 28.2801 201.89 28.0645 201.13 28.0778ZM208.315 36.3736L208.142 26.4552L210.042 26.422L210.255 28.2986C210.59 27.6393 211.061 27.1176 211.667 26.7337C212.287 26.3361 213.037 26.1297 213.917 26.1143L213.956 28.334L213.376 28.3441C212.789 28.3543 212.264 28.4635 211.801 28.6716C211.351 28.8662 210.99 29.1992 210.719 29.6707C210.46 30.1286 210.338 30.7642 210.352 31.5774L210.435 36.3366L208.315 36.3736ZM220.071 36.1684C219.098 36.1854 218.321 35.9656 217.739 35.509C217.158 35.0391 216.856 34.1976 216.835 32.9844L216.749 28.0852L215.05 28.1149L215.019 26.3351L216.718 26.3055L216.934 23.7813L218.794 23.7488L218.838 26.2685L221.638 26.2196L221.669 27.9993L218.869 28.0482L218.955 32.9474C218.964 33.494 219.084 33.872 219.315 34.0813C219.558 34.2771 219.966 34.37 220.54 34.36L221.679 34.3401L221.711 36.1398L220.071 36.1684ZM227.36 36.2812C226.52 36.2959 225.825 36.168 225.273 35.8976C224.722 35.6272 224.309 35.2677 224.034 34.8191C223.759 34.3571 223.617 33.8529 223.608 33.3063C223.591 32.3464 223.951 31.58 224.688 31.0071C225.424 30.4341 226.486 30.1356 227.872 30.1114L230.472 30.066L230.469 29.886C230.455 29.1128 230.232 28.5366 229.799 28.1575C229.379 27.7781 228.835 27.5942 228.169 27.6058C227.582 27.6161 227.072 27.7717 226.637 28.0726C226.215 28.36 225.962 28.7845 225.879 29.346L223.759 29.383C223.813 28.662 224.043 28.0446 224.447 27.5308C224.864 27.0034 225.391 26.6008 226.026 26.323C226.674 26.0317 227.385 25.8792 228.158 25.8657C229.545 25.8415 230.624 26.1894 231.397 26.9094C232.17 27.616 232.567 28.5959 232.589 29.849L232.695 35.9481L230.855 35.9802L230.646 34.2836C230.375 34.8351 229.977 35.3021 229.45 35.6847C228.923 36.0673 228.227 36.2661 227.36 36.2812ZM227.75 34.5542C228.323 34.5442 228.801 34.4025 229.183 34.1291C229.578 33.8422 229.878 33.4702 230.083 33.0132C230.302 32.556 230.433 32.0536 230.477 31.5061L228.118 31.5473C227.278 31.562 226.68 31.7191 226.326 32.0187C225.984 32.318 225.817 32.6876 225.825 33.1276C225.833 33.5808 226.006 33.9379 226.344 34.1987C226.695 34.4459 227.163 34.5644 227.75 34.5542ZM235.167 35.9049L234.993 25.9865L236.873 25.9536L237.078 27.3503C237.389 26.8381 237.802 26.4309 238.316 26.1285C238.845 25.8259 239.455 25.6685 240.148 25.6564C241.722 25.629 242.826 26.2298 243.46 27.4589C243.81 26.8794 244.282 26.4177 244.876 26.074C245.484 25.73 246.141 25.5518 246.847 25.5395C248.087 25.5179 249.067 25.8742 249.787 26.6084C250.506 27.3426 250.879 28.4496 250.905 29.9294L251.004 35.6285L248.884 35.6655L248.789 30.1863C248.755 28.2666 248.005 27.3196 246.539 27.3452C245.792 27.3582 245.184 27.6489 244.714 28.2172C244.257 28.7852 244.038 29.5892 244.056 30.629L244.145 35.7482L242.026 35.7852L241.93 30.3061C241.896 28.3864 241.14 27.4394 239.66 27.4652C238.927 27.478 238.325 27.7686 237.855 28.3369C237.398 28.9049 237.179 29.7089 237.197 30.7487L237.286 35.868L235.167 35.9049ZM256.848 35.7665C256.008 35.7812 255.312 35.6533 254.761 35.3829C254.209 35.1125 253.796 34.753 253.522 34.3044C253.247 33.8424 253.105 33.3382 253.095 32.7916C253.079 31.8317 253.439 31.0653 254.175 30.4924C254.912 29.9194 255.974 29.6209 257.36 29.5967L259.96 29.5513L259.957 29.3713C259.943 28.5981 259.72 28.0219 259.286 27.6427C258.866 27.2633 258.323 27.0795 257.657 27.0911C257.07 27.1013 256.559 27.2569 256.124 27.5579C255.703 27.8453 255.45 28.2698 255.367 28.8313L253.247 28.8683C253.301 28.1473 253.53 27.5299 253.935 27.016C254.352 26.4887 254.879 26.0861 255.514 25.8083C256.162 25.5169 256.873 25.3645 257.646 25.351C259.033 25.3268 260.112 25.6747 260.885 26.3947C261.657 27.1013 262.054 28.0812 262.076 29.3343L262.183 35.4334L260.343 35.4655L260.133 33.7689C259.863 34.3204 259.464 34.7874 258.938 35.17C258.411 35.5526 257.714 35.7514 256.848 35.7665ZM257.238 34.0395C257.811 34.0295 258.289 33.8878 258.671 33.6144C259.066 33.3275 259.366 32.9555 259.571 32.4985C259.79 32.0413 259.921 31.5389 259.965 30.9914L257.605 31.0326C256.765 31.0473 256.168 31.2044 255.813 31.5039C255.472 31.8033 255.305 32.1729 255.313 32.6129C255.32 33.0661 255.493 33.4232 255.831 33.684C256.182 33.9312 256.651 34.0497 257.238 34.0395ZM273.852 35.2297C272.879 35.2467 272.101 35.0269 271.52 34.5703C270.938 34.1004 270.637 33.2588 270.616 32.0457L270.53 27.1464L268.831 27.1761L268.8 25.3964L270.499 25.3667L270.715 22.8425L272.575 22.8101L272.619 25.3297L275.419 25.2808L275.45 27.0606L272.65 27.1094L272.736 32.0087C272.745 32.5553 272.865 32.9332 273.095 33.1426C273.339 33.3384 273.747 33.4312 274.32 33.4212L275.46 33.4013L275.492 35.2011L273.852 35.2297ZM282.167 35.3246C281.194 35.3416 280.323 35.1434 279.556 34.7301C278.802 34.3032 278.205 33.7068 277.765 32.9411C277.325 32.1753 277.096 31.2792 277.078 30.2526C277.059 29.2128 277.25 28.296 277.65 27.5022C278.063 26.7082 278.638 26.0848 279.377 25.6318C280.13 25.1786 281.006 24.9433 282.005 24.9258C282.979 24.9088 283.829 25.114 284.557 25.5414C285.284 25.9554 285.854 26.5189 286.266 27.2318C286.679 27.9447 286.893 28.7344 286.908 29.601C286.91 29.7343 286.906 29.8811 286.895 30.0413C286.898 30.1879 286.894 30.3547 286.884 30.5415L279.165 30.6763C279.249 31.635 279.575 32.3627 280.144 32.8595C280.725 33.3428 281.39 33.5779 282.136 33.5649C282.736 33.5544 283.234 33.4124 283.629 33.1387C284.037 32.8516 284.337 32.4729 284.529 32.0029L286.649 31.9659C286.399 32.9037 285.879 33.6929 285.09 34.3334C284.314 34.9737 283.34 35.3041 282.167 35.3246ZM282.016 26.6659C281.309 26.6782 280.686 26.9025 280.147 27.3386C279.608 27.7614 279.286 28.3938 279.18 29.2358L284.779 29.1381C284.726 28.3655 284.442 27.7571 283.927 27.3126C283.413 26.8682 282.776 26.6526 282.016 26.6659ZM289.201 34.9618L289.028 25.0433L290.928 25.0101L291.141 26.8867C291.476 26.2274 291.947 25.7058 292.554 25.3218C293.173 24.9243 293.923 24.7178 294.803 24.7024L294.842 26.9221L294.262 26.9322C293.675 26.9425 293.151 27.0516 292.687 27.2598C292.237 27.4543 291.877 27.7873 291.605 28.2588C291.346 28.7167 291.224 29.3523 291.238 30.1655L291.321 34.9248L289.201 34.9618ZM297.852 23.009C297.452 23.016 297.116 22.9018 296.846 22.6665C296.588 22.4176 296.456 22.1065 296.449 21.7333C296.443 21.36 296.564 21.0512 296.813 20.8068C297.075 20.5488 297.406 20.4164 297.806 20.4094C298.206 20.4024 298.535 20.5233 298.793 20.7722C299.064 21.0075 299.202 21.3118 299.209 21.6851C299.215 22.0584 299.087 22.374 298.825 22.6319C298.576 22.8763 298.252 23.002 297.852 23.009ZM294.975 39.2617L294.943 37.4619L295.723 37.4483C296.19 37.4402 296.522 37.3344 296.718 37.1309C296.915 36.9408 297.009 36.6191 297.001 36.1658L296.805 24.9075L298.924 24.8705L299.121 36.1488C299.14 37.2287 298.88 38.0066 298.342 38.4828C297.804 38.9723 297.048 39.2255 296.075 39.2425L294.975 39.2617ZM305.558 34.9163C304.359 34.9372 303.405 34.5805 302.699 33.846C302.006 33.1113 301.647 32.0041 301.621 30.5243L301.522 24.8252L303.641 24.7882L303.737 30.2674C303.77 32.1871 304.574 33.1332 306.147 33.1057C306.933 33.092 307.575 32.8008 308.072 32.232C308.569 31.6633 308.808 30.859 308.79 29.8191L308.701 24.6999L310.82 24.6629L310.993 34.5814L309.114 34.6142L308.923 32.8773C308.627 33.4958 308.183 33.9904 307.589 34.3608C307.008 34.7176 306.332 34.9028 305.558 34.9163ZM317.053 34.7156C316.214 34.7303 315.518 34.6024 314.966 34.332C314.415 34.0616 314.002 33.7021 313.727 33.2535C313.453 32.7915 313.311 32.2873 313.301 31.7407C313.284 30.7808 313.644 30.0144 314.381 29.4415C315.118 28.8685 316.179 28.57 317.566 28.5458L320.165 28.5004L320.162 28.3204C320.149 27.5472 319.925 26.971 319.492 26.5918C319.072 26.2125 318.529 26.0286 317.862 26.0402C317.276 26.0504 316.765 26.2061 316.33 26.507C315.908 26.7944 315.656 27.2189 315.572 27.7804L313.453 27.8174C313.507 27.0964 313.736 26.479 314.14 25.9652C314.558 25.4378 315.084 25.0352 315.719 24.7574C316.368 24.4661 317.079 24.3136 317.852 24.3001C319.238 24.2759 320.318 24.6238 321.091 25.3438C321.863 26.0504 322.26 27.0303 322.282 28.2834L322.388 34.3825L320.549 34.4146L320.339 32.718C320.069 33.2695 319.67 33.7365 319.143 34.1191C318.617 34.5017 317.92 34.7005 317.053 34.7156ZM317.443 32.9886C318.017 32.9786 318.494 32.8369 318.876 32.5635C319.271 32.2766 319.571 31.9046 319.777 31.4476C319.996 30.9904 320.127 30.488 320.171 29.9405L317.811 29.9817C316.971 29.9964 316.374 30.1535 316.019 30.4531C315.677 30.7524 315.511 31.122 315.518 31.562C315.526 32.0152 315.699 32.3723 316.037 32.6331C316.388 32.8803 316.857 32.9988 317.443 32.9886ZM324.86 34.3393L324.609 19.9415L326.728 19.9045L326.98 34.3023L324.86 34.3393Z" fill="white"/>
</g>
<defs>
<filter id="filter0_d_1_2162" x="0.340332" y="0.276733" width="348.319" height="65.4247" filterUnits="userSpaceOnUse" color-interpolation-filters="sRGB">
<feFlood flood-opacity="0" result="BackgroundImageFix"/>
<feColorMatrix in="SourceAlpha" type="matrix" values="0 0 0 0 0 0 0 0 0 0 0 0 0 0 0 0 0 0 127 0" result="hardAlpha"/>
<feOffset dx="3" dy="5"/>
<feComposite in2="hardAlpha" operator="out"/>
<feColorMatrix type="matrix" values="0 0 0 0 0.266667 0 0 0 0 0.121569 0 0 0 0 0.552941 0 0 0 1 0"/>
<feBlend mode="normal" in2="BackgroundImageFix" result="effect1_dropShadow_1_2162"/>
<feBlend mode="normal" in="SourceGraphic" in2="effect1_dropShadow_1_2162" result="shape"/>
</filter>
</defs>
</svg>
