<svg width="601" height="80" viewBox="0 0 601 80" fill="none" xmlns="http://www.w3.org/2000/svg">
<g filter="url(#filter0_d_1_2166)">
<path d="M1.81446 37.2266C1.50607 28.3954 8.41515 20.9863 17.2463 20.6779L578.904 1.06442C587.735 0.756029 595.144 7.66511 595.453 16.4963L596.186 37.4835C596.494 46.3147 589.585 53.7237 580.754 54.0321L19.096 73.6457C10.2648 73.954 2.85575 67.045 2.54735 58.2138L1.81446 37.2266Z" fill="#D84695" shape-rendering="crispEdges"/>
<path d="M578.887 0.564724C587.994 0.246696 595.634 7.37168 595.952 16.4788L596.685 37.466C597.003 46.5732 589.878 54.2138 580.771 54.5318L19.1134 74.1453C10.0063 74.4634 2.36569 67.3384 2.04766 58.2312L1.31477 37.244C0.996741 28.1369 8.12173 20.4963 17.2289 20.1782L578.887 0.564724Z" stroke="#821D54" shape-rendering="crispEdges"/>
<path d="M26.1302 53.628C24.8243 53.6736 23.6679 53.4138 22.6609 52.8486C21.6534 52.2701 20.8576 51.4507 20.2736 50.3904C19.6891 49.3168 19.372 48.0671 19.3222 46.6413C19.2724 45.2155 19.5016 43.9468 20.0098 42.835C20.5313 41.7228 21.2877 40.8425 22.279 40.1942C23.2836 39.5454 24.4789 39.1968 25.8647 39.1484C27.4371 39.0935 28.7562 39.4277 29.8221 40.1509C30.9013 40.8737 31.6174 41.896 31.9704 43.2178L30.0316 43.2855C29.8157 42.4526 29.3461 41.8019 28.6226 41.3335C27.9125 40.8647 27.0111 40.6493 25.9184 40.6875C24.8924 40.7233 24.0077 40.9877 23.2645 41.4806C22.5208 41.9602 21.9506 42.6338 21.554 43.5015C21.1707 44.3688 20.9997 45.3954 21.0412 46.5813C21.0826 47.7673 21.3247 48.7794 21.7676 49.6178C22.2104 50.4562 22.8064 51.0958 23.5556 51.5366C24.3043 51.964 25.1651 52.1608 26.1378 52.1268C27.6302 52.0747 28.7411 51.6023 29.4704 50.7096C30.1992 49.8037 30.5904 48.5893 30.6439 47.0665L26.6064 47.2075L26.5603 45.8883L32.3168 45.6872L32.5779 53.1627L31.0388 53.2164L30.8186 50.9227C30.3406 51.7532 29.7429 52.4012 29.0254 52.8665C28.3078 53.3318 27.3428 53.5857 26.1302 53.628ZM35.133 53.0735L34.7868 43.1595L36.3059 43.1065L36.5121 45.0004C36.7958 44.3368 37.244 43.8008 37.8568 43.3925C38.4696 42.9842 39.2357 42.764 40.1552 42.7319L40.2166 44.4908L39.7569 44.5069C39.1706 44.5273 38.6346 44.6528 38.149 44.8832C37.663 45.1003 37.282 45.4605 37.006 45.9638C36.7301 46.467 36.6073 47.1517 36.6375 48.0179L36.812 53.0148L35.133 53.0735ZM45.7006 52.9446C44.8744 52.9734 44.1833 52.8575 43.6272 52.5967C43.0711 52.336 42.6516 51.9771 42.3688 51.52C42.0861 51.0629 41.9351 50.5612 41.916 50.0149C41.8807 49.0022 42.2399 48.2091 42.9937 47.6358C43.7475 47.0625 44.7906 46.7526 46.1231 46.706L48.8015 46.6125L48.7973 46.4926C48.7671 45.6264 48.5177 44.9814 48.0493 44.5575C47.5804 44.1203 46.9662 43.9149 46.2067 43.9414C45.5538 43.9642 44.9933 44.1506 44.5252 44.5005C44.07 44.8366 43.7933 45.3198 43.6953 45.9503L41.9763 46.0103C42.0178 45.2884 42.2365 44.6738 42.6324 44.1663C43.0416 43.6584 43.5549 43.2669 44.1723 42.9919C44.7893 42.7035 45.4509 42.547 46.1571 42.5223C47.543 42.4739 48.5954 42.8107 49.3143 43.5327C50.0462 44.241 50.4335 45.208 50.4763 46.4339L50.6892 52.5302L49.1901 52.5826L49.028 50.8072C48.7677 51.3766 48.3714 51.8707 47.839 52.2896C47.3195 52.6946 46.6067 52.9129 45.7006 52.9446ZM45.9109 51.5164C46.5505 51.494 47.091 51.3084 47.5324 50.9594C47.9872 50.61 48.3252 50.1646 48.5464 49.6232C48.7677 49.0819 48.868 48.518 48.8476 47.9317L48.8469 47.9117L46.3084 48.0004C45.3223 48.0348 44.6288 48.2324 44.2278 48.5933C43.8397 48.9404 43.6545 49.3671 43.6722 49.8735C43.6903 50.3932 43.8915 50.8064 44.2758 51.1132C44.6729 51.4062 45.218 51.5406 45.9109 51.5164ZM56.8523 52.315C55.9462 52.3467 55.2256 52.1517 54.6906 51.7301C54.1555 51.3085 53.868 50.5247 53.828 49.3788L53.6374 43.9221L51.9185 43.9821L51.8689 42.563L53.5879 42.503L53.7247 40.1167L55.1838 40.0658L55.2668 42.4443L58.1851 42.3424L58.2346 43.7616L55.3164 43.8635L55.507 49.3201C55.5288 49.9464 55.6703 50.3684 55.9314 50.5861C56.192 50.7905 56.6421 50.8815 57.2817 50.8591L58.3211 50.8228L58.3714 52.262L56.8523 52.315ZM61.2607 40.0337C60.9276 40.0453 60.6441 39.9485 60.4101 39.7432C60.189 39.5241 60.0726 39.248 60.061 38.9149C60.0498 38.5951 60.1471 38.3248 60.3528 38.1042C60.5719 37.8831 60.848 37.7667 61.1812 37.7551C61.501 37.7439 61.7779 37.841 62.0118 38.0463C62.2458 38.2515 62.3684 38.5141 62.3795 38.8339C62.3912 39.167 62.2877 39.4508 62.0691 39.6853C61.85 39.9064 61.5805 40.0225 61.2607 40.0337ZM60.8442 52.1756L60.498 42.2617L62.177 42.203L62.5232 52.117L60.8442 52.1756ZM69.2526 52.1221C68.0667 52.1635 67.0702 51.8982 66.263 51.326C65.4559 50.7538 64.9678 49.957 64.7987 48.9356L66.5177 48.8756C66.6424 49.3916 66.9314 49.8351 67.3846 50.2062C67.8507 50.5634 68.4635 50.7288 69.2231 50.7023C69.9293 50.6776 70.4439 50.5129 70.7668 50.2081C71.0892 49.89 71.2432 49.5244 71.2288 49.1113C71.2078 48.5117 70.974 48.1196 70.5273 47.9351C70.0939 47.7501 69.4813 47.5914 68.6896 47.4589C68.1528 47.3709 67.6145 47.2363 67.0745 47.0551C66.5345 46.8738 66.0783 46.6096 65.706 46.2623C65.3332 45.9018 65.1363 45.4217 65.1154 44.8221C65.0851 43.9559 65.3803 43.2385 66.0008 42.6699C66.6342 42.0874 67.5039 41.7769 68.6099 41.7382C69.6626 41.7015 70.5313 41.938 71.2162 42.4477C71.9139 42.9437 72.3331 43.6761 72.4737 44.6452L70.8147 44.7031C70.7304 44.1991 70.4968 43.8136 70.1139 43.5468C69.7439 43.2663 69.2524 43.1367 68.6394 43.1581C68.0398 43.179 67.5778 43.3219 67.2535 43.5867C66.9426 43.851 66.7943 44.1898 66.8087 44.6028C66.8227 45.0026 67.0402 45.3085 67.4612 45.5206C67.8955 45.7323 68.4752 45.9055 69.2004 46.0402C69.818 46.1521 70.4034 46.2984 70.9567 46.4792C71.5229 46.6462 71.986 46.9169 72.3459 47.2912C72.7187 47.6518 72.9177 48.1918 72.9428 48.9114C72.9873 49.8037 72.6734 50.5551 72.0009 51.1656C71.3414 51.7623 70.4253 52.0812 69.2526 52.1221ZM80.7302 51.4812L80.384 41.5672L81.9031 41.5142L82.0733 42.9491C82.3745 42.4049 82.7865 41.977 83.3092 41.6652C83.832 41.3534 84.4265 41.1859 85.0928 41.1626C85.879 41.1352 86.5575 41.2716 87.1283 41.5718C87.7125 41.8716 88.1692 42.3427 88.4985 42.9849C88.824 42.3732 89.2805 41.8836 89.868 41.5162C90.4689 41.1483 91.1224 40.9521 91.8287 40.9274C93.0146 40.886 93.9733 41.2127 94.7046 41.9076C95.4355 42.5892 95.8268 43.6696 95.8785 45.1487L96.0809 50.9451L94.4219 51.0031L94.2258 45.3865C94.1899 44.3604 93.9564 43.5948 93.5252 43.0895C93.0939 42.5843 92.4919 42.3451 91.719 42.3721C90.9195 42.4 90.2642 42.7365 89.7531 43.3813C89.2548 44.0125 89.0256 44.901 89.0657 46.047L89.245 51.1838L87.5661 51.2425L87.3699 45.6259C87.3341 44.5998 87.1006 43.8342 86.6693 43.3289C86.2381 42.8237 85.6361 42.5845 84.8632 42.6115C84.077 42.639 83.4284 42.9752 82.9172 43.6201C82.4189 44.2512 82.1898 45.1397 82.2298 46.2857L82.4092 51.4225L80.7302 51.4812ZM101.916 50.9815C101.09 51.0103 100.399 50.8944 99.8429 50.6336C99.2868 50.3729 98.8674 50.014 98.5846 49.5569C98.3018 49.0998 98.1509 48.5981 98.1318 48.0518C98.0964 47.0391 98.4556 46.246 99.2094 45.6727C99.9632 45.0994 101.006 44.7895 102.339 44.7429L105.017 44.6494L105.013 44.5295C104.983 43.6633 104.733 43.0183 104.265 42.5944C103.796 42.1572 103.182 41.9518 102.422 41.9783C101.769 42.0011 101.209 42.1875 100.741 42.5374C100.286 42.8735 100.009 43.3567 99.911 43.9872L98.1921 44.0472C98.2336 43.3253 98.4522 42.7107 98.8481 42.2032C99.2573 41.6953 99.7706 41.3038 100.388 41.0288C101.005 40.7404 101.667 40.5839 102.373 40.5592C103.759 40.5108 104.811 40.8476 105.53 41.5696C106.262 42.2779 106.649 43.2449 106.692 44.4709L106.905 50.5671L105.406 50.6195L105.244 48.8441C104.983 49.4135 104.587 49.9076 104.055 50.3265C103.535 50.7315 102.822 50.9498 101.916 50.9815ZM102.127 49.5533C102.766 49.5309 103.307 49.3453 103.748 48.9963C104.203 48.6469 104.541 48.2015 104.762 47.6601C104.983 47.1188 105.084 46.5549 105.063 45.9686L105.063 45.9486L102.524 46.0373C101.538 46.0717 100.845 46.2694 100.444 46.6302C100.055 46.9773 99.8702 47.404 99.8879 47.9104C99.9061 48.4301 100.107 48.8433 100.492 49.1501C100.889 49.4431 101.434 49.5775 102.127 49.5533ZM113.068 50.3519C112.162 50.3836 111.441 50.1886 110.906 49.767C110.371 49.3454 110.084 48.5616 110.044 47.4157L109.853 41.959L108.134 42.019L108.085 40.5999L109.804 40.5399L109.94 38.1536L111.4 38.1027L111.483 40.4812L114.401 40.3793L114.45 41.7985L111.532 41.9004L111.723 47.357C111.745 47.9833 111.886 48.4053 112.147 48.623C112.408 48.8274 112.858 48.9184 113.497 48.896L114.537 48.8597L114.587 50.2989L113.068 50.3519ZM121.072 50.3125C120.126 50.3456 119.279 50.1617 118.532 49.7609C117.783 49.3467 117.183 48.7607 116.729 48.0027C116.289 47.2443 116.051 46.3387 116.014 45.286C115.978 44.2466 116.153 43.3333 116.539 42.546C116.924 41.7454 117.476 41.1191 118.194 40.6671C118.925 40.2013 119.777 39.9514 120.749 39.9175C121.709 39.884 122.543 40.075 123.251 40.4905C123.972 40.8923 124.532 41.4397 124.929 42.133C125.327 42.8262 125.54 43.5792 125.569 44.392C125.574 44.5386 125.572 44.6854 125.564 44.8325C125.569 44.979 125.575 45.1456 125.581 45.3321L117.686 45.6079C117.753 46.366 117.948 46.9929 118.272 47.4885C118.609 47.9704 119.015 48.3298 119.491 48.5667C119.979 48.8031 120.49 48.912 121.023 48.8934C121.716 48.8692 122.29 48.6891 122.745 48.353C123.2 48.0169 123.525 47.5719 123.719 47.0182L125.378 46.9602C125.144 47.889 124.657 48.6731 123.919 49.3126C123.194 49.9383 122.245 50.2716 121.072 50.3125ZM120.759 41.338C119.96 41.3659 119.255 41.6373 118.646 42.1522C118.05 42.6534 117.722 43.3719 117.661 44.3079L123.897 44.0902C123.826 43.1988 123.495 42.5099 122.904 42.0236C122.314 41.5372 121.599 41.3087 120.759 41.338ZM127.987 49.8309L127.64 39.917L129.159 39.8639L129.366 41.7579C129.649 41.0943 130.098 40.5583 130.71 40.15C131.323 39.7417 132.089 39.5215 133.009 39.4894L133.07 41.2483L132.61 41.2644C132.024 41.2848 131.488 41.4103 131.003 41.6407C130.517 41.8578 130.136 42.218 129.86 42.7212C129.584 43.2245 129.461 43.9092 129.491 44.7754L129.666 49.7723L127.987 49.8309ZM135.844 37.4292C135.511 37.4408 135.228 37.344 134.994 37.1387C134.772 36.9196 134.656 36.6435 134.644 36.3104C134.633 35.9905 134.731 35.7203 134.936 35.4997C135.155 35.2786 135.431 35.1622 135.765 35.1506C136.084 35.1394 136.361 35.2364 136.595 35.4417C136.829 35.647 136.952 35.9096 136.963 36.2294C136.975 36.5625 136.871 36.8463 136.653 37.0807C136.433 37.3019 136.164 37.418 135.844 37.4292ZM135.428 49.5711L135.081 39.6571L136.76 39.5985L137.107 49.5125L135.428 49.5711ZM145.473 53.623L144.974 39.3117L146.493 39.2587L146.71 40.8921C147.013 40.4012 147.451 39.9523 148.024 39.5454C148.61 39.138 149.363 38.9183 150.282 38.8862C151.268 38.8517 152.135 39.0483 152.884 39.4757C153.633 39.9032 154.221 40.503 154.648 41.2753C155.089 42.047 155.326 42.9326 155.361 43.932C155.396 44.9314 155.221 45.8314 154.835 46.632C154.462 47.4188 153.911 48.0518 153.18 48.5309C152.463 48.9962 151.611 49.2461 150.625 49.2805C149.812 49.3089 149.08 49.1677 148.429 48.8569C147.791 48.5457 147.295 48.096 146.941 47.508L147.152 53.5643L145.473 53.623ZM150.394 47.8277C151.06 47.8044 151.641 47.6307 152.137 47.3066C152.632 46.9691 153.017 46.5154 153.29 45.9455C153.564 45.3756 153.688 44.7175 153.661 43.9713C153.635 43.2251 153.466 42.5773 153.153 42.0279C152.841 41.4785 152.426 41.0594 151.909 40.7706C151.391 40.4684 150.799 40.329 150.133 40.3523C149.467 40.3755 148.886 40.5559 148.391 40.8934C147.895 41.2176 147.511 41.6646 147.237 42.2345C146.963 42.8044 146.84 43.4624 146.866 44.2087C146.892 44.9549 147.061 45.6027 147.374 46.1521C147.686 46.7015 148.102 47.1273 148.619 47.4294C149.136 47.7182 149.728 47.851 150.394 47.8277ZM157.871 48.7874L157.525 38.8734L159.044 38.8204L159.25 40.7143C159.533 40.0507 159.982 39.5147 160.595 39.1064C161.207 38.6981 161.973 38.4779 162.893 38.4458L162.954 40.2047L162.495 40.2208C161.908 40.2413 161.372 40.3667 160.887 40.5971C160.401 40.8142 160.02 41.1744 159.744 41.6777C159.468 42.1809 159.345 42.8656 159.375 43.7318L159.55 48.7287L157.871 48.7874ZM169.287 48.6289C168.354 48.6614 167.507 48.4775 166.746 48.0772C165.985 47.6769 165.371 47.0979 164.904 46.3404C164.45 45.5691 164.205 44.6571 164.168 43.6044C164.131 42.5517 164.319 41.6313 164.732 40.8431C165.144 40.0415 165.716 39.4145 166.448 38.9621C167.192 38.5091 168.031 38.2664 168.964 38.2338C169.896 38.2012 170.743 38.3851 171.504 38.7855C172.266 39.1858 172.873 39.7716 173.327 40.5429C173.794 41.3004 174.045 42.2055 174.082 43.2582C174.119 44.3109 173.931 45.238 173.519 46.0396C173.106 46.8278 172.527 47.4484 171.783 47.9013C171.051 48.3538 170.219 48.5963 169.287 48.6289ZM169.236 47.1897C169.809 47.1697 170.338 47.0112 170.821 46.7142C171.304 46.4171 171.689 45.9834 171.976 45.413C172.263 44.8427 172.392 44.1444 172.363 43.3183C172.334 42.4921 172.157 41.8045 171.831 41.2556C171.518 40.7062 171.11 40.3001 170.608 40.0375C170.105 39.7749 169.574 39.6534 169.014 39.6729C168.441 39.6929 167.913 39.8515 167.43 40.1485C166.946 40.4456 166.561 40.8793 166.274 41.4496C165.987 42.02 165.858 42.7182 165.887 43.5444C165.916 44.3706 166.093 45.0581 166.419 45.6071C166.745 46.156 167.153 46.5621 167.643 46.8251C168.146 47.0877 168.677 47.2093 169.236 47.1897ZM176.59 48.1337L176.244 38.2197L177.763 38.1667L177.933 39.6016C178.234 39.0574 178.646 38.6295 179.169 38.3177C179.692 38.0059 180.286 37.8384 180.952 37.8151C181.739 37.7877 182.417 37.9241 182.988 38.2244C183.572 38.5242 184.029 38.9952 184.358 39.6374C184.684 39.0257 185.14 38.5361 185.728 38.1687C186.328 37.8009 186.982 37.6046 187.688 37.5799C188.874 37.5385 189.833 37.8653 190.564 38.5602C191.295 39.2417 191.686 40.3221 191.738 41.8012L191.94 47.5976L190.281 47.6556L190.085 42.039C190.049 41.0129 189.816 40.2473 189.385 39.742C188.953 39.2368 188.351 38.9976 187.579 39.0246C186.779 39.0526 186.124 39.389 185.613 40.0339C185.114 40.665 184.885 41.5535 184.925 42.6995L185.105 47.8363L183.426 47.895L183.229 42.2784C183.194 41.2524 182.96 40.4867 182.529 39.9814C182.098 39.4762 181.496 39.2371 180.723 39.264C179.937 39.2915 179.288 39.6277 178.777 40.2726C178.278 40.9037 178.049 41.7922 178.089 42.9382L178.269 48.0751L176.59 48.1337ZM198.995 47.5914C198.062 47.624 197.215 47.4401 196.454 47.0398C195.693 46.6394 195.079 46.0605 194.613 45.303C194.159 44.5317 193.913 43.6197 193.877 42.567C193.84 41.5143 194.028 40.5938 194.441 39.8056C194.853 39.0041 195.425 38.3771 196.156 37.9246C196.901 37.4717 197.739 37.2289 198.672 37.1964C199.605 37.1638 200.452 37.3477 201.213 37.748C201.974 38.1484 202.582 38.7342 203.035 39.5055C203.502 40.263 203.754 41.1681 203.791 42.2208C203.827 43.2735 203.64 44.2006 203.227 45.0021C202.815 45.7904 202.236 46.4109 201.491 46.8639C200.76 47.3163 199.928 47.5588 198.995 47.5914ZM198.945 46.1523C199.518 46.1323 200.046 45.9738 200.529 45.6767C201.012 45.3797 201.398 44.946 201.685 44.3756C201.971 43.8052 202.101 43.107 202.072 42.2808C202.043 41.4547 201.865 40.7671 201.539 40.2181C201.227 39.6687 200.819 39.2627 200.316 39.0001C199.813 38.7375 199.282 38.6159 198.722 38.6355C198.149 38.6555 197.621 38.814 197.138 39.1111C196.655 39.4081 196.27 39.8418 195.983 40.4122C195.696 40.9825 195.567 41.6808 195.596 42.507C195.624 43.3331 195.802 44.0207 196.128 44.5696C196.454 45.1186 196.862 45.5246 197.351 45.7877C197.854 46.0503 198.385 46.1718 198.945 46.1523ZM210.104 47.2035C208.918 47.2449 207.922 46.9795 207.115 46.4073C206.308 45.8352 205.819 45.0384 205.65 44.017L207.369 43.957C207.494 44.4729 207.783 44.9164 208.236 45.2875C208.702 45.6448 209.315 45.8102 210.075 45.7836C210.781 45.759 211.296 45.5943 211.618 45.2895C211.941 44.9714 212.095 44.6058 212.08 44.1927C212.059 43.593 211.826 43.201 211.379 43.0164C210.946 42.8315 210.333 42.6727 209.541 42.5403C209.004 42.4523 208.466 42.3177 207.926 42.1364C207.386 41.9551 206.93 41.6909 206.558 41.3437C206.185 40.9831 205.988 40.5031 205.967 39.9034C205.937 39.0373 206.232 38.3199 206.852 37.7512C207.486 37.1687 208.356 36.8582 209.462 36.8196C210.514 36.7828 211.383 37.0193 212.068 37.5291C212.766 38.025 213.185 38.7575 213.325 39.7265L211.666 39.7844C211.582 39.2804 211.348 38.895 210.966 38.6282C210.596 38.3476 210.104 38.218 209.491 38.2394C208.891 38.2604 208.429 38.4032 208.105 38.668C207.794 38.9324 207.646 39.2711 207.66 39.6842C207.674 40.0839 207.892 40.3899 208.313 40.602C208.747 40.8136 209.327 40.9868 210.052 41.1216C210.67 41.2334 211.255 41.3798 211.808 41.5606C212.375 41.7276 212.838 41.9982 213.198 42.3726C213.57 42.7331 213.769 43.2732 213.794 43.9927C213.839 44.8851 213.525 45.6365 212.853 46.247C212.193 46.8437 211.277 47.1625 210.104 47.2035ZM216.889 34.599C216.555 34.6107 216.272 34.5138 216.038 34.3085C215.817 34.0895 215.7 33.8134 215.689 33.4802C215.678 33.1604 215.775 32.8902 215.981 32.6695C216.2 32.4484 216.476 32.3321 216.809 32.3204C217.129 32.3093 217.406 32.4063 217.64 32.6116C217.874 32.8169 217.996 33.0795 218.007 33.3993C218.019 33.7324 217.915 34.0162 217.697 34.2506C217.478 34.4717 217.208 34.5879 216.889 34.599ZM216.472 46.741L216.126 36.827L217.805 36.7684L218.151 46.6823L216.472 46.741ZM221.658 46.6599C221.324 46.6716 221.041 46.5748 220.807 46.3695C220.586 46.1504 220.47 45.8809 220.458 45.5611C220.447 45.2413 220.545 44.9711 220.75 44.7504C220.969 44.516 221.245 44.393 221.578 44.3813C221.898 44.3702 222.168 44.4741 222.389 44.6932C222.623 44.8985 222.746 45.1611 222.757 45.4809C222.768 45.8007 222.664 46.0778 222.446 46.3122C222.24 46.5329 221.977 46.6488 221.658 46.6599ZM221.379 38.6848C221.046 38.6964 220.762 38.5996 220.528 38.3943C220.307 38.1752 220.191 37.9058 220.18 37.586C220.169 37.2662 220.266 36.996 220.472 36.7753C220.69 36.5409 220.966 36.4178 221.299 36.4062C221.619 36.395 221.89 36.499 222.111 36.7181C222.345 36.9234 222.467 37.1859 222.479 37.5057C222.49 37.8255 222.386 38.1026 222.167 38.3371C221.962 38.5577 221.699 38.6736 221.379 38.6848ZM230.5 50.6538L230 36.3425L231.519 36.2895L231.736 37.9229C232.039 37.432 232.477 36.9831 233.05 36.5762C233.636 36.1688 234.389 35.9491 235.308 35.917C236.294 35.8826 237.162 36.0791 237.91 36.5065C238.659 36.934 239.247 37.5339 239.674 38.3061C240.115 39.0778 240.353 39.9634 240.387 40.9628C240.422 41.9622 240.247 42.8622 239.861 43.6628C239.489 44.4496 238.937 45.0826 238.207 45.5617C237.489 46.027 236.637 46.2769 235.651 46.3114C234.838 46.3397 234.106 46.1985 233.455 45.8877C232.817 45.5765 232.321 45.1269 231.967 44.5389L232.179 50.5952L230.5 50.6538ZM235.42 44.8585C236.087 44.8353 236.668 44.6616 237.163 44.3374C237.658 43.9999 238.043 43.5462 238.316 42.9763C238.59 42.4064 238.714 41.7484 238.688 41.0022C238.662 40.2559 238.492 39.6081 238.18 39.0587C237.867 38.5093 237.452 38.0902 236.935 37.8014C236.417 37.4993 235.826 37.3598 235.159 37.3831C234.493 37.4064 233.912 37.5867 233.417 37.9242C232.921 38.2484 232.537 38.6954 232.263 39.2653C231.99 39.8352 231.866 40.4933 231.892 41.2395C231.918 41.9857 232.087 42.6335 232.4 43.1829C232.713 43.7323 233.128 44.1581 233.645 44.4602C234.162 44.749 234.754 44.8818 235.42 44.8585ZM247.423 45.9003C246.49 45.9329 245.643 45.749 244.882 45.3486C244.121 44.9483 243.507 44.3694 243.04 43.6118C242.586 42.8406 242.341 41.9286 242.304 40.8759C242.267 39.8232 242.455 38.9027 242.868 38.1145C243.28 37.313 243.852 36.686 244.584 36.2335C245.328 35.7806 246.167 35.5378 247.1 35.5052C248.032 35.4727 248.879 35.6565 249.64 36.0569C250.402 36.4572 251.009 37.0431 251.463 37.8144C251.93 38.5719 252.181 39.477 252.218 40.5297C252.255 41.5824 252.067 42.5095 251.655 43.311C251.242 44.0992 250.663 44.7198 249.919 45.1727C249.187 45.6252 248.355 45.8677 247.423 45.9003ZM247.372 44.4612C247.945 44.4412 248.473 44.2826 248.957 43.9856C249.44 43.6885 249.825 43.2548 250.112 42.6845C250.399 42.1141 250.528 41.4159 250.499 40.5897C250.47 39.7635 250.293 39.076 249.967 38.527C249.654 37.9776 249.246 37.5716 248.744 37.309C248.241 37.0463 247.71 36.9248 247.15 36.9444C246.577 36.9644 246.049 37.1229 245.566 37.4199C245.082 37.717 244.697 38.1507 244.41 38.7211C244.123 39.2914 243.994 39.9897 244.023 40.8158C244.052 41.642 244.229 42.3296 244.555 42.8785C244.881 43.4275 245.289 43.8335 245.779 44.0966C246.281 44.3592 246.813 44.4807 247.372 44.4612ZM258.532 45.5124C257.346 45.5538 256.349 45.2884 255.542 44.7162C254.735 44.144 254.247 43.3472 254.078 42.3259L255.797 42.2658C255.922 42.7818 256.211 43.2253 256.664 43.5964C257.13 43.9537 257.743 44.119 258.502 44.0925C259.208 44.0679 259.723 43.9031 260.046 43.5983C260.368 43.2802 260.522 42.9146 260.508 42.5016C260.487 41.9019 260.253 41.5098 259.806 41.3253C259.373 41.1403 258.76 40.9816 257.969 40.8492C257.432 40.7612 256.894 40.6265 256.354 40.4453C255.814 40.264 255.357 39.9998 254.985 39.6526C254.612 39.292 254.415 38.8119 254.395 38.2123C254.364 37.3462 254.659 36.6288 255.28 36.0601C255.913 35.4776 256.783 35.1671 257.889 35.1285C258.942 35.0917 259.81 35.3282 260.495 35.8379C261.193 36.3339 261.612 37.0664 261.753 38.0354L260.094 38.0933C260.01 37.5893 259.776 37.2039 259.393 36.9371C259.023 36.6565 258.532 36.5269 257.919 36.5483C257.319 36.5692 256.857 36.7121 256.533 36.9769C256.222 37.2413 256.073 37.58 256.088 37.9931C256.102 38.3928 256.319 38.6987 256.74 38.9109C257.175 39.1225 257.754 39.2957 258.48 39.4305C259.097 39.5423 259.683 39.6886 260.236 39.8694C260.802 40.0365 261.265 40.3071 261.625 40.6815C261.998 41.042 262.197 41.5821 262.222 42.3016C262.267 43.1939 261.953 43.9454 261.28 44.5559C260.621 45.1526 259.704 45.4714 258.532 45.5124ZM268.188 44.935C267.282 44.9666 266.562 44.7717 266.027 44.3501C265.492 43.9285 265.204 43.1447 265.164 41.9988L264.973 36.5421L263.254 36.6021L263.205 35.183L264.924 35.1229L265.061 32.7367L266.52 32.6858L266.603 35.0643L269.521 34.9624L269.571 36.3815L266.652 36.4834L266.843 41.9401C266.865 42.5664 267.006 42.9884 267.267 43.2061C267.528 43.4104 267.978 43.5015 268.618 43.4791L269.657 43.4428L269.707 44.8819L268.188 44.935ZM276.193 44.8956C275.247 44.9287 274.4 44.7448 273.652 44.344C272.904 43.9298 272.303 43.3438 271.849 42.5858C271.409 41.8274 271.171 40.9218 271.134 39.8691C271.098 38.8297 271.273 37.9164 271.659 37.1291C272.045 36.3285 272.596 35.7022 273.314 35.2502C274.045 34.7844 274.897 34.5345 275.87 34.5006C276.829 34.4671 277.663 34.6581 278.371 35.0736C279.092 35.4754 279.652 36.0228 280.05 36.716C280.447 37.4092 280.66 38.1623 280.689 38.9751C280.694 39.1217 280.692 39.2685 280.684 39.4155C280.689 39.5621 280.695 39.7287 280.702 39.9152L272.807 40.1909C272.873 40.9491 273.068 41.576 273.392 42.0716C273.73 42.5535 274.136 42.9129 274.611 43.1498C275.099 43.3862 275.61 43.4951 276.143 43.4765C276.836 43.4523 277.41 43.2721 277.865 42.9361C278.321 42.6 278.645 42.155 278.839 41.6012L280.498 41.5433C280.264 42.4721 279.778 43.2562 279.04 43.8957C278.314 44.5214 277.365 44.8547 276.193 44.8956ZM275.879 35.9211C275.08 35.949 274.376 36.2204 273.766 36.7353C273.17 37.2364 272.842 37.955 272.781 38.891L279.017 38.6733C278.946 37.7819 278.615 37.093 278.025 36.6066C277.434 36.1203 276.719 35.8918 275.879 35.9211ZM283.107 44.414L282.761 34.5001L284.28 34.447L284.486 36.341C284.77 35.6773 285.218 35.1414 285.831 34.7331C286.443 34.3248 287.21 34.1046 288.129 34.0725L288.19 35.8314L287.731 35.8474C287.144 35.8679 286.608 35.9934 286.123 36.2238C285.637 36.4409 285.256 36.8011 284.98 37.3043C284.704 37.8076 284.581 38.4923 284.611 39.3584L284.786 44.3554L283.107 44.414ZM288.487 46.6076L289.492 42.1498L291.231 42.0891L289.647 46.5671L288.487 46.6076ZM301.444 43.7737L297.34 33.9909L299.099 33.9295L302.367 42.1205L305.075 33.7208L306.794 33.6608L303.383 43.706L301.444 43.7737ZM309.605 31.3613C309.272 31.3729 308.989 31.2761 308.755 31.0708C308.534 30.8517 308.417 30.5756 308.406 30.2425C308.395 29.9227 308.492 29.6524 308.698 29.4318C308.917 29.2107 309.193 29.0943 309.526 29.0827C309.846 29.0715 310.123 29.1686 310.357 29.3739C310.591 29.5792 310.713 29.8417 310.724 30.1615C310.736 30.4946 310.632 30.7784 310.414 31.0129C310.195 31.234 309.925 31.3501 309.605 31.3613ZM309.189 43.5032L308.843 33.5893L310.522 33.5306L310.868 43.4446L309.189 43.5032ZM318.297 43.4253C317.311 43.4597 316.437 43.2635 315.675 42.8365C314.926 42.409 314.331 41.8094 313.891 41.0376C313.464 40.2654 313.233 39.3796 313.198 38.3802C313.163 37.3808 313.338 36.4875 313.725 35.7002C314.11 34.8996 314.662 34.2666 315.379 33.8013C316.096 33.3226 316.955 33.0658 317.954 33.0309C318.767 33.0026 319.492 33.144 320.13 33.4553C320.768 33.7665 321.271 34.2159 321.638 34.8035L321.424 28.6672L323.103 28.6086L323.605 42.9998L322.086 43.0528L321.869 41.4194C321.566 41.9103 321.121 42.3594 320.535 42.7668C319.949 43.1742 319.203 43.3937 318.297 43.4253ZM318.426 41.9599C319.092 41.9367 319.673 41.7629 320.169 41.4388C320.677 41.1008 321.062 40.6471 321.322 40.0777C321.596 39.5078 321.719 38.8497 321.693 38.1035C321.667 37.3573 321.498 36.7095 321.185 36.1601C320.886 35.6102 320.471 35.1911 319.941 34.9028C319.423 34.6006 318.831 34.4612 318.165 34.4845C317.512 34.5073 316.931 34.6877 316.423 35.0256C315.927 35.3498 315.542 35.7968 315.269 36.3667C315.008 36.9361 314.891 37.5939 314.917 38.3402C314.943 39.0864 315.106 39.7344 315.406 40.2843C315.718 40.8337 316.133 41.2595 316.651 41.5616C317.181 41.85 317.773 41.9827 318.426 41.9599ZM330.808 42.9884C329.862 43.0215 329.015 42.8376 328.267 42.4368C327.519 42.0226 326.918 41.4366 326.465 40.6786C326.025 39.9201 325.786 39.0146 325.749 37.9619C325.713 36.9225 325.888 36.0092 326.274 35.2219C326.66 34.4213 327.212 33.795 327.93 33.343C328.66 32.8772 329.512 32.6273 330.485 32.5934C331.444 32.5599 332.278 32.7509 332.986 33.1664C333.708 33.5681 334.267 34.1156 334.665 34.8088C335.063 35.502 335.276 36.2551 335.304 37.0679C335.309 37.2145 335.308 37.3613 335.299 37.5083C335.305 37.6549 335.31 37.8215 335.317 38.008L327.422 38.2837C327.488 39.0419 327.683 39.6688 328.008 40.1644C328.345 40.6463 328.751 41.0057 329.226 41.2426C329.715 41.479 330.225 41.5879 330.758 41.5693C331.451 41.5451 332.025 41.3649 332.481 41.0288C332.936 40.6928 333.26 40.2478 333.455 39.694L335.114 39.6361C334.879 40.5649 334.393 41.349 333.655 41.9885C332.929 42.6141 331.981 42.9475 330.808 42.9884ZM330.495 34.0139C329.695 34.0418 328.991 34.3132 328.382 34.8281C327.785 35.3292 327.457 36.0478 327.396 36.9838L333.632 36.7661C333.561 35.8747 333.23 35.1858 332.64 34.6994C332.049 34.2131 331.334 33.9846 330.495 34.0139ZM342.248 42.5889C341.315 42.6215 340.468 42.4376 339.707 42.0373C338.946 41.6369 338.332 41.058 337.865 40.3005C337.411 39.5292 337.166 38.6172 337.129 37.5645C337.092 36.5118 337.28 35.5914 337.693 34.8031C338.105 34.0016 338.677 33.3746 339.409 32.9221C340.153 32.4692 340.992 32.2264 341.925 32.1939C342.857 32.1613 343.704 32.3452 344.465 32.7455C345.227 33.1459 345.834 33.7317 346.288 34.503C346.755 35.2605 347.006 36.1656 347.043 37.2183C347.08 38.271 346.892 39.1981 346.48 39.9997C346.067 40.7879 345.488 41.4084 344.744 41.8614C344.012 42.3138 343.18 42.5564 342.248 42.5889ZM342.197 41.1498C342.77 41.1298 343.299 40.9713 343.782 40.6742C344.265 40.3772 344.65 39.9435 344.937 39.3731C345.224 38.8028 345.353 38.1045 345.324 37.2783C345.295 36.4522 345.118 35.7646 344.792 35.2156C344.479 34.6662 344.071 34.2602 343.569 33.9976C343.066 33.735 342.535 33.6134 341.975 33.633C341.402 33.653 340.874 33.8115 340.391 34.1086C339.907 34.4056 339.522 34.8393 339.235 35.4097C338.948 35.9801 338.819 36.6783 338.848 37.5045C338.877 38.3306 339.054 39.0182 339.38 39.5672C339.706 40.1161 340.114 40.5221 340.604 40.7852C341.107 41.0478 341.638 41.1694 342.197 41.1498ZM348.295 44.5191L349.3 40.0613L351.039 40.0006L349.454 44.4786L348.295 44.5191ZM362.899 41.8678C361.913 41.9022 361.039 41.7059 360.277 41.2789C359.528 40.8515 358.933 40.2519 358.493 39.4801C358.065 38.7079 357.834 37.8221 357.799 36.8227C357.765 35.8233 357.94 34.9299 358.326 34.1427C358.712 33.342 359.263 32.7091 359.981 32.2437C360.698 31.7651 361.556 31.5083 362.556 31.4734C363.369 31.445 364.094 31.5865 364.732 31.8977C365.37 32.209 365.872 32.6584 366.24 33.2459L366.026 27.1097L367.704 27.051L368.207 41.4423L366.688 41.4953L366.471 39.8619C366.168 40.3528 365.723 40.8019 365.137 41.2093C364.551 41.6166 363.805 41.8361 362.899 41.8678ZM363.028 40.4024C363.694 40.3791 364.275 40.2054 364.77 39.8812C365.279 39.5433 365.663 39.0896 365.924 38.5202C366.197 37.9503 366.321 37.2922 366.295 36.546C366.269 35.7998 366.1 35.152 365.787 34.6026C365.487 34.0527 365.073 33.6336 364.542 33.3452C364.025 33.0431 363.433 32.9037 362.767 32.9269C362.114 32.9497 361.533 33.1301 361.024 33.4681C360.529 33.7922 360.144 34.2393 359.87 34.8092C359.61 35.3786 359.493 36.0364 359.519 36.7826C359.545 37.5288 359.708 38.1769 360.007 38.7268C360.32 39.2762 360.735 39.702 361.253 40.0041C361.783 40.2924 362.375 40.4252 363.028 40.4024ZM374.25 41.4714C373.424 41.5002 372.733 41.3843 372.177 41.1235C371.621 40.8628 371.201 40.5039 370.919 40.0468C370.636 39.5897 370.485 39.088 370.466 38.5417C370.43 37.529 370.79 36.7359 371.543 36.1626C372.297 35.5893 373.34 35.2794 374.673 35.2328L377.351 35.1393L377.347 35.0194C377.317 34.1532 377.067 33.5082 376.599 33.0843C376.13 32.6471 375.516 32.4417 374.756 32.4682C374.104 32.491 373.543 32.6774 373.075 33.0273C372.62 33.3633 372.343 33.8466 372.245 34.4771L370.526 34.5371C370.568 33.8152 370.786 33.2006 371.182 32.6931C371.591 32.1852 372.105 31.7937 372.722 31.5186C373.339 31.2303 374.001 31.0738 374.707 31.0491C376.093 31.0007 377.145 31.3375 377.864 32.0595C378.596 32.7677 378.983 33.7348 379.026 34.9607L379.239 41.057L377.74 41.1094L377.578 39.3339C377.317 39.9034 376.921 40.3975 376.389 40.8163C375.869 41.2214 375.156 41.4397 374.25 41.4714ZM374.461 40.0432C375.1 40.0208 375.641 39.8352 376.082 39.4862C376.537 39.1368 376.875 38.6914 377.096 38.15C377.317 37.6086 377.418 37.0448 377.397 36.4585L377.397 36.4385L374.858 36.5271C373.872 36.5616 373.179 36.7592 372.778 37.1201C372.389 37.4672 372.204 37.8939 372.222 38.4003C372.24 38.92 372.441 39.3332 372.826 39.64C373.223 39.933 373.768 40.0674 374.461 40.0432ZM381.758 40.9691L381.411 31.0551L382.931 31.0021L383.093 32.7775C383.391 32.14 383.833 31.6309 384.42 31.2502C385.007 30.8695 385.681 30.6659 386.44 30.6394C387.613 30.5984 388.558 30.9256 389.276 31.621C390.007 32.3026 390.398 33.3829 390.45 34.862L390.652 40.6585L388.973 40.7171L388.777 35.1005C388.705 33.0351 387.816 32.0322 386.111 32.0917C385.258 32.1215 384.556 32.4596 384.005 33.1059C383.466 33.7384 383.217 34.6276 383.257 35.7736L383.437 40.9104L381.758 40.9691ZM398.486 40.3849L397.983 25.9937L399.662 25.935L399.964 34.5898L403.876 30.2706L405.935 30.1987L401.694 34.8296L406.841 40.0931L404.702 40.1678L399.985 35.1894L400.165 40.3263L398.486 40.3849ZM412.361 40.1405C411.428 40.1731 410.581 39.9892 409.82 39.5889C409.059 39.1885 408.445 38.6096 407.979 37.8521C407.525 37.0808 407.279 36.1688 407.243 35.1161C407.206 34.0634 407.394 33.1429 407.807 32.3547C408.219 31.5532 408.791 30.9262 409.522 30.4737C410.267 30.0208 411.105 29.778 412.038 29.7455C412.971 29.7129 413.818 29.8968 414.579 30.2971C415.34 30.6975 415.948 31.2833 416.401 32.0546C416.868 32.8121 417.12 33.7172 417.157 34.7699C417.193 35.8226 417.006 36.7497 416.593 37.5512C416.181 38.3395 415.602 38.96 414.857 39.413C414.126 39.8654 413.294 40.1079 412.361 40.1405ZM412.311 38.7014C412.884 38.6814 413.412 38.5229 413.895 38.2258C414.379 37.9288 414.764 37.4951 415.051 36.9247C415.338 36.3543 415.467 35.6561 415.438 34.8299C415.409 34.0037 415.231 33.3162 414.905 32.7672C414.593 32.2178 414.185 31.8118 413.682 31.5492C413.179 31.2866 412.648 31.165 412.088 31.1846C411.515 31.2046 410.987 31.3631 410.504 31.6602C410.021 31.9572 409.636 32.3909 409.349 32.9613C409.062 33.5316 408.933 34.2299 408.962 35.0561C408.99 35.8822 409.168 36.5698 409.494 37.1187C409.82 37.6677 410.228 38.0737 410.717 38.3368C411.22 38.5994 411.751 38.7209 412.311 38.7014ZM419.664 39.6453L419.318 29.7314L420.837 29.6783L420.999 31.4538C421.297 30.8163 421.74 30.3072 422.327 29.9265C422.914 29.5458 423.587 29.3422 424.347 29.3156C425.519 29.2747 426.465 29.6019 427.183 30.2973C427.914 30.9788 428.305 32.0592 428.356 33.5383L428.559 39.3347L426.88 39.3934L426.684 33.7768C426.612 31.7114 425.723 30.7085 424.017 30.768C423.164 30.7978 422.462 31.1358 421.911 31.7821C421.373 32.4146 421.124 33.3039 421.164 34.4498L421.343 39.5867L419.664 39.6453ZM435.02 39.1091C434.114 39.1407 433.394 38.9458 432.858 38.5242C432.323 38.1026 432.036 37.3188 431.996 36.1729L431.805 30.7162L430.086 30.7762L430.037 29.3571L431.756 29.297L431.893 26.9108L433.352 26.8599L433.435 29.2384L436.353 29.1365L436.403 30.5556L433.484 30.6575L433.675 36.1142C433.697 36.7405 433.838 37.1625 434.099 37.3802C434.36 37.5845 434.81 37.6756 435.45 37.6532L436.489 37.6169L436.539 39.056L435.02 39.1091ZM443.025 39.0697C442.079 39.1028 441.232 38.9189 440.484 38.5181C439.736 38.1039 439.135 37.5179 438.681 36.7599C438.241 36.0015 438.003 35.0959 437.966 34.0432C437.93 33.0038 438.105 32.0905 438.491 31.3032C438.876 30.5026 439.428 29.8763 440.146 29.4243C440.877 28.9585 441.729 28.7086 442.702 28.6747C443.661 28.6412 444.495 28.8322 445.203 29.2477C445.924 29.6495 446.484 30.1969 446.882 30.8901C447.279 31.5833 447.492 32.3364 447.521 33.1492C447.526 33.2958 447.524 33.4426 447.516 33.5896C447.521 33.7362 447.527 33.9028 447.534 34.0893L439.638 34.365C439.705 35.1232 439.9 35.7501 440.224 36.2457C440.561 36.7276 440.968 37.087 441.443 37.3239C441.931 37.5603 442.442 37.6692 442.975 37.6506C443.668 37.6264 444.242 37.4462 444.697 37.1102C445.153 36.7741 445.477 36.3291 445.671 35.7753L447.33 35.7174C447.096 36.6462 446.61 37.4303 445.871 38.0698C445.146 38.6955 444.197 39.0288 443.025 39.0697ZM442.711 30.0952C441.912 30.1231 441.207 30.3945 440.598 30.9094C440.002 31.4105 439.674 32.1291 439.613 33.0651L445.849 32.8474C445.778 31.956 445.447 31.2671 444.856 30.7807C444.266 30.2944 443.551 30.0659 442.711 30.0952ZM449.939 38.5881L449.593 28.6742L451.112 28.6211L451.274 30.3965C451.572 29.7591 452.014 29.25 452.601 28.8693C453.188 28.4886 453.862 28.2849 454.621 28.2584C455.794 28.2175 456.739 28.5447 457.457 29.24C458.188 29.9216 458.579 31.002 458.631 32.4811L458.833 38.2775L457.154 38.3362L456.958 32.7196C456.886 30.6542 455.997 29.6512 454.292 29.7108C453.439 29.7406 452.737 30.0786 452.186 30.7249C451.647 31.3574 451.398 32.2467 451.438 33.3926L451.618 38.5295L449.939 38.5881ZM470.473 38.1112C469.287 38.1526 468.29 37.8872 467.483 37.3151C466.676 36.7429 466.188 35.9461 466.019 34.9247L467.738 34.8647C467.863 35.3806 468.152 35.8242 468.605 36.1952C469.071 36.5525 469.684 36.7179 470.443 36.6914C471.15 36.6667 471.664 36.502 471.987 36.1972C472.309 35.8791 472.463 35.5135 472.449 35.1004C472.428 34.5008 472.194 34.1087 471.748 33.9242C471.314 33.7392 470.702 33.5805 469.91 33.448C469.373 33.36 468.835 33.2254 468.295 33.0441C467.755 32.8629 467.299 32.5986 466.926 32.2514C466.553 31.8909 466.357 31.4108 466.336 30.8111C466.305 29.945 466.601 29.2276 467.221 28.6589C467.854 28.0765 468.724 27.7659 469.83 27.7273C470.883 27.6906 471.752 27.927 472.436 28.4368C473.134 28.9327 473.553 29.6652 473.694 30.6342L472.035 30.6922C471.951 30.1881 471.717 29.8027 471.334 29.5359C470.964 29.2553 470.473 29.1257 469.86 29.1471C469.26 29.1681 468.798 29.311 468.474 29.5758C468.163 29.8401 468.015 30.1788 468.029 30.5919C468.043 30.9917 468.26 31.2976 468.681 31.5097C469.116 31.7213 469.696 31.8946 470.421 32.0293C471.038 32.1412 471.624 32.2875 472.177 32.4683C472.743 32.6353 473.206 32.906 473.566 33.2803C473.939 33.6409 474.138 34.1809 474.163 34.9005C474.208 35.7928 473.894 36.5442 473.221 37.1547C472.562 37.7514 471.646 38.0703 470.473 38.1112ZM481.186 37.7371C480.254 37.7697 479.407 37.5858 478.646 37.1854C477.884 36.7851 477.271 36.2061 476.804 35.4486C476.35 34.6773 476.105 33.7653 476.068 32.7127C476.031 31.66 476.219 30.7395 476.632 29.9513C477.044 29.1497 477.616 28.5227 478.347 28.0703C479.092 27.6173 479.931 27.3746 480.863 27.342C481.796 27.3095 482.643 27.4933 483.404 27.8937C484.165 28.294 484.773 28.8799 485.227 29.6512C485.693 30.4087 485.945 31.3138 485.982 32.3665C486.019 33.4191 485.831 34.3463 485.419 35.1478C485.006 35.936 484.427 36.5566 483.683 37.0095C482.951 37.462 482.119 37.7045 481.186 37.7371ZM481.136 36.298C481.709 36.278 482.237 36.1194 482.721 35.8224C483.204 35.5253 483.589 35.0916 483.876 34.5213C484.163 33.9509 484.292 33.2526 484.263 32.4265C484.234 31.6003 484.057 30.9128 483.731 30.3638C483.418 29.8144 483.01 29.4084 482.507 29.1457C482.005 28.8831 481.473 28.7616 480.914 28.7811C480.341 28.8012 479.813 28.9597 479.329 29.2567C478.846 29.5538 478.461 29.9875 478.174 30.5578C477.887 31.1282 477.758 31.8265 477.787 32.6526C477.816 33.4788 477.993 34.1664 478.319 34.7153C478.645 35.2643 479.053 35.6703 479.542 35.9334C480.045 36.196 480.576 36.3175 481.136 36.298ZM492.296 37.3491C491.11 37.3906 490.113 37.1252 489.306 36.553C488.499 35.9808 488.011 35.184 487.842 34.1626L489.561 34.1026C489.685 34.6186 489.974 35.0621 490.428 35.4332C490.894 35.7905 491.506 35.9558 492.266 35.9293C492.972 35.9046 493.487 35.7399 493.81 35.4351C494.132 35.117 494.286 34.7514 494.272 34.3383C494.251 33.7387 494.017 33.3466 493.57 33.1621C493.137 32.9771 492.524 32.8184 491.732 32.686C491.196 32.598 490.657 32.4633 490.117 32.2821C489.577 32.1008 489.121 31.8366 488.749 31.4894C488.376 31.1288 488.179 30.6487 488.158 30.0491C488.128 29.1829 488.423 28.4655 489.044 27.8969C489.677 27.3144 490.547 27.0039 491.653 26.9653C492.705 26.9285 493.574 27.165 494.259 27.6747C494.957 28.1707 495.376 28.9032 495.517 29.8722L493.858 29.9301C493.773 29.4261 493.54 29.0407 493.157 28.7739C492.787 28.4933 492.295 28.3637 491.682 28.3851C491.083 28.406 490.621 28.5489 490.296 28.8137C489.986 29.0781 489.837 29.4168 489.852 29.8299C489.866 30.2296 490.083 30.5355 490.504 30.7476C490.938 30.9593 491.518 31.1325 492.243 31.2673C492.861 31.3791 493.446 31.5254 494 31.7062C494.566 31.8732 495.029 32.1439 495.389 32.5182C495.762 32.8788 495.961 33.4188 495.986 34.1384C496.03 35.0307 495.716 35.7821 495.044 36.3926C494.384 36.9894 493.468 37.3082 492.296 37.3491ZM499.08 24.7447C498.747 24.7563 498.463 24.6595 498.229 24.4542C498.008 24.2351 497.892 23.959 497.88 23.6259C497.869 23.3061 497.966 23.0359 498.172 22.8152C498.391 22.5941 498.667 22.4777 499 22.4661C499.32 22.4549 499.597 22.552 499.831 22.7573C500.065 22.9626 500.187 23.2251 500.199 23.5449C500.21 23.8781 500.107 24.1618 499.888 24.3963C499.669 24.6174 499.4 24.7335 499.08 24.7447ZM498.663 36.8866L498.317 26.9727L499.996 26.914L500.342 36.828L498.663 36.8866ZM506.572 36.8506C505.746 36.8794 505.055 36.7635 504.499 36.5027C503.943 36.242 503.523 35.8831 503.24 35.426C502.957 34.9689 502.807 34.4672 502.787 33.9209C502.752 32.9082 503.111 32.1152 503.865 31.5418C504.619 30.9685 505.662 30.6586 506.995 30.6121L509.673 30.5185L509.669 30.3986C509.638 29.5325 509.389 28.8874 508.921 28.4635C508.452 28.0263 507.838 27.8209 507.078 27.8475C506.425 27.8703 505.865 28.0566 505.397 28.4065C504.941 28.7426 504.665 29.2258 504.567 29.8563L502.848 29.9163C502.889 29.1945 503.108 28.5798 503.504 28.0723C503.913 27.5644 504.426 27.1729 505.044 26.8979C505.661 26.6095 506.322 26.453 507.029 26.4283C508.414 26.3799 509.467 26.7167 510.186 27.4387C510.918 28.147 511.305 29.114 511.348 30.34L511.561 36.4362L510.062 36.4886L509.899 34.7132C509.639 35.2826 509.243 35.7767 508.71 36.1956C508.191 36.6006 507.478 36.819 506.572 36.8506ZM506.782 35.4224C507.422 35.4001 507.962 35.2144 508.404 34.8655C508.859 34.516 509.197 34.0706 509.418 33.5293C509.639 32.9879 509.739 32.424 509.719 31.8377L509.718 31.8177L507.18 31.9064C506.194 31.9408 505.5 32.1385 505.099 32.4993C504.711 32.8464 504.526 33.2732 504.544 33.7795C504.562 34.2992 504.763 34.7124 505.147 35.0192C505.544 35.3122 506.089 35.4466 506.782 35.4224ZM514.079 36.3483L513.577 21.9571L515.256 21.8984L515.758 36.2897L514.079 36.3483ZM523.8 36.0088L523.454 26.0949L524.973 26.0418L525.143 27.4768C525.444 26.9326 525.856 26.5046 526.379 26.1929C526.902 25.8811 527.496 25.7136 528.163 25.6903C528.949 25.6628 529.627 25.7993 530.198 26.0995C530.782 26.3993 531.239 26.8703 531.568 27.5126C531.894 26.9008 532.35 26.4113 532.938 26.0439C533.539 25.676 534.192 25.4797 534.898 25.4551C536.084 25.4137 537.043 25.7404 537.774 26.4353C538.505 27.1169 538.897 28.1972 538.948 29.6763L539.151 35.4728L537.492 35.5307L537.296 29.9141C537.26 28.8881 537.026 28.1224 536.595 27.6172C536.164 27.1119 535.562 26.8728 534.789 26.8998C533.989 26.9277 533.334 27.2641 532.823 27.909C532.325 28.5401 532.095 29.4287 532.135 30.5746L532.315 35.7115L530.636 35.7701L530.44 30.1535C530.404 29.1275 530.17 28.3619 529.739 27.8566C529.308 27.3513 528.706 27.1122 527.933 27.1392C527.147 27.1666 526.498 27.5028 525.987 28.1477C525.489 28.7788 525.26 29.6674 525.3 30.8133L525.479 35.9502L523.8 36.0088ZM546.145 35.4687C545.199 35.5017 544.352 35.3178 543.605 34.917C542.856 34.5029 542.256 33.9168 541.802 33.1588C541.362 32.4004 541.124 31.4948 541.087 30.4421C541.051 29.4028 541.225 28.4894 541.612 27.7022C541.997 26.9015 542.549 26.2752 543.267 25.8232C543.998 25.3575 544.85 25.1076 545.822 25.0736C546.782 25.0401 547.616 25.2311 548.324 25.6467C549.045 26.0484 549.605 26.5959 550.002 27.2891C550.4 27.9823 550.613 28.7353 550.642 29.5481C550.647 29.6947 550.645 29.8415 550.637 29.9886C550.642 30.1352 550.648 30.3017 550.654 30.4883L542.759 30.764C542.826 31.5221 543.021 32.149 543.345 32.6447C543.682 33.1265 544.088 33.4859 544.564 33.7228C545.052 33.9592 545.563 34.0681 546.096 34.0495C546.789 34.0253 547.363 33.8452 547.818 33.5091C548.273 33.173 548.598 32.7281 548.792 32.1743L550.451 32.1164C550.217 33.0451 549.73 33.8292 548.992 34.4687C548.267 35.0944 547.318 35.4277 546.145 35.4687ZM545.832 26.4941C545.032 26.5221 544.328 26.7935 543.719 27.3084C543.123 27.8095 542.794 28.5281 542.734 29.4641L548.97 29.2463C548.899 28.3549 548.568 27.666 547.977 27.1797C547.387 26.6933 546.671 26.4648 545.832 26.4941ZM557.565 35.0699C556.579 35.1043 555.705 34.908 554.943 34.481C554.194 34.0536 553.6 33.454 553.159 32.6822C552.732 31.91 552.501 31.0242 552.466 30.0248C552.431 29.0254 552.607 28.132 552.993 27.3447C553.378 26.5441 553.93 25.9112 554.648 25.4458C555.365 24.9672 556.223 24.7104 557.222 24.6755C558.035 24.6471 558.76 24.7886 559.398 25.0998C560.036 25.4111 560.539 25.8605 560.906 26.448L560.692 20.3118L562.371 20.2531L562.874 34.6444L561.354 34.6974L561.137 33.064C560.834 33.5549 560.39 34.004 559.804 34.4114C559.217 34.8187 558.471 35.0382 557.565 35.0699ZM557.694 33.6045C558.36 33.5812 558.941 33.4075 559.437 33.0833C559.945 32.7454 560.33 32.2917 560.59 31.7223C560.864 31.1524 560.988 30.4943 560.962 29.7481C560.935 29.0019 560.766 28.3541 560.453 27.8047C560.154 27.2548 559.739 26.8357 559.209 26.5473C558.691 26.2452 558.099 26.1058 557.433 26.129C556.78 26.1518 556.199 26.3322 555.691 26.6702C555.195 26.9943 554.811 27.4414 554.537 28.0113C554.277 28.5807 554.16 29.2385 554.186 29.9847C554.212 30.7309 554.374 31.379 554.674 31.9289C554.986 32.4783 555.402 32.9041 555.919 33.2062C556.449 33.4945 557.041 33.6273 557.694 33.6045ZM566.207 22.4006C565.874 22.4122 565.59 22.3154 565.356 22.1101C565.135 21.891 565.019 21.6149 565.007 21.2818C564.996 20.962 565.093 20.6917 565.299 20.4711C565.518 20.25 565.794 20.1336 566.127 20.122C566.447 20.1108 566.724 20.2079 566.958 20.4131C567.192 20.6184 567.315 20.881 567.326 21.2008C567.337 21.5339 567.234 21.8177 567.015 22.0521C566.796 22.2733 566.527 22.3894 566.207 22.4006ZM565.79 34.5425L565.444 24.6285L567.123 24.5699L567.469 34.4839L565.79 34.5425ZM573.699 34.5065C572.873 34.5353 572.182 34.4194 571.626 34.1586C571.07 33.8979 570.65 33.539 570.367 33.0819C570.085 32.6248 569.934 32.1231 569.915 31.5768C569.879 30.564 570.238 29.771 570.992 29.1977C571.746 28.6244 572.789 28.3145 574.122 28.2679L576.8 28.1744L576.796 28.0545C576.766 27.1883 576.516 26.5433 576.048 26.1194C575.579 25.6822 574.965 25.4768 574.205 25.5033C573.552 25.5261 572.992 25.7125 572.524 26.0623C572.068 26.3984 571.792 26.8817 571.694 27.5122L569.975 27.5722C570.016 26.8503 570.235 26.2357 570.631 25.7282C571.04 25.2203 571.553 24.8288 572.171 24.5537C572.788 24.2654 573.449 24.1089 574.156 24.0842C575.541 24.0358 576.594 24.3726 577.313 25.0946C578.045 25.8028 578.432 26.7699 578.475 27.9958L578.688 34.0921L577.189 34.1445L577.027 32.369C576.766 32.9385 576.37 33.4326 575.838 33.8514C575.318 34.2565 574.605 34.4748 573.699 34.5065ZM573.909 33.0783C574.549 33.0559 575.089 32.8703 575.531 32.5213C575.986 32.1719 576.324 31.7265 576.545 31.1851C576.766 30.6437 576.867 30.0799 576.846 29.4936L576.845 29.4736L574.307 29.5622C573.321 29.5967 572.627 29.7943 572.226 30.1552C571.838 30.5023 571.653 30.929 571.671 31.4354C571.689 31.9551 571.89 32.3683 572.274 32.6751C572.671 32.9681 573.216 33.1025 573.909 33.0783Z" fill="white"/>
</g>
<defs>
<filter id="filter0_d_1_2166" x="0.804504" y="0.0544434" width="599.391" height="79.6012" filterUnits="userSpaceOnUse" color-interpolation-filters="sRGB">
<feFlood flood-opacity="0" result="BackgroundImageFix"/>
<feColorMatrix in="SourceAlpha" type="matrix" values="0 0 0 0 0 0 0 0 0 0 0 0 0 0 0 0 0 0 127 0" result="hardAlpha"/>
<feOffset dx="3" dy="5"/>
<feComposite in2="hardAlpha" operator="out"/>
<feColorMatrix type="matrix" values="0 0 0 0 0.509615 0 0 0 0 0.112703 0 0 0 0 0.328879 0 0 0 1 0"/>
<feBlend mode="normal" in2="BackgroundImageFix" result="effect1_dropShadow_1_2166"/>
<feBlend mode="normal" in="SourceGraphic" in2="effect1_dropShadow_1_2166" result="shape"/>
</filter>
</defs>
</svg>
