<svg width="625" height="71" viewBox="0 0 625 71" fill="none" xmlns="http://www.w3.org/2000/svg">
<g filter="url(#filter0_d_1_2172)">
<path d="M4.36389 28.1809C4.20968 19.3457 11.247 12.0583 20.0822 11.9041L606.993 1.65955C615.828 1.50533 623.115 8.54266 623.27 17.3779L623.636 38.3747C623.79 47.2099 616.753 54.4973 607.918 54.6515L21.0072 64.896C12.172 65.0503 4.88461 58.0129 4.73039 49.1777L4.36389 28.1809Z" fill="#FFCC32" shape-rendering="crispEdges"/>
<path d="M606.984 1.15963C616.095 1.00059 623.611 8.25784 623.77 17.3691L624.136 38.3659C624.295 47.4773 617.038 54.9924 607.927 55.1514L21.0159 65.396C11.9046 65.555 4.38951 58.2977 4.23047 49.1864L3.86397 28.1896C3.70493 19.0783 10.9622 11.5632 20.0735 11.4042L606.984 1.15963Z" stroke="#282828" shape-rendering="crispEdges"/>
<path d="M25.4901 45.0548C24.2236 45.0769 23.2243 44.7409 22.4921 44.0469C21.7598 43.353 21.3828 42.3794 21.3609 41.1262L23.0607 41.0966C23.073 41.8031 23.2567 42.3934 23.6117 42.8672C23.9666 43.3411 24.5774 43.5705 25.4439 43.5554C26.2838 43.5407 26.8597 43.2973 27.1715 42.8251C27.4966 42.3527 27.6531 41.7699 27.641 41.0766L27.4613 30.7782L29.141 30.7489L29.3208 41.0473C29.3424 42.2871 29.0127 43.2597 28.3315 43.965C27.6637 44.6701 26.7166 45.0334 25.4901 45.0548ZM35.5491 44.8792C34.7225 44.8936 34.0335 44.7656 33.482 44.4952C32.9306 44.2248 32.5174 43.8586 32.2427 43.3967C31.9679 42.9347 31.8258 42.4305 31.8162 41.8839C31.7985 40.8707 32.1715 40.0841 32.9352 39.524C33.6989 38.9639 34.7473 38.6722 36.0804 38.649L38.76 38.6022L38.7579 38.4822C38.7428 37.6157 38.5047 36.9664 38.0438 36.5344C37.5826 36.089 36.9721 35.873 36.2122 35.8863C35.559 35.8977 34.9953 36.0742 34.5212 36.4158C34.0602 36.7439 33.7752 37.2223 33.6661 37.851L31.9464 37.881C32.0005 37.16 32.2298 36.5492 32.6345 36.0487C33.0525 35.548 33.5726 35.1655 34.1947 34.9013C34.8166 34.6238 35.4809 34.4788 36.1874 34.4665C37.5739 34.4423 38.6202 34.7974 39.3265 35.5319C40.0459 36.2527 40.4162 37.2264 40.4376 38.4529L40.5441 44.552L39.0443 44.5782L38.9133 42.8002C38.6431 43.365 38.2382 43.8521 37.6986 44.2616C37.1721 44.6575 36.4556 44.8634 35.5491 44.8792ZM35.7842 43.4549C36.4241 43.4437 36.9678 43.2675 37.4153 42.9263C37.876 42.5849 38.2218 42.1455 38.4524 41.608C38.6831 41.0706 38.7933 40.5086 38.783 39.922L38.7827 39.902L36.2431 39.9463C35.2566 39.9636 34.5597 40.1491 34.1525 40.5029C33.7583 40.8432 33.5657 41.2666 33.5745 41.7732C33.5836 42.2931 33.7776 42.7098 34.1565 43.0232C34.5484 43.3231 35.091 43.467 35.7842 43.4549ZM43.064 44.508L42.8909 34.5895L44.4107 34.563L44.5417 36.341C44.8507 35.7088 45.3021 35.2075 45.8957 34.8371C46.4893 34.4667 47.1661 34.2748 47.926 34.2616C49.0991 34.2411 50.0386 34.5848 50.7444 35.2925C51.4633 35.9868 51.8356 37.0738 51.8615 38.5535L51.9627 44.3527L50.2829 44.382L50.1849 38.7628C50.1488 36.6965 49.2775 35.6782 47.5711 35.708C46.7179 35.7229 46.0102 36.0486 45.4479 36.6852C44.8987 37.3082 44.6341 38.193 44.6541 39.3395L44.7438 44.4787L43.064 44.508ZM58.3726 41.1203C57.8126 41.1301 57.2981 41.0657 56.829 40.9272L55.8455 41.8845C55.994 41.9886 56.1756 42.0788 56.3903 42.1551C56.6181 42.2178 56.9392 42.2788 57.3537 42.3383C57.7679 42.3844 58.3488 42.4343 59.0965 42.4879C60.4313 42.5579 61.3898 42.8479 61.9722 43.3578C62.5545 43.8677 62.853 44.5426 62.8676 45.3825C62.8776 45.9557 62.7272 46.5051 62.4163 47.0306C62.1188 47.5559 61.6463 47.9909 60.9989 48.3356C60.3648 48.68 59.5412 48.8611 58.528 48.8788C57.6348 48.8944 56.8395 48.7882 56.1421 48.5604C55.4449 48.3458 54.8988 48.002 54.5038 47.5288C54.1091 47.069 53.9054 46.4791 53.8928 45.7592C53.8863 45.3859 53.9792 44.9776 54.1715 44.5341C54.364 44.104 54.7302 43.6909 55.27 43.2948C54.9746 43.1799 54.7191 43.0577 54.5035 42.9281C54.301 42.7849 54.1116 42.6282 53.9352 42.4579L53.9272 41.998L55.5976 40.2886C54.7994 39.6358 54.3908 38.7628 54.3717 37.6696C54.3603 37.0164 54.5033 36.4204 54.8006 35.8818C55.0979 35.3432 55.5372 34.9155 56.1184 34.5986C56.6994 34.2685 57.4098 34.096 58.2497 34.0814C58.8229 34.0714 59.3443 34.1423 59.8136 34.2941L63.4731 34.2302L63.4951 35.49L61.6368 35.6025C62.0331 36.1557 62.2377 36.7989 62.2505 37.5321C62.2619 38.1853 62.1123 38.7813 61.8017 39.3202C61.5043 39.8588 61.0652 40.2932 60.4842 40.6234C59.9163 40.94 59.2124 41.1056 58.3726 41.1203ZM58.3485 39.7405C59.055 39.7282 59.6118 39.5384 60.0188 39.1713C60.4389 38.7906 60.6429 38.2536 60.6308 37.5603C60.6189 36.8805 60.3965 36.3643 59.9636 36.0118C59.5439 35.6457 58.9807 35.4688 58.2741 35.4812C57.5542 35.4937 56.9842 35.6904 56.5642 36.0711C56.1572 36.4383 55.9596 36.9618 55.9715 37.6417C55.9836 38.3349 56.1995 38.8646 56.6193 39.2306C57.0522 39.5831 57.6286 39.7531 58.3485 39.7405ZM55.5298 45.5706C55.5414 46.2372 55.83 46.7255 56.3955 47.0357C56.9612 47.3592 57.664 47.5136 58.5039 47.499C59.3304 47.4846 59.9872 47.2931 60.4742 46.9245C60.9745 46.5557 61.2194 46.0714 61.2089 45.4715C61.2015 45.0449 61.0217 44.6746 60.6695 44.3607C60.3175 44.0601 59.6744 43.8913 58.7403 43.8543C58.0062 43.8138 57.3718 43.7582 56.8371 43.6875C56.2957 43.9903 55.9412 44.3099 55.7737 44.6462C55.6064 44.9958 55.5251 45.304 55.5298 45.5706ZM65.5411 44.1157L65.2898 29.7178L66.9695 29.6885L67.1206 38.3472L71.1071 34.097L73.1668 34.061L68.8456 38.6171L73.8998 43.9697L71.7601 44.0071L67.1311 38.9471L67.2208 44.0863L65.5411 44.1157ZM78.8432 44.1235C78.0167 44.1379 77.3277 44.0099 76.7762 43.7395C76.2248 43.4691 75.8116 43.1029 75.5369 42.641C75.2621 42.179 75.1199 41.6748 75.1104 41.1282C75.0927 40.115 75.4657 39.3284 76.2294 38.7683C76.9931 38.2082 78.0415 37.9165 79.3746 37.8933L82.0542 37.8465L82.0521 37.7265C82.037 36.86 81.7989 36.2107 81.338 35.7787C80.8768 35.3333 80.2663 35.1173 79.5064 35.1306C78.8532 35.142 78.2895 35.3185 77.8154 35.6601C77.3544 35.9882 77.0693 36.4666 76.9603 37.0953L75.2406 37.1253C75.2946 36.4043 75.524 35.7935 75.9287 35.293C76.3467 34.7923 76.8667 34.4098 77.4889 34.1456C78.1108 33.8681 78.7751 33.7231 79.4816 33.7108C80.8681 33.6866 81.9144 34.0417 82.6207 34.7761C83.34 35.497 83.7104 36.4707 83.7318 37.6972L83.8383 43.7963L82.3385 43.8225L82.2075 42.0445C81.9373 42.6093 81.5324 43.0964 80.9928 43.5059C80.4663 43.9018 79.7498 44.1077 78.8432 44.1235ZM79.0784 42.6992C79.7183 42.688 80.262 42.5118 80.7094 42.1706C81.1702 41.8292 81.5159 41.3898 81.7466 40.8523C81.9773 40.3149 82.0875 39.7529 82.0772 39.1663L82.0769 39.1463L79.5373 39.1906C78.5507 39.2079 77.8539 39.3934 77.4467 39.7472C77.0525 40.0875 76.8599 40.5109 76.8687 41.0175C76.8778 41.5374 77.0718 41.9541 77.4506 42.2675C77.8426 42.5674 78.3852 42.7113 79.0784 42.6992ZM89.9819 43.9291C88.8087 43.9495 87.8693 43.6126 87.1638 42.9181C86.458 42.2103 86.0922 41.1165 86.0664 39.6368L85.9651 33.8376L87.6449 33.8083L87.743 39.4275C87.779 41.4938 88.6436 42.5122 90.3367 42.4827C91.2032 42.4675 91.9111 42.1485 92.4603 41.5255C93.0226 40.8889 93.2937 39.9973 93.2737 38.8508L93.184 33.7116L94.8638 33.6823L95.0369 43.6008L93.5171 43.6273L93.3661 41.8497C93.0704 42.4816 92.6191 42.9829 92.0121 43.3536C91.4185 43.724 90.7417 43.9158 89.9819 43.9291ZM101.105 43.7349C100.279 43.7493 99.5899 43.6213 99.0385 43.3509C98.487 43.0805 98.0739 42.7143 97.7991 42.2524C97.5243 41.7904 97.3822 41.2862 97.3726 40.7396C97.3549 39.7264 97.7279 38.9398 98.4916 38.3797C99.2553 37.8196 100.304 37.528 101.637 37.5047L104.316 37.4579L104.314 37.3379C104.299 36.4714 104.061 35.8221 103.6 35.3901C103.139 34.9447 102.529 34.7287 101.769 34.742C101.115 34.7534 100.552 34.9299 100.078 35.2716C99.6166 35.5997 99.3316 36.078 99.2225 36.7067L97.5028 36.7367C97.5569 36.0157 97.7863 35.4049 98.1909 34.9044C98.6089 34.4037 99.129 34.0213 99.7511 33.757C100.373 33.4795 101.037 33.3345 101.744 33.3222C103.13 33.298 104.177 33.6531 104.883 34.3876C105.602 35.1084 105.973 36.0821 105.994 37.3086L106.101 43.4077L104.601 43.4339L104.47 41.6559C104.2 42.2207 103.795 42.7078 103.255 43.1173C102.729 43.5132 102.012 43.7191 101.105 43.7349ZM101.341 42.3106C101.981 42.2994 102.524 42.1232 102.972 41.782C103.432 41.4406 103.778 41.0012 104.009 40.4637C104.239 39.9263 104.35 39.3643 104.339 38.7777L104.339 38.7577L101.799 38.802C100.813 38.8193 100.116 39.0048 99.7089 39.3586C99.3148 39.6989 99.1221 40.1223 99.131 40.6289C99.14 41.1488 99.334 41.5655 99.7129 41.8789C100.105 42.1788 100.647 42.3227 101.341 42.3106ZM108.62 43.3637L108.447 33.4452L109.967 33.4187L110.098 35.1967C110.407 34.5645 110.858 34.0632 111.452 33.6928C112.046 33.3224 112.722 33.1305 113.482 33.1173C114.656 33.0968 115.595 33.4405 116.301 34.1483C117.02 34.8425 117.392 35.9295 117.418 37.4093L117.519 43.2084L115.839 43.2377L115.741 37.6185C115.705 35.5522 114.834 34.5339 113.128 34.5637C112.274 34.5786 111.567 34.9043 111.004 35.5409C110.455 36.1639 110.19 37.0487 110.21 38.1952L110.3 43.3344L108.62 43.3637ZM125.356 43.0716L125.105 28.6738L126.785 28.6444L127.036 43.0423L125.356 43.0716ZM134.253 43.1563C133.306 43.1728 132.462 42.9742 131.722 42.5604C130.981 42.1333 130.39 41.5368 129.95 40.771C129.524 40.005 129.301 39.0955 129.283 38.0423C129.264 37.0024 129.455 36.0923 129.855 35.3119C130.255 34.5181 130.817 33.9015 131.543 33.4621C132.282 33.0092 133.138 32.7742 134.111 32.7572C135.071 32.7405 135.901 32.946 136.602 33.3738C137.316 33.7881 137.866 34.3453 138.252 35.0453C138.637 35.7453 138.837 36.502 138.851 37.3152C138.854 37.4618 138.85 37.6086 138.839 37.7555C138.842 37.9021 138.845 38.0687 138.848 38.2554L130.949 38.3933C131.002 39.1524 131.187 39.7827 131.502 40.2839C131.831 40.7716 132.23 41.138 132.701 41.3831C133.186 41.628 133.695 41.7458 134.228 41.7365C134.921 41.7244 135.498 41.5543 135.959 41.2262C136.42 40.8981 136.753 40.4589 136.956 39.9086L138.616 39.8797C138.366 40.8042 137.866 41.5797 137.116 42.2062C136.38 42.8191 135.426 43.1358 134.253 43.1563ZM134.096 34.1777C133.296 34.1917 132.587 34.4507 131.969 34.9549C131.364 35.4456 131.023 36.1583 130.946 37.0931L137.185 36.9842C137.13 36.0917 136.811 35.3972 136.229 34.9006C135.647 34.404 134.936 34.163 134.096 34.1777ZM146.477 42.9429C145.664 42.9571 144.935 42.8032 144.289 42.4811C143.657 42.1587 143.169 41.7005 142.825 41.1064L142.694 42.7689L141.174 42.7955L140.923 28.3977L142.603 28.3683L142.709 34.4874C143.021 34.0019 143.467 33.5607 144.046 33.1639C144.64 32.7668 145.396 32.5602 146.316 32.5442C147.302 32.527 148.166 32.7386 148.907 33.179C149.649 33.6195 150.226 34.2295 150.64 35.0091C151.067 35.7884 151.289 36.678 151.306 37.6779C151.324 38.6777 151.133 39.5745 150.733 40.3683C150.347 41.1485 149.784 41.7717 149.046 42.238C148.32 42.6907 147.464 42.9257 146.477 42.9429ZM146.272 41.4863C146.939 41.4747 147.522 41.3111 148.024 40.9957C148.525 40.6669 148.917 40.2199 149.201 39.6549C149.484 39.0899 149.619 38.4341 149.606 37.6875C149.593 36.941 149.435 36.2903 149.132 35.7355C148.829 35.1807 148.422 34.7544 147.91 34.4567C147.397 34.1455 146.808 33.9958 146.141 34.0074C145.475 34.0191 144.891 34.1893 144.39 34.5181C143.889 34.8335 143.497 35.2738 143.213 35.8388C142.929 36.4039 142.794 37.0597 142.807 37.8062C142.82 38.5528 142.978 39.2034 143.281 39.7582C143.584 40.313 143.992 40.746 144.504 41.0571C145.016 41.3549 145.605 41.4979 146.272 41.4863ZM154.539 30.4403C154.206 30.4462 153.924 30.3444 153.694 30.135C153.476 29.9121 153.365 29.634 153.359 29.3008C153.353 28.9808 153.455 28.7123 153.665 28.4953C153.888 28.278 154.166 28.1665 154.499 28.1607C154.819 28.1551 155.094 28.257 155.325 28.4663C155.555 28.6757 155.673 28.9403 155.679 29.2603C155.684 29.5936 155.576 29.8755 155.353 30.1061C155.13 30.3233 154.859 30.4348 154.539 30.4403ZM153.911 42.5732L153.738 32.6547L155.417 32.6253L155.59 42.5438L153.911 42.5732ZM158.515 42.4928L158.264 28.095L159.944 28.0657L160.051 34.2447C160.374 33.6257 160.839 33.1441 161.446 32.8001C162.054 32.4428 162.717 32.2579 163.437 32.2453C164.584 32.2253 165.51 32.5692 166.216 33.277C166.921 33.9714 167.287 35.0586 167.313 36.5383L167.414 42.3375L165.754 42.3664L165.656 36.7473C165.62 34.6809 164.769 33.6623 163.102 33.6914C162.236 33.7065 161.515 34.0325 160.939 34.6693C160.363 35.2928 160.085 36.1778 160.105 37.3242L160.195 42.4635L158.515 42.4928ZM175.251 42.2007L175 27.8029L176.679 27.7735L176.931 42.1713L175.251 42.2007ZM183.307 42.3001C182.134 42.3205 181.195 41.9836 180.489 41.2891C179.784 40.5813 179.418 39.4875 179.392 38.0077L179.291 32.2086L180.97 32.1793L181.069 37.7985C181.105 39.8648 181.969 40.8832 183.662 40.8537C184.529 40.8385 185.237 40.5195 185.786 39.8964C186.348 39.2599 186.619 38.3683 186.599 37.2218L186.51 32.0826L188.189 32.0533L188.363 41.9718L186.843 41.9983L186.692 40.2207C186.396 40.8526 185.945 41.3539 185.338 41.7245C184.744 42.095 184.067 42.2868 183.307 42.3001ZM194.431 42.1059C193.605 42.1203 192.916 41.9923 192.364 41.7219C191.813 41.4515 191.399 41.0853 191.125 40.6234C190.85 40.1614 190.708 39.6572 190.698 39.1106C190.681 38.0974 191.054 37.3108 191.817 36.7507C192.581 36.1906 193.629 35.899 194.962 35.8757L197.642 35.8289L197.64 35.7089C197.625 34.8424 197.387 34.1931 196.926 33.7611C196.465 33.3157 195.854 33.0997 195.094 33.113C194.441 33.1244 193.877 33.3009 193.403 33.6426C192.942 33.9706 192.657 34.449 192.548 35.0777L190.828 35.1077C190.883 34.3867 191.112 33.7759 191.517 33.2754C191.935 32.7747 192.455 32.3923 193.077 32.128C193.699 31.8505 194.363 31.7055 195.069 31.6932C196.456 31.669 197.502 32.0241 198.209 32.7586C198.928 33.4794 199.298 34.4531 199.32 35.6796L199.426 41.7787L197.926 41.8049L197.795 40.0269C197.525 40.5917 197.12 41.0788 196.581 41.4883C196.054 41.8842 195.338 42.0901 194.431 42.1059ZM194.666 40.6816C195.306 40.6704 195.85 40.4942 196.297 40.153C196.758 39.8116 197.104 39.3722 197.334 38.8347C197.565 38.2973 197.675 37.7353 197.665 37.1487L197.665 37.1287L195.125 37.173C194.139 37.1903 193.442 37.3758 193.035 37.7296C192.64 38.0699 192.448 38.4933 192.457 38.9999C192.466 39.5198 192.66 39.9365 193.039 40.2499C193.43 40.5498 193.973 40.6937 194.666 40.6816ZM205.75 41.9083C204.563 41.929 203.571 41.6463 202.774 41.0601C201.977 40.474 201.503 39.6688 201.352 38.6446L203.072 38.6146C203.188 39.1326 203.469 39.5811 203.915 39.9601C204.375 40.3254 204.985 40.5015 205.745 40.4882C206.451 40.4759 206.969 40.3202 207.297 40.021C207.625 39.7086 207.785 39.3458 207.778 38.9325C207.768 38.3326 207.541 37.9365 207.097 37.7442C206.667 37.5517 206.057 37.3823 205.268 37.236C204.733 37.1387 204.197 36.9947 203.66 36.804C203.124 36.6134 202.672 36.3412 202.306 35.9875C201.939 35.6205 201.751 35.1371 201.74 34.5372C201.725 33.6707 202.033 32.9585 202.663 32.4008C203.307 31.8294 204.182 31.5341 205.288 31.5148C206.341 31.4964 207.206 31.748 207.882 32.2697C208.571 32.7777 208.977 33.5174 209.101 34.4887L207.441 34.5177C207.365 34.0123 207.139 33.6228 206.76 33.3494C206.395 33.0624 205.906 32.9242 205.293 32.9349C204.693 32.9454 204.229 33.0802 203.9 33.3393C203.584 33.5982 203.43 33.9343 203.437 34.3475C203.444 34.7475 203.656 35.0572 204.074 35.2766C204.504 35.4958 205.081 35.6791 205.804 35.8265C206.419 35.9491 207.002 36.1056 207.552 36.296C208.115 36.4729 208.573 36.7516 208.927 37.1322C209.293 37.4992 209.483 38.0426 209.495 38.7625C209.524 39.6555 209.197 40.4013 208.514 41C207.844 41.5851 206.923 41.8879 205.75 41.9083ZM216.948 36.3721L216.923 34.9523L231.481 34.6982L231.506 36.118L216.948 36.3721ZM243.36 41.0118C242.453 41.0276 241.736 40.8201 241.209 40.3893C240.681 39.9584 240.407 39.1697 240.387 38.0232L240.292 32.5641L238.572 32.5941L238.547 31.1743L240.267 31.1443L240.446 28.7608L241.905 28.7353L241.947 31.115L244.866 31.064L244.891 32.4838L241.972 32.5347L242.067 37.9939C242.078 38.6205 242.212 39.0449 242.469 39.2671C242.726 39.476 243.175 39.5748 243.815 39.5637L244.854 39.5455L244.88 40.9853L243.36 41.0118ZM250.477 41.1276C249.651 41.142 248.962 41.014 248.41 40.7436C247.859 40.4732 247.446 40.107 247.171 39.6451C246.896 39.1832 246.754 38.6789 246.744 38.1323C246.727 37.1191 247.1 36.3325 247.863 35.7724C248.627 35.2123 249.675 34.9207 251.009 34.8974L253.688 34.8506L253.686 34.7306C253.671 33.8641 253.433 33.2148 252.972 32.7828C252.511 32.3375 251.9 32.1214 251.14 32.1347C250.487 32.1461 249.924 32.3226 249.449 32.6643C248.988 32.9924 248.703 33.4707 248.594 34.0994L246.875 34.1294C246.929 33.4084 247.158 32.7976 247.563 32.2971C247.981 31.7964 248.501 31.414 249.123 31.1497C249.745 30.8722 250.409 30.7272 251.116 30.7149C252.502 30.6907 253.548 31.0458 254.255 31.7803C254.974 32.5012 255.344 33.4748 255.366 34.7013L255.472 40.8004L253.973 40.8266L253.841 39.0486C253.571 39.6134 253.166 40.1005 252.627 40.51C252.1 40.9059 251.384 41.1118 250.477 41.1276ZM250.712 39.7033C251.352 39.6921 251.896 39.5159 252.343 39.1747C252.804 38.8333 253.15 38.3939 253.381 37.8564C253.611 37.319 253.721 36.757 253.711 36.1704L253.711 36.1504L251.171 36.1948C250.185 36.212 249.488 36.3975 249.081 36.7513C248.687 37.0916 248.494 37.515 248.503 38.0216C248.512 38.5415 248.706 38.9582 249.085 39.2716C249.477 39.5715 250.019 39.7154 250.712 39.7033ZM257.992 40.7564L257.819 30.8379L259.339 30.8114L259.484 32.2491C259.795 31.7102 260.214 31.2895 260.742 30.9869C261.27 30.6843 261.868 30.5272 262.534 30.5156C263.321 30.5018 263.997 30.6501 264.562 30.9602C265.141 31.2702 265.59 31.7491 265.908 32.397C266.244 31.791 266.709 31.3095 267.303 30.9524C267.91 30.5951 268.567 30.4103 269.273 30.3979C270.46 30.3772 271.412 30.7207 272.132 31.4282C272.85 32.1224 273.223 33.2094 273.249 34.6892L273.35 40.4883L271.69 40.5173L271.592 34.8982C271.574 33.8717 271.354 33.102 270.932 32.5893C270.509 32.0766 269.912 31.827 269.138 31.8405C268.338 31.8545 267.677 32.1794 267.155 32.8153C266.646 33.4376 266.401 34.322 266.421 35.4685L266.511 40.6077L264.831 40.637L264.733 35.0179C264.715 33.9914 264.495 33.2218 264.073 32.7091C263.65 32.1964 263.053 31.9467 262.279 31.9602C261.493 31.974 260.838 32.2988 260.316 32.9347C259.807 33.557 259.562 34.4414 259.582 35.5879L259.672 40.7271L257.992 40.7564ZM275.957 44.8435L275.707 30.5257L277.227 30.4992L277.415 32.1361C277.727 31.6506 278.173 31.2094 278.752 30.8126C279.346 30.4155 280.102 30.2089 281.022 30.1929C282.009 30.1756 282.872 30.3873 283.613 30.8277C284.355 31.2682 284.932 31.8782 285.346 32.6578C285.773 33.4371 285.995 34.3267 286.012 35.3266C286.03 36.3264 285.839 37.2232 285.439 38.017C285.053 38.7972 284.49 39.4204 283.752 39.8867C283.026 40.3394 282.17 40.5744 281.184 40.5916C280.37 40.6058 279.641 40.4519 278.995 40.1298C278.363 39.8074 277.875 39.3492 277.531 38.7551L277.637 44.8142L275.957 44.8435ZM280.978 39.135C281.645 39.1234 282.229 38.9598 282.73 38.6444C283.231 38.3156 283.623 37.8686 283.907 37.3036C284.19 36.7386 284.325 36.0828 284.312 35.3362C284.299 34.5897 284.141 33.939 283.838 33.3842C283.535 32.8294 283.128 32.4031 282.616 32.1053C282.103 31.7942 281.514 31.6445 280.848 31.6561C280.181 31.6678 279.597 31.838 279.096 32.1668C278.595 32.4822 278.203 32.9225 277.919 33.4875C277.636 34.0526 277.5 34.7084 277.513 35.4549C277.526 36.2015 277.684 36.8521 277.987 37.4069C278.291 37.9617 278.698 38.3947 279.21 38.7058C279.722 39.0036 280.311 39.1466 280.978 39.135ZM289.245 28.089C288.912 28.0949 288.63 27.9931 288.4 27.7837C288.182 27.5608 288.071 27.2827 288.065 26.9495C288.059 26.6295 288.161 26.361 288.371 26.144C288.594 25.9267 288.872 25.8152 289.205 25.8094C289.525 25.8038 289.8 25.9057 290.031 26.115C290.261 26.3244 290.379 26.589 290.385 26.909C290.391 27.2422 290.282 27.5242 290.059 27.7548C289.837 27.972 289.565 28.0835 289.245 28.089ZM288.617 40.2219L288.444 30.3034L290.123 30.274L290.297 40.1925L288.617 40.2219ZM293.221 40.1415L292.97 25.7437L294.65 25.7144L294.901 40.1122L293.221 40.1415ZM307.45 40.1332C306.463 40.1504 305.593 39.9389 304.838 39.4986C304.097 39.0582 303.513 38.4483 303.086 37.6689C302.672 36.8894 302.457 35.9997 302.439 34.9998C302.422 34 302.613 33.1098 303.013 32.3294C303.412 31.5356 303.975 30.9124 304.701 30.4597C305.426 29.9936 306.288 29.7518 307.288 29.7344C308.102 29.7202 308.824 29.8743 309.457 30.1966C310.089 30.519 310.584 30.9771 310.941 31.5709L310.834 25.4319L312.514 25.4025L312.765 39.8003L311.245 39.8269L311.056 38.1899C310.745 38.6754 310.293 39.1167 309.699 39.5138C309.106 39.9109 308.356 40.1173 307.45 40.1332ZM307.604 38.6702C308.271 38.6586 308.855 38.4951 309.356 38.1796C309.87 37.8506 310.263 37.4036 310.533 36.8388C310.816 36.2738 310.952 35.618 310.939 34.8715C310.926 34.1249 310.767 33.4742 310.464 32.9194C310.175 32.3644 309.767 31.9381 309.242 31.6406C308.73 31.3295 308.14 31.1797 307.474 31.1914C306.821 31.2028 306.237 31.373 305.722 31.702C305.221 32.0175 304.829 32.4577 304.545 33.0228C304.275 33.5876 304.147 34.2432 304.16 34.9898C304.173 35.7363 304.324 36.3871 304.614 36.9422C304.917 37.497 305.324 37.9299 305.837 38.241C306.362 38.5386 306.951 38.6816 307.604 38.6702ZM316.311 27.6166C315.978 27.6224 315.696 27.5206 315.466 27.3113C315.249 27.0884 315.137 26.8103 315.131 26.477C315.126 26.1571 315.228 25.8886 315.437 25.6716C315.66 25.4543 315.938 25.3428 316.272 25.3369C316.591 25.3314 316.867 25.4332 317.097 25.6426C317.327 25.8519 317.445 26.1166 317.451 26.4365C317.457 26.7698 317.348 27.0517 317.126 27.2823C316.903 27.4996 316.631 27.611 316.311 27.6166ZM315.683 39.7494L315.51 29.8309L317.19 29.8016L317.363 39.7201L315.683 39.7494ZM325.656 43.976L325.406 29.6582L326.926 29.6316L327.115 31.2686C327.426 30.7831 327.872 30.3419 328.452 29.9451C329.045 29.548 329.802 29.3414 330.721 29.3254C331.708 29.3081 332.572 29.5198 333.313 29.9602C334.054 30.4007 334.631 31.0107 335.045 31.7903C335.472 32.5696 335.694 33.4592 335.712 34.4591C335.729 35.4589 335.538 36.3557 335.139 37.1495C334.752 37.9297 334.19 38.5529 333.451 39.0192C332.726 39.4719 331.869 39.7069 330.883 39.7241C330.07 39.7383 329.34 39.5844 328.695 39.2622C328.062 38.9399 327.574 38.4817 327.23 37.8876L327.336 43.9467L325.656 43.976ZM330.678 38.2675C331.344 38.2559 331.928 38.0923 332.429 37.7768C332.93 37.4481 333.322 37.0011 333.606 36.4361C333.89 35.8711 334.025 35.2153 334.012 34.4687C333.999 33.7222 333.841 33.0715 333.538 32.5167C333.235 31.9619 332.827 31.5356 332.315 31.2378C331.803 30.9267 331.214 30.777 330.547 30.7886C329.88 30.8003 329.297 30.9705 328.796 31.2993C328.294 31.6147 327.902 32.055 327.618 32.62C327.335 33.1851 327.2 33.8408 327.213 34.5874C327.226 35.334 327.384 35.9846 327.687 36.5394C327.99 37.0942 328.398 37.5272 328.91 37.8383C329.422 38.1361 330.011 38.2791 330.678 38.2675ZM338.136 39.3575L337.885 24.9597L339.565 24.9304L339.816 39.3282L338.136 39.3575ZM345.873 39.4625C345.046 39.4769 344.357 39.3489 343.806 39.0785C343.254 38.8081 342.841 38.4419 342.567 37.98C342.292 37.518 342.15 37.0138 342.14 36.4672C342.122 35.454 342.495 34.6674 343.259 34.1073C344.023 33.5472 345.071 33.2555 346.404 33.2323L349.084 33.1855L349.082 33.0655C349.067 32.199 348.829 31.5497 348.368 31.1177C347.906 30.6723 347.296 30.4563 346.536 30.4695C345.883 30.4809 345.319 30.6575 344.845 30.9991C344.384 31.3272 344.099 31.8056 343.99 32.4343L342.27 32.4643C342.324 31.7432 342.554 31.1325 342.958 30.632C343.376 30.1313 343.896 29.7488 344.519 29.4846C345.14 29.207 345.805 29.0621 346.511 29.0498C347.898 29.0255 348.944 29.3807 349.65 30.1151C350.37 30.836 350.74 31.8097 350.761 33.0362L350.868 39.1353L349.368 39.1614L349.237 37.3834C348.967 37.9482 348.562 38.4354 348.022 38.8449C347.496 39.2408 346.779 39.4467 345.873 39.4625ZM346.108 38.0382C346.748 38.027 347.292 37.8508 347.739 37.5096C348.2 37.1682 348.546 36.7287 348.776 36.1913C349.007 35.6539 349.117 35.0919 349.107 34.5053L349.107 34.4853L346.567 34.5296C345.58 34.5468 344.884 34.7324 344.476 35.0862C344.082 35.4264 343.89 35.8499 343.898 36.3565C343.907 36.8764 344.101 37.2931 344.48 37.6065C344.872 37.9064 345.415 38.0503 346.108 38.0382ZM357.034 39.0276C356.127 39.0434 355.41 38.8359 354.883 38.4051C354.355 37.9742 354.081 37.1855 354.061 36.039L353.966 30.5799L352.246 30.6099L352.221 29.1901L353.941 29.1601L354.12 26.7766L355.579 26.7511L355.621 29.1308L358.54 29.0798L358.565 30.4996L355.646 30.5506L355.741 36.0097C355.752 36.6363 355.886 37.0607 356.143 37.2829C356.4 37.4918 356.849 37.5906 357.489 37.5795L358.529 37.5613L358.554 39.0011L357.034 39.0276ZM361.388 38.9516L361.239 30.4529L359.739 30.4791L359.715 29.0593L361.214 29.0331L361.184 27.3134C361.168 26.3535 361.395 25.6495 361.868 25.2012C362.34 24.7528 363.036 24.5207 363.956 24.5046L364.956 24.4872L364.981 25.9269L364.241 25.9399C363.734 25.9487 363.376 26.0616 363.167 26.2787C362.957 26.4823 362.856 26.8308 362.865 27.3241L362.894 29.0038L365.334 28.9612L365.359 30.381L362.919 30.4236L363.067 38.9223L361.388 38.9516ZM371.64 39.0127C370.707 39.029 369.863 38.8304 369.109 38.4168C368.355 38.0032 367.751 37.4137 367.298 36.6481C366.857 35.869 366.628 34.9529 366.61 33.8997C366.591 32.8465 366.795 31.9295 367.222 31.1486C367.648 30.3544 368.231 29.7375 368.97 29.2978C369.722 28.858 370.565 28.6299 371.498 28.6136C372.431 28.5973 373.275 28.796 374.029 29.2095C374.783 29.6231 375.38 30.2194 375.821 30.9985C376.274 31.7641 376.51 32.6734 376.528 33.7266C376.547 34.7798 376.343 35.7035 375.916 36.4977C375.49 37.2786 374.901 37.889 374.148 38.3288C373.409 38.7685 372.573 38.9964 371.64 39.0127ZM371.615 37.5729C372.188 37.5629 372.719 37.4136 373.207 37.1251C373.695 36.8365 374.088 36.4096 374.385 35.8443C374.682 35.2791 374.823 34.5832 374.808 33.7566C374.794 32.9301 374.629 32.2395 374.312 31.685C374.009 31.1302 373.609 30.7171 373.11 30.4457C372.612 30.1744 372.083 30.0436 371.523 30.0534C370.95 30.0634 370.419 30.2127 369.931 30.5012C369.443 30.7898 369.05 31.2167 368.753 31.782C368.456 32.3473 368.315 33.0432 368.329 33.8697C368.344 34.6962 368.509 35.3868 368.826 35.9414C369.142 36.4959 369.543 36.909 370.028 37.1806C370.526 37.4519 371.055 37.5827 371.615 37.5729ZM378.95 38.6451L378.777 28.7266L380.297 28.7001L380.47 30.5973C380.765 29.9387 381.223 29.4107 381.843 29.0131C382.463 28.6156 383.232 28.4088 384.152 28.3927L384.183 30.1525L383.723 30.1605C383.136 30.1707 382.598 30.2868 382.109 30.5087C381.619 30.7173 381.232 31.0708 380.947 31.5691C380.663 32.0675 380.528 32.75 380.543 33.6165L380.63 38.6158L378.95 38.6451ZM386.215 38.5183L386.042 28.5998L387.562 28.5733L387.707 30.0109C388.017 29.4721 388.437 29.0514 388.965 28.7488C389.493 28.4462 390.09 28.2891 390.757 28.2774C391.543 28.2637 392.219 28.4119 392.785 28.7221C393.364 29.0321 393.812 29.511 394.13 30.1589C394.466 29.5529 394.931 29.0714 395.525 28.7143C396.132 28.357 396.789 28.1721 397.496 28.1598C398.682 28.1391 399.635 28.4825 400.354 29.1901C401.073 29.8843 401.446 30.9713 401.471 32.4511L401.573 38.2502L399.913 38.2792L399.815 32.66C399.797 31.6335 399.577 30.8639 399.154 30.3512C398.732 29.8385 398.134 29.5889 397.361 29.6024C396.561 29.6163 395.9 29.9413 395.378 30.5771C394.868 31.1995 394.624 32.0839 394.644 33.2304L394.734 38.3696L393.054 38.3989L392.956 32.7797C392.938 31.7532 392.718 30.9836 392.295 30.4709C391.873 29.9582 391.275 29.7086 390.502 29.7221C389.715 29.7358 389.061 30.0606 388.539 30.6965C388.03 31.3188 387.785 32.2032 387.805 33.3497L387.895 38.4889L386.215 38.5183ZM413.638 38.2796C412.679 38.2964 411.829 38.1378 411.09 37.804C410.364 37.4567 409.788 36.9733 409.364 36.3539C408.953 35.721 408.74 34.9713 408.725 34.1047C408.708 33.1582 408.967 32.3136 409.501 31.5708C410.048 30.8145 410.844 30.2138 411.89 29.7688C411.428 29.2835 411.093 28.8226 410.885 28.3862C410.678 27.9364 410.569 27.4515 410.56 26.9316C410.544 26.0384 410.845 25.2997 411.461 24.7156C412.091 24.1178 412.959 23.8093 414.066 23.79C414.786 23.7774 415.415 23.9064 415.953 24.1771C416.491 24.4344 416.91 24.8005 417.212 25.2753C417.514 25.7501 417.657 26.2943 417.641 26.908L415.981 26.937C415.984 26.3369 415.789 25.8869 415.397 25.587C415.019 25.2869 414.583 25.1411 414.089 25.1498C413.49 25.1602 413.026 25.3283 412.698 25.6541C412.37 25.9799 412.211 26.3894 412.219 26.8827C412.227 27.3093 412.347 27.7205 412.581 28.1165C412.828 28.5123 413.189 28.9527 413.664 29.4378L418.161 33.82C418.538 33.2533 418.946 32.5728 419.386 31.7783L419.987 30.6877L421.767 30.6566L420.914 32.2317C420.346 33.2951 419.801 34.1848 419.28 34.9006L422.353 37.8875L420.233 37.9245L418.341 36.0772C417.647 36.8494 416.924 37.4088 416.17 37.7554C415.415 38.0886 414.572 38.2633 413.638 38.2796ZM410.404 34.0154C410.418 34.842 410.723 35.5234 411.319 36.0598C411.916 36.5961 412.687 36.856 413.633 36.8395C414.34 36.8272 414.977 36.6827 415.546 36.406C416.128 36.1159 416.693 35.6526 417.242 35.0162L412.928 30.7909C412.054 31.1529 411.408 31.6042 410.991 32.1449C410.587 32.6854 410.391 33.3089 410.404 34.0154ZM429.41 42.165L429.16 27.8471L430.68 27.8206L430.869 29.4576C431.18 28.9721 431.626 28.5309 432.206 28.134C432.799 27.737 433.555 27.5304 434.475 27.5143C435.462 27.4971 436.326 27.7087 437.067 28.1492C437.808 28.5897 438.385 29.1997 438.799 29.9793C439.226 30.7586 439.448 31.6482 439.466 32.648C439.483 33.6479 439.292 34.5447 438.892 35.3384C438.506 36.1186 437.943 36.7419 437.205 37.2082C436.479 37.6609 435.623 37.8959 434.637 37.9131C433.823 37.9273 433.094 37.7733 432.448 37.4512C431.816 37.1289 431.328 36.6707 430.984 36.0766L431.09 42.1356L429.41 42.165ZM434.431 36.4565C435.098 36.4448 435.682 36.2813 436.183 35.9658C436.684 35.637 437.076 35.1901 437.36 34.6251C437.643 34.06 437.778 33.4042 437.765 32.6577C437.752 31.9111 437.594 31.2605 437.291 30.7057C436.988 30.1509 436.581 29.7246 436.069 29.4268C435.557 29.1157 434.967 28.966 434.301 28.9776C433.634 28.9892 433.05 29.1595 432.549 29.4882C432.048 29.8037 431.656 30.244 431.372 30.809C431.089 31.374 430.953 32.0298 430.966 32.7764C430.98 33.5229 431.138 34.1736 431.441 34.7284C431.744 35.2832 432.151 35.7161 432.663 36.0272C433.175 36.325 433.765 36.4681 434.431 36.4565ZM441.89 37.5465L441.717 27.628L443.237 27.6014L443.41 29.4987C443.705 28.8401 444.163 28.3121 444.782 27.9145C445.402 27.517 446.172 27.3102 447.092 27.2941L447.123 29.0538L446.663 29.0619C446.076 29.0721 445.538 29.1882 445.048 29.4101C444.559 29.6187 444.171 29.9722 443.887 30.4705C443.602 30.9689 443.467 31.6514 443.482 32.5179L443.57 37.5171L441.89 37.5465ZM453.307 37.5872C452.374 37.6035 451.53 37.4049 450.776 36.9913C450.022 36.5777 449.418 35.9882 448.965 35.2226C448.525 34.4435 448.295 33.5274 448.277 32.4742C448.259 31.421 448.463 30.504 448.889 29.7231C449.315 28.9289 449.898 28.312 450.637 27.8723C451.389 27.4325 452.232 27.2044 453.165 27.1881C454.099 27.1718 454.942 27.3704 455.696 27.784C456.45 28.1976 457.047 28.7939 457.488 29.573C457.941 30.3386 458.177 31.2479 458.195 32.3011C458.214 33.3543 458.01 34.278 457.584 35.0722C457.157 35.8531 456.568 36.4635 455.815 36.9033C455.076 37.343 454.24 37.5709 453.307 37.5872ZM453.282 36.1474C453.855 36.1374 454.386 35.9881 454.874 35.6996C455.363 35.411 455.755 34.9841 456.052 34.4188C456.349 33.8536 456.49 33.1576 456.476 32.3311C456.461 31.5046 456.296 30.814 455.98 30.2594C455.676 29.7047 455.276 29.2916 454.778 29.0202C454.28 28.7489 453.751 28.6181 453.191 28.6279C452.617 28.6379 452.087 28.7872 451.598 29.0757C451.11 29.3643 450.717 29.7912 450.42 30.3565C450.124 30.9218 449.982 31.6177 449.997 32.4442C450.011 33.2707 450.177 33.9613 450.493 34.5159C450.809 35.0704 451.21 35.4835 451.695 35.7551C452.193 36.0264 452.722 36.1572 453.282 36.1474ZM460.618 37.2196L460.444 27.3011L461.964 27.2745L462.109 28.7122C462.42 28.1734 462.839 27.7527 463.368 27.4501C463.896 27.1475 464.493 26.9904 465.16 26.9787C465.946 26.965 466.622 27.1132 467.188 27.4234C467.766 27.7334 468.215 28.2123 468.533 28.8601C468.869 28.2542 469.334 27.7727 469.928 27.4156C470.535 27.0583 471.192 26.8734 471.899 26.8611C473.085 26.8404 474.038 27.1838 474.757 27.8914C475.476 28.5856 475.848 29.6726 475.874 31.1524L475.975 36.9515L474.316 36.9805L474.217 31.3613C474.2 30.3348 473.979 29.5652 473.557 29.0525C473.135 28.5398 472.537 28.2902 471.764 28.3037C470.964 28.3176 470.303 28.6426 469.78 29.2784C469.271 29.9008 469.027 30.7852 469.047 31.9317L469.136 37.0709L467.457 37.1002L467.358 31.481C467.341 30.4545 467.12 29.6849 466.698 29.1722C466.276 28.6595 465.678 28.4099 464.905 28.4234C464.118 28.4371 463.464 28.7619 462.941 29.3978C462.432 30.0201 462.188 30.9045 462.208 32.051L462.297 37.1902L460.618 37.2196ZM483.029 37.0684C482.096 37.0847 481.252 36.8861 480.498 36.4725C479.744 36.0589 479.141 35.4694 478.687 34.7038C478.247 33.9247 478.017 33.0086 477.999 31.9554C477.981 30.9022 478.185 29.9852 478.611 29.2043C479.037 28.4101 479.62 27.7932 480.359 27.3535C481.112 26.9137 481.954 26.6856 482.888 26.6693C483.821 26.653 484.664 26.8516 485.418 27.2652C486.172 27.6788 486.769 28.2751 487.21 29.0542C487.663 29.8198 487.899 30.7291 487.918 31.7823C487.936 32.8355 487.732 33.7592 487.306 34.5534C486.879 35.3343 486.29 35.9447 485.537 36.3845C484.798 36.8242 483.962 37.0521 483.029 37.0684ZM483.004 35.6286C483.577 35.6186 484.108 35.4693 484.596 35.1808C485.085 34.8922 485.477 34.4653 485.774 33.9C486.071 33.3348 486.212 32.6388 486.198 31.8123C486.183 30.9858 486.018 30.2952 485.702 29.7406C485.398 29.1859 484.998 28.7728 484.5 28.5014C484.002 28.2301 483.473 28.0993 482.913 28.1091C482.339 28.1191 481.809 28.2684 481.32 28.5569C480.832 28.8455 480.439 29.2724 480.142 29.8377C479.846 30.403 479.704 31.0989 479.719 31.9254C479.733 32.7519 479.899 33.4425 480.215 33.9971C480.531 34.5516 480.932 34.9647 481.417 35.2363C481.915 35.5076 482.444 35.6384 483.004 35.6286ZM494.143 36.8744C492.957 36.8951 491.965 36.6124 491.168 36.0262C490.371 35.44 489.897 34.6348 489.746 33.6107L491.465 33.5806C491.581 34.0987 491.862 34.5472 492.309 34.9261C492.769 35.2915 493.379 35.4675 494.138 35.4543C494.845 35.4419 495.362 35.2862 495.691 34.9871C496.018 34.6747 496.179 34.3118 496.172 33.8986C496.161 33.2986 495.934 32.9025 495.491 32.7103C495.061 32.5177 494.451 32.3483 493.662 32.2021C493.127 32.1048 492.591 31.9608 492.054 31.7701C491.517 31.5794 491.066 31.3073 490.699 30.9536C490.333 30.5866 490.144 30.1032 490.134 29.5033C490.119 28.6367 490.427 27.9246 491.057 27.3668C491.7 26.7955 492.575 26.5002 493.682 26.4809C494.735 26.4625 495.6 26.7141 496.275 27.2357C496.964 27.7438 497.371 28.4835 497.494 29.4548L495.835 29.4838C495.759 28.9783 495.532 28.5889 495.154 28.3155C494.789 28.0285 494.3 27.8903 493.687 27.901C493.087 27.9115 492.622 28.0463 492.293 28.3054C491.978 28.5643 491.824 28.9003 491.831 29.3136C491.838 29.7136 492.05 30.0232 492.467 30.2426C492.898 30.4618 493.474 30.6451 494.197 30.7925C494.813 30.9152 495.396 31.0717 495.946 31.2621C496.509 31.439 496.967 31.7177 497.32 32.0982C497.687 32.4652 497.876 33.0087 497.889 33.7286C497.918 34.6215 497.591 35.3673 496.908 35.966C496.238 36.5511 495.316 36.8539 494.143 36.8744ZM501.146 24.3903C500.813 24.3961 500.531 24.2943 500.301 24.085C500.084 23.8621 499.972 23.584 499.966 23.2507C499.961 22.9308 500.063 22.6623 500.272 22.4452C500.495 22.228 500.773 22.1164 501.107 22.1106C501.427 22.105 501.702 22.2069 501.932 22.4163C502.162 22.6256 502.28 22.8903 502.286 23.2102C502.292 23.5435 502.183 23.8254 501.961 24.056C501.738 24.2733 501.466 24.3847 501.146 24.3903ZM500.518 36.5231L500.345 26.6046L502.025 26.5753L502.198 36.4938L500.518 36.5231ZM510.515 36.3486L510.27 22.3507L518.929 22.1996L518.953 23.5794L511.974 23.7012L512.059 28.5805L518.438 28.4691L518.462 29.8289L512.083 29.9403L512.17 34.9395L519.149 34.8177L519.173 36.1975L510.515 36.3486ZM525.006 36.3357C524.179 36.3501 523.49 36.2221 522.939 35.9517C522.387 35.6813 521.974 35.3151 521.699 34.8532C521.425 34.3912 521.282 33.887 521.273 33.3404C521.255 32.3272 521.628 31.5406 522.392 30.9805C523.156 30.4204 524.204 30.1287 525.537 30.1055L528.217 30.0587L528.215 29.9387C528.199 29.0722 527.961 28.4229 527.5 27.9909C527.039 27.5455 526.429 27.3295 525.669 27.3428C525.016 27.3542 524.452 27.5307 523.978 27.8724C523.517 28.2004 523.232 28.6788 523.123 29.3075L521.403 29.3375C521.457 28.6165 521.687 28.0057 522.091 27.5052C522.509 27.0045 523.029 26.6221 523.651 26.3578C524.273 26.0803 524.938 25.9353 525.644 25.923C527.031 25.8988 528.077 26.2539 528.783 26.9884C529.503 27.7092 529.873 28.6829 529.894 29.9094L530.001 36.0085L528.501 36.0347L528.37 34.2567C528.1 34.8215 527.695 35.3086 527.155 35.7181C526.629 36.114 525.912 36.3199 525.006 36.3357ZM525.241 34.9114C525.881 34.9002 526.425 34.724 526.872 34.3828C527.333 34.0414 527.678 33.602 527.909 33.0645C528.14 32.5271 528.25 31.9651 528.24 31.3785L528.239 31.3585L525.7 31.4028C524.713 31.4201 524.016 31.6056 523.609 31.9594C523.215 32.2997 523.022 32.7231 523.031 33.2297C523.04 33.7496 523.234 34.1663 523.613 34.4797C524.005 34.7796 524.548 34.9235 525.241 34.9114ZM536.324 36.1381C535.138 36.1588 534.146 35.8761 533.349 35.2899C532.552 34.7038 532.078 33.8986 531.927 32.8744L533.646 32.8444C533.762 33.3624 534.043 33.8109 534.49 34.1899C534.95 34.5552 535.56 34.7313 536.32 34.718C537.026 34.7057 537.543 34.5499 537.872 34.2508C538.2 33.9384 538.36 33.5756 538.353 33.1623C538.342 32.5624 538.115 32.1663 537.672 31.974C537.242 31.7815 536.632 31.6121 535.843 31.4658C535.308 31.3685 534.772 31.2245 534.235 31.0338C533.698 30.8432 533.247 30.571 532.88 30.2173C532.514 29.8503 532.326 29.3669 532.315 28.767C532.3 27.9004 532.608 27.1883 533.238 26.6306C533.881 26.0592 534.756 25.7639 535.863 25.7446C536.916 25.7262 537.781 25.9778 538.456 26.4995C539.145 27.0075 539.552 27.7472 539.675 28.7185L538.016 28.7475C537.94 28.2421 537.713 27.8526 537.335 27.5792C536.97 27.2922 536.481 27.154 535.868 27.1647C535.268 27.1752 534.803 27.31 534.475 27.5691C534.159 27.828 534.005 28.1641 534.012 28.5773C534.019 28.9773 534.231 29.287 534.648 29.5064C535.079 29.7256 535.656 29.9089 536.378 30.0563C536.994 30.1789 537.577 30.3354 538.127 30.5258C538.69 30.7027 539.148 30.9814 539.501 31.362C539.868 31.729 540.057 32.2724 540.07 32.9923C540.099 33.8852 539.772 34.6311 539.089 35.2297C538.419 35.8149 537.497 36.1177 536.324 36.1381ZM543.246 40.1779L545.612 34.7758L545.032 34.786L540.937 25.8961L542.756 25.8643L546.171 33.5259L549.515 25.7463L551.255 25.716L545.006 40.1472L543.246 40.1779ZM556.581 35.5445L556.36 22.9264L552.181 22.9994L552.157 21.6196L562.195 21.4444L562.22 22.8242L558.04 22.8971L558.26 35.5152L556.581 35.5445ZM565.199 23.2722C564.866 23.2781 564.584 23.1763 564.354 22.9669C564.136 22.744 564.025 22.4659 564.019 22.1327C564.014 21.8127 564.116 21.5442 564.325 21.3272C564.548 21.1099 564.826 20.9984 565.159 20.9926C565.479 20.987 565.755 21.0889 565.985 21.2982C566.215 21.5076 566.333 21.7722 566.339 22.0922C566.345 22.4255 566.236 22.7074 566.013 22.938C565.791 23.1552 565.519 23.2667 565.199 23.2722ZM564.571 35.4051L564.398 25.4866L566.077 25.4572L566.251 35.3757L564.571 35.4051ZM573.739 35.4851C572.792 35.5016 571.935 35.3032 571.168 34.8898C570.414 34.4629 569.81 33.8667 569.357 33.1012C568.916 32.3221 568.687 31.4126 568.669 30.3728C568.651 29.3329 568.848 28.4227 569.261 27.642C569.687 26.8478 570.27 26.2309 571.009 25.7912C571.761 25.338 572.611 25.1032 573.557 25.0866C574.73 25.0662 575.722 25.3556 576.533 25.9548C577.357 26.5539 577.884 27.3648 578.116 28.3876L576.396 28.4176C576.252 27.8067 575.917 27.3391 575.391 27.0149C574.865 26.6774 574.256 26.5147 573.562 26.5268C573.003 26.5366 572.478 26.6857 571.99 26.9743C571.502 27.2629 571.109 27.6898 570.812 28.255C570.515 28.8203 570.374 29.5162 570.389 30.3428C570.403 31.1693 570.568 31.8598 570.885 32.4144C571.201 32.969 571.609 33.3886 572.107 33.6733C572.605 33.9446 573.134 34.0754 573.694 34.0656C574.387 34.0535 574.991 33.8763 575.505 33.5339C576.019 33.1783 576.337 32.686 576.459 32.0571L578.179 32.027C577.997 33.0304 577.504 33.8524 576.702 34.4932C575.9 35.134 574.912 35.4646 573.739 35.4851ZM580.58 35.1256L580.329 20.7278L582.008 20.6985L582.159 29.3572L586.146 25.107L588.206 25.071L583.884 29.6271L588.939 34.9797L586.799 35.0171L582.17 29.9571L582.26 35.0963L580.58 35.1256ZM594.397 35.1245C593.451 35.141 592.607 34.9423 591.867 34.5285C591.126 34.1014 590.535 33.505 590.095 32.7392C589.668 31.9732 589.446 31.0636 589.427 30.0104C589.409 28.9706 589.6 28.0604 590 27.28C590.399 26.4863 590.962 25.8697 591.688 25.4303C592.427 24.9773 593.283 24.7423 594.256 24.7254C595.216 24.7086 596.046 24.9141 596.747 25.342C597.461 25.7562 598.011 26.3134 598.396 27.0134C598.782 27.7135 598.982 28.4701 598.996 29.2833C598.999 29.43 598.995 29.5767 598.984 29.7236C598.986 29.8702 598.989 30.0369 598.993 30.2235L591.094 30.3614C591.147 31.1206 591.331 31.7508 591.647 32.252C591.975 32.7397 592.375 33.1061 592.846 33.3513C593.331 33.5962 593.839 33.714 594.373 33.7047C595.066 33.6926 595.643 33.5225 596.104 33.1944C596.565 32.8663 596.897 32.4271 597.101 31.8768L598.761 31.8478C598.51 32.7723 598.01 33.5478 597.261 34.1743C596.525 34.7873 595.571 35.104 594.397 35.1245ZM594.241 26.1458C593.441 26.1598 592.732 26.4189 592.114 26.9231C591.509 27.4137 591.168 28.1264 591.091 29.0612L597.33 28.9523C597.275 28.0598 596.956 27.3653 596.374 26.8687C595.792 26.3721 595.081 26.1312 594.241 26.1458ZM604.906 34.701C604 34.7168 603.283 34.5093 602.755 34.0784C602.227 33.6476 601.954 32.8589 601.934 31.7124L601.838 26.2533L600.119 26.2833L600.094 24.8635L601.814 24.8335L601.992 22.45L603.452 22.4245L603.493 24.8041L606.413 24.7532L606.438 26.173L603.518 26.2239L603.613 31.6831C603.624 32.3097 603.758 32.7341 604.016 32.9563C604.273 33.1652 604.721 33.264 605.361 33.2528L606.401 33.2347L606.426 34.6745L604.906 34.701Z" fill="#282828"/>
</g>
<defs>
<filter id="filter0_d_1_2172" x="0.361389" y="0.656982" width="624.277" height="70.2415" filterUnits="userSpaceOnUse" color-interpolation-filters="sRGB">
<feFlood flood-opacity="0" result="BackgroundImageFix"/>
<feColorMatrix in="SourceAlpha" type="matrix" values="0 0 0 0 0 0 0 0 0 0 0 0 0 0 0 0 0 0 127 0" result="hardAlpha"/>
<feOffset dx="-3" dy="5"/>
<feComposite in2="hardAlpha" operator="out"/>
<feColorMatrix type="matrix" values="0 0 0 0 0.156863 0 0 0 0 0.156863 0 0 0 0 0.156863 0 0 0 1 0"/>
<feBlend mode="normal" in2="BackgroundImageFix" result="effect1_dropShadow_1_2172"/>
<feBlend mode="normal" in="SourceGraphic" in2="effect1_dropShadow_1_2172" result="shape"/>
</filter>
</defs>
</svg>
