<svg width="472" height="85" viewBox="0 0 472 85" fill="none" xmlns="http://www.w3.org/2000/svg">
<g filter="url(#filter0_d_1_2194)">
<rect width="468" height="80" rx="16" fill="#8C52FF" shape-rendering="crispEdges"/>
<rect x="0.5" y="0.5" width="467" height="79" rx="15.5" stroke="#441F8D" shape-rendering="crispEdges"/>
<path d="M33.2368 42.416C33.2368 44.1227 32.9808 45.584 32.4688 46.8C31.9781 47.9947 31.2421 48.912 30.2608 49.552C29.3008 50.192 28.1061 50.512 26.6768 50.512C25.9301 50.512 25.1728 50.416 24.4048 50.224C23.6581 50.032 22.8901 49.776 22.1008 49.456L21.2368 45.296L23.7008 44.72L24.3728 47.632C24.7994 47.8027 25.2048 47.9307 25.5888 48.016C25.9728 48.1013 26.3248 48.144 26.6448 48.144C27.7968 48.144 28.6928 47.6853 29.3328 46.768C29.9941 45.8507 30.3248 44.5173 30.3248 42.768L30.3568 33.648H26.1968V31.152H36.1488V33.648H33.2368V42.416ZM44.3855 35.6C45.8575 35.6 47.1268 35.8987 48.1935 36.496C49.2815 37.0933 50.1242 37.9467 50.7215 39.056C51.3188 40.1653 51.6175 41.5093 51.6175 43.088C51.6175 45.392 50.9562 47.2053 49.6335 48.528C48.3322 49.8507 46.5828 50.512 44.3855 50.512C42.9562 50.512 41.7082 50.2133 40.6415 49.616C39.5748 49.0187 38.7428 48.1653 38.1455 47.056C37.5695 45.9467 37.2815 44.624 37.2815 43.088C37.2815 41.5093 37.5695 40.1653 38.1455 39.056C38.7428 37.9467 39.5748 37.0933 40.6415 36.496C41.7082 35.8987 42.9562 35.6 44.3855 35.6ZM44.4175 37.904C42.9882 37.904 41.9108 38.352 41.1855 39.248C40.4815 40.144 40.1295 41.424 40.1295 43.088C40.1295 44.7307 40.4815 46 41.1855 46.896C41.9108 47.7707 42.9882 48.208 44.4175 48.208C45.8682 48.208 46.9562 47.7707 47.6815 46.896C48.4068 46 48.7695 44.7307 48.7695 43.088C48.7695 41.424 48.4068 40.144 47.6815 39.248C46.9562 38.352 45.8682 37.904 44.4175 37.904ZM54.0903 36.112H59.5943V47.76H62.2503V50H54.0903V47.76H56.7463V38.352H54.0903V36.112ZM57.8343 29.264C58.4529 29.264 58.9436 29.456 59.3063 29.84C59.6903 30.2027 59.8823 30.6933 59.8823 31.312C59.8823 31.9307 59.6903 32.432 59.3063 32.816C58.9436 33.1787 58.4529 33.36 57.8343 33.36C57.2156 33.36 56.7249 33.1787 56.3623 32.816C55.9996 32.432 55.8183 31.9307 55.8183 31.312C55.8183 30.6933 55.9996 30.2027 56.3623 29.84C56.7249 29.456 57.2156 29.264 57.8343 29.264ZM64.376 50V47.76H67.064V38.96L63.992 37.904L64.728 35.664L69.048 37.168C69.816 36.656 70.616 36.272 71.448 36.016C72.3013 35.7387 73.1867 35.6 74.104 35.6C75.2133 35.6 76.1947 35.8133 77.048 36.24C77.9013 36.6667 78.5733 37.296 79.064 38.128C79.5547 38.96 79.8 39.9733 79.8 41.168V47.76H82.456V50H75.576V47.76H76.984V41.68C76.984 40.4 76.664 39.4613 76.024 38.864C75.4053 38.2667 74.584 37.968 73.56 37.968C72.9627 37.968 72.344 38.064 71.704 38.256C71.064 38.4267 70.456 38.6933 69.88 39.056V47.76H71.288V50H64.376ZM109.076 43.152C109.076 45.392 108.5 47.184 107.348 48.528C106.196 49.8507 104.394 50.512 101.94 50.512C99.5509 50.512 97.7909 49.8507 96.6603 48.528C95.5509 47.184 94.9963 45.392 94.9963 43.152V33.648H92.0203V31.152H99.8923V33.648H97.8763V43.952C97.8763 45.4027 98.2389 46.4587 98.9643 47.12C99.7109 47.7813 100.703 48.112 101.94 48.112C103.242 48.112 104.276 47.7493 105.044 47.024C105.812 46.2987 106.196 45.168 106.196 43.632V33.648H104.212V31.152H112.052V33.648H109.076V43.152ZM121.204 38.256C120.756 38.0853 120.319 37.9573 119.892 37.872C119.487 37.7653 118.975 37.712 118.356 37.712C117.567 37.712 116.852 37.8827 116.212 38.224C115.594 38.544 115.284 39.024 115.284 39.664C115.284 40.2613 115.519 40.7307 115.988 41.072C116.479 41.4133 117.215 41.6373 118.196 41.744L119.7 41.936C121.428 42.1067 122.644 42.544 123.348 43.248C124.074 43.9307 124.436 44.8587 124.436 46.032C124.436 46.9493 124.18 47.7493 123.668 48.432C123.156 49.1147 122.452 49.6373 121.556 50C120.682 50.3413 119.668 50.512 118.516 50.512C117.428 50.512 116.394 50.3733 115.412 50.096C114.431 49.84 113.578 49.4987 112.852 49.072L112.276 45.808L114.74 45.264L115.156 47.376C115.647 47.632 116.17 47.8347 116.724 47.984C117.279 48.112 117.834 48.176 118.388 48.176C119.327 48.176 120.138 48.0053 120.82 47.664C121.524 47.3013 121.876 46.7787 121.876 46.096C121.876 45.4987 121.674 45.072 121.268 44.816C120.863 44.5387 120.148 44.336 119.124 44.208L117.588 44.016C116.031 43.824 114.826 43.3653 113.972 42.64C113.14 41.8933 112.724 40.9653 112.724 39.856C112.724 38.9173 112.98 38.128 113.492 37.488C114.026 36.848 114.719 36.368 115.572 36.048C116.447 35.728 117.375 35.568 118.356 35.568C119.359 35.568 120.266 35.6747 121.076 35.888C121.887 36.08 122.655 36.3787 123.38 36.784L123.956 39.824L121.748 40.304L121.204 38.256ZM134.873 31.152H142.297L150.073 45.712V33.648H147.449V31.152H155.929V33.648H152.857V50H149.401L140.569 33.648L140.633 47.504H143.321V50H134.841V47.504H137.849L137.817 33.648H134.873V31.152ZM164.917 35.6C166.389 35.6 167.658 35.8987 168.725 36.496C169.813 37.0933 170.655 37.9467 171.253 39.056C171.85 40.1653 172.149 41.5093 172.149 43.088C172.149 45.392 171.487 47.2053 170.165 48.528C168.863 49.8507 167.114 50.512 164.917 50.512C163.487 50.512 162.239 50.2133 161.173 49.616C160.106 49.0187 159.274 48.1653 158.677 47.056C158.101 45.9467 157.813 44.624 157.813 43.088C157.813 41.5093 158.101 40.1653 158.677 39.056C159.274 37.9467 160.106 37.0933 161.173 36.496C162.239 35.8987 163.487 35.6 164.917 35.6ZM164.949 37.904C163.519 37.904 162.442 38.352 161.717 39.248C161.013 40.144 160.661 41.424 160.661 43.088C160.661 44.7307 161.013 46 161.717 46.896C162.442 47.7707 163.519 48.208 164.949 48.208C166.399 48.208 167.487 47.7707 168.213 46.896C168.938 46 169.301 44.7307 169.301 43.088C169.301 41.424 168.938 40.144 168.213 39.248C167.487 38.352 166.399 37.904 164.949 37.904ZM178.682 50L174.874 38.352H172.346V36.112H179.706V38.352H177.69L179.322 43.664L180.346 47.024L181.306 43.728L183.034 38.096H185.818L187.578 43.856L188.538 47.088L189.466 43.984L191.258 38.352H189.466V36.112H196.314V38.352H193.786L189.946 50H187.098L184.41 41.424L181.594 50H178.682ZM205.784 41.36H227.864V43.824H205.784V41.36ZM238.498 31.152H247.458V33.648H244.482L244.418 47.504H247.458V50H238.466V47.504H241.57V33.648H238.498V31.152ZM256.316 50.512C255.462 50.512 254.673 50.3413 253.948 50C253.244 49.68 252.678 49.1253 252.252 48.336C251.825 47.5467 251.612 46.4693 251.612 45.104V38.352H248.956V36.112H251.612V33.104L254.364 32.4V36.112H258.332V38.352H254.364V43.824C254.364 45.1893 254.502 46.288 254.78 47.12C255.078 47.9307 255.676 48.336 256.572 48.336C257.212 48.336 257.948 48.1333 258.78 47.728L259.324 49.776C258.854 49.968 258.364 50.1387 257.852 50.288C257.34 50.4373 256.828 50.512 256.316 50.512ZM260.352 31.024H263.392L262.912 37.712H260.8L260.352 31.024ZM273.548 38.256C273.1 38.0853 272.663 37.9573 272.236 37.872C271.831 37.7653 271.319 37.712 270.7 37.712C269.911 37.712 269.196 37.8827 268.556 38.224C267.937 38.544 267.628 39.024 267.628 39.664C267.628 40.2613 267.863 40.7307 268.332 41.072C268.823 41.4133 269.559 41.6373 270.54 41.744L272.044 41.936C273.772 42.1067 274.988 42.544 275.692 43.248C276.417 43.9307 276.78 44.8587 276.78 46.032C276.78 46.9493 276.524 47.7493 276.012 48.432C275.5 49.1147 274.796 49.6373 273.9 50C273.025 50.3413 272.012 50.512 270.86 50.512C269.772 50.512 268.737 50.3733 267.756 50.096C266.775 49.84 265.921 49.4987 265.196 49.072L264.62 45.808L267.084 45.264L267.5 47.376C267.991 47.632 268.513 47.8347 269.068 47.984C269.623 48.112 270.177 48.176 270.732 48.176C271.671 48.176 272.481 48.0053 273.164 47.664C273.868 47.3013 274.22 46.7787 274.22 46.096C274.22 45.4987 274.017 45.072 273.612 44.816C273.207 44.5387 272.492 44.336 271.468 44.208L269.932 44.016C268.375 43.824 267.169 43.3653 266.316 42.64C265.484 41.8933 265.068 40.9653 265.068 39.856C265.068 38.9173 265.324 38.128 265.836 37.488C266.369 36.848 267.063 36.368 267.916 36.048C268.791 35.728 269.719 35.568 270.7 35.568C271.703 35.568 272.609 35.6747 273.42 35.888C274.231 36.08 274.999 36.3787 275.724 36.784L276.3 39.824L274.092 40.304L273.548 38.256ZM294.225 31.024H296.017L295.985 47.504H300.913V50H287.889V47.504H293.137L293.169 35.248L288.817 38.832L287.217 36.848L294.225 31.024ZM310.318 30.64C311.449 30.64 312.473 30.8107 313.39 31.152C314.329 31.472 315.139 32.016 315.822 32.784C316.526 33.552 317.07 34.576 317.454 35.856C317.838 37.136 318.03 38.7147 318.03 40.592C318.03 42.448 317.838 44.016 317.454 45.296C317.07 46.576 316.526 47.6 315.822 48.368C315.139 49.136 314.329 49.68 313.39 50C312.473 50.3413 311.449 50.512 310.318 50.512C309.187 50.512 308.153 50.3413 307.214 50C306.275 49.68 305.465 49.136 304.782 48.368C304.099 47.6 303.566 46.576 303.182 45.296C302.819 44.016 302.638 42.448 302.638 40.592C302.638 38.7147 302.819 37.136 303.182 35.856C303.566 34.576 304.099 33.552 304.782 32.784C305.465 32.016 306.275 31.472 307.214 31.152C308.153 30.8107 309.187 30.64 310.318 30.64ZM310.318 33.136C309.699 33.136 309.102 33.2427 308.526 33.456C307.971 33.648 307.481 34.0107 307.054 34.544C306.649 35.056 306.318 35.8027 306.062 36.784C305.827 37.7653 305.71 39.0347 305.71 40.592C305.71 42.128 305.827 43.3867 306.062 44.368C306.318 45.328 306.649 46.0747 307.054 46.608C307.481 47.1413 307.971 47.5147 308.526 47.728C309.102 47.92 309.699 48.016 310.318 48.016C310.958 48.016 311.555 47.92 312.11 47.728C312.665 47.5147 313.155 47.1413 313.582 46.608C314.009 46.0747 314.339 45.328 314.574 44.368C314.83 43.3867 314.958 42.128 314.958 40.592C314.958 39.0347 314.83 37.7653 314.574 36.784C314.339 35.8027 314.009 35.056 313.582 34.544C313.155 34.0107 312.665 33.648 312.11 33.456C311.555 33.2427 310.958 33.136 310.318 33.136ZM329.443 30.64C330.574 30.64 331.598 30.8107 332.515 31.152C333.454 31.472 334.264 32.016 334.947 32.784C335.651 33.552 336.195 34.576 336.579 35.856C336.963 37.136 337.155 38.7147 337.155 40.592C337.155 42.448 336.963 44.016 336.579 45.296C336.195 46.576 335.651 47.6 334.947 48.368C334.264 49.136 333.454 49.68 332.515 50C331.598 50.3413 330.574 50.512 329.443 50.512C328.312 50.512 327.278 50.3413 326.339 50C325.4 49.68 324.59 49.136 323.907 48.368C323.224 47.6 322.691 46.576 322.307 45.296C321.944 44.016 321.763 42.448 321.763 40.592C321.763 38.7147 321.944 37.136 322.307 35.856C322.691 34.576 323.224 33.552 323.907 32.784C324.59 32.016 325.4 31.472 326.339 31.152C327.278 30.8107 328.312 30.64 329.443 30.64ZM329.443 33.136C328.824 33.136 328.227 33.2427 327.651 33.456C327.096 33.648 326.606 34.0107 326.179 34.544C325.774 35.056 325.443 35.8027 325.187 36.784C324.952 37.7653 324.835 39.0347 324.835 40.592C324.835 42.128 324.952 43.3867 325.187 44.368C325.443 45.328 325.774 46.0747 326.179 46.608C326.606 47.1413 327.096 47.5147 327.651 47.728C328.227 47.92 328.824 48.016 329.443 48.016C330.083 48.016 330.68 47.92 331.235 47.728C331.79 47.5147 332.28 47.1413 332.707 46.608C333.134 46.0747 333.464 45.328 333.699 44.368C333.955 43.3867 334.083 42.128 334.083 40.592C334.083 39.0347 333.955 37.7653 333.699 36.784C333.464 35.8027 333.134 35.056 332.707 34.544C332.28 34.0107 331.79 33.648 331.235 33.456C330.68 33.2427 330.083 33.136 329.443 33.136ZM354.68 30.544H357.144L347.992 50.672H345.496L354.68 30.544ZM345.176 30.512C346.456 30.512 347.491 30.9387 348.28 31.792C349.091 32.624 349.496 34.0853 349.496 36.176C349.496 38.2667 349.091 39.7387 348.28 40.592C347.491 41.424 346.456 41.84 345.176 41.84C344.323 41.84 343.565 41.6587 342.904 41.296C342.264 40.9333 341.763 40.3467 341.4 39.536C341.037 38.704 340.856 37.584 340.856 36.176C340.856 34.768 341.037 33.6587 341.4 32.848C341.763 32.016 342.264 31.4187 342.904 31.056C343.565 30.6933 344.323 30.512 345.176 30.512ZM345.176 32.784C344.813 32.784 344.472 32.8693 344.152 33.04C343.853 33.2107 343.608 33.552 343.416 34.064C343.224 34.5547 343.128 35.2587 343.128 36.176C343.128 37.0933 343.224 37.7973 343.416 38.288C343.608 38.7787 343.853 39.12 344.152 39.312C344.472 39.4827 344.813 39.568 345.176 39.568C345.56 39.568 345.901 39.4827 346.2 39.312C346.499 39.12 346.744 38.7787 346.936 38.288C347.128 37.7973 347.224 37.0933 347.224 36.176C347.224 35.2587 347.128 34.5547 346.936 34.064C346.744 33.552 346.499 33.2107 346.2 33.04C345.901 32.8693 345.56 32.784 345.176 32.784ZM357.784 39.248C359.064 39.248 360.099 39.664 360.888 40.496C361.699 41.328 362.104 42.8 362.104 44.912C362.104 47.0027 361.699 48.464 360.888 49.296C360.099 50.128 359.064 50.544 357.784 50.544C356.952 50.544 356.205 50.3627 355.544 50C354.904 49.6587 354.392 49.072 354.008 48.24C353.645 47.408 353.464 46.2987 353.464 44.912C353.464 43.4827 353.645 42.3627 354.008 41.552C354.392 40.72 354.904 40.1333 355.544 39.792C356.205 39.4293 356.952 39.248 357.784 39.248ZM357.784 41.488C357.421 41.488 357.08 41.584 356.76 41.776C356.461 41.9467 356.216 42.2773 356.024 42.768C355.832 43.2587 355.736 43.9733 355.736 44.912C355.736 45.8293 355.832 46.5333 356.024 47.024C356.216 47.5147 356.461 47.856 356.76 48.048C357.08 48.2187 357.421 48.304 357.784 48.304C358.168 48.304 358.509 48.2187 358.808 48.048C359.107 47.856 359.352 47.5147 359.544 47.024C359.736 46.5333 359.832 45.8293 359.832 44.912C359.832 43.9733 359.736 43.2587 359.544 42.768C359.352 42.2773 359.107 41.9467 358.808 41.776C358.509 41.584 358.168 41.488 357.784 41.488ZM373.154 31.152H387.426L389.154 36.336L386.818 37.136L385.538 33.648H378.978V39.216H384.162V41.712H378.946V47.504H382.914V50H373.122V47.504H376.098L376.13 33.648H373.154V31.152ZM391.029 50V47.504H393.941V33.648H391.029V31.152H399.509C401.301 31.152 402.709 31.376 403.733 31.824C404.778 32.272 405.514 32.9333 405.941 33.808C406.389 34.6613 406.613 35.7173 406.613 36.976C406.613 38.9173 406.09 40.3893 405.045 41.392C403.999 42.3947 402.218 42.896 399.701 42.896H396.821V47.504H398.741V50H391.029ZM396.853 40.368H399.477C400.394 40.368 401.151 40.2827 401.749 40.112C402.346 39.9413 402.794 39.6107 403.093 39.12C403.413 38.6293 403.573 37.9253 403.573 37.008C403.573 36.0907 403.413 35.3867 403.093 34.896C402.773 34.4053 402.303 34.0747 401.685 33.904C401.087 33.7333 400.351 33.648 399.477 33.648H396.853V40.368ZM403.733 50L399.733 42.672L402.645 42.288L405.717 47.504H408.693V50H403.733ZM410.842 31.152H425.146L426.842 36.272L424.506 37.072L423.226 33.648H416.698V39.056H422.522V41.552H416.698L416.666 47.504H423.93L425.178 44.144L427.514 44.944L425.818 50H410.81V47.504H413.786L413.818 33.648H410.842V31.152ZM429.811 31.152H444.115L445.811 36.272L443.475 37.072L442.195 33.648H435.667V39.056H441.491V41.552H435.667L435.635 47.504H442.899L444.147 44.144L446.483 44.944L444.787 50H429.779V47.504H432.755L432.786 33.648H429.811V31.152Z" fill="white"/>
</g>
<defs>
<filter id="filter0_d_1_2194" x="0" y="0" width="472" height="85" filterUnits="userSpaceOnUse" color-interpolation-filters="sRGB">
<feFlood flood-opacity="0" result="BackgroundImageFix"/>
<feColorMatrix in="SourceAlpha" type="matrix" values="0 0 0 0 0 0 0 0 0 0 0 0 0 0 0 0 0 0 127 0" result="hardAlpha"/>
<feOffset dx="4" dy="5"/>
<feComposite in2="hardAlpha" operator="out"/>
<feColorMatrix type="matrix" values="0 0 0 0 0.266667 0 0 0 0 0.121569 0 0 0 0 0.552941 0 0 0 1 0"/>
<feBlend mode="normal" in2="BackgroundImageFix" result="effect1_dropShadow_1_2194"/>
<feBlend mode="normal" in="SourceGraphic" in2="effect1_dropShadow_1_2194" result="shape"/>
</filter>
</defs>
</svg>
