<svg width="258" height="61" viewBox="0 0 258 61" fill="none" xmlns="http://www.w3.org/2000/svg">
<rect x="0.5" y="0.5" width="257" height="60" rx="15.5" stroke="#362063"/>
<path d="M21.8741 38V22.6H26.9341C28.1368 22.6 29.1268 22.798 29.9041 23.194C30.6814 23.59 31.2534 24.1253 31.6201 24.8C32.0014 25.4747 32.1921 26.2373 32.1921 27.088C32.1921 27.924 32.0088 28.6793 31.6421 29.354C31.2754 30.0287 30.7034 30.5713 29.9261 30.982C29.1488 31.378 28.1514 31.576 26.9341 31.576H23.7221V38H21.8741ZM23.7221 30.014H26.8901C28.1221 30.014 28.9948 29.7573 29.5081 29.244C30.0361 28.716 30.3001 27.9973 30.3001 27.088C30.3001 26.164 30.0361 25.4453 29.5081 24.932C28.9948 24.404 28.1221 24.14 26.8901 24.14H23.7221V30.014ZM38.7658 38.264C37.7245 38.264 36.8005 38.0293 35.9938 37.56C35.1871 37.076 34.5491 36.4087 34.0798 35.558C33.6251 34.7073 33.3978 33.7027 33.3978 32.544C33.3978 31.4 33.6251 30.4027 34.0798 29.552C34.5345 28.6867 35.1651 28.0193 35.9718 27.55C36.7931 27.066 37.7391 26.824 38.8098 26.824C39.8658 26.824 40.7751 27.066 41.5378 27.55C42.3151 28.0193 42.9091 28.6427 43.3198 29.42C43.7305 30.1973 43.9358 31.0333 43.9358 31.928C43.9358 32.0893 43.9285 32.2507 43.9138 32.412C43.9138 32.5733 43.9138 32.7567 43.9138 32.962H35.2238C35.2678 33.798 35.4585 34.4947 35.7958 35.052C36.1478 35.5947 36.5805 36.0053 37.0938 36.284C37.6218 36.5627 38.1791 36.702 38.7658 36.702C39.5285 36.702 40.1665 36.526 40.6798 36.174C41.1931 35.822 41.5671 35.3453 41.8018 34.744H43.6278C43.3345 35.756 42.7698 36.5993 41.9338 37.274C41.1125 37.934 40.0565 38.264 38.7658 38.264ZM38.7658 28.386C37.8858 28.386 37.1011 28.6573 36.4118 29.2C35.7371 29.728 35.3485 30.5053 35.2458 31.532H42.1098C42.0658 30.5493 41.7285 29.7793 41.0978 29.222C40.4671 28.6647 39.6898 28.386 38.7658 28.386ZM46.3852 38V22.16H48.2332V38H46.3852ZM54.8921 38.264C53.9828 38.264 53.2275 38.11 52.6261 37.802C52.0248 37.494 51.5775 37.0833 51.2841 36.57C50.9908 36.0567 50.8441 35.4993 50.8441 34.898C50.8441 33.7833 51.2695 32.9253 52.1201 32.324C52.9708 31.7227 54.1295 31.422 55.5961 31.422H58.5441V31.29C58.5441 30.3367 58.2948 29.618 57.7961 29.134C57.2975 28.6353 56.6301 28.386 55.7941 28.386C55.0755 28.386 54.4521 28.5693 53.9241 28.936C53.4108 29.288 53.0881 29.8087 52.9561 30.498H51.0641C51.1375 29.706 51.4015 29.0387 51.8561 28.496C52.3255 27.9533 52.9048 27.5427 53.5941 27.264C54.2835 26.9707 55.0168 26.824 55.7941 26.824C57.3195 26.824 58.4635 27.2347 59.2261 28.056C60.0035 28.8627 60.3921 29.9407 60.3921 31.29V38H58.7421L58.6321 36.042C58.3241 36.658 57.8695 37.186 57.2681 37.626C56.6815 38.0513 55.8895 38.264 54.8921 38.264ZM55.1781 36.702C55.8821 36.702 56.4835 36.5187 56.9821 36.152C57.4955 35.7853 57.8841 35.3087 58.1481 34.722C58.4121 34.1353 58.5441 33.5193 58.5441 32.874V32.852H55.7501C54.6648 32.852 53.8948 33.0427 53.4401 33.424C53.0001 33.7907 52.7801 34.2527 52.7801 34.81C52.7801 35.382 52.9855 35.844 53.3961 36.196C53.8215 36.5333 54.4155 36.702 55.1781 36.702ZM64.3745 24.668C64.0225 24.668 63.7218 24.5507 63.4725 24.316C63.2232 24.0667 63.0985 23.7587 63.0985 23.392C63.0985 23.04 63.2232 22.7467 63.4725 22.512C63.7218 22.2773 64.0225 22.16 64.3745 22.16C64.7265 22.16 65.0198 22.2773 65.2545 22.512C65.5038 22.7467 65.6285 23.04 65.6285 23.392C65.6285 23.7587 65.5038 24.0667 65.2545 24.316C65.0198 24.5507 64.7265 24.668 64.3745 24.668ZM61.0305 42.84V41.256H61.8885C62.4312 41.256 62.8198 41.1387 63.0545 40.904C63.3038 40.684 63.4285 40.3027 63.4285 39.76V27.088H65.2765V39.804C65.2765 40.86 65.0125 41.63 64.4845 42.114C63.9565 42.598 63.1865 42.84 62.1745 42.84H61.0305ZM72.1226 38.264C71.2133 38.264 70.4579 38.11 69.8566 37.802C69.2553 37.494 68.8079 37.0833 68.5146 36.57C68.2213 36.0567 68.0746 35.4993 68.0746 34.898C68.0746 33.7833 68.4999 32.9253 69.3506 32.324C70.2013 31.7227 71.3599 31.422 72.8266 31.422H75.7746V31.29C75.7746 30.3367 75.5253 29.618 75.0266 29.134C74.5279 28.6353 73.8606 28.386 73.0246 28.386C72.3059 28.386 71.6826 28.5693 71.1546 28.936C70.6413 29.288 70.3186 29.8087 70.1866 30.498H68.2946C68.3679 29.706 68.6319 29.0387 69.0866 28.496C69.5559 27.9533 70.1353 27.5427 70.8246 27.264C71.5139 26.9707 72.2473 26.824 73.0246 26.824C74.5499 26.824 75.6939 27.2347 76.4566 28.056C77.2339 28.8627 77.6226 29.9407 77.6226 31.29V38H75.9726L75.8626 36.042C75.5546 36.658 75.0999 37.186 74.4986 37.626C73.9119 38.0513 73.1199 38.264 72.1226 38.264ZM72.4086 36.702C73.1126 36.702 73.7139 36.5187 74.2126 36.152C74.7259 35.7853 75.1146 35.3087 75.3786 34.722C75.6426 34.1353 75.7746 33.5193 75.7746 32.874V32.852H72.9806C71.8953 32.852 71.1253 33.0427 70.6706 33.424C70.2306 33.7907 70.0106 34.2527 70.0106 34.81C70.0106 35.382 70.2159 35.844 70.6266 36.196C71.0519 36.5333 71.6459 36.702 72.4086 36.702ZM80.395 38V27.088H82.067L82.221 29.178C82.5583 28.4593 83.0716 27.8873 83.761 27.462C84.4503 27.0367 85.301 26.824 86.313 26.824V28.76H85.807C85.1616 28.76 84.5676 28.8773 84.025 29.112C83.4823 29.332 83.0496 29.7133 82.727 30.256C82.4043 30.7987 82.243 31.5467 82.243 32.5V38H80.395ZM89.5091 24.668C89.1425 24.668 88.8345 24.5507 88.5851 24.316C88.3505 24.0667 88.2331 23.7587 88.2331 23.392C88.2331 23.04 88.3505 22.7467 88.5851 22.512C88.8345 22.2773 89.1425 22.16 89.5091 22.16C89.8611 22.16 90.1618 22.2773 90.4111 22.512C90.6605 22.7467 90.7851 23.04 90.7851 23.392C90.7851 23.7587 90.6605 24.0667 90.4111 24.316C90.1618 24.5507 89.8611 24.668 89.5091 24.668ZM88.5851 38V27.088H90.4331V38H88.5851ZM104.489 38.264C103.36 38.264 102.377 38.0587 101.541 37.648C100.705 37.2373 100.06 36.6653 99.6051 35.932C99.1504 35.1987 98.9231 34.348 98.9231 33.38H100.859C100.859 33.9813 100.998 34.5387 101.277 35.052C101.556 35.5507 101.959 35.954 102.487 36.262C103.03 36.5553 103.697 36.702 104.489 36.702C105.53 36.702 106.337 36.4527 106.909 35.954C107.481 35.4553 107.767 34.832 107.767 34.084C107.767 33.468 107.635 32.9767 107.371 32.61C107.107 32.2287 106.748 31.9207 106.293 31.686C105.853 31.4513 105.34 31.246 104.753 31.07C104.181 30.894 103.58 30.696 102.949 30.476C101.761 30.0653 100.881 29.5593 100.309 28.958C99.7371 28.342 99.4511 27.5427 99.4511 26.56C99.4364 25.7387 99.6271 25.0127 100.023 24.382C100.419 23.7367 100.976 23.238 101.695 22.886C102.428 22.5193 103.294 22.336 104.291 22.336C105.274 22.336 106.124 22.5193 106.843 22.886C107.576 23.2527 108.141 23.7587 108.537 24.404C108.948 25.0493 109.16 25.7827 109.175 26.604H107.239C107.239 26.1787 107.129 25.7607 106.909 25.35C106.689 24.9247 106.352 24.58 105.897 24.316C105.457 24.052 104.9 23.92 104.225 23.92C103.389 23.9053 102.7 24.118 102.157 24.558C101.629 24.998 101.365 25.6067 101.365 26.384C101.365 27.044 101.548 27.55 101.915 27.902C102.296 28.254 102.824 28.5473 103.499 28.782C104.174 29.002 104.951 29.2587 105.831 29.552C106.564 29.816 107.224 30.124 107.811 30.476C108.398 30.828 108.852 31.2827 109.175 31.84C109.512 32.3973 109.681 33.1087 109.681 33.974C109.681 34.7073 109.49 35.404 109.109 36.064C108.728 36.7093 108.148 37.2373 107.371 37.648C106.608 38.0587 105.648 38.264 104.489 38.264ZM117.098 38.264C116.056 38.264 115.132 38.0293 114.326 37.56C113.519 37.076 112.881 36.4087 112.412 35.558C111.957 34.7073 111.73 33.7027 111.73 32.544C111.73 31.4 111.957 30.4027 112.412 29.552C112.866 28.6867 113.497 28.0193 114.304 27.55C115.125 27.066 116.071 26.824 117.142 26.824C118.198 26.824 119.107 27.066 119.87 27.55C120.647 28.0193 121.241 28.6427 121.652 29.42C122.062 30.1973 122.268 31.0333 122.268 31.928C122.268 32.0893 122.26 32.2507 122.246 32.412C122.246 32.5733 122.246 32.7567 122.246 32.962H113.556C113.6 33.798 113.79 34.4947 114.128 35.052C114.48 35.5947 114.912 36.0053 115.426 36.284C115.954 36.5627 116.511 36.702 117.098 36.702C117.86 36.702 118.498 36.526 119.012 36.174C119.525 35.822 119.899 35.3453 120.134 34.744H121.96C121.666 35.756 121.102 36.5993 120.266 37.274C119.444 37.934 118.388 38.264 117.098 38.264ZM117.098 28.386C116.218 28.386 115.433 28.6573 114.744 29.2C114.069 29.728 113.68 30.5053 113.578 31.532H120.442C120.398 30.5493 120.06 29.7793 119.43 29.222C118.799 28.6647 118.022 28.386 117.098 28.386ZM124.717 38V22.16H126.565V38H124.717ZM134.5 38.264C133.459 38.264 132.535 38.0293 131.728 37.56C130.922 37.076 130.284 36.4087 129.814 35.558C129.36 34.7073 129.132 33.7027 129.132 32.544C129.132 31.4 129.36 30.4027 129.814 29.552C130.269 28.6867 130.9 28.0193 131.706 27.55C132.528 27.066 133.474 26.824 134.544 26.824C135.6 26.824 136.51 27.066 137.272 27.55C138.05 28.0193 138.644 28.6427 139.054 29.42C139.465 30.1973 139.67 31.0333 139.67 31.928C139.67 32.0893 139.663 32.2507 139.648 32.412C139.648 32.5733 139.648 32.7567 139.648 32.962H130.958C131.002 33.798 131.193 34.4947 131.53 35.052C131.882 35.5947 132.315 36.0053 132.828 36.284C133.356 36.5627 133.914 36.702 134.5 36.702C135.263 36.702 135.901 36.526 136.414 36.174C136.928 35.822 137.302 35.3453 137.536 34.744H139.362C139.069 35.756 138.504 36.5993 137.668 37.274C136.847 37.934 135.791 38.264 134.5 38.264ZM134.5 28.386C133.62 28.386 132.836 28.6573 132.146 29.2C131.472 29.728 131.083 30.5053 130.98 31.532H137.844C137.8 30.5493 137.463 29.7793 136.832 29.222C136.202 28.6647 135.424 28.386 134.5 28.386ZM142.12 38V27.088H143.792L143.902 29.046C144.254 28.3567 144.76 27.814 145.42 27.418C146.08 27.022 146.828 26.824 147.664 26.824C148.954 26.824 149.981 27.22 150.744 28.012C151.521 28.7893 151.91 29.992 151.91 31.62V38H150.062V31.818C150.062 29.5447 149.123 28.408 147.246 28.408C146.307 28.408 145.522 28.7527 144.892 29.442C144.276 30.1167 143.968 31.0847 143.968 32.346V38H142.12ZM159.021 34.568C158.405 34.568 157.841 34.4873 157.327 34.326L156.227 35.36C156.389 35.4773 156.587 35.58 156.821 35.668C157.071 35.7413 157.423 35.8147 157.877 35.888C158.332 35.9467 158.97 36.0127 159.791 36.086C161.258 36.1887 162.307 36.526 162.937 37.098C163.568 37.67 163.883 38.418 163.883 39.342C163.883 39.9727 163.707 40.574 163.355 41.146C163.018 41.718 162.49 42.1873 161.771 42.554C161.067 42.9207 160.158 43.104 159.043 43.104C158.061 43.104 157.188 42.972 156.425 42.708C155.663 42.4587 155.069 42.07 154.643 41.542C154.218 41.0287 154.005 40.376 154.005 39.584C154.005 39.1733 154.115 38.726 154.335 38.242C154.555 37.7727 154.966 37.3253 155.567 36.9C155.245 36.768 154.966 36.6287 154.731 36.482C154.511 36.3207 154.306 36.1447 154.115 35.954V35.448L155.985 33.6C155.12 32.8667 154.687 31.8987 154.687 30.696C154.687 29.9773 154.856 29.3247 155.193 28.738C155.531 28.1513 156.022 27.6893 156.667 27.352C157.313 27 158.097 26.824 159.021 26.824C159.652 26.824 160.224 26.912 160.737 27.088H164.763V28.474L162.717 28.562C163.143 29.178 163.355 29.8893 163.355 30.696C163.355 31.4147 163.179 32.0673 162.827 32.654C162.49 33.2407 161.999 33.71 161.353 34.062C160.723 34.3993 159.945 34.568 159.021 34.568ZM159.021 33.05C159.799 33.05 160.415 32.852 160.869 32.456C161.339 32.0453 161.573 31.4587 161.573 30.696C161.573 29.948 161.339 29.376 160.869 28.98C160.415 28.5693 159.799 28.364 159.021 28.364C158.229 28.364 157.599 28.5693 157.129 28.98C156.675 29.376 156.447 29.948 156.447 30.696C156.447 31.4587 156.675 32.0453 157.129 32.456C157.599 32.852 158.229 33.05 159.021 33.05ZM155.809 39.408C155.809 40.1413 156.117 40.684 156.733 41.036C157.349 41.4027 158.119 41.586 159.043 41.586C159.953 41.586 160.679 41.388 161.221 40.992C161.779 40.596 162.057 40.068 162.057 39.408C162.057 38.9387 161.867 38.528 161.485 38.176C161.104 37.8387 160.4 37.6407 159.373 37.582C158.567 37.5233 157.87 37.45 157.283 37.362C156.682 37.6847 156.286 38.0293 156.095 38.396C155.905 38.7773 155.809 39.1147 155.809 39.408ZM166.848 38V22.16H168.696V31.686L173.162 27.088H175.428L170.588 32.016L176.044 38H173.69L168.696 32.346V38H166.848ZM181.478 38.264C180.569 38.264 179.813 38.11 179.212 37.802C178.611 37.494 178.163 37.0833 177.87 36.57C177.577 36.0567 177.43 35.4993 177.43 34.898C177.43 33.7833 177.855 32.9253 178.706 32.324C179.557 31.7227 180.715 31.422 182.182 31.422H185.13V31.29C185.13 30.3367 184.881 29.618 184.382 29.134C183.883 28.6353 183.216 28.386 182.38 28.386C181.661 28.386 181.038 28.5693 180.51 28.936C179.997 29.288 179.674 29.8087 179.542 30.498H177.65C177.723 29.706 177.987 29.0387 178.442 28.496C178.911 27.9533 179.491 27.5427 180.18 27.264C180.869 26.9707 181.603 26.824 182.38 26.824C183.905 26.824 185.049 27.2347 185.812 28.056C186.589 28.8627 186.978 29.9407 186.978 31.29V38H185.328L185.218 36.042C184.91 36.658 184.455 37.186 183.854 37.626C183.267 38.0513 182.475 38.264 181.478 38.264ZM181.764 36.702C182.468 36.702 183.069 36.5187 183.568 36.152C184.081 35.7853 184.47 35.3087 184.734 34.722C184.998 34.1353 185.13 33.5193 185.13 32.874V32.852H182.336C181.251 32.852 180.481 33.0427 180.026 33.424C179.586 33.7907 179.366 34.2527 179.366 34.81C179.366 35.382 179.571 35.844 179.982 36.196C180.407 36.5333 181.001 36.702 181.764 36.702ZM189.75 42.84V27.088H191.422L191.598 28.892C191.95 28.364 192.449 27.8873 193.094 27.462C193.754 27.0367 194.59 26.824 195.602 26.824C196.688 26.824 197.634 27.0733 198.44 27.572C199.247 28.0707 199.87 28.7527 200.31 29.618C200.765 30.4833 200.992 31.466 200.992 32.566C200.992 33.666 200.765 34.6487 200.31 35.514C199.87 36.3647 199.24 37.0393 198.418 37.538C197.612 38.022 196.666 38.264 195.58 38.264C194.686 38.264 193.886 38.0807 193.182 37.714C192.493 37.3473 191.965 36.834 191.598 36.174V42.84H189.75ZM195.382 36.658C196.116 36.658 196.761 36.4893 197.318 36.152C197.876 35.8 198.316 35.316 198.638 34.7C198.961 34.084 199.122 33.3653 199.122 32.544C199.122 31.7227 198.961 31.004 198.638 30.388C198.316 29.772 197.876 29.2953 197.318 28.958C196.761 28.606 196.116 28.43 195.382 28.43C194.649 28.43 194.004 28.606 193.446 28.958C192.889 29.2953 192.449 29.772 192.126 30.388C191.804 31.004 191.642 31.7227 191.642 32.544C191.642 33.3653 191.804 34.084 192.126 34.7C192.449 35.316 192.889 35.8 193.446 36.152C194.004 36.4893 194.649 36.658 195.382 36.658ZM203.565 38V27.088H205.237L205.347 29.046C205.699 28.3567 206.205 27.814 206.865 27.418C207.525 27.022 208.273 26.824 209.109 26.824C210.4 26.824 211.426 27.22 212.189 28.012C212.966 28.7893 213.355 29.992 213.355 31.62V38H211.507V31.818C211.507 29.5447 210.568 28.408 208.691 28.408C207.752 28.408 206.968 28.7527 206.337 29.442C205.721 30.1167 205.413 31.0847 205.413 32.346V38H203.565ZM217.02 42.84L219.726 36.944H219.088L214.754 27.088H216.756L220.364 35.58L224.192 27.088H226.106L218.956 42.84H217.02ZM231 38.264C230.09 38.264 229.335 38.11 228.734 37.802C228.132 37.494 227.685 37.0833 227.392 36.57C227.098 36.0567 226.952 35.4993 226.952 34.898C226.952 33.7833 227.377 32.9253 228.228 32.324C229.078 31.7227 230.237 31.422 231.704 31.422H234.652V31.29C234.652 30.3367 234.402 29.618 233.904 29.134C233.405 28.6353 232.738 28.386 231.902 28.386C231.183 28.386 230.56 28.5693 230.032 28.936C229.518 29.288 229.196 29.8087 229.064 30.498H227.172C227.245 29.706 227.509 29.0387 227.964 28.496C228.433 27.9533 229.012 27.5427 229.702 27.264C230.391 26.9707 231.124 26.824 231.902 26.824C233.427 26.824 234.571 27.2347 235.334 28.056C236.111 28.8627 236.5 29.9407 236.5 31.29V38H234.85L234.74 36.042C234.432 36.658 233.977 37.186 233.376 37.626C232.789 38.0513 231.997 38.264 231 38.264ZM231.286 36.702C231.99 36.702 232.591 36.5187 233.09 36.152C233.603 35.7853 233.992 35.3087 234.256 34.722C234.52 34.1353 234.652 33.5193 234.652 32.874V32.852H231.858C230.772 32.852 230.002 33.0427 229.548 33.424C229.108 33.7907 228.888 34.2527 228.888 34.81C228.888 35.382 229.093 35.844 229.504 36.196C229.929 36.5333 230.523 36.702 231.286 36.702Z" fill="#362063"/>
</svg>
