<svg width="78" height="23" viewBox="0 0 78 23" fill="none" xmlns="http://www.w3.org/2000/svg">
<rect y="4.49326" width="77" height="18" rx="9" transform="rotate(-3 0 4.49326)" fill="#8C52FF"/>
<path d="M8.29261 18.0779L7.83028 9.25597L4.90829 9.40911L4.85773 8.44443L11.8761 8.07661L11.9267 9.04129L9.00467 9.19442L9.467 18.0163L8.29261 18.0779ZM12.9612 17.8332L12.5978 10.8987L13.6603 10.843L13.8278 12.1661C14.0183 11.6981 14.3254 11.3175 14.7493 11.0243C15.1732 10.731 15.7067 10.5675 16.3498 10.5338L16.4143 11.7642L16.0928 11.781C15.6827 11.8025 15.3091 11.8968 14.972 12.064C14.6345 12.2219 14.3723 12.4787 14.1853 12.8343C13.9983 13.1899 13.9207 13.6706 13.9524 14.2764L14.1356 17.7716L12.9612 17.8332ZM20.5795 17.6022C19.7593 17.6452 19.0939 17.4324 18.5834 16.9638C18.0723 16.4859 17.7897 15.7296 17.7355 14.695L17.523 10.6406L18.6974 10.579L18.9033 14.5077C18.979 15.9523 19.6087 16.6437 20.7924 16.5816C21.3982 16.5499 21.8856 16.3094 22.2546 15.8601C22.6325 15.401 22.8004 14.7707 22.7584 13.9692L22.5701 10.3761L23.7444 10.3145L24.1079 17.249L23.0453 17.3047L22.8962 16.0648C22.7048 16.5141 22.4013 16.8758 21.9858 17.1499C21.5795 17.4236 21.1108 17.5743 20.5795 17.6022ZM28.7061 17.1763C27.8765 17.2197 27.1758 17.0462 26.6039 16.6556C26.0321 16.265 25.6807 15.7133 25.5499 15.0005L26.7522 14.9375C26.8458 15.2971 27.0535 15.6039 27.3753 15.8581C27.7058 16.1025 28.1368 16.2107 28.668 16.1829C29.162 16.157 29.5202 16.0354 29.7424 15.8182C29.9642 15.5916 30.0675 15.3338 30.0524 15.0449C30.0304 14.6255 29.8619 14.3539 29.547 14.2302C29.2415 14.106 28.8108 14.0024 28.255 13.9194C27.8783 13.8644 27.4998 13.7767 27.1197 13.6565C26.7395 13.5362 26.417 13.3568 26.1522 13.1184C25.8869 12.8706 25.7432 12.537 25.7212 12.1176C25.6895 11.5117 25.8873 11.006 26.3146 10.6004C26.7508 10.185 27.3557 9.95705 28.1293 9.91651C28.8657 9.87792 29.4766 10.0328 29.9622 10.3812C30.4566 10.7198 30.7589 11.2273 30.8691 11.9038L29.7087 11.9647C29.6435 11.6129 29.4753 11.346 29.2041 11.164C28.9417 10.9721 28.5961 10.8874 28.1674 10.9099C27.748 10.9319 27.4264 11.0375 27.2026 11.2268C26.9882 11.4156 26.8886 11.6545 26.9037 11.9434C26.9184 12.223 27.0743 12.4345 27.3716 12.5778C27.6781 12.7206 28.086 12.8348 28.5952 12.9202C29.0288 12.991 29.4404 13.0862 29.8298 13.206C30.2281 13.316 30.5555 13.4998 30.812 13.7574C31.0774 14.0052 31.2232 14.3807 31.2496 14.884C31.2916 15.508 31.0811 16.0377 30.6179 16.4733C30.1636 16.8989 29.5263 17.1333 28.7061 17.1763ZM35.4576 16.6542C34.8238 16.6874 34.317 16.5598 33.9374 16.2712C33.5578 15.9827 33.347 15.4377 33.305 14.6361L33.105 10.8193L31.9026 10.8824L31.8506 9.88971L33.0529 9.8267L33.1195 8.15492L34.1401 8.10144L34.2273 9.76515L36.2685 9.65818L36.3205 10.6508L34.2793 10.7578L34.4794 14.5746C34.5023 15.0126 34.6065 15.3062 34.7919 15.4554C34.9768 15.5953 35.293 15.6535 35.7403 15.63L36.4673 15.5919L36.5201 16.5985L35.4576 16.6542ZM41.0593 16.5289C40.3976 16.5635 39.8026 16.4452 39.2743 16.1738C38.7455 15.8931 38.3179 15.4903 37.9913 14.9653C37.674 14.4398 37.4961 13.809 37.4575 13.0726C37.4194 12.3456 37.5307 11.7043 37.7913 11.1485C38.0514 10.5835 38.4299 10.1384 38.9269 9.81326C39.4328 9.47833 40.0259 9.29303 40.7063 9.25738C41.3774 9.22221 41.9633 9.34571 42.4641 9.62789C42.9737 9.90026 43.3719 10.2766 43.6588 10.7569C43.9457 11.2372 44.104 11.7617 44.1338 12.3302C44.1392 12.4327 44.1399 12.5355 44.1359 12.6385C44.1413 12.741 44.1474 12.8575 44.1543 12.988L38.6318 13.2775C38.6876 13.8073 38.832 14.2436 39.0649 14.5866C39.3067 14.9197 39.5953 15.1663 39.9308 15.3263C40.2757 15.4858 40.6345 15.5558 41.0073 15.5362C41.492 15.5108 41.8916 15.3777 42.2061 15.1369C42.5205 14.8962 42.7423 14.5808 42.8714 14.1908L44.0319 14.13C43.8791 14.7829 43.5484 15.3376 43.0396 15.7942C42.5396 16.241 41.8795 16.4859 41.0593 16.5289ZM40.7303 10.2515C40.1711 10.2808 39.6815 10.4794 39.2615 10.8472C38.8503 11.2052 38.6292 11.7121 38.5982 12.368L42.9602 12.1394C42.8995 11.5164 42.6595 11.0383 42.2402 10.7051C41.8208 10.3719 41.3175 10.2207 40.7303 10.2515ZM49.0471 16.1102C48.3573 16.1464 47.7432 16.0197 47.2047 15.7301C46.6754 15.4401 46.2519 15.0277 45.9342 14.4929C45.6257 13.9577 45.4532 13.3405 45.4166 12.6415C45.3799 11.9425 45.4919 11.3151 45.7525 10.7593C46.0126 10.1943 46.3909 9.74453 46.8875 9.41009C47.3835 9.06632 47.981 8.87612 48.68 8.83949C49.2486 8.80969 49.758 8.89982 50.2083 9.10988C50.6586 9.31993 51.0159 9.62832 51.2802 10.035L51.0552 5.74294L52.2296 5.68139L52.7572 15.7476L51.6946 15.8033L51.5227 14.6627C51.3166 15.01 51.0109 15.3297 50.6057 15.622C50.2004 15.9143 49.6809 16.077 49.0471 16.1102ZM49.1194 15.0831C49.5854 15.0586 49.9899 14.9299 50.3329 14.697C50.6846 14.4543 50.9481 14.132 51.1234 13.7303C51.3079 13.3281 51.3865 12.866 51.3591 12.3441C51.3318 11.8221 51.2053 11.3708 50.9797 10.9901C50.7635 10.6089 50.468 10.3206 50.0933 10.1253C49.7274 9.92016 49.3114 9.8298 48.8454 9.85423C48.3887 9.87816 47.9844 10.0115 47.6327 10.2542C47.2897 10.4872 47.026 10.8048 46.8414 11.207C46.6662 11.6087 46.5923 12.0705 46.6196 12.5925C46.647 13.1144 46.7688 13.566 46.985 13.9472C47.2106 14.3279 47.5063 14.6208 47.8722 14.826C48.247 15.0213 48.6627 15.107 49.1194 15.0831ZM62.0853 15.4269C61.5167 15.4567 61.0026 15.3669 60.543 15.1573C60.0928 14.9472 59.7401 14.6386 59.4851 14.2314L59.4341 15.3977L58.3716 15.4533L57.844 5.38715L59.0184 5.3256L59.2426 9.60373C59.4487 9.25647 59.7497 8.93695 60.1457 8.64516C60.5509 8.35288 61.0751 8.18989 61.7182 8.15619C62.408 8.12004 63.0174 8.24698 63.5467 8.53701C64.0759 8.82705 64.4948 9.23969 64.8032 9.77495C65.1209 10.3097 65.2981 10.9266 65.3348 11.6257C65.3714 12.3247 65.2597 12.9568 64.9996 13.5218C64.7483 14.0771 64.37 14.5268 63.8646 14.8711C63.3681 15.2055 62.775 15.3908 62.0853 15.4269ZM61.906 14.4129C62.372 14.3885 62.7765 14.2598 63.1194 14.0269C63.4619 13.7846 63.7254 13.4624 63.9099 13.0602C64.0944 12.658 64.173 12.1959 64.1457 11.674C64.1183 11.152 63.9919 10.7007 63.7663 10.32C63.5407 9.93925 63.2452 9.65098 62.8798 9.45517C62.5139 9.25004 62.098 9.15969 61.6319 9.18411C61.1659 9.20854 60.7617 9.34187 60.4192 9.58413C60.0763 9.81706 59.8125 10.1346 59.628 10.5368C59.4434 10.9391 59.3648 11.4011 59.3922 11.9231C59.4196 12.445 59.546 12.8964 59.7716 13.2771C59.9972 13.6578 60.2929 13.9507 60.6588 14.1559C61.0242 14.3517 61.4399 14.4374 61.906 14.4129ZM67.5069 18.0588L69.0302 14.2218L68.6247 14.2431L65.5423 8.12401L66.8145 8.05733L69.3902 13.3338L71.54 7.80968L72.7564 7.74593L68.7372 17.9943L67.5069 18.0588Z" fill="white"/>
</svg>
