<svg width="33" height="32" viewBox="0 0 33 32" fill="none" xmlns="http://www.w3.org/2000/svg">
<path d="M23.4521 0.00195312C23.7739 0.00323349 24.0961 0.00850613 24.4179 0.0166016C25.1218 0.0256729 25.8246 0.0870972 26.5194 0.201172C27.215 0.320149 27.888 0.542196 28.5175 0.859375C29.7824 1.50351 30.8106 2.53202 31.455 3.79688C31.7725 4.42665 31.9945 5.10066 32.1132 5.7959C32.2275 6.49079 32.2899 7.19328 32.2987 7.89746C32.3071 8.21956 32.311 8.54188 32.3124 8.86328C32.3153 9.24586 32.3153 9.62788 32.3153 10.0098V21.9893C32.3153 22.3717 32.3153 22.754 32.3124 23.1357C32.3105 23.4578 32.3071 23.7802 32.2987 24.1016C32.2899 24.8057 32.2275 25.5083 32.1132 26.2031C31.9942 26.8988 31.7729 27.5726 31.455 28.2021C30.8106 29.4672 29.7815 30.4953 28.5165 31.1396C27.8873 31.4571 27.2141 31.6791 26.5194 31.7979C25.824 31.9126 25.1217 31.975 24.4179 31.9834C24.0961 31.9917 23.7739 31.9966 23.4521 31.998C23.0695 32.0003 22.6875 32 22.3056 32H10.3251C9.9432 32 9.56122 31.9999 9.17862 31.998C8.85675 31.9968 8.53457 31.9925 8.2128 31.9844C7.50863 31.9754 6.80608 31.9134 6.11124 31.7988C5.41628 31.6806 4.74206 31.4579 4.11319 31.1406C2.84848 30.4964 1.82016 29.4678 1.17569 28.2031C0.857969 27.5733 0.636424 26.8994 0.517487 26.2041C0.403164 25.5094 0.340804 24.8065 0.33194 24.1025C0.323594 23.7806 0.319677 23.4587 0.318268 23.1367C0.315388 22.7542 0.315338 22.3728 0.315338 21.9902V10.0107C0.315338 9.62812 0.315388 9.24493 0.318268 8.8623C0.319549 8.54095 0.323589 8.21881 0.33194 7.89746C0.340807 7.1936 0.403203 6.49146 0.517487 5.79688C0.636443 5.10119 0.857781 4.42716 1.17569 3.79688C1.82005 2.53192 2.84925 1.50374 4.11417 0.859375C4.74318 0.54215 5.4159 0.320131 6.11026 0.201172C6.80588 0.0870871 7.50883 0.0256444 8.2128 0.0166016C8.53465 0.00825871 8.85649 0.00336209 9.17764 0.00195312C9.56015 -0.000286302 9.94301 1.46391e-10 10.3241 0H22.3046C22.6872 0 23.0701 -0.000286875 23.4521 0.00195312ZM17.0712 19.1924C16.3144 19.1924 15.6515 19.4918 15.0839 20.0918C14.459 19.4921 13.793 19.1925 13.0858 19.1924C12.4278 19.1924 11.8429 19.4163 11.3329 19.8643C10.8643 20.2698 10.5233 20.8105 10.3095 21.4863C10.219 21.7737 10.1737 22.0698 10.1737 22.374V25.9873H11.9872V22.4629C11.9872 22.1248 12.0857 21.816 12.2831 21.5371C12.497 21.2244 12.7606 21.0684 13.0732 21.0684C13.3445 21.0684 13.5834 21.182 13.789 21.4102C13.9699 21.6214 14.0888 21.8752 14.1464 22.1709C14.1464 22.1793 14.1544 22.2473 14.1708 22.374V25.9873H15.997V22.4121C16.0052 22.3191 16.0141 22.2428 16.0224 22.1836C16.08 21.8879 16.1944 21.6341 16.3671 21.4229C16.5727 21.1863 16.8116 21.0684 17.0829 21.0684C17.3543 21.0684 17.5931 21.1864 17.7987 21.4229C17.9797 21.6341 18.0995 21.8878 18.1571 22.1836C18.1571 22.2005 18.1651 22.2769 18.1815 22.4121V25.9873H19.995V22.3105C19.995 22.1077 19.9542 21.8456 19.872 21.5244C19.6992 20.8484 19.3531 20.291 18.8349 19.8516C18.3167 19.4122 17.7291 19.1925 17.0712 19.1924ZM23.7089 19.2178C22.8125 19.2179 22.0437 19.5471 21.4023 20.2061C20.7606 20.8652 20.4394 21.6602 20.4394 22.5898C20.4394 23.5278 20.7607 24.3305 21.4023 24.998C22.0438 25.6571 22.8213 25.9873 23.7343 25.9873C24.639 25.9872 25.4121 25.6529 26.0536 24.9854C26.7034 24.3178 27.0281 23.5236 27.0282 22.6025C27.0282 21.6645 26.7035 20.8652 26.0536 20.2061C25.4038 19.5469 24.6219 19.2178 23.7089 19.2178ZM23.7216 21.0811C24.1246 21.0811 24.4743 21.2287 24.7704 21.5244C25.0666 21.8202 25.2148 22.1757 25.2148 22.5898C25.2147 23.0038 25.0664 23.3628 24.7704 23.667C24.4826 23.9627 24.1372 24.1103 23.7343 24.1104C23.3231 24.1104 22.9733 23.9627 22.6855 23.667C22.3976 23.3713 22.2529 23.0123 22.2528 22.5898C22.2528 22.1757 22.3975 21.8202 22.6855 21.5244C22.9733 21.2288 23.3186 21.0811 23.7216 21.0811ZM6.01651 17.4014H10.5351C11.1911 17.4014 11.7641 17.312 12.2538 17.1338C12.743 16.9556 13.1499 16.7097 13.4726 16.3965C13.7952 16.0832 14.0352 15.7185 14.1913 15.3027C14.3472 14.8868 14.4247 14.4404 14.4247 13.9648C14.4247 13.3276 14.2795 12.7608 13.9892 12.2637C13.6986 11.767 13.3596 11.3834 12.9726 11.1133C13.0477 11.0378 13.1368 10.9402 13.2392 10.8213C13.3413 10.7024 13.4378 10.5616 13.5292 10.3994C13.6206 10.2373 13.6992 10.0564 13.7636 9.85645C13.8282 9.65683 13.8602 9.44347 13.8603 9.2168C13.8603 8.77402 13.7852 8.36025 13.6347 7.97656C13.4839 7.59323 13.2523 7.25812 12.9403 6.97168C12.6284 6.68583 12.2384 6.46197 11.7704 6.2998C11.3025 6.13791 10.7556 6.05664 10.1317 6.05664H6.01651V17.4014ZM15.163 17.4014H17.3017V13.1875H18.494L21.4442 17.4014H23.9511L20.9013 13.042C21.3528 12.9233 21.7479 12.7471 22.0868 12.5146C22.4256 12.2824 22.7085 12.0121 22.9345 11.7041C23.1603 11.3962 23.3267 11.0561 23.4345 10.6836C23.542 10.3107 23.5966 9.92999 23.5966 9.54102C23.5966 9.03327 23.5122 8.56562 23.3456 8.13867C23.1785 7.71225 22.9289 7.345 22.5956 7.03711C22.2619 6.72915 21.8449 6.48833 21.3446 6.31543C20.8443 6.14278 20.2655 6.05664 19.6093 6.05664H15.163V17.4014ZM24.6239 17.4014H26.8046V6.05664H24.7069V6.05957L24.6425 6.05664H24.6239V17.4014ZM10.6483 12.458C11.2171 12.458 11.6386 12.606 11.913 12.9014C12.171 13.1922 12.3007 13.5355 12.3007 13.9326C12.3007 14.3416 12.1538 14.691 11.8593 14.9814C11.5643 15.272 11.0794 15.418 10.4042 15.418H8.11417V12.458H10.6483ZM19.8173 8.00684C19.881 8.01085 19.9444 8.01737 20.0077 8.02539C20.389 8.08307 20.7012 8.21935 20.9413 8.43652C21.2681 8.7327 21.4315 9.09622 21.4315 9.52637C21.4316 9.63345 21.4227 9.74008 21.4052 9.8457C21.3876 9.95129 21.3617 10.055 21.3271 10.1562C21.2929 10.2573 21.2477 10.3533 21.1923 10.4443C21.1367 10.5355 21.0712 10.6196 20.997 10.6963C20.8468 10.8525 20.6543 10.9793 20.4189 11.0762C20.183 11.1731 19.8984 11.2207 19.5663 11.2207H17.3017V8.00098H19.6259C19.6897 8.00097 19.7536 8.00281 19.8173 8.00684ZM10.0673 8.00098C10.4334 8.00098 10.735 8.04612 10.9745 8.13477C11.1265 8.19301 11.2533 8.26904 11.3524 8.36426C11.6094 8.6118 11.7382 8.90778 11.7382 9.25195C11.7382 9.56418 11.684 9.82205 11.5771 10.0264C11.4698 10.231 11.3627 10.3877 11.2558 10.4951H8.11417V8.00098H10.0673Z" fill="white"/>
</svg>
