<svg width="98" height="22" viewBox="0 0 98 22" fill="none" xmlns="http://www.w3.org/2000/svg">
<path fill-rule="evenodd" clip-rule="evenodd" d="M0.0595398 0H97.8395V22H0.0595398V0Z" fill="white" fill-opacity="0.01"/>
<path d="M10.6308 1.57178C16.469 1.57187 21.2021 5.7934 21.2021 11.0005C21.2019 16.2074 16.4689 20.4281 10.6308 20.4282C4.7927 20.4282 0.0597432 16.2075 0.0595398 11.0005C0.0595398 5.79334 4.79257 1.57178 10.6308 1.57178ZM9.79391 5.89307C8.79305 5.89307 7.79985 5.97032 6.81442 6.12549C6.25263 6.25014 5.77819 6.50442 5.39255 6.88721C5.00708 7.26992 4.77635 7.71564 4.70016 8.22412C4.54381 9.14929 4.4658 10.0797 4.46579 11.0151C4.46579 11.9507 4.5438 12.8819 4.70016 13.8071C4.81752 14.3438 5.09624 14.8037 5.5361 15.187C5.97634 15.5705 6.5013 15.8099 7.10934 15.9048C8.33267 16.0403 9.56106 16.1079 10.7939 16.1079C12.0268 16.1079 13.2552 16.0403 14.4785 15.9048C15.024 15.804 15.4852 15.5718 15.8613 15.2075C16.2374 14.8432 16.4576 14.4156 16.5224 13.9253C16.7397 12.8638 16.8313 11.7855 16.791 10.7075C16.7546 10.1108 16.4867 9.61123 15.9873 9.20947C15.5503 8.85795 15.0462 8.66958 14.4756 8.64502H7.54977C7.42763 8.64464 7.32334 8.6056 7.23727 8.52881C7.15139 8.45207 7.10892 8.35957 7.10934 8.25146C7.10946 8.0343 7.30617 7.85889 7.54977 7.85889H14.3154C14.2981 7.45262 14.1473 7.08935 13.8633 6.77002C13.5792 6.4507 13.2162 6.23539 12.7744 6.12549C11.7888 5.97027 10.795 5.89307 9.79391 5.89307ZM14.1572 11.0015C14.2946 11.0015 14.42 11.0359 14.5332 11.105C14.6465 11.1741 14.7274 11.2665 14.7763 11.3804C14.8251 11.4941 14.8333 11.6098 14.8008 11.728C14.7681 11.8464 14.7004 11.9468 14.5976 12.0278V12.3765C14.5981 12.4845 14.5555 12.5771 14.4697 12.6538C14.3837 12.7305 14.2792 12.7696 14.1572 12.77C14.035 12.7696 13.9308 12.7306 13.8447 12.6538C13.7587 12.577 13.7154 12.4846 13.7158 12.3765V12.0278C13.613 11.9468 13.5454 11.8464 13.5127 11.728C13.4801 11.6099 13.4884 11.494 13.5371 11.3804C13.586 11.2665 13.667 11.1741 13.7802 11.105C13.8935 11.0358 14.0196 11.0014 14.1572 11.0015Z" fill="white"/>
<path d="M29.4557 15.6887C29.902 16.2585 30.4765 16.6965 31.179 17.0027C31.8815 17.3088 32.6237 17.4447 33.4057 17.4102C35.248 17.4102 36.6014 16.3611 36.6014 14.9352V14.1831H36.5563C35.5475 15.0631 34.1708 15.5223 32.7631 15.4508C31.6483 15.478 30.6029 15.2528 29.6266 14.7752C28.6504 14.2976 27.8784 13.6337 27.3107 12.7833C26.7393 11.9308 26.4485 11.0089 26.4383 10.0175C26.428 9.02609 26.6997 8.09957 27.2533 7.23794C27.804 6.37893 28.5626 5.703 29.5291 5.21016C30.4955 4.71732 31.5363 4.47566 32.6514 4.48519C33.3695 4.44444 34.0676 4.53057 34.7459 4.74359C35.4241 4.95661 36.0276 5.27931 36.5563 5.71169H36.6014V4.68319H39.752V14.8967C39.752 17.8653 37.1135 19.9237 33.4057 19.9237C32.19 19.9818 31.0264 19.7909 29.9149 19.3509C28.8033 18.911 27.8665 18.2705 27.1043 17.4294L29.4557 15.6887ZM36.4694 9.33344C36.4694 8.14682 34.9593 7.05782 33.2737 7.05782C31.1427 7.05782 29.7226 8.20594 29.7226 9.92744C29.6605 10.7442 30.002 11.5431 30.6616 12.1109C30.9902 12.3951 31.3712 12.6041 31.8048 12.7381C32.2383 12.8721 32.6835 12.9183 33.1403 12.8768C34.9826 12.8768 36.4694 11.8483 36.4694 10.5613V9.33344ZM48.0478 4.38619C51.8876 4.38619 54.6844 6.81994 54.6844 9.92744C54.6844 13.0349 51.8876 15.4701 48.0478 15.4701C46.887 15.5366 45.7915 15.3306 44.7612 14.8522C43.7309 14.3739 42.9164 13.6929 42.3176 12.8094C41.7153 11.9231 41.4142 10.9627 41.4142 9.92813C41.4142 8.89359 41.7153 7.93315 42.3176 7.04682C42.9164 6.16333 43.7309 5.4824 44.7612 5.00403C45.7915 4.52565 46.887 4.3197 48.0478 4.38619ZM48.0478 6.95744C47.1267 6.96576 46.3435 7.26111 45.6982 7.84351C45.0529 8.42591 44.7342 9.12514 44.7419 9.94119C44.7428 10.7572 45.0689 11.4538 45.7202 12.0308C46.3715 12.6078 47.1577 12.8967 48.0789 12.8974C49 12.8929 49.7847 12.6008 50.433 12.0211C51.0813 11.4414 51.4037 10.7435 51.4003 9.92744C51.4211 9.52694 51.3497 9.13976 51.1863 8.7659C51.0228 8.39203 50.7812 8.0633 50.4613 7.77969C50.143 7.49738 49.7736 7.28471 49.3532 7.1417C48.9327 6.99869 48.4976 6.93636 48.0478 6.95744ZM56.3886 4.68319H59.5393V5.61269H59.5859C60.0994 5.19086 60.6851 4.87359 61.343 4.66088C62.0009 4.44816 62.6796 4.3566 63.3791 4.38619C66.7626 4.44119 69.4756 6.89969 69.4818 9.91782C69.488 12.9373 66.7843 15.4041 63.4008 15.4701C62.0661 15.4976 60.7623 15.1057 59.7178 14.3618H59.6728V19.6267H56.3886L56.3886 4.68319ZM62.87 6.97944C61.1379 6.97944 59.6728 8.06707 59.6728 9.25507V10.5806C59.6728 11.8483 61.0945 12.8961 62.8902 12.8961C63.8092 12.8908 64.5916 12.5984 65.2374 12.0191C65.8831 11.4398 66.2032 10.743 66.1976 9.92882C66.1981 9.11437 65.8734 8.41906 65.2237 7.84289C64.5739 7.26672 63.7894 6.97982 62.87 6.97944ZM75.8096 8.91819C77.9623 8.66107 78.6064 8.38469 78.6064 7.84982C78.6064 7.15682 77.7838 6.74157 76.5204 6.74157C75.8372 6.69161 75.2179 6.84473 74.6626 7.20092C74.1073 7.55711 73.7498 8.03054 73.5901 8.62119L70.4829 8.04782C70.9268 5.90969 73.3915 4.38619 76.4304 4.38619C79.8698 4.38619 82.0023 5.94957 82.0023 8.50157V15.1731H79.0487V14.0249H79.0022C78.5037 14.5271 77.9054 14.9052 77.2072 15.1592C76.509 15.4133 75.7834 15.5169 75.0304 15.4701C72.4338 15.4701 70.6381 14.2037 70.6381 12.3419C70.6381 10.3826 72.1017 9.37332 75.8096 8.91819ZM78.8718 10.0264H78.8283C78.5381 10.4032 77.9173 10.6204 76.3202 10.8789C74.3894 11.1952 73.7019 11.5307 73.7019 12.1439C73.7019 12.7778 74.2792 13.0556 75.5209 13.0556C77.4082 13.0556 78.8734 12.2828 78.8734 11.2736L78.8718 10.0264ZM88.2525 14.5997L82.8156 4.68319H86.4334L90.0063 11.5307H90.0498L93.5792 4.68319H97.2188L89.0751 19.6294H85.4572L88.2525 14.5997Z" fill="white"/>
</svg>
