<svg width="367" height="85" viewBox="0 0 367 85" fill="none" xmlns="http://www.w3.org/2000/svg">
<g filter="url(#filter0_d_1_1183)">
<rect width="364" height="80" rx="16" fill="white" shape-rendering="crispEdges"/>
<rect x="0.5" y="0.5" width="363" height="79" rx="15.5" stroke="#362063" shape-rendering="crispEdges"/>
<path d="M26 30C26 28.9391 26.4214 27.9217 27.1716 27.1716C27.9217 26.4214 28.9391 26 30 26H58C59.0609 26 60.0783 26.4214 60.8284 27.1716C61.5786 27.9217 62 28.9391 62 30M26 30V50C26 51.0609 26.4214 52.0783 27.1716 52.8284C27.9217 53.5786 28.9391 54 30 54H58C59.0609 54 60.0783 53.5786 60.8284 52.8284C61.5786 52.0783 62 51.0609 62 50V30M26 30L44 42L62 30" stroke="#362063" stroke-width="2" stroke-linecap="round" stroke-linejoin="round"/>
<path d="M79.4184 35.612H84.9224V47.26H87.5784V49.5H79.4184V47.26H82.0744V37.852H79.4184V35.612ZM83.1624 28.764C83.781 28.764 84.2717 28.956 84.6344 29.34C85.0184 29.7027 85.2104 30.1933 85.2104 30.812C85.2104 31.4307 85.0184 31.932 84.6344 32.316C84.2717 32.6787 83.781 32.86 83.1624 32.86C82.5437 32.86 82.053 32.6787 81.6904 32.316C81.3277 31.932 81.1464 31.4307 81.1464 30.812C81.1464 30.1933 81.3277 29.7027 81.6904 29.34C82.053 28.956 82.5437 28.764 83.1624 28.764ZM89.7041 49.5V47.26H92.3921V38.46L89.3201 37.404L90.0561 35.164L94.3761 36.668C95.1441 36.156 95.9441 35.772 96.7761 35.516C97.6295 35.2387 98.5148 35.1 99.4321 35.1C100.541 35.1 101.523 35.3133 102.376 35.74C103.229 36.1667 103.901 36.796 104.392 37.628C104.883 38.46 105.128 39.4733 105.128 40.668V47.26H107.784V49.5H100.904V47.26H102.312V41.18C102.312 39.9 101.992 38.9613 101.352 38.364C100.733 37.7667 99.9121 37.468 98.8881 37.468C98.2908 37.468 97.6721 37.564 97.0321 37.756C96.3921 37.9267 95.7841 38.1933 95.2081 38.556V47.26H96.6161V49.5H89.7041ZM112.451 33.852C112.451 32.0813 112.952 30.716 113.955 29.756C114.958 28.7747 116.387 28.284 118.243 28.284C119.054 28.284 119.822 28.4013 120.547 28.636C121.272 28.8707 121.88 29.2013 122.371 29.628L121.315 31.612C120.483 30.9293 119.459 30.588 118.243 30.588C117.304 30.588 116.568 30.908 116.035 31.548C115.502 32.1667 115.235 33.0627 115.235 34.236V35.612H119.203V37.852H115.235V47.26H118.115V49.5H109.763V47.26H112.451V37.852H109.763V35.612H112.451V33.852ZM128.026 35.1C129.498 35.1 130.767 35.3987 131.834 35.996C132.922 36.5933 133.765 37.4467 134.362 38.556C134.959 39.6653 135.258 41.0093 135.258 42.588C135.258 44.892 134.597 46.7053 133.274 48.028C131.973 49.3507 130.223 50.012 128.026 50.012C126.597 50.012 125.349 49.7133 124.282 49.116C123.215 48.5187 122.383 47.6653 121.786 46.556C121.21 45.4467 120.922 44.124 120.922 42.588C120.922 41.0093 121.21 39.6653 121.786 38.556C122.383 37.4467 123.215 36.5933 124.282 35.996C125.349 35.3987 126.597 35.1 128.026 35.1ZM128.058 37.404C126.629 37.404 125.551 37.852 124.826 38.748C124.122 39.644 123.77 40.924 123.77 42.588C123.77 44.2307 124.122 45.5 124.826 46.396C125.551 47.2707 126.629 47.708 128.058 47.708C129.509 47.708 130.597 47.2707 131.322 46.396C132.047 45.5 132.41 44.2307 132.41 42.588C132.41 40.924 132.047 39.644 131.322 38.748C130.597 37.852 129.509 37.404 128.058 37.404ZM153.859 51.58C153.859 51.58 153.656 51.708 153.251 51.964C152.867 52.22 152.291 52.4653 151.523 52.7C150.755 52.956 149.827 53.084 148.739 53.084C146.456 53.084 144.568 52.6147 143.075 51.676C141.582 50.7587 140.462 49.5213 139.715 47.964C138.968 46.3853 138.595 44.6253 138.595 42.684C138.595 41.5533 138.787 40.38 139.171 39.164C139.576 37.948 140.195 36.8173 141.027 35.772C141.859 34.7267 142.936 33.884 144.259 33.244C145.582 32.5827 147.16 32.252 148.995 32.252C150.659 32.252 152.11 32.5293 153.347 33.084C154.606 33.6173 155.651 34.3533 156.483 35.292C157.336 36.2307 157.976 37.308 158.403 38.524C158.83 39.7187 159.043 40.9667 159.043 42.268C159.043 43.6333 158.808 44.7853 158.339 45.724C157.891 46.6413 157.304 47.3453 156.579 47.836C155.854 48.3267 155.096 48.572 154.307 48.572C153.752 48.572 153.24 48.4547 152.771 48.22C152.323 47.9853 151.907 47.6333 151.523 47.164C151.48 47.2067 151.352 47.3347 151.139 47.548C150.926 47.74 150.616 47.932 150.211 48.124C149.827 48.316 149.336 48.412 148.739 48.412C147.928 48.412 147.171 48.2413 146.467 47.9C145.763 47.5373 145.187 46.9613 144.739 46.172C144.291 45.3827 144.067 44.348 144.067 43.068C144.067 42.0867 144.206 41.2547 144.483 40.572C144.782 39.8893 145.176 39.3347 145.667 38.908C146.179 38.4813 146.744 38.172 147.363 37.98C148.003 37.7667 148.664 37.66 149.347 37.66C149.966 37.66 150.542 37.756 151.075 37.948C151.63 38.1187 152.088 38.3 152.451 38.492C152.814 38.684 153.027 38.812 153.091 38.876V45.916C153.198 46.0867 153.358 46.236 153.571 46.364C153.806 46.492 154.062 46.556 154.339 46.556C154.659 46.556 154.979 46.428 155.299 46.172C155.64 45.916 155.918 45.4787 156.131 44.86C156.344 44.2413 156.451 43.388 156.451 42.3C156.451 41.3187 156.312 40.3693 156.035 39.452C155.779 38.5133 155.352 37.6707 154.755 36.924C154.179 36.1773 153.411 35.5907 152.451 35.164C151.512 34.716 150.36 34.492 148.995 34.492C147.566 34.492 146.264 34.8227 145.091 35.484C143.939 36.1453 143.022 37.084 142.339 38.3C141.678 39.516 141.347 40.9773 141.347 42.684C141.347 44.2413 141.55 45.5533 141.955 46.62C142.382 47.6653 142.947 48.4973 143.651 49.116C144.355 49.7347 145.144 50.172 146.019 50.428C146.915 50.7053 147.843 50.844 148.803 50.844C149.443 50.844 150.051 50.7693 150.627 50.62C151.203 50.4707 151.672 50.3107 152.035 50.14C152.419 49.9907 152.632 49.9053 152.675 49.884L153.859 51.58ZM150.851 40.06C150.808 40.0387 150.638 39.9747 150.339 39.868C150.04 39.7613 149.699 39.708 149.315 39.708C148.462 39.708 147.8 39.9747 147.331 40.508C146.883 41.0413 146.659 41.9053 146.659 43.1C146.659 44.252 146.894 45.0947 147.363 45.628C147.832 46.14 148.366 46.396 148.963 46.396C149.432 46.396 149.795 46.332 150.051 46.204C150.307 46.0547 150.488 45.916 150.595 45.788C150.723 45.66 150.808 45.5853 150.851 45.564V40.06ZM175.45 47.836C174.575 48.5827 173.669 49.1373 172.73 49.5C171.813 49.8413 170.799 50.012 169.69 50.012C168.175 50.012 166.842 49.7133 165.69 49.116C164.559 48.4973 163.685 47.6333 163.066 46.524C162.447 45.4147 162.138 44.092 162.138 42.556C162.138 41.0627 162.426 39.7613 163.002 38.652C163.599 37.5213 164.431 36.6467 165.498 36.028C166.586 35.4093 167.834 35.1 169.242 35.1C170.586 35.1 171.738 35.388 172.698 35.964C173.658 36.5187 174.405 37.308 174.938 38.332C175.471 39.3347 175.738 40.5293 175.738 41.916C175.738 42.1293 175.727 42.3533 175.706 42.588C175.685 42.8227 175.663 43.0573 175.642 43.292L164.89 43.356C164.954 44.3587 165.21 45.1907 165.658 45.852C166.106 46.492 166.682 46.9613 167.386 47.26C168.09 47.5587 168.837 47.708 169.626 47.708C170.543 47.708 171.386 47.58 172.154 47.324C172.922 47.0467 173.626 46.652 174.266 46.14L175.45 47.836ZM172.954 41.212C172.933 40.0387 172.591 39.1 171.93 38.396C171.269 37.6707 170.383 37.308 169.274 37.308C168.186 37.308 167.226 37.6707 166.394 38.396C165.562 39.1 165.071 40.0387 164.922 41.212H172.954ZM188.251 48.636C186.821 49.5533 185.307 50.012 183.707 50.012C181.872 50.012 180.475 49.6493 179.515 48.924C178.555 48.1773 178.064 47.1 178.043 45.692C178.021 42.8547 179.845 41.436 183.515 41.436H187.483C187.483 40.0493 187.216 39.0253 186.683 38.364C186.149 37.6813 185.371 37.34 184.347 37.34C183.856 37.34 183.376 37.372 182.907 37.436C182.437 37.5 181.989 37.596 181.563 37.724L181.243 39.452L178.939 39.036L179.483 35.996C180.293 35.6973 181.104 35.4733 181.915 35.324C182.725 35.1747 183.525 35.1 184.315 35.1C186.277 35.1 187.76 35.6333 188.763 36.7C189.787 37.7453 190.299 39.292 190.299 41.34V46.844L193.243 47.804L192.507 50.108L188.251 48.636ZM183.611 43.548C182.757 43.548 182.096 43.7293 181.627 44.092C181.157 44.4547 180.923 44.9773 180.923 45.66C180.923 47.068 181.893 47.772 183.835 47.772C185.221 47.772 186.437 47.3987 187.483 46.652V43.58L183.611 43.548ZM203.97 37.756C203.522 37.5853 203.085 37.4573 202.658 37.372C202.253 37.2653 201.741 37.212 201.122 37.212C200.333 37.212 199.618 37.3827 198.978 37.724C198.359 38.044 198.05 38.524 198.05 39.164C198.05 39.7613 198.285 40.2307 198.754 40.572C199.245 40.9133 199.981 41.1373 200.962 41.244L202.466 41.436C204.194 41.6067 205.41 42.044 206.114 42.748C206.839 43.4307 207.202 44.3587 207.202 45.532C207.202 46.4493 206.946 47.2493 206.434 47.932C205.922 48.6147 205.218 49.1373 204.322 49.5C203.447 49.8413 202.434 50.012 201.282 50.012C200.194 50.012 199.159 49.8733 198.178 49.596C197.197 49.34 196.343 48.9987 195.618 48.572L195.042 45.308L197.506 44.764L197.922 46.876C198.413 47.132 198.935 47.3347 199.49 47.484C200.045 47.612 200.599 47.676 201.154 47.676C202.093 47.676 202.903 47.5053 203.586 47.164C204.29 46.8013 204.642 46.2787 204.642 45.596C204.642 44.9987 204.439 44.572 204.034 44.316C203.629 44.0387 202.914 43.836 201.89 43.708L200.354 43.516C198.797 43.324 197.591 42.8653 196.738 42.14C195.906 41.3933 195.49 40.4653 195.49 39.356C195.49 38.4173 195.746 37.628 196.258 36.988C196.791 36.348 197.485 35.868 198.338 35.548C199.213 35.228 200.141 35.068 201.122 35.068C202.125 35.068 203.031 35.1747 203.842 35.388C204.653 35.58 205.421 35.8787 206.146 36.284L206.722 39.324L204.514 39.804L203.97 37.756ZM213.285 56.828C212.944 56.828 212.581 56.796 212.197 56.732C211.813 56.668 211.408 56.5613 210.981 56.412L211.461 54.236C211.76 54.3427 212.048 54.4173 212.325 54.46C212.602 54.524 212.869 54.556 213.125 54.556C213.701 54.556 214.17 54.4493 214.533 54.236C214.917 54.044 215.269 53.6707 215.589 53.116C215.909 52.5827 216.25 51.7933 216.613 50.748L221.221 37.852H219.493L219.525 35.612H226.245V37.852H223.877L218.501 52.252C217.925 53.7667 217.21 54.908 216.357 55.676C215.525 56.444 214.501 56.828 213.285 56.828ZM217.317 51.708L210.821 37.852H208.517V35.612H215.493V37.852H213.701L218.501 48.892L217.317 51.708ZM234.425 50.012C233.572 50.012 232.782 49.8413 232.057 49.5C231.353 49.18 230.788 48.6253 230.361 47.836C229.934 47.0467 229.721 45.9693 229.721 44.604V37.852H227.065V35.612H229.721V32.604L232.473 31.9V35.612H236.441V37.852H232.473V43.324C232.473 44.6893 232.612 45.788 232.889 46.62C233.188 47.4307 233.785 47.836 234.681 47.836C235.321 47.836 236.057 47.6333 236.889 47.228L237.433 49.276C236.964 49.468 236.473 49.6387 235.961 49.788C235.449 49.9373 234.937 50.012 234.425 50.012ZM239.45 35.612H244.954V47.26H247.61V49.5H239.45V47.26H242.106V37.852H239.45V35.612ZM243.194 28.764C243.812 28.764 244.303 28.956 244.666 29.34C245.05 29.7027 245.242 30.1933 245.242 30.812C245.242 31.4307 245.05 31.932 244.666 32.316C244.303 32.6787 243.812 32.86 243.194 32.86C242.575 32.86 242.084 32.6787 241.722 32.316C241.359 31.932 241.178 31.4307 241.178 30.812C241.178 30.1933 241.359 29.7027 241.722 29.34C242.084 28.956 242.575 28.764 243.194 28.764ZM259.719 37.692C259.25 37.5427 258.813 37.436 258.407 37.372C258.002 37.308 257.543 37.276 257.031 37.276C255.645 37.276 254.546 37.724 253.735 38.62C252.925 39.4947 252.519 40.8173 252.519 42.588C252.519 44.252 252.957 45.5213 253.831 46.396C254.727 47.2493 255.794 47.676 257.031 47.676C257.714 47.676 258.397 47.5587 259.079 47.324C259.783 47.0893 260.477 46.748 261.159 46.3L262.343 48.028C261.789 48.4333 261.245 48.7853 260.711 49.084C260.199 49.3827 259.634 49.6067 259.015 49.756C258.397 49.9267 257.65 50.012 256.775 50.012C255.367 50.012 254.119 49.724 253.031 49.148C251.965 48.5507 251.133 47.6973 250.535 46.588C249.938 45.4573 249.639 44.124 249.639 42.588C249.639 40.9453 249.959 39.5693 250.599 38.46C251.239 37.3293 252.114 36.476 253.223 35.9C254.354 35.324 255.634 35.036 257.063 35.036C257.895 35.036 258.685 35.132 259.431 35.324C260.199 35.4947 261.031 35.7187 261.927 35.996L262.471 39.644L260.135 40.156L259.719 37.692ZM264.761 28.476L269.849 30.236V41.372H272.601L274.681 37.852H273.017V35.612H280.025V37.852H277.401L274.713 42.332L277.753 47.26H280.473V49.5H276.153L272.569 43.612H269.849V47.26H271.193V49.5H264.345V47.26H267.033V31.772L263.993 30.716L264.761 28.476ZM294.637 47.836C293.763 48.5827 292.856 49.1373 291.917 49.5C291 49.8413 289.987 50.012 288.877 50.012C287.363 50.012 286.029 49.7133 284.877 49.116C283.747 48.4973 282.872 47.6333 282.253 46.524C281.635 45.4147 281.325 44.092 281.325 42.556C281.325 41.0627 281.613 39.7613 282.189 38.652C282.787 37.5213 283.619 36.6467 284.685 36.028C285.773 35.4093 287.021 35.1 288.429 35.1C289.773 35.1 290.925 35.388 291.885 35.964C292.845 36.5187 293.592 37.308 294.125 38.332C294.659 39.3347 294.925 40.5293 294.925 41.916C294.925 42.1293 294.915 42.3533 294.893 42.588C294.872 42.8227 294.851 43.0573 294.829 43.292L284.077 43.356C284.141 44.3587 284.397 45.1907 284.845 45.852C285.293 46.492 285.869 46.9613 286.573 47.26C287.277 47.5587 288.024 47.708 288.813 47.708C289.731 47.708 290.573 47.58 291.341 47.324C292.109 47.0467 292.813 46.652 293.453 46.14L294.637 47.836ZM292.141 41.212C292.12 40.0387 291.779 39.1 291.117 38.396C290.456 37.6707 289.571 37.308 288.461 37.308C287.373 37.308 286.413 37.6707 285.581 38.396C284.749 39.1 284.259 40.0387 284.109 41.212H292.141ZM304.206 50.012C303.353 50.012 302.563 49.8413 301.838 49.5C301.134 49.18 300.569 48.6253 300.142 47.836C299.715 47.0467 299.502 45.9693 299.502 44.604V37.852H296.846V35.612H299.502V32.604L302.254 31.9V35.612H306.222V37.852H302.254V43.324C302.254 44.6893 302.393 45.788 302.67 46.62C302.969 47.4307 303.566 47.836 304.462 47.836C305.102 47.836 305.838 47.6333 306.67 47.228L307.214 49.276C306.745 49.468 306.254 49.6387 305.742 49.788C305.23 49.9373 304.718 50.012 304.206 50.012ZM311.727 45.724C312.303 45.724 312.804 45.9373 313.231 46.364C313.658 46.7907 313.871 47.3027 313.871 47.9C313.871 48.4547 313.658 48.9453 313.231 49.372C312.804 49.7987 312.303 50.012 311.727 50.012C311.151 50.012 310.65 49.7987 310.223 49.372C309.796 48.9453 309.583 48.4547 309.583 47.9C309.583 47.3027 309.796 46.7907 310.223 46.364C310.65 45.9373 311.151 45.724 311.727 45.724ZM316.606 35.612H322.11V47.26H324.766V49.5H316.606V47.26H319.262V37.852H316.606V35.612ZM320.35 28.764C320.969 28.764 321.459 28.956 321.822 29.34C322.206 29.7027 322.398 30.1933 322.398 30.812C322.398 31.4307 322.206 31.932 321.822 32.316C321.459 32.6787 320.969 32.86 320.35 32.86C319.731 32.86 319.241 32.6787 318.878 32.316C318.515 31.932 318.334 31.4307 318.334 30.812C318.334 30.1933 318.515 29.7027 318.878 29.34C319.241 28.956 319.731 28.764 320.35 28.764ZM342.348 50.108L338.156 48.636C336.876 49.5533 335.478 50.012 333.964 50.012C331.702 50.012 329.942 49.3293 328.684 47.964C327.446 46.5987 326.828 44.7107 326.828 42.3C326.828 40.0387 327.446 38.2787 328.684 37.02C329.942 35.74 331.702 35.1 333.964 35.1C334.497 35.1 335.062 35.1533 335.66 35.26C336.257 35.3667 336.822 35.5267 337.356 35.74V31.868L334.284 30.812L335.052 28.54L340.172 30.268V46.748L343.084 47.772L342.348 50.108ZM333.996 47.708C334.508 47.708 335.062 47.612 335.66 47.42C336.278 47.228 336.844 46.972 337.356 46.652V38.14C336.908 37.9267 336.374 37.756 335.756 37.628C335.137 37.4787 334.55 37.404 333.996 37.404C332.716 37.404 331.681 37.852 330.892 38.748C330.102 39.6227 329.708 40.796 329.708 42.268C329.708 43.9107 330.102 45.2333 330.892 46.236C331.681 47.2173 332.716 47.708 333.996 47.708Z" fill="#362063"/>
<path d="M136.547 53.5H209.673V55.1H136.547V53.5ZM219.553 53.5H343.756V55.1H219.553V53.5Z" fill="#362063"/>
<a href="mailto:hello@easyticket.id">
<rect fill="black" fill-opacity="0" x="58.5469" y="-1.548" width="207.209" height="35.456"/>
</a>
</g>
<defs>
<filter id="filter0_d_1_1183" x="0" y="0" width="367" height="85" filterUnits="userSpaceOnUse" color-interpolation-filters="sRGB">
<feFlood flood-opacity="0" result="BackgroundImageFix"/>
<feColorMatrix in="SourceAlpha" type="matrix" values="0 0 0 0 0 0 0 0 0 0 0 0 0 0 0 0 0 0 127 0" result="hardAlpha"/>
<feOffset dx="3" dy="5"/>
<feComposite in2="hardAlpha" operator="out"/>
<feColorMatrix type="matrix" values="0 0 0 0 0.211765 0 0 0 0 0.12549 0 0 0 0 0.388235 0 0 0 1 0"/>
<feBlend mode="normal" in2="BackgroundImageFix" result="effect1_dropShadow_1_1183"/>
<feBlend mode="normal" in="SourceGraphic" in2="effect1_dropShadow_1_1183" result="shape"/>
</filter>
</defs>
</svg>
