<svg width="115" height="34" viewBox="0 0 115 34" fill="none" xmlns="http://www.w3.org/2000/svg">
<path d="M10 7C10 3.68629 12.6863 1 16 1H108C111.314 1 114 3.68629 114 7V27C114 30.3137 111.314 33 108 33H16C12.6863 33 10 30.3137 10 27V21L2 17L10 13V7Z" fill="url(#paint0_linear_1_2218)" stroke="#362063"/>
<path d="M18.48 13.932H21.132L23.148 19.08L25.14 13.932H27.696V14.76H26.568V20.172H27.696V21H24.84V20.172H25.608V14.76L25.068 16.32L23.604 20.148H22.572L21.036 16.296L20.484 14.76L20.448 20.172H21.24V21H18.432V20.172H19.584L19.596 14.76H18.48V13.932ZM28.5687 15.852H30.5127V20.256H31.5087V21H28.5687V20.256H29.5647V16.596H28.5687V15.852ZM29.9127 13.296C30.1367 13.296 30.3167 13.364 30.4527 13.5C30.5887 13.636 30.6567 13.816 30.6567 14.04C30.6567 14.264 30.5887 14.444 30.4527 14.58C30.3167 14.716 30.1367 14.784 29.9127 14.784C29.6887 14.784 29.5087 14.716 29.3727 14.58C29.2447 14.444 29.1807 14.264 29.1807 14.04C29.1807 13.816 29.2447 13.636 29.3727 13.5C29.5087 13.364 29.6887 13.296 29.9127 13.296ZM34.7453 21.18C34.4573 21.18 34.1813 21.124 33.9173 21.012C33.6613 20.9 33.4533 20.7 33.2933 20.412C33.1333 20.124 33.0533 19.724 33.0533 19.212V16.596H32.0573V15.852H33.0533V14.688L33.9653 14.472V15.852H35.4653V16.596H33.9653V18.684C33.9653 19.22 34.0173 19.652 34.1213 19.98C34.2253 20.308 34.4533 20.472 34.8053 20.472C35.0533 20.472 35.3333 20.4 35.6453 20.256L35.8253 20.928C35.6573 20.992 35.4813 21.048 35.2973 21.096C35.1133 21.152 34.9293 21.18 34.7453 21.18ZM38.3606 16.236C38.6326 16.052 38.9406 15.912 39.2846 15.816C39.6286 15.72 39.9726 15.672 40.3166 15.672C40.6046 15.672 40.7566 15.68 40.7726 15.696L40.9766 16.956L40.1966 17.124L40.0766 16.452C39.8286 16.452 39.5726 16.488 39.3086 16.56C39.0526 16.632 38.8166 16.732 38.6006 16.86V20.256H39.7766V21H36.6566V20.256H37.6646V16.824L36.5126 16.428L36.7646 15.684L38.3606 16.236ZM45.3443 20.652C44.8243 21.004 44.2603 21.18 43.6523 21.18C42.9803 21.18 42.4683 21.044 42.1163 20.772C41.7723 20.5 41.5963 20.104 41.5883 19.584C41.5723 18.536 42.2363 18.012 43.5803 18.012L45.1283 18.024C45.1283 17.488 45.0283 17.092 44.8283 16.836C44.6283 16.572 44.3243 16.44 43.9163 16.44C43.7243 16.44 43.5363 16.452 43.3523 16.476C43.1683 16.5 42.9963 16.536 42.8363 16.584L42.7163 17.244L41.9482 17.1L42.1403 16.008C42.4443 15.896 42.7403 15.812 43.0283 15.756C43.3243 15.7 43.6083 15.672 43.8803 15.672C44.6003 15.672 45.1443 15.868 45.5123 16.26C45.8803 16.644 46.0643 17.216 46.0643 17.976V20.064L47.2043 20.436L46.9643 21.204L45.3443 20.652ZM43.6163 18.768C43.2723 18.768 43.0083 18.836 42.8243 18.972C42.6403 19.108 42.5483 19.308 42.5483 19.572C42.5483 20.132 42.9323 20.412 43.7003 20.412C44.2523 20.412 44.7283 20.26 45.1283 19.956V18.78L43.6163 18.768ZM50.9287 13.932H56.2567L56.8687 15.78L56.0887 16.044L55.6087 14.76H53.0407V16.932H55.2847V17.76H53.0407L53.0287 20.172H55.8487L56.3287 18.888L57.1087 19.152L56.4967 21H50.9167V20.172H52.0687L52.0807 14.76H50.9287V13.932ZM61.7036 20.652C61.1836 21.004 60.6196 21.18 60.0116 21.18C59.3396 21.18 58.8276 21.044 58.4756 20.772C58.1316 20.5 57.9556 20.104 57.9476 19.584C57.9316 18.536 58.5956 18.012 59.9396 18.012L61.4876 18.024C61.4876 17.488 61.3876 17.092 61.1876 16.836C60.9876 16.572 60.6836 16.44 60.2756 16.44C60.0836 16.44 59.8956 16.452 59.7116 16.476C59.5276 16.5 59.3556 16.536 59.1956 16.584L59.0756 17.244L58.3076 17.1L58.4996 16.008C58.8036 15.896 59.0996 15.812 59.3876 15.756C59.6836 15.7 59.9676 15.672 60.2396 15.672C60.9596 15.672 61.5036 15.868 61.8716 16.26C62.2396 16.644 62.4236 17.216 62.4236 17.976V20.064L63.5636 20.436L63.3236 21.204L61.7036 20.652ZM59.9756 18.768C59.6316 18.768 59.3676 18.836 59.1836 18.972C58.9996 19.108 58.9076 19.308 58.9076 19.572C58.9076 20.132 59.2916 20.412 60.0596 20.412C60.6116 20.412 61.0876 20.26 61.4876 19.956V18.78L59.9756 18.768ZM67.6003 16.608C67.4243 16.536 67.2563 16.48 67.0963 16.44C66.9363 16.4 66.7283 16.38 66.4723 16.38C66.1683 16.38 65.8923 16.448 65.6443 16.584C65.4043 16.72 65.2843 16.912 65.2843 17.16C65.2843 17.4 65.3843 17.588 65.5843 17.724C65.7923 17.852 66.0803 17.936 66.4483 17.976L66.9403 18.024C67.5963 18.088 68.0563 18.252 68.3203 18.516C68.5843 18.772 68.7163 19.112 68.7163 19.536C68.7163 19.864 68.6243 20.152 68.4403 20.4C68.2643 20.648 68.0123 20.84 67.6843 20.976C67.3643 21.112 66.9883 21.18 66.5563 21.18C66.1643 21.18 65.7803 21.128 65.4043 21.024C65.0363 20.92 64.7163 20.792 64.4443 20.64L64.2403 19.428L65.0683 19.224L65.2483 20.064C65.4323 20.168 65.6323 20.248 65.8483 20.304C66.0723 20.36 66.2963 20.388 66.5203 20.388C66.8723 20.388 67.1803 20.32 67.4443 20.184C67.7163 20.04 67.8523 19.832 67.8523 19.56C67.8523 19.32 67.7723 19.152 67.6123 19.056C67.4523 18.952 67.1723 18.876 66.7723 18.828L66.2443 18.768C65.6523 18.704 65.2003 18.532 64.8883 18.252C64.5763 17.972 64.4203 17.628 64.4203 17.22C64.4203 16.868 64.5203 16.576 64.7203 16.344C64.9203 16.112 65.1763 15.94 65.4883 15.828C65.8083 15.716 66.1403 15.66 66.4843 15.66C66.8603 15.66 67.1963 15.696 67.4923 15.768C67.7883 15.84 68.0723 15.944 68.3443 16.08L68.5603 17.22L67.8043 17.388L67.6003 16.608ZM71.0467 23.688C70.9267 23.688 70.7987 23.676 70.6627 23.652C70.5347 23.636 70.3987 23.604 70.2547 23.556L70.3987 22.836C70.5027 22.868 70.6027 22.892 70.6987 22.908C70.7947 22.924 70.8867 22.932 70.9747 22.932C71.1987 22.932 71.3827 22.896 71.5267 22.824C71.6707 22.76 71.7987 22.628 71.9107 22.428C72.0307 22.236 72.1547 21.948 72.2827 21.564L73.9867 16.596H73.3267V15.852H75.7267V16.596H74.8627L72.9067 22.08C72.7307 22.592 72.4867 22.988 72.1747 23.268C71.8707 23.548 71.4947 23.688 71.0467 23.688ZM72.5467 21.84L70.0867 16.596H69.2347V15.852H71.7307V16.596H71.0467L72.9187 20.856L72.5467 21.84ZM78.7023 21.18C78.4143 21.18 78.1383 21.124 77.8743 21.012C77.6183 20.9 77.4103 20.7 77.2503 20.412C77.0903 20.124 77.0103 19.724 77.0103 19.212V16.596H76.0143V15.852H77.0103V14.688L77.9223 14.472V15.852H79.4223V16.596H77.9223V18.684C77.9223 19.22 77.9743 19.652 78.0783 19.98C78.1823 20.308 78.4103 20.472 78.7623 20.472C79.0103 20.472 79.2903 20.4 79.6023 20.256L79.7823 20.928C79.6143 20.992 79.4383 21.048 79.2543 21.096C79.0703 21.152 78.8863 21.18 78.7023 21.18ZM80.5297 15.852H82.4737V20.256H83.4697V21H80.5297V20.256H81.5257V16.596H80.5297V15.852ZM81.8737 13.296C82.0977 13.296 82.2777 13.364 82.4137 13.5C82.5497 13.636 82.6177 13.816 82.6177 14.04C82.6177 14.264 82.5497 14.444 82.4137 14.58C82.2777 14.716 82.0977 14.784 81.8737 14.784C81.6497 14.784 81.4697 14.716 81.3337 14.58C81.2057 14.444 81.1417 14.264 81.1417 14.04C81.1417 13.816 81.2057 13.636 81.3337 13.5C81.4697 13.364 81.6497 13.296 81.8737 13.296ZM88.0262 16.572C87.8422 16.508 87.6662 16.464 87.4982 16.44C87.3382 16.416 87.1542 16.404 86.9462 16.404C86.4102 16.404 85.9822 16.572 85.6622 16.908C85.3422 17.244 85.1822 17.748 85.1822 18.42C85.1822 19.076 85.3542 19.568 85.6982 19.896C86.0502 20.224 86.4702 20.388 86.9582 20.388C87.2062 20.388 87.4582 20.348 87.7142 20.268C87.9702 20.188 88.2222 20.064 88.4702 19.896L88.8662 20.484C88.6662 20.628 88.4742 20.752 88.2902 20.856C88.1062 20.96 87.9022 21.04 87.6782 21.096C87.4542 21.152 87.1742 21.18 86.8382 21.18C86.3262 21.18 85.8702 21.072 85.4702 20.856C85.0782 20.632 84.7702 20.312 84.5462 19.896C84.3302 19.48 84.2222 18.988 84.2222 18.42C84.2222 17.82 84.3422 17.316 84.5822 16.908C84.8302 16.492 85.1622 16.18 85.5782 15.972C85.9942 15.756 86.4542 15.648 86.9582 15.648C87.2782 15.648 87.5742 15.684 87.8462 15.756C88.1182 15.82 88.4302 15.904 88.7822 16.008L88.9502 17.304L88.1822 17.472L88.0262 16.572ZM89.7632 13.188L91.5872 13.812V18.012H92.6792L93.5072 16.596H92.8832V15.852H95.4032V16.596H94.3952L93.3992 18.312L94.5632 20.256H95.5952V21H93.9992L92.6432 18.756H91.5872V20.256H92.1272V21H89.6432V20.256H90.6512V14.328L89.5112 13.932L89.7632 13.188ZM100.743 20.388C100.423 20.66 100.095 20.86 99.7586 20.988C99.4306 21.116 99.0546 21.18 98.6306 21.18C98.0706 21.18 97.5826 21.072 97.1666 20.856C96.7506 20.632 96.4266 20.316 96.1946 19.908C95.9706 19.492 95.8586 18.996 95.8586 18.42C95.8586 17.868 95.9666 17.388 96.1826 16.98C96.3986 16.564 96.7026 16.244 97.0946 16.02C97.4946 15.788 97.9546 15.672 98.4746 15.672C98.9626 15.672 99.3786 15.776 99.7226 15.984C100.067 16.192 100.331 16.484 100.515 16.86C100.707 17.228 100.803 17.668 100.803 18.18C100.803 18.252 100.799 18.328 100.791 18.408C100.791 18.48 100.787 18.556 100.779 18.636L96.7826 18.66C96.8066 19.068 96.9026 19.4 97.0706 19.656C97.2466 19.912 97.4666 20.1 97.7306 20.22C98.0026 20.34 98.2906 20.4 98.5946 20.4C98.9466 20.4 99.2626 20.352 99.5426 20.256C99.8226 20.16 100.079 20.016 100.311 19.824L100.743 20.388ZM99.8786 17.904C99.8706 17.456 99.7386 17.096 99.4826 16.824C99.2346 16.544 98.9026 16.404 98.4866 16.404C98.0626 16.404 97.6906 16.544 97.3706 16.824C97.0506 17.096 96.8586 17.46 96.7946 17.916L99.8786 17.904ZM104.249 21.18C103.961 21.18 103.685 21.124 103.421 21.012C103.165 20.9 102.957 20.7 102.797 20.412C102.637 20.124 102.557 19.724 102.557 19.212V16.596H101.561V15.852H102.557V14.688L103.469 14.472V15.852H104.969V16.596H103.469V18.684C103.469 19.22 103.521 19.652 103.625 19.98C103.729 20.308 103.957 20.472 104.309 20.472C104.557 20.472 104.837 20.4 105.149 20.256L105.329 20.928C105.161 20.992 104.985 21.048 104.801 21.096C104.617 21.152 104.433 21.18 104.249 21.18Z" fill="#362063"/>
<defs>
<linearGradient id="paint0_linear_1_2218" x1="60.5" y1="0.999998" x2="60.5" y2="33" gradientUnits="userSpaceOnUse">
<stop stop-color="#F3EDFF"/>
<stop offset="0.5" stop-color="#EADFFF"/>
<stop offset="1" stop-color="#F3EDFF"/>
</linearGradient>
</defs>
</svg>
