<svg width="66" height="20" viewBox="0 0 66 20" fill="none" xmlns="http://www.w3.org/2000/svg">
<path fill-rule="evenodd" clip-rule="evenodd" d="M18.5856 16.8669C17.5978 17.806 16.4694 18.5242 15.2004 19.0217C13.9315 19.5192 12.6156 19.7592 11.2527 19.7418C9.88312 19.7624 8.56019 19.524 7.28395 19.0265C6.00772 18.529 4.87247 17.8091 3.8782 16.8669C1.90668 14.9551 0.920929 12.6261 0.920929 9.87987C0.920929 7.13363 1.90668 4.8046 3.8782 2.8928C4.8712 1.94501 6.00679 1.22082 7.28498 0.720222C8.56316 0.219625 9.88853 -0.020014 11.2611 0.00130642C12.6239 -0.0161305 13.9398 0.22389 15.2088 0.721369C16.4777 1.21885 17.6061 1.9371 18.594 2.87613C20.5679 4.78691 21.5549 7.11593 21.5549 9.8632C21.5549 12.6105 20.5679 14.9395 18.594 16.8503M11.2611 3.21778C9.42604 3.20004 7.86796 3.84814 6.58686 5.1621C5.30575 6.47605 4.69729 8.05003 4.76148 9.88404C4.76148 11.6742 5.39441 13.2023 6.66028 14.4682C7.92616 15.734 9.4542 16.367 11.2444 16.367C13.0346 16.367 14.5627 15.734 15.8285 14.4682C17.0944 13.2023 17.7274 11.6742 17.7274 9.88404C17.7912 8.05664 17.1866 6.48669 15.9135 5.1742C14.6404 3.8617 13.0896 3.20956 11.2611 3.21778ZM42.9258 2.32616L35.0013 20.0001L34.5513 19.9168C32.2848 19.5084 31.8265 18.9418 30.7682 16.642L24.8269 3.70108H22.5937V0.559606H31.0349V3.70108H29.0183L33.793 14.4088L38.4261 3.70108H35.9262V0.559606H42.9258V2.32616ZM62.0913 16.8669C60.0162 18.7833 57.5664 19.7415 54.7418 19.7415C51.9171 19.7415 49.4673 18.7833 47.3922 16.8669C45.4207 14.9551 44.4349 12.6261 44.4349 9.87987C44.4349 7.13363 45.4207 4.8046 47.3922 2.8928C49.4673 0.976395 51.9171 0.0181943 54.7418 0.0181943C57.5664 0.0181943 60.0162 0.976395 62.0913 2.8928C64.0701 4.8015 65.0595 7.13053 65.0595 9.87987C65.0595 12.6292 64.0701 14.9582 62.0913 16.8669ZM54.8001 3.21778C52.9645 3.20013 51.4054 3.84809 50.1231 5.16166C48.8407 6.47522 48.2304 8.04935 48.2922 9.88404C48.2922 11.6742 48.9251 13.2023 50.191 14.4682C51.4568 15.734 52.9849 16.367 54.7751 16.367C56.5653 16.367 58.0933 15.734 59.3592 14.4682C60.6251 13.2023 61.258 11.6742 61.258 9.88404C61.3243 8.05732 60.7216 6.48752 59.4497 5.17464C58.1779 3.86176 56.628 3.20947 54.8001 3.21778Z" fill="white"/>
</svg>
