<svg width="64" height="24" viewBox="0 0 64 24" fill="none" xmlns="http://www.w3.org/2000/svg">
<path d="M20.7502 3.91783H37.0784V13.7141H30.2284L37.0784 19.9834H31.2593L24.5415 13.7141V19.9834H20.7502V10.0246H32.722V7.64077H20.7502V3.91783Z" fill="white"/>
<path d="M38.7739 19.9834H42.7645V3.88527H38.7739V19.9834Z" fill="white"/>
<path d="M6.81713 16.0977V3.91783H3.69121C3.12592 3.91783 2.69355 4.34265 2.69355 4.86444C2.69355 7.73889 2.66032 16.1957 2.66032 19.0038C2.66032 19.5263 3.09268 19.9834 3.62475 19.9834C5.78623 19.9834 12.0046 19.9834 12.9021 19.9834V16.0977L6.81713 16.0977Z" fill="white"/>
<path d="M14.9639 24C15.3302 24 18.1233 24 19.0547 24C19.0547 24 19.0547 16.0652 19.0547 15.9347C17.7243 15.9347 16.3283 15.9347 14.9639 15.9347C14.9639 18.6122 14.9639 21.2897 14.9639 24Z" fill="white"/>
<path d="M8.81233 3.91805C8.81233 3.98385 8.81233 7.93421 8.81233 7.93421C10.6414 7.93421 12.9688 7.93421 14.9639 7.93421C14.9639 10.7105 14.9639 13.9429 14.9639 13.9429C15.8953 13.9429 18.6885 13.9429 19.0547 13.9429V4.89814C19.0547 4.3752 18.6218 3.95038 18.0905 3.91805C16.0954 3.91805 11.3727 3.91805 8.81233 3.91805Z" fill="white"/>
<path d="M8.81233 9.89313C8.81233 11.2322 8.81233 12.5713 8.81233 13.9751C9.14489 13.9751 9.51067 13.9751 9.84323 13.9751C10.7748 13.9751 11.9379 13.9751 12.8693 13.9751C12.8693 13.9751 12.8693 9.95894 12.8693 9.89313C11.5389 9.89313 10.1758 9.89313 8.81233 9.89313ZM11.6723 12.7341C11.2733 12.7341 10.8075 12.7341 10.4413 12.7341C10.3088 12.7341 10.1758 12.7341 10.0095 12.7341C10.0095 12.1788 10.0095 11.6571 10.0095 11.1018C10.5747 11.1018 11.1071 11.1018 11.6723 11.1018C11.6723 11.1341 11.6723 12.7341 11.6723 12.7341Z" fill="white"/>
<path d="M62.3512 15.935V21.9432C62.3512 22.4655 61.8854 22.8901 61.3542 22.8901H55.2355V23.8696H62.3512H62.3851C62.8836 23.8696 63.3153 23.4452 63.3153 22.9227V22.8901V15.935H62.3512Z" fill="white"/>
<path d="M0.997656 7.90176V1.8931C0.997656 1.37131 1.39667 0.978813 1.92874 0.978813H8.04753C8.08076 0.978813 8.08076 0.94649 8.08076 0.94649V0.0322056C8.08076 0.0322056 8.08076 -0.000116825 8.04753 -0.000116825H0.997656C0.43236 -0.000116825 -7.62939e-06 0.424701 -7.62939e-06 0.978813V7.90176C-7.62939e-06 7.93408 0.0332243 7.93408 0.0332243 7.93408H0.964424C0.964424 7.93408 0.997656 7.93408 0.997656 7.90176Z" fill="white"/>
<path d="M60.6217 7.90206V3.91822H44.4936V9.89341V13.9107H55.2355V15.9022H44.4936V19.9185H60.6217V9.92688H49.8809V7.90206H60.6217Z" fill="white"/>
</svg>
