<svg width="55" height="24" viewBox="0 0 55 24" fill="none" xmlns="http://www.w3.org/2000/svg">
<path fill-rule="evenodd" clip-rule="evenodd" d="M2.95052 3.84047H20.5576C21.7275 3.84047 22.6846 4.79764 22.6846 5.9675V18.2925C22.6846 19.4623 21.7275 20.4195 20.5576 20.4195H2.4424C1.27253 20.4195 0.315369 19.4623 0.315369 18.2925V3.07238C0.315369 2.51699 0.776225 2.13885 1.3198 2.06795L17.5561 0C18.1115 0 18.5606 0.44904 18.5606 1.00443V2.72969H1.93428C1.93428 3.45052 2.14698 3.85229 2.95052 3.85229V3.84047ZM12.8294 17.3353C11.3523 17.6189 9.44978 17.1226 8.4099 16.0118C7.93723 15.5155 8.69351 14.7474 9.16618 15.2555C9.86337 16 11.1041 16.3545 12.1204 16.3309C13.4084 16.3072 14.5665 15.1256 13.822 13.8139C12.8058 11.9941 10.3006 12.5022 9.02438 11.0842C7.9845 9.93796 8.4808 8.11817 9.69794 7.31462C10.9742 6.47563 13.1721 6.51108 14.212 7.70458C14.661 8.22452 13.9047 8.9808 13.4557 8.46086C12.6049 7.49187 10.6078 7.62186 9.85156 8.62629C8.76441 10.0561 10.3951 10.8242 11.5295 11.1669C13.0894 11.6396 14.8146 12.5022 15.0982 14.2866C15.3228 15.7282 14.212 17.0635 12.8294 17.3353Z" fill="white"/>
<path fill-rule="evenodd" clip-rule="evenodd" d="M12.8176 17.3473C11.3405 17.6309 9.43794 17.1346 8.39806 16.0238C7.92539 15.5275 8.68167 14.7594 9.15434 15.2675C9.85153 16.012 11.0923 16.3665 12.1085 16.3428C13.3966 16.3192 14.5546 15.1375 13.8102 13.8258C12.7939 12.006 10.2888 12.5142 9.01254 11.0961C7.97266 9.94991 8.46896 8.13012 9.6861 7.32657C10.9623 6.48758 13.1602 6.52303 14.2001 7.71653C14.6492 8.23647 13.8929 8.99275 13.4439 8.47281C12.593 7.50383 10.596 7.63381 9.83972 8.63824C8.75257 10.0681 10.3833 10.8362 11.5177 11.1789C13.0775 11.6515 14.8028 12.5142 15.0982 14.2985C15.3227 15.7402 14.2119 17.0755 12.8294 17.3473H12.8176Z" fill="white"/>
<path fill-rule="evenodd" clip-rule="evenodd" d="M43.1396 3.08413C42.5133 3.08413 41.9461 3.35592 41.5561 3.76951V3.2732C41.5561 2.82416 40.8471 2.82416 40.8471 3.2732V9.08708C40.8471 9.53612 41.5561 9.53612 41.5561 9.08708V6.4992C41.9461 6.9246 42.5133 7.18457 43.1396 7.18457C44.3095 7.18457 45.2548 6.26286 45.2548 5.12844C45.2548 3.99403 44.3095 3.07231 43.1396 3.07231V3.08413ZM43.1396 6.45193C42.3951 6.45193 41.7807 5.86109 41.7807 5.14026C41.7807 4.49033 42.277 3.94676 42.9151 3.84041H42.9269C42.9978 3.82859 43.0569 3.82859 43.1278 3.82859C43.6832 3.82859 44.1558 4.14764 44.3685 4.6085C44.4394 4.77394 44.4867 4.95119 44.4867 5.12844C44.4867 5.84927 43.8841 6.44011 43.1396 6.44011V6.45193ZM37.8811 7.19639C36.7112 7.19639 35.7659 6.27467 35.7659 5.14026C35.7659 4.00584 36.7112 3.08413 37.8811 3.08413C39.051 3.08413 39.9963 4.00584 39.9963 5.14026C39.9963 6.27467 39.051 7.19639 37.8811 7.19639ZM37.8811 3.82859C37.1366 3.82859 36.5222 4.41943 36.5222 5.14026C36.5222 5.86109 37.1248 6.45193 37.8811 6.45193C38.6256 6.45193 39.24 5.86109 39.24 5.14026C39.24 4.41943 38.6374 3.82859 37.8811 3.82859ZM54.921 5.10481C54.9092 4.15946 54.401 3.30865 53.373 3.11958C52.4867 2.95414 51.4468 3.415 51.0687 4.21855C50.6787 5.05754 50.8442 6.21559 51.6123 6.79462C52.4513 7.43273 53.7629 7.23184 54.6256 6.75917C55.0273 6.54646 54.6728 5.9438 54.2592 6.15651C53.7157 6.45193 52.9948 6.59373 52.3922 6.40466C51.9313 6.25104 51.6714 5.8729 51.6005 5.4475H54.5665C54.7555 5.4475 54.921 5.29388 54.921 5.10481ZM51.6241 4.76212C51.6241 4.73849 51.6359 4.71485 51.6477 4.69122C51.8132 4.12401 52.404 3.80496 52.9948 3.78132C53.6684 3.75769 54.0584 4.21855 54.1765 4.76212H51.6359H51.6241ZM50.1706 5.11662C50.1588 4.17128 49.6507 3.32047 48.6226 3.1314C47.7363 2.96596 46.6965 3.42682 46.3183 4.23036C45.9284 5.06936 46.0938 6.22741 46.8619 6.80643C47.7009 7.44454 49.0126 7.24366 49.8752 6.77098C50.277 6.55828 49.9225 5.95562 49.5089 6.16832C48.9653 6.46374 48.2445 6.60555 47.6418 6.41648C47.181 6.26286 46.9328 5.88472 46.8501 5.45931H49.8161C50.0052 5.45931 50.1706 5.30569 50.1706 5.11662ZM46.8737 4.77394C46.8737 4.7503 46.8855 4.72667 46.8974 4.70304C47.0628 4.13583 47.6536 3.81677 48.2445 3.79314C48.918 3.76951 49.308 4.23036 49.4262 4.77394H46.8855H46.8737ZM34.9269 4.45488V6.8537C34.9269 7.30274 34.2179 7.30274 34.2179 6.8537V4.50215C34.1943 4.04129 33.7925 3.81677 33.7807 3.81677C33.2725 3.59225 32.3508 3.6986 31.8073 4.3958V6.86552C31.8073 7.31456 31.0982 7.31456 31.0982 6.86552V0.697127C31.0982 0.248087 31.8073 0.248087 31.8073 0.697127V3.47408C32.6817 2.89506 33.7925 2.95414 34.3124 3.30865C34.3124 3.30865 34.9387 3.65134 34.9269 4.4667V4.45488ZM29.9166 0.968914C29.2194 0.20082 27.7541 0.177186 26.9033 0.720761C26.0879 1.2407 25.757 2.39875 26.4542 3.14321C27.3169 4.06493 28.983 3.73405 29.6566 4.90392C30.1411 5.74292 29.373 6.4992 28.5222 6.52283C27.8486 6.53465 27.0214 6.31013 26.5488 5.82563C26.2297 5.50658 25.7334 5.99107 26.0406 6.31013C26.726 7.03095 28.0022 7.33819 28.9948 7.16094C29.9166 6.9955 30.661 6.13287 30.5074 5.19934C30.3183 4.05311 29.1603 3.49772 28.1204 3.19048C27.3641 2.96596 26.277 2.48147 26.9978 1.55976C27.5059 0.921647 28.8412 0.838929 29.4084 1.4534C29.7157 1.78428 30.212 1.29979 29.9166 0.968914Z" fill="white"/>
<path fill-rule="evenodd" clip-rule="evenodd" d="M48.5162 24.0002H46.2474L48.6699 19.4152L44.6876 11.8997H47.1455L49.8988 17.0991L52.6521 11.8997H54.921L48.5162 24.0002ZM25.9461 20.4197H27.8486V16.9455H30.4128C33.0716 16.9455 35.2223 15.0785 35.2223 12.786C35.2223 10.4935 33.0716 8.62646 30.4128 8.62646H25.9579C25.9579 12.5615 25.9579 16.4847 25.9579 20.4197H25.9461ZM27.8486 15.0548V10.529H30.4128C31.8545 10.529 33.0244 11.5452 33.0244 12.786C33.0244 14.0386 31.8545 15.043 30.4128 15.043H27.8486V15.0548ZM42.3242 11.9824H43.9904V20.3488H42.3242V19.4034C41.5798 20.0415 40.6226 20.4197 39.5709 20.4197C37.2193 20.4197 35.3168 18.5172 35.3168 16.1656C35.3168 13.8141 37.2193 11.9115 39.5709 11.9115C40.6226 11.9115 41.5916 12.2897 42.3242 12.9278V11.9824ZM39.5709 13.7077C40.9298 13.7077 42.0406 14.8067 42.0406 16.1774C42.0406 17.5364 40.9416 18.6471 39.5709 18.6471C38.212 18.6471 37.1012 17.5482 37.1012 16.1774C37.1012 14.8185 38.2001 13.7077 39.5709 13.7077Z" fill="white"/>
</svg>
