<svg width="322" height="85" viewBox="0 0 322 85" fill="none" xmlns="http://www.w3.org/2000/svg">
<g filter="url(#filter0_d_1_1179)">
<rect width="319" height="80" rx="16" fill="#25D366" shape-rendering="crispEdges"/>
<rect x="0.5" y="0.5" width="318" height="79" rx="15.5" stroke="white" shape-rendering="crispEdges"/>
<path d="M38 36C38 36.2652 38.1054 36.5196 38.2929 36.7071C38.4804 36.8946 38.7348 37 39 37C39.2652 37 39.5196 36.8946 39.7071 36.7071C39.8946 36.5196 40 36.2652 40 36V34C40 33.7348 39.8946 33.4804 39.7071 33.2929C39.5196 33.1054 39.2652 33 39 33C38.7348 33 38.4804 33.1054 38.2929 33.2929C38.1054 33.4804 38 33.7348 38 34V36ZM38 36C38 38.6522 39.0536 41.1957 40.9289 43.0711C42.8043 44.9464 45.3478 46 48 46M48 46H50C50.2652 46 50.5196 45.8946 50.7071 45.7071C50.8946 45.5196 51 45.2652 51 45C51 44.7348 50.8946 44.4804 50.7071 44.2929C50.5196 44.1054 50.2652 44 50 44H48C47.7348 44 47.4804 44.1054 47.2929 44.2929C47.1054 44.4804 47 44.7348 47 45C47 45.2652 47.1054 45.5196 47.2929 45.7071C47.4804 45.8946 47.7348 46 48 46ZM26 57.9995L29.3 50.3995C26.7753 46.8156 25.6453 42.4335 26.1221 38.0757C26.5988 33.7178 28.6496 29.6837 31.8894 26.7305C35.1293 23.7773 39.3355 22.1079 43.7188 22.0356C48.102 21.9634 52.361 23.4933 55.6964 26.3382C59.0318 29.1831 61.2143 33.1474 61.8344 37.4872C62.4544 41.827 61.4694 46.2439 59.0642 49.909C56.659 53.5741 52.9989 56.2355 48.7708 57.3937C44.5427 58.5518 40.0373 58.1272 36.1 56.1995L26 57.9995Z" stroke="white" stroke-width="2" stroke-linecap="round" stroke-linejoin="round"/>
<path d="M87.9118 30.14C89.0424 30.14 90.0664 30.3107 90.9838 30.652C91.9224 30.972 92.7331 31.516 93.4158 32.284C94.1198 33.052 94.6638 34.076 95.0478 35.356C95.4318 36.636 95.6238 38.2147 95.6238 40.092C95.6238 41.948 95.4318 43.516 95.0478 44.796C94.6638 46.076 94.1198 47.1 93.4158 47.868C92.7331 48.636 91.9224 49.18 90.9838 49.5C90.0664 49.8413 89.0424 50.012 87.9118 50.012C86.7811 50.012 85.7464 49.8413 84.8078 49.5C83.8691 49.18 83.0584 48.636 82.3758 47.868C81.6931 47.1 81.1598 46.076 80.7758 44.796C80.4131 43.516 80.2318 41.948 80.2318 40.092C80.2318 38.2147 80.4131 36.636 80.7758 35.356C81.1598 34.076 81.6931 33.052 82.3758 32.284C83.0584 31.516 83.8691 30.972 84.8078 30.652C85.7464 30.3107 86.7811 30.14 87.9118 30.14ZM87.9118 32.636C87.2931 32.636 86.6958 32.7427 86.1198 32.956C85.5651 33.148 85.0744 33.5107 84.6478 34.044C84.2424 34.556 83.9118 35.3027 83.6558 36.284C83.4211 37.2653 83.3038 38.5347 83.3038 40.092C83.3038 41.628 83.4211 42.8867 83.6558 43.868C83.9118 44.828 84.2424 45.5747 84.6478 46.108C85.0744 46.6413 85.5651 47.0147 86.1198 47.228C86.6958 47.42 87.2931 47.516 87.9118 47.516C88.5518 47.516 89.1491 47.42 89.7038 47.228C90.2584 47.0147 90.7491 46.6413 91.1758 46.108C91.6024 45.5747 91.9331 44.828 92.1678 43.868C92.4238 42.8867 92.5518 41.628 92.5518 40.092C92.5518 38.5347 92.4238 37.2653 92.1678 36.284C91.9331 35.3027 91.6024 34.556 91.1758 34.044C90.7491 33.5107 90.2584 33.148 89.7038 32.956C89.1491 32.7427 88.5518 32.636 87.9118 32.636ZM105.575 30.14C106.77 30.14 107.847 30.3427 108.807 30.748C109.789 31.1533 110.567 31.7613 111.143 32.572C111.741 33.3613 112.039 34.364 112.039 35.58C112.039 36.156 111.911 36.732 111.655 37.308C111.421 37.884 111.058 38.396 110.567 38.844C110.098 39.2707 109.522 39.58 108.839 39.772C109.586 39.9 110.226 40.188 110.759 40.636C111.293 41.084 111.698 41.628 111.975 42.268C112.274 42.908 112.423 43.58 112.423 44.284C112.423 45.5853 112.103 46.6627 111.463 47.516C110.823 48.3693 109.981 48.9987 108.935 49.404C107.911 49.8093 106.802 50.012 105.607 50.012C104.434 50.012 103.325 49.8093 102.279 49.404C101.234 48.9987 100.391 48.3693 99.7513 47.516C99.1113 46.6627 98.7913 45.5853 98.7913 44.284C98.7913 43.58 98.9299 42.908 99.2073 42.268C99.5059 41.628 99.9219 41.084 100.455 40.636C100.989 40.188 101.629 39.9 102.375 39.772C101.693 39.58 101.106 39.2707 100.615 38.844C100.146 38.396 99.7833 37.884 99.5273 37.308C99.2926 36.732 99.1753 36.156 99.1753 35.58C99.1753 34.364 99.4633 33.3613 100.039 32.572C100.615 31.7613 101.394 31.1533 102.375 30.748C103.357 30.3427 104.423 30.14 105.575 30.14ZM105.607 40.988C104.349 40.988 103.41 41.308 102.791 41.948C102.173 42.588 101.863 43.3667 101.863 44.284C101.863 45.2653 102.205 46.0653 102.887 46.684C103.591 47.3027 104.498 47.612 105.607 47.612C106.717 47.612 107.613 47.3027 108.295 46.684C108.999 46.0653 109.351 45.2653 109.351 44.284C109.351 43.3667 109.042 42.588 108.423 41.948C107.826 41.308 106.887 40.988 105.607 40.988ZM105.607 32.54C104.519 32.54 103.677 32.828 103.079 33.404C102.482 33.98 102.183 34.7053 102.183 35.58C102.183 36.4547 102.482 37.1907 103.079 37.788C103.677 38.3853 104.519 38.684 105.607 38.684C106.695 38.684 107.538 38.3853 108.135 37.788C108.733 37.1907 109.031 36.4547 109.031 35.58C109.031 34.7053 108.733 33.98 108.135 33.404C107.538 32.828 106.695 32.54 105.607 32.54ZM115.858 49.5L115.026 46.908C116.583 45.4787 118.055 44.1987 119.442 43.068C120.85 41.9373 122.066 40.8707 123.09 39.868C123.836 39.164 124.402 38.4813 124.786 37.82C125.191 37.1587 125.404 36.476 125.426 35.772C125.447 34.7267 125.116 33.9373 124.434 33.404C123.751 32.8707 122.898 32.604 121.874 32.604C121.127 32.604 120.348 32.7747 119.538 33.116C118.727 33.436 118.002 33.9053 117.362 34.524L115.57 32.796C116.53 31.8147 117.564 31.1107 118.674 30.684C119.804 30.236 120.946 30.012 122.098 30.012C123.25 30.012 124.306 30.236 125.266 30.684C126.247 31.1107 127.026 31.74 127.602 32.572C128.199 33.3827 128.498 34.3747 128.498 35.548C128.498 36.5507 128.156 37.532 127.474 38.492C126.812 39.452 125.959 40.4227 124.914 41.404C123.954 42.3213 122.898 43.2493 121.746 44.188C120.594 45.1053 119.463 46.044 118.354 47.004H126.514L128.146 44.412L130.194 45.532L127.89 49.5H115.858ZM139.631 30.524H141.423L141.391 47.004H146.319V49.5H133.295V47.004H138.543L138.575 34.748L134.223 38.332L132.623 36.348L139.631 30.524ZM162.133 49.5V47.004H165.621V44.188H155.925L155.893 42.556L162.613 29.564L164.917 30.876L159.253 41.788H165.621V33.692H168.501V41.788L171.349 41.756V44.188H168.501V47.004H171.221V49.5H162.133ZM180.008 49.5V47.004H183.496V44.188H173.8L173.768 42.556L180.488 29.564L182.792 30.876L177.128 41.788H183.496V33.692H186.376V41.788L189.224 41.756V44.188H186.376V47.004H189.096V49.5H180.008ZM199.881 30.14C201.011 30.14 202.035 30.3107 202.953 30.652C203.891 30.972 204.702 31.516 205.385 32.284C206.089 33.052 206.633 34.076 207.017 35.356C207.401 36.636 207.593 38.2147 207.593 40.092C207.593 41.948 207.401 43.516 207.017 44.796C206.633 46.076 206.089 47.1 205.385 47.868C204.702 48.636 203.891 49.18 202.953 49.5C202.035 49.8413 201.011 50.012 199.881 50.012C198.75 50.012 197.715 49.8413 196.777 49.5C195.838 49.18 195.027 48.636 194.345 47.868C193.662 47.1 193.129 46.076 192.745 44.796C192.382 43.516 192.201 41.948 192.201 40.092C192.201 38.2147 192.382 36.636 192.745 35.356C193.129 34.076 193.662 33.052 194.345 32.284C195.027 31.516 195.838 30.972 196.777 30.652C197.715 30.3107 198.75 30.14 199.881 30.14ZM199.881 32.636C199.262 32.636 198.665 32.7427 198.089 32.956C197.534 33.148 197.043 33.5107 196.617 34.044C196.211 34.556 195.881 35.3027 195.625 36.284C195.39 37.2653 195.273 38.5347 195.273 40.092C195.273 41.628 195.39 42.8867 195.625 43.868C195.881 44.828 196.211 45.5747 196.617 46.108C197.043 46.6413 197.534 47.0147 198.089 47.228C198.665 47.42 199.262 47.516 199.881 47.516C200.521 47.516 201.118 47.42 201.673 47.228C202.227 47.0147 202.718 46.6413 203.145 46.108C203.571 45.5747 203.902 44.828 204.137 43.868C204.393 42.8867 204.521 41.628 204.521 40.092C204.521 38.5347 204.393 37.2653 204.137 36.284C203.902 35.3027 203.571 34.556 203.145 34.044C202.718 33.5107 202.227 33.148 201.673 32.956C201.118 32.7427 200.521 32.636 199.881 32.636ZM214.032 37.916C214.63 37.532 215.238 37.2547 215.856 37.084C216.475 36.9133 217.094 36.828 217.712 36.828C218.886 36.828 219.931 37.0627 220.848 37.532C221.787 38.0013 222.534 38.7053 223.088 39.644C223.643 40.5613 223.92 41.692 223.92 43.036C223.92 45.2973 223.28 47.0253 222 48.22C220.742 49.4147 218.96 50.012 216.656 50.012C215.419 50.012 214.224 49.788 213.072 49.34C211.92 48.8707 210.95 48.188 210.16 47.292L212.208 45.66C212.784 46.2787 213.456 46.7587 214.224 47.1C215.014 47.42 215.856 47.58 216.752 47.58C218.139 47.58 219.184 47.2067 219.888 46.46C220.592 45.7133 220.944 44.668 220.944 43.324C220.944 42.4493 220.752 41.7027 220.368 41.084C220.006 40.4653 219.504 40.0067 218.864 39.708C218.246 39.388 217.574 39.228 216.848 39.228C216.166 39.228 215.472 39.3773 214.768 39.676C214.064 39.9747 213.435 40.412 212.88 40.988L211.184 40.22V30.652H222.512V33.18H214.032V37.916ZM248.995 32.252C247.395 34.2573 246.115 36.2947 245.155 38.364C244.195 40.4333 243.491 42.428 243.043 44.348C242.595 46.2467 242.339 47.964 242.275 49.5H239.363C239.512 47.8787 239.8 46.1933 240.227 44.444C240.675 42.6733 241.315 40.8493 242.147 38.972C242.979 37.0947 244.024 35.1533 245.283 33.148H237.155L236.675 35.196L234.179 34.652L234.915 30.652H248.995V32.252ZM257.6 30.524H259.392L259.36 47.004H264.288V49.5H251.264V47.004H256.512L256.544 34.748L252.192 38.332L250.592 36.348L257.6 30.524ZM267.076 49.5L266.244 46.908C267.802 45.4787 269.274 44.1987 270.66 43.068C272.068 41.9373 273.284 40.8707 274.308 39.868C275.055 39.164 275.62 38.4813 276.004 37.82C276.41 37.1587 276.623 36.476 276.644 35.772C276.666 34.7267 276.335 33.9373 275.652 33.404C274.97 32.8707 274.116 32.604 273.092 32.604C272.346 32.604 271.567 32.7747 270.756 33.116C269.946 33.436 269.22 33.9053 268.58 34.524L266.788 32.796C267.748 31.8147 268.783 31.1107 269.892 30.684C271.023 30.236 272.164 30.012 273.316 30.012C274.468 30.012 275.524 30.236 276.484 30.684C277.466 31.1107 278.244 31.74 278.82 32.572C279.418 33.3827 279.716 34.3747 279.716 35.548C279.716 36.5507 279.375 37.532 278.692 38.492C278.031 39.452 277.178 40.4227 276.132 41.404C275.172 42.3213 274.116 43.2493 272.964 44.188C271.812 45.1053 270.682 46.044 269.572 47.004H277.732L279.364 44.412L281.412 45.532L279.108 49.5H267.076ZM287.407 37.916C288.005 37.532 288.613 37.2547 289.231 37.084C289.85 36.9133 290.469 36.828 291.087 36.828C292.261 36.828 293.306 37.0627 294.223 37.532C295.162 38.0013 295.909 38.7053 296.463 39.644C297.018 40.5613 297.295 41.692 297.295 43.036C297.295 45.2973 296.655 47.0253 295.375 48.22C294.117 49.4147 292.335 50.012 290.031 50.012C288.794 50.012 287.599 49.788 286.447 49.34C285.295 48.8707 284.325 48.188 283.535 47.292L285.583 45.66C286.159 46.2787 286.831 46.7587 287.599 47.1C288.389 47.42 289.231 47.58 290.127 47.58C291.514 47.58 292.559 47.2067 293.263 46.46C293.967 45.7133 294.319 44.668 294.319 43.324C294.319 42.4493 294.127 41.7027 293.743 41.084C293.381 40.4653 292.879 40.0067 292.239 39.708C291.621 39.388 290.949 39.228 290.223 39.228C289.541 39.228 288.847 39.3773 288.143 39.676C287.439 39.9747 286.81 40.412 286.255 40.988L284.559 40.22V30.652H295.887V33.18H287.407V37.916Z" fill="white"/>
</g>
<defs>
<filter id="filter0_d_1_1179" x="0" y="0" width="322" height="85" filterUnits="userSpaceOnUse" color-interpolation-filters="sRGB">
<feFlood flood-opacity="0" result="BackgroundImageFix"/>
<feColorMatrix in="SourceAlpha" type="matrix" values="0 0 0 0 0 0 0 0 0 0 0 0 0 0 0 0 0 0 127 0" result="hardAlpha"/>
<feOffset dx="3" dy="5"/>
<feComposite in2="hardAlpha" operator="out"/>
<feColorMatrix type="matrix" values="0 0 0 0 1 0 0 0 0 1 0 0 0 0 1 0 0 0 1 0"/>
<feBlend mode="normal" in2="BackgroundImageFix" result="effect1_dropShadow_1_1179"/>
<feBlend mode="normal" in="SourceGraphic" in2="effect1_dropShadow_1_1179" result="shape"/>
</filter>
</defs>
</svg>
